<svg width="48" height="49" viewBox="0 0 48 49" fill="none" xmlns="http://www.w3.org/2000/svg">
<g id="Frame" clip-path="url(#clip0_5236_5130)">
<g id="Group">
<g id="Clip path group">
<mask id="mask0_5236_5130" style="mask-type:luminance" maskUnits="userSpaceOnUse" x="0" y="0" width="48" height="49">
<g id="f465idr">
<path id="Vector" d="M0 0.482544H48V48.4825H0V0.482544Z" fill="white"/>
</g>
</mask>
<g mask="url(#mask0_5236_5130)">
<g id="Group_2">
<path id="Vector_2" d="M23.9985 45.4795C37.9995 45.4795 44.997 36.0775 44.997 24.4795C44.997 12.8845 37.9995 3.48254 23.997 3.48254C9.9975 3.48254 3 12.8845 3 24.481C3 36.0775 9.996 45.4795 23.9985 45.4795Z" fill="url(#paint0_radial_5236_5130)"/>
<path id="Vector_3" d="M23.9985 45.4795C37.9995 45.4795 44.997 36.0775 44.997 24.4795C44.997 12.8845 37.9995 3.48254 23.997 3.48254C9.9975 3.48254 3 12.8845 3 24.481C3 36.0775 9.996 45.4795 23.9985 45.4795Z" fill="url(#paint1_radial_5236_5130)"/>
<path id="Vector_4" d="M23.9985 45.4795C37.9995 45.4795 44.997 36.0775 44.997 24.4795C44.997 12.8845 37.9995 3.48254 23.997 3.48254C9.9975 3.48254 3 12.8845 3 24.481C3 36.0775 9.996 45.4795 23.9985 45.4795Z" fill="url(#paint2_radial_5236_5130)"/>
<path id="Vector_5" d="M23.9985 45.4795C37.9995 45.4795 44.997 36.0775 44.997 24.4795C44.997 12.8845 37.9995 3.48254 23.997 3.48254C9.9975 3.48254 3 12.8845 3 24.481C3 36.0775 9.996 45.4795 23.9985 45.4795Z" fill="url(#paint3_radial_5236_5130)" fill-opacity="0.6"/>
<path id="Vector_6" d="M23.9985 45.4795C37.9995 45.4795 44.997 36.0775 44.997 24.4795C44.997 12.8845 37.9995 3.48254 23.997 3.48254C9.9975 3.48254 3 12.8845 3 24.481C3 36.0775 9.996 45.4795 23.9985 45.4795Z" fill="url(#paint4_radial_5236_5130)"/>
<path id="Vector_7" d="M23.9985 45.4795C37.9995 45.4795 44.997 36.0775 44.997 24.4795C44.997 12.8845 37.9995 3.48254 23.997 3.48254C9.9975 3.48254 3 12.8845 3 24.481C3 36.0775 9.996 45.4795 23.9985 45.4795Z" fill="url(#paint5_radial_5236_5130)"/>
<path id="Vector_8" d="M23.9985 45.4795C37.9995 45.4795 44.997 36.0775 44.997 24.4795C44.997 12.8845 37.9995 3.48254 23.997 3.48254C9.9975 3.48254 3 12.8845 3 24.481C3 36.0775 9.996 45.4795 23.9985 45.4795Z" fill="url(#paint6_radial_5236_5130)"/>
<path id="Vector_9" d="M23.9985 45.4795C37.9995 45.4795 44.997 36.0775 44.997 24.4795C44.997 12.8845 37.9995 3.48254 23.997 3.48254C9.9975 3.48254 3 12.8845 3 24.481C3 36.0775 9.996 45.4795 23.9985 45.4795Z" fill="url(#paint7_radial_5236_5130)"/>
<g id="Group_3" filter="url(#filter0_f_5236_5130)">
<path id="Vector_10" d="M14.1711 27.9745C13.9948 28.0626 13.8029 28.1151 13.6063 28.1289C13.4098 28.1428 13.2124 28.1178 13.0254 28.0554C12.8385 27.993 12.6657 27.8944 12.5169 27.7653C12.3681 27.6361 12.2462 27.4788 12.1581 27.3025C12.0701 27.1262 12.0176 26.9343 12.0037 26.7377C11.9898 26.5412 12.0148 26.3438 12.0772 26.1569C12.1396 25.9699 12.2382 25.7971 12.3674 25.6483C12.4966 25.4995 12.6538 25.3776 12.8301 25.2895L16.1391 23.635H21.0006C21.0002 23.9133 20.9224 24.1859 20.7759 24.4225C20.6294 24.659 20.42 24.8502 20.1711 24.9745L14.1711 27.9745Z" fill="url(#paint8_radial_5236_5130)" fill-opacity="0.6"/>
<path id="Vector_11" d="M14.1711 19.297C13.9948 19.209 13.8029 19.1565 13.6063 19.1426C13.4098 19.1288 13.2124 19.1537 13.0254 19.2161C12.8385 19.2785 12.6657 19.3771 12.5169 19.5063C12.3681 19.6355 12.2462 19.7927 12.1581 19.969C12.0701 20.1453 12.0176 20.3373 12.0037 20.5338C11.9898 20.7304 12.0148 20.9278 12.0772 21.1147C12.1396 21.3016 12.2382 21.4744 12.3674 21.6233C12.4966 21.7721 12.6538 21.894 12.8301 21.982L16.1391 23.635H21.0006C20.9999 23.3571 20.922 23.0847 20.7755 22.8485C20.629 22.6122 20.4198 22.4213 20.1711 22.297L14.1711 19.297Z" fill="url(#paint9_radial_5236_5130)" fill-opacity="0.6"/>
</g>
<path id="Vector_12" d="M14.1692 27.3175C13.9928 27.4074 13.8004 27.4615 13.603 27.4766C13.4056 27.4918 13.2072 27.4677 13.0192 27.4058C12.8311 27.3439 12.6572 27.2453 12.5074 27.1159C12.3577 26.9864 12.235 26.8286 12.1465 26.6515C12.058 26.4745 12.0054 26.2816 11.9918 26.0841C11.9782 25.8866 12.0038 25.6884 12.0672 25.5008C12.1306 25.3133 12.2305 25.1401 12.3611 24.9914C12.4917 24.8426 12.6505 24.7212 12.8282 24.634L16.1372 22.9795H20.9987C20.998 23.2575 20.9201 23.5298 20.7736 23.7661C20.6272 24.0024 20.4179 24.1933 20.1692 24.3175L14.1692 27.3175Z" fill="url(#paint10_linear_5236_5130)"/>
<path id="Vector_13" d="M14.1692 18.6415C13.9928 18.5517 13.8004 18.4976 13.603 18.4825C13.4056 18.4673 13.2072 18.4914 13.0192 18.5533C12.8311 18.6152 12.6572 18.7137 12.5074 18.8432C12.3577 18.9726 12.235 19.1305 12.1465 19.3076C12.058 19.4846 12.0054 19.6775 11.9918 19.875C11.9782 20.0725 12.0038 20.2707 12.0672 20.4583C12.1306 20.6458 12.2305 20.819 12.3611 20.9677C12.4917 21.1165 12.6505 21.2379 12.8282 21.3251L16.1372 22.9796H20.9987C20.998 22.7016 20.9201 22.4292 20.7736 22.193C20.6272 21.9567 20.4179 21.7658 20.1692 21.6416L14.1692 18.6415Z" fill="url(#paint11_linear_5236_5130)"/>
<g id="Group_4" filter="url(#filter1_f_5236_5130)">
<path id="Vector_14" d="M32.9374 27.9745C33.1137 28.0627 33.3056 28.1153 33.5022 28.1292C33.6988 28.1432 33.8963 28.1183 34.0833 28.056C34.2703 27.9936 34.4431 27.8951 34.5921 27.7659C34.741 27.6368 34.863 27.4796 34.9511 27.3033C35.0393 27.127 35.0918 26.9351 35.1058 26.7384C35.1198 26.5418 35.0949 26.3444 35.0326 26.1574C34.9702 25.9704 34.8717 25.7975 34.7425 25.6486C34.6134 25.4997 34.4562 25.3777 34.2799 25.2895L30.9694 23.635H26.1094C26.1097 23.9131 26.1872 24.1856 26.3335 24.4222C26.4797 24.6587 26.6888 24.85 26.9374 24.9745L32.9374 27.9745Z" fill="url(#paint12_radial_5236_5130)"/>
<path id="Vector_15" d="M32.9374 19.297C33.1137 19.2089 33.3056 19.1563 33.5022 19.1424C33.6988 19.1284 33.8963 19.1533 34.0833 19.2156C34.2703 19.2779 34.4431 19.3765 34.5921 19.5056C34.741 19.6348 34.863 19.792 34.9511 19.9683C35.0393 20.1446 35.0918 20.3365 35.1058 20.5331C35.1198 20.7298 35.0949 20.9272 35.0326 21.1142C34.9702 21.3012 34.8717 21.4741 34.7425 21.623C34.6134 21.7719 34.4562 21.8939 34.2799 21.982L30.9694 23.635H26.1094C26.1099 23.3572 26.1877 23.085 26.3339 22.8488C26.4801 22.6125 26.689 22.4215 26.9374 22.297L32.9374 19.297Z" fill="url(#paint13_radial_5236_5130)"/>
</g>
<path id="Vector_16" d="M33.8046 27.3175C33.9808 27.4057 34.1726 27.4583 34.3691 27.4723C34.5656 27.4863 34.763 27.4615 34.9499 27.3992C35.1369 27.3369 35.3097 27.2385 35.4586 27.1094C35.6074 26.9804 35.7294 26.8232 35.8176 26.647C35.9057 26.4708 35.9583 26.279 35.9723 26.0825C35.9863 25.886 35.9615 25.6886 35.8992 25.5017C35.837 25.3148 35.7385 25.1419 35.6094 24.9931C35.4804 24.8442 35.3233 24.7222 35.1471 24.634L31.8366 22.9795H26.9766C26.9771 23.2574 27.0548 23.5296 27.201 23.7658C27.3472 24.0021 27.5562 24.1931 27.8046 24.3175L33.8046 27.3175Z" fill="url(#paint14_linear_5236_5130)"/>
<path id="Vector_17" d="M33.8046 18.6415C34.1604 18.4635 34.5724 18.4341 34.9499 18.5599C35.3274 18.6856 35.6395 18.9562 35.8176 19.312C35.9956 19.6679 36.025 20.0799 35.8992 20.4574C35.7735 20.8349 35.5029 21.147 35.1471 21.325L31.8366 22.9795H26.9766C26.9771 22.7017 27.0548 22.4295 27.201 22.1933C27.3472 21.957 27.5562 21.766 27.8046 21.6415L33.8046 18.6415Z" fill="url(#paint15_linear_5236_5130)"/>
<path id="Vector_18" d="M31.5 30.4825H16.5C14.0147 30.4825 12 32.4973 12 34.9825V37.9825C12 40.4678 14.0147 42.4825 16.5 42.4825H31.5C33.9853 42.4825 36 40.4678 36 37.9825V34.9825C36 32.4973 33.9853 30.4825 31.5 30.4825Z" fill="url(#paint16_radial_5236_5130)"/>
<g id="Group_5" filter="url(#filter2_i_5236_5130)">
<path id="Vector_19" d="M40.53 42.5275C35.685 42.5275 31.74 39.1975 31.515 35.2225L31.5 30.4825H16.5L16.515 34.8625C16.515 39.0025 12.465 42.5275 7.47 42.5275C5.805 42.5275 4.5 43.8175 4.5 45.4825H43.5C43.5 43.9825 42.18 42.5275 40.53 42.5275Z" fill="url(#paint17_linear_5236_5130)"/>
</g>
<path id="Vector_20" d="M8.25 40.9825C8.84674 40.9825 9.41903 40.7455 9.84099 40.3235C10.2629 39.9016 10.5 39.3293 10.5 38.7325C10.5 38.1358 10.2629 37.5635 9.84099 37.1416C9.41903 36.7196 8.84674 36.4825 8.25 36.4825C7.65326 36.4825 7.08097 36.7196 6.65901 37.1416C6.23705 37.5635 6 38.1358 6 38.7325C6 39.3293 6.23705 39.9016 6.65901 40.3235C7.08097 40.7455 7.65326 40.9825 8.25 40.9825Z" fill="url(#paint18_radial_5236_5130)"/>
<path id="Vector_21" d="M43.125 40.2325C43.4234 40.2325 43.7095 40.114 43.9205 39.903C44.1315 39.6921 44.25 39.4059 44.25 39.1075C44.25 38.8092 44.1315 38.523 43.9205 38.312C43.7095 38.1011 43.4234 37.9825 43.125 37.9825C42.8266 37.9825 42.5405 38.1011 42.3295 38.312C42.1185 38.523 42 38.8092 42 39.1075C42 39.4059 42.1185 39.6921 42.3295 39.903C42.5405 40.114 42.8266 40.2325 43.125 40.2325Z" fill="url(#paint19_radial_5236_5130)"/>
<path id="Vector_22" d="M39.75 36.4825C40.3467 36.4825 40.919 36.2455 41.341 35.8235C41.7629 35.4016 42 34.8293 42 34.2325C42 33.6358 41.7629 33.0635 41.341 32.6416C40.919 32.2196 40.3467 31.9825 39.75 31.9825C39.1533 31.9825 38.581 32.2196 38.159 32.6416C37.7371 33.0635 37.5 33.6358 37.5 34.2325C37.5 34.8293 37.7371 35.4016 38.159 35.8235C38.581 36.2455 39.1533 36.4825 39.75 36.4825Z" fill="url(#paint20_radial_5236_5130)"/>
<path id="Vector_23" fill-rule="evenodd" clip-rule="evenodd" d="M39.5595 42.4825C39.8775 42.5125 40.2015 42.5275 40.53 42.5275C42.18 42.5275 43.5 43.9825 43.5 45.4825H24V42.4825H39.5595Z" fill="url(#paint21_radial_5236_5130)"/>
<path id="Vector_24" fill-rule="evenodd" clip-rule="evenodd" d="M32.3049 37.9825C31.8428 37.1314 31.573 36.1893 31.5144 35.2225L31.4994 30.4825H16.4994L16.5144 34.8625C16.5144 35.965 16.2279 37.0225 15.7119 37.9825H32.3049Z" fill="url(#paint22_radial_5236_5130)"/>
<path id="Vector_25" d="M28.5 39.4825C30.1569 39.4825 31.5 37.8036 31.5 35.7325C31.5 33.6615 30.1569 31.9825 28.5 31.9825C26.8431 31.9825 25.5 33.6615 25.5 35.7325C25.5 37.8036 26.8431 39.4825 28.5 39.4825Z" fill="url(#paint23_radial_5236_5130)"/>
</g>
</g>
</g>
</g>
</g>
<defs>
<filter id="filter0_f_5236_5130" x="11.25" y="18.3889" width="10.5006" height="10.4938" filterUnits="userSpaceOnUse" color-interpolation-filters="sRGB">
<feFlood flood-opacity="0" result="BackgroundImageFix"/>
<feBlend mode="normal" in="SourceGraphic" in2="BackgroundImageFix" result="shape"/>
<feGaussianBlur stdDeviation="0.375" result="effect1_foregroundBlur_5236_5130"/>
</filter>
<filter id="filter1_f_5236_5130" x="25.3594" y="18.3886" width="10.5002" height="10.4944" filterUnits="userSpaceOnUse" color-interpolation-filters="sRGB">
<feFlood flood-opacity="0" result="BackgroundImageFix"/>
<feBlend mode="normal" in="SourceGraphic" in2="BackgroundImageFix" result="shape"/>
<feGaussianBlur stdDeviation="0.375" result="effect1_foregroundBlur_5236_5130"/>
</filter>
<filter id="filter2_i_5236_5130" x="4.5" y="30.4825" width="40.5" height="16.5" filterUnits="userSpaceOnUse" color-interpolation-filters="sRGB">
<feFlood flood-opacity="0" result="BackgroundImageFix"/>
<feBlend mode="normal" in="SourceGraphic" in2="BackgroundImageFix" result="shape"/>
<feColorMatrix in="SourceAlpha" type="matrix" values="0 0 0 0 0 0 0 0 0 0 0 0 0 0 0 0 0 0 127 0" result="hardAlpha"/>
<feOffset dx="1.5" dy="1.5"/>
<feGaussianBlur stdDeviation="1.5"/>
<feComposite in2="hardAlpha" operator="arithmetic" k2="-1" k3="1"/>
<feColorMatrix type="matrix" values="0 0 0 0 0 0 0 0 0 0 0 0 0 0 0 0 0 0 0.16 0"/>
<feBlend mode="normal" in2="shape" result="effect1_innerShadow_5236_5130"/>
</filter>
<radialGradient id="paint0_radial_5236_5130" cx="0" cy="0" r="1" gradientUnits="userSpaceOnUse" gradientTransform="translate(38.2503 13.9819) rotate(132.839) scale(56.2549)">
<stop stop-color="#FFF478"/>
<stop offset="0.475" stop-color="#FFB02E"/>
<stop offset="1" stop-color="#F70A8D"/>
</radialGradient>
<radialGradient id="paint1_radial_5236_5130" cx="0" cy="0" r="1" gradientUnits="userSpaceOnUse" gradientTransform="translate(38.2482 13.9835) rotate(131.878) scale(58.423)">
<stop stop-color="#FFF478"/>
<stop offset="0.475" stop-color="#FFB02E"/>
<stop offset="1" stop-color="#F70A8D"/>
</radialGradient>
<radialGradient id="paint2_radial_5236_5130" cx="0" cy="0" r="1" gradientUnits="userSpaceOnUse" gradientTransform="translate(23.999 19.2321) rotate(101.31) scale(26.7699 34.2871)">
<stop offset="0.788" stop-color="#F59639" stop-opacity="0"/>
<stop offset="0.973" stop-color="#FF7DCE"/>
</radialGradient>
<radialGradient id="paint3_radial_5236_5130" cx="0" cy="0" r="1" gradientUnits="userSpaceOnUse" gradientTransform="translate(27 21.4825) rotate(135) scale(61.5183)">
<stop offset="0.315" stop-opacity="0"/>
<stop offset="1"/>
</radialGradient>
<radialGradient id="paint4_radial_5236_5130" cx="0" cy="0" r="1" gradientUnits="userSpaceOnUse" gradientTransform="translate(23.9999 25.9837) rotate(77.692) scale(42.2203)">
<stop offset="0.508" stop-color="#7D6133" stop-opacity="0"/>
<stop offset="1" stop-color="#715B32"/>
</radialGradient>
<radialGradient id="paint5_radial_5236_5130" cx="0" cy="0" r="1" gradientUnits="userSpaceOnUse" gradientTransform="translate(24.75 25.2325) rotate(55.713) scale(19.9702 14.4755)">
<stop stop-color="#FFB849"/>
<stop offset="1" stop-color="#FFB847" stop-opacity="0"/>
</radialGradient>
<radialGradient id="paint6_radial_5236_5130" cx="0" cy="0" r="1" gradientUnits="userSpaceOnUse" gradientTransform="translate(30.75 27.4825) rotate(9.86582) scale(17.5089)">
<stop stop-color="#FFA64B"/>
<stop offset="0.9" stop-color="#FFAE46" stop-opacity="0"/>
</radialGradient>
<radialGradient id="paint7_radial_5236_5130" cx="0" cy="0" r="1" gradientUnits="userSpaceOnUse" gradientTransform="translate(26.2501 22.983) rotate(43.971) scale(88.5793)">
<stop offset="0.185" stop-opacity="0"/>
<stop offset="1" stop-opacity="0.4"/>
</radialGradient>
<radialGradient id="paint8_radial_5236_5130" cx="0" cy="0" r="1" gradientUnits="userSpaceOnUse" gradientTransform="translate(14.6721 19.1395) rotate(110.225) scale(11.3898 14.8864)">
<stop stop-color="#9F5E0F"/>
<stop offset="0.889" stop-color="#9F5E0F" stop-opacity="0"/>
</radialGradient>
<radialGradient id="paint9_radial_5236_5130" cx="0" cy="0" r="1" gradientUnits="userSpaceOnUse" gradientTransform="translate(14.6721 19.1395) rotate(110.225) scale(11.3898 14.8864)">
<stop stop-color="#9F5E0F"/>
<stop offset="0.889" stop-color="#9F5E0F" stop-opacity="0"/>
</radialGradient>
<linearGradient id="paint10_linear_5236_5130" x1="15.8657" y1="28.5805" x2="11.9987" y2="20.566" gradientUnits="userSpaceOnUse">
<stop offset="0.25" stop-color="#482641"/>
<stop offset="0.406" stop-color="#503A4A"/>
<stop offset="0.511" stop-color="#482641"/>
</linearGradient>
<linearGradient id="paint11_linear_5236_5130" x1="13.2887" y1="23.1911" x2="16.8737" y2="16.159" gradientUnits="userSpaceOnUse">
<stop offset="0.25" stop-color="#482641"/>
<stop offset="0.406" stop-color="#503A4A"/>
<stop offset="0.511" stop-color="#482641"/>
</linearGradient>
<radialGradient id="paint12_radial_5236_5130" cx="0" cy="0" r="1" gradientUnits="userSpaceOnUse" gradientTransform="translate(40.241 29.6375) rotate(-135.995) scale(20.0396 26.1917)">
<stop stop-color="#E9830A"/>
<stop offset="0.802" stop-color="#F08B13" stop-opacity="0"/>
</radialGradient>
<radialGradient id="paint13_radial_5236_5130" cx="0" cy="0" r="1" gradientUnits="userSpaceOnUse" gradientTransform="translate(40.241 29.6375) rotate(-135.995) scale(20.0396 26.1917)">
<stop stop-color="#E9830A"/>
<stop offset="0.802" stop-color="#F08B13" stop-opacity="0"/>
</radialGradient>
<linearGradient id="paint14_linear_5236_5130" x1="32.1081" y1="28.5805" x2="35.9766" y2="20.566" gradientUnits="userSpaceOnUse">
<stop offset="0.25" stop-color="#482641"/>
<stop offset="0.406" stop-color="#503A4A"/>
<stop offset="0.511" stop-color="#482641"/>
</linearGradient>
<linearGradient id="paint15_linear_5236_5130" x1="34.6866" y1="23.191" x2="31.1001" y2="16.159" gradientUnits="userSpaceOnUse">
<stop offset="0.25" stop-color="#482641"/>
<stop offset="0.406" stop-color="#503A4A"/>
<stop offset="0.511" stop-color="#482641"/>
</linearGradient>
<radialGradient id="paint16_radial_5236_5130" cx="0" cy="0" r="1" gradientUnits="userSpaceOnUse" gradientTransform="translate(24 45.1495) rotate(-90) scale(14.6667 29.3334)">
<stop stop-color="#F70A8D"/>
<stop offset="1" stop-color="#89029C"/>
</radialGradient>
<linearGradient id="paint17_linear_5236_5130" x1="23.9985" y1="29.7325" x2="23.9985" y2="45.4825" gradientUnits="userSpaceOnUse">
<stop offset="0.618" stop-color="#3DD585"/>
<stop offset="0.756" stop-color="#4DC172"/>
<stop offset="0.81" stop-color="#42D681"/>
<stop offset="0.917" stop-color="#42D681"/>
<stop offset="0.978" stop-color="#54CCB0"/>
</linearGradient>
<radialGradient id="paint18_radial_5236_5130" cx="0" cy="0" r="1" gradientUnits="userSpaceOnUse" gradientTransform="translate(9 37.9825) rotate(135) scale(3.18198)">
<stop stop-color="#6EF3AE"/>
<stop offset="1" stop-color="#4F9C92"/>
</radialGradient>
<radialGradient id="paint19_radial_5236_5130" cx="0" cy="0" r="1" gradientUnits="userSpaceOnUse" gradientTransform="translate(43.5 38.7325) rotate(135) scale(1.59099)">
<stop stop-color="#6EF3AE"/>
<stop offset="1" stop-color="#4F9C92"/>
</radialGradient>
<radialGradient id="paint20_radial_5236_5130" cx="0" cy="0" r="1" gradientUnits="userSpaceOnUse" gradientTransform="translate(40.5 33.4825) rotate(135) scale(3.18198)">
<stop stop-color="#6EF3AE"/>
<stop offset="1" stop-color="#4F9C92"/>
</radialGradient>
<radialGradient id="paint21_radial_5236_5130" cx="0" cy="0" r="1" gradientUnits="userSpaceOnUse" gradientTransform="translate(34.5 44.7325) rotate(90) scale(0.75 10.9449)">
<stop stop-color="#71ECB1"/>
<stop offset="1" stop-color="#72ECB2" stop-opacity="0"/>
</radialGradient>
<radialGradient id="paint22_radial_5236_5130" cx="0" cy="0" r="1" gradientUnits="userSpaceOnUse" gradientTransform="translate(23.9994 42.4825) rotate(-90) scale(16.5 16.5)">
<stop offset="0.577" stop-color="#305E5E" stop-opacity="0"/>
<stop offset="1" stop-color="#2C6664"/>
</radialGradient>
<radialGradient id="paint23_radial_5236_5130" cx="0" cy="0" r="1" gradientUnits="userSpaceOnUse" gradientTransform="translate(28.731 35.7325) rotate(90) scale(3.75 3)">
<stop stop-color="#6DE6A5"/>
<stop offset="1" stop-color="#62DB9A" stop-opacity="0"/>
</radialGradient>
<clipPath id="clip0_5236_5130">
<rect width="48" height="48" fill="white" transform="translate(0 0.482544)"/>
</clipPath>
</defs>
</svg>
