<svg width="400" height="260" viewBox="0 0 400 260" fill="none" xmlns="http://www.w3.org/2000/svg">
<path d="M40.963 237.057H88.7676V240.936H40.963V237.057Z" fill="#E7EBF2"/>
<path d="M43.9178 228.366C44.3199 227.131 45.4714 226.295 46.7704 226.295H83.0853C84.3844 226.295 85.5358 227.131 85.9379 228.366L88.7676 237.057H41.0881L43.9178 228.366Z" fill="#E7EBF2"/>
<path d="M26.1952 72.1187V86.7604H163.102L149.836 73.3701L26.1952 72.1187Z" stroke="#E7EBF2" stroke-width="2" stroke-miterlimit="10" stroke-linejoin="round"/>
<path d="M103.908 86.7603V73.37L119.176 86.7603V73.37L134.569 86.7603V73.37L149.836 86.7603V73.8706V73.37" stroke="#E7EBF2" stroke-width="2" stroke-miterlimit="10" stroke-linejoin="round"/>
<path d="M42.5898 86.7603V72.3689" stroke="#E7EBF2" stroke-width="2" stroke-miterlimit="10" stroke-linejoin="round"/>
<path d="M88.5156 73.37V86.7603L73.2482 73.37" stroke="#E7EBF2" stroke-width="2" stroke-miterlimit="10" stroke-linejoin="round"/>
<path d="M73.248 73.37V86.7603" stroke="#E7EBF2" stroke-width="2" stroke-miterlimit="10" stroke-linejoin="round"/>
<path d="M56.7293 220.037H73.123V58.478L64.8636 50.8442L56.7293 58.478V220.037Z" stroke="#E7EBF2" stroke-width="2" stroke-miterlimit="10" stroke-linejoin="round"/>
<path d="M73.123 59.354H56.7293" stroke="#E7EBF2" stroke-width="2" stroke-miterlimit="10"/>
<path d="M73.123 100.651H56.7293" stroke="#E7EBF2" stroke-width="2" stroke-miterlimit="10" stroke-linejoin="round"/>
<path d="M73.123 113.916H56.7293" stroke="#E7EBF2" stroke-width="2" stroke-miterlimit="10"/>
<path d="M73.123 127.057H56.7293" stroke="#E7EBF2" stroke-width="2" stroke-miterlimit="10"/>
<path d="M73.123 140.322H56.7293" stroke="#E7EBF2" stroke-width="2" stroke-miterlimit="10"/>
<path d="M73.123 153.587H56.7293" stroke="#E7EBF2" stroke-width="2" stroke-miterlimit="10"/>
<path d="M73.123 166.852H56.7293" stroke="#E7EBF2" stroke-width="2" stroke-miterlimit="10"/>
<path d="M73.123 179.992H56.7293" stroke="#E7EBF2" stroke-width="2" stroke-miterlimit="10"/>
<path d="M73.123 193.257H56.7293" stroke="#E7EBF2" stroke-width="2" stroke-miterlimit="10"/>
<path d="M73.123 206.522H56.7293" stroke="#E7EBF2" stroke-width="2" stroke-miterlimit="10"/>
<path d="M137.697 73.2448L64.8641 50.8442L30.1995 72.2437" stroke="#E7EBF2" stroke-width="2" stroke-miterlimit="10" stroke-linejoin="round"/>
<path d="M73.248 86.76L56.7292 72.6189" stroke="#E7EBF2" stroke-width="2" stroke-miterlimit="10" stroke-linejoin="round"/>
<path d="M57.2303 87.261L72.748 100.151" stroke="#E7EBF2" stroke-width="2" stroke-miterlimit="10" stroke-linejoin="round"/>
<path d="M57.2302 59.6044L72.873 72.1187" stroke="#E7EBF2" stroke-width="2" stroke-miterlimit="10" stroke-linejoin="round"/>
<path d="M43.0886 72.6189L56.1035 86.5098" stroke="#E7EBF2" stroke-width="2" stroke-miterlimit="10" stroke-linejoin="round"/>
<path d="M42.2129 86.5098L26.3197 72.6189" stroke="#E7EBF2" stroke-width="2" stroke-miterlimit="10" stroke-linejoin="round"/>
<path d="M89.0168 73.2448L103.408 86.1345" stroke="#E7EBF2" stroke-width="2" stroke-miterlimit="10" stroke-linejoin="round"/>
<path d="M57.3555 101.027L72.748 113.416" stroke="#E7EBF2" stroke-width="2" stroke-miterlimit="10" stroke-linejoin="round"/>
<path d="M57.3555 114.417L72.748 126.556" stroke="#E7EBF2" stroke-width="2" stroke-miterlimit="10" stroke-linejoin="round"/>
<path d="M57.2303 127.557L72.748 139.821" stroke="#E7EBF2" stroke-width="2" stroke-miterlimit="10" stroke-linejoin="round"/>
<path d="M57.2303 140.948L72.748 153.086" stroke="#E7EBF2" stroke-width="2" stroke-miterlimit="10" stroke-linejoin="round"/>
<path d="M57.2303 154.087L72.748 166.226" stroke="#E7EBF2" stroke-width="2" stroke-miterlimit="10" stroke-linejoin="round"/>
<path d="M57.2303 167.227L72.748 179.491" stroke="#E7EBF2" stroke-width="2" stroke-miterlimit="10" stroke-linejoin="round"/>
<path d="M57.2303 180.493L72.748 192.757" stroke="#E7EBF2" stroke-width="2" stroke-miterlimit="10" stroke-linejoin="round"/>
<path d="M57.2303 193.758L72.748 206.022" stroke="#E7EBF2" stroke-width="2" stroke-miterlimit="10" stroke-linejoin="round"/>
<path d="M57.2303 207.148L72.748 219.287" stroke="#E7EBF2" stroke-width="2" stroke-miterlimit="10" stroke-linejoin="round"/>
<path d="M49.2195 219.912H80.5098C81.6143 219.912 82.5098 220.808 82.5098 221.912V226.295H47.2195V221.912C47.2195 220.808 48.1149 219.912 49.2195 219.912Z" fill="#E7EBF2"/>
<path d="M91.0182 98.8993L81.6325 108.285C81.0068 108.911 80.1308 109.286 79.3799 109.286H55.8531V87.261H92.1445V96.5216C91.8942 97.5227 91.6439 98.2736 91.0182 98.8993Z" fill="#E7EBF2"/>
<path d="M69.6376 97.2587L60.625 97.2587C60.0727 97.2587 59.625 96.811 59.625 96.2587L59.625 91.8764C59.625 91.3241 60.0727 90.8764 60.625 90.8764L69.6376 90.8764C70.1898 90.8764 70.6376 91.3241 70.6376 91.8764L70.6376 96.2587C70.6376 96.811 70.1898 97.2587 69.6376 97.2587Z" fill="white"/>
<path d="M83.8739 97.2584L74.8613 97.2584C74.309 97.2584 73.8613 96.8107 73.8613 96.2584L73.8613 91.8761C73.8613 91.3238 74.309 90.8761 74.8613 90.8761L83.8739 90.8761C84.4262 90.8761 84.8739 91.3238 84.8739 91.8761L84.8739 96.2584C84.8739 96.8107 84.4262 97.2584 83.8739 97.2584Z" fill="white"/>
<path d="M28.649 201.811H23.7422V241.857H28.649V201.811Z" fill="#B9C0D0"/>
<path d="M63.4712 201.811H58.5645V241.857H63.4712V201.811Z" fill="#B9C0D0"/>
<path d="M211.625 240.432C198.329 240.749 182.501 240.432 171.263 240.274C160.024 240.59 144.196 240.749 130.9 240.432C144.038 232.993 148.47 219.222 149.261 210.042H193.106C194.055 219.222 198.487 232.993 211.625 240.432Z" fill="url(#paint0_linear_1489_1319)"/>
<path d="M253.728 94.8117V208.617C253.728 211.466 251.512 213.524 248.821 213.524H93.7037C91.0128 213.524 88.7969 211.308 88.7969 208.617V94.8117C88.7969 92.1209 91.0128 89.9049 93.7037 89.9049H248.821C251.512 89.9049 253.728 91.9626 253.728 94.8117Z" fill="#E8EDF8"/>
<path d="M253.728 94.8117V192.947H88.9551V94.8117C88.9551 92.1209 91.171 89.9049 93.8619 89.9049H248.979C251.512 89.9049 253.728 91.9626 253.728 94.8117Z" fill="#B9C0D0"/>
<path d="M247.872 95.9193H94.8125V187.249H247.714V95.9193H247.872Z" fill="white"/>
<path d="M171.262 207.192C173.535 207.192 175.377 205.35 175.377 203.077C175.377 200.804 173.535 198.962 171.262 198.962C168.989 198.962 167.146 200.804 167.146 203.077C167.146 205.35 168.989 207.192 171.262 207.192Z" fill="#B9C0D0"/>
<path d="M344.217 206.243H339.943V241.382H344.217V206.243Z" fill="#B9C0D0"/>
<path d="M374.766 206.243H370.492V241.382H374.766V206.243Z" fill="#B9C0D0"/>
<path d="M380.148 207.826H335.195V222.23H380.148V207.826Z" fill="#E8EDF8"/>
<path d="M346.116 207.826L341.368 222.23H335.986L340.577 207.826H346.116Z" fill="url(#paint1_linear_1489_1319)"/>
<path d="M357.038 207.826L352.29 222.23H346.908L351.498 207.826H357.038Z" fill="url(#paint2_linear_1489_1319)"/>
<path d="M367.96 207.826L363.212 222.23H357.83L362.42 207.826H367.96Z" fill="url(#paint3_linear_1489_1319)"/>
<path d="M378.882 207.826L374.134 222.23H368.752L373.342 207.826H378.882Z" fill="url(#paint4_linear_1489_1319)"/>
<path d="M69.645 203.71H18.3613V220.172H69.645V203.71Z" fill="#E8EDF8"/>
<path d="M30.707 203.71L25.3254 220.014H19.1523L24.534 203.71H30.707Z" fill="url(#paint5_linear_1489_1319)"/>
<path d="M43.2109 203.71L37.8293 220.014H31.6562L36.8796 203.71H43.2109Z" fill="url(#paint6_linear_1489_1319)"/>
<path d="M55.7148 203.71L50.3332 220.014H44.1602L49.3835 203.71H55.7148Z" fill="url(#paint7_linear_1489_1319)"/>
<path d="M68.2207 203.71L62.8391 220.014H56.666L61.8894 203.71H68.2207Z" fill="url(#paint8_linear_1489_1319)"/>
<path d="M191.363 45.7441V65.0547" stroke="#BBC1CF" stroke-width="2" stroke-miterlimit="10" stroke-linejoin="round"/>
<path d="M191.443 73.4435C194.547 73.4435 197.062 70.9278 197.062 67.8245C197.062 64.7212 194.547 62.2054 191.443 62.2054C188.34 62.2054 185.824 64.7212 185.824 67.8245C185.824 70.9278 188.34 73.4435 191.443 73.4435Z" fill="#B9C0D0"/>
<path d="M185.982 82.7823C185.982 86.2645 189.148 89.1136 192.947 88.1639C195.005 87.6891 196.587 86.1063 197.062 84.0486C197.695 81.0412 195.954 78.1921 193.263 77.4007C192.314 77.0841 191.681 76.2927 191.681 75.1847V70.278" stroke="#BBC1CF" stroke-width="2" stroke-miterlimit="10" stroke-linejoin="round"/>
<path d="M328.12 236.633H267.656V241.54H328.12V236.633Z" fill="url(#paint9_linear_1489_1319)"/>
<path d="M324.205 225.092C323.802 223.857 322.651 223.021 321.352 223.021H274.266C272.967 223.021 271.816 223.857 271.414 225.092L267.656 236.633H327.962L324.205 225.092Z" fill="#CAD0DD"/>
<path d="M346.798 28.0159V46.535H173.637L190.415 29.5987L346.798 28.0159Z" stroke="#BBC1CF" stroke-width="2" stroke-miterlimit="10" stroke-linejoin="round"/>
<path d="M248.504 46.5349V29.5986L229.193 46.5349V29.5986L209.725 46.5349V29.5986L190.414 46.5349V30.2318V29.5986" stroke="#BBC1CF" stroke-width="2" stroke-miterlimit="10" stroke-linejoin="round"/>
<path d="M326.062 46.5351V28.3325" stroke="#BBC1CF" stroke-width="2" stroke-miterlimit="10" stroke-linejoin="round"/>
<path d="M267.973 29.5986V46.5349L287.283 29.5986" stroke="#BBC1CF" stroke-width="2" stroke-miterlimit="10" stroke-linejoin="round"/>
<path d="M287.283 29.5986V46.5349" stroke="#BBC1CF" stroke-width="2" stroke-miterlimit="10" stroke-linejoin="round"/>
<path d="M308.176 215.107H287.441V10.7631L297.888 1.10779L308.176 10.7631V215.107Z" stroke="#BBC1CF" stroke-width="2" stroke-miterlimit="10" stroke-linejoin="round"/>
<path d="M287.441 11.8712H308.176" stroke="#BBC1CF" stroke-width="2" stroke-miterlimit="10"/>
<path d="M287.441 64.1046H308.176" stroke="#BBC1CF" stroke-width="2" stroke-miterlimit="10" stroke-linejoin="round"/>
<path d="M287.441 80.8821H308.176" stroke="#BBC1CF" stroke-width="2" stroke-miterlimit="10"/>
<path d="M287.441 97.5021H308.176" stroke="#BBC1CF" stroke-width="2" stroke-miterlimit="10"/>
<path d="M287.441 114.28H308.176" stroke="#BBC1CF" stroke-width="2" stroke-miterlimit="10"/>
<path d="M287.441 131.058H308.176" stroke="#BBC1CF" stroke-width="2" stroke-miterlimit="10"/>
<path d="M287.441 147.836H308.176" stroke="#BBC1CF" stroke-width="2" stroke-miterlimit="10"/>
<path d="M287.441 164.456H308.176" stroke="#BBC1CF" stroke-width="2" stroke-miterlimit="10"/>
<path d="M287.441 181.234H308.176" stroke="#BBC1CF" stroke-width="2" stroke-miterlimit="10"/>
<path d="M287.441 198.012H308.176" stroke="#BBC1CF" stroke-width="2" stroke-miterlimit="10"/>
<path d="M205.768 29.4405L297.888 1.10779L341.733 28.1742" stroke="#BBC1CF" stroke-width="2" stroke-miterlimit="10" stroke-linejoin="round"/>
<path d="M287.283 46.5348L308.177 28.6488" stroke="#BBC1CF" stroke-width="2" stroke-miterlimit="10" stroke-linejoin="round"/>
<path d="M307.545 47.1682L287.918 63.4714" stroke="#BBC1CF" stroke-width="2" stroke-miterlimit="10" stroke-linejoin="round"/>
<path d="M307.545 12.1875L287.76 28.0158" stroke="#BBC1CF" stroke-width="2" stroke-miterlimit="10" stroke-linejoin="round"/>
<path d="M325.43 28.6488L308.969 46.2182" stroke="#BBC1CF" stroke-width="2" stroke-miterlimit="10" stroke-linejoin="round"/>
<path d="M326.539 46.2182L346.641 28.6488" stroke="#BBC1CF" stroke-width="2" stroke-miterlimit="10" stroke-linejoin="round"/>
<path d="M267.341 29.4402L249.139 45.7433" stroke="#BBC1CF" stroke-width="2" stroke-miterlimit="10" stroke-linejoin="round"/>
<path d="M307.387 64.5793L287.918 80.2494" stroke="#BBC1CF" stroke-width="2" stroke-miterlimit="10" stroke-linejoin="round"/>
<path d="M307.387 81.5156L287.918 96.8691" stroke="#BBC1CF" stroke-width="2" stroke-miterlimit="10" stroke-linejoin="round"/>
<path d="M307.545 98.1354L287.918 113.647" stroke="#BBC1CF" stroke-width="2" stroke-miterlimit="10" stroke-linejoin="round"/>
<path d="M307.545 115.072L287.918 130.425" stroke="#BBC1CF" stroke-width="2" stroke-miterlimit="10" stroke-linejoin="round"/>
<path d="M307.545 131.691L287.918 147.045" stroke="#BBC1CF" stroke-width="2" stroke-miterlimit="10" stroke-linejoin="round"/>
<path d="M307.545 148.311L287.918 163.823" stroke="#BBC1CF" stroke-width="2" stroke-miterlimit="10" stroke-linejoin="round"/>
<path d="M307.545 165.089L287.918 180.601" stroke="#BBC1CF" stroke-width="2" stroke-miterlimit="10" stroke-linejoin="round"/>
<path d="M307.545 181.867L287.918 197.379" stroke="#BBC1CF" stroke-width="2" stroke-miterlimit="10" stroke-linejoin="round"/>
<path d="M307.545 198.803L287.918 214.157" stroke="#BBC1CF" stroke-width="2" stroke-miterlimit="10" stroke-linejoin="round"/>
<path d="M318.206 214.948H277.57C276.466 214.948 275.57 215.844 275.57 216.948V223.021H320.206V216.948C320.206 215.844 319.311 214.948 318.206 214.948Z" fill="url(#paint10_linear_1489_1319)"/>
<path d="M122.353 181.709H102.726C101.143 181.709 99.877 180.443 99.877 178.86V103.201C99.877 101.618 101.143 100.352 102.726 100.352H122.353C123.936 100.352 125.202 101.618 125.202 103.201V178.86C125.202 180.443 123.936 181.709 122.353 181.709Z" fill="#E8EDF8"/>
<path d="M112.54 115.547C115.162 115.547 117.288 113.421 117.288 110.798C117.288 108.176 115.162 106.05 112.54 106.05C109.917 106.05 107.791 108.176 107.791 110.798C107.791 113.421 109.917 115.547 112.54 115.547Z" fill="url(#paint11_linear_1489_1319)"/>
<path d="M120.929 122.511H104.151C103.834 122.511 103.676 122.353 103.676 122.036V120.77C103.676 120.454 103.834 120.295 104.151 120.295H120.77C121.087 120.295 121.245 120.454 121.245 120.77V122.036C121.403 122.353 121.087 122.511 120.929 122.511Z" fill="url(#paint12_linear_1489_1319)"/>
<path d="M120.929 129.159H104.151C103.834 129.159 103.676 129.001 103.676 128.684V127.418C103.676 127.101 103.834 126.943 104.151 126.943H120.77C121.087 126.943 121.245 127.101 121.245 127.418V128.684C121.403 129.001 121.087 129.159 120.929 129.159Z" fill="url(#paint13_linear_1489_1319)"/>
<path d="M120.929 135.807H104.151C103.834 135.807 103.676 135.649 103.676 135.332V134.066C103.676 133.749 103.834 133.591 104.151 133.591H120.77C121.087 133.591 121.245 133.749 121.245 134.066V135.332C121.403 135.649 121.087 135.807 120.929 135.807Z" fill="url(#paint14_linear_1489_1319)"/>
<path d="M120.929 142.613H104.151C103.834 142.613 103.676 142.455 103.676 142.138V140.872C103.676 140.555 103.834 140.397 104.151 140.397H120.77C121.087 140.397 121.245 140.555 121.245 140.872V142.138C121.403 142.296 121.087 142.613 120.929 142.613Z" fill="url(#paint15_linear_1489_1319)"/>
<path d="M120.929 149.261H104.151C103.834 149.261 103.676 149.103 103.676 148.786V147.52C103.676 147.203 103.834 147.045 104.151 147.045H120.77C121.087 147.045 121.245 147.203 121.245 147.52V148.786C121.403 148.945 121.087 149.261 120.929 149.261Z" fill="url(#paint16_linear_1489_1319)"/>
<path d="M120.929 155.908H104.151C103.834 155.908 103.676 155.75 103.676 155.434V154.167C103.676 153.851 103.834 153.693 104.151 153.693H120.77C121.087 153.693 121.245 153.851 121.245 154.167V155.434C121.403 155.75 121.087 155.908 120.929 155.908Z" fill="url(#paint17_linear_1489_1319)"/>
<path d="M117.922 162.557H107.317C107 162.557 106.842 162.398 106.842 162.082V160.816C106.842 160.499 107 160.341 107.317 160.341H117.922C118.238 160.341 118.396 160.499 118.396 160.816V162.082C118.396 162.398 118.08 162.557 117.922 162.557Z" fill="url(#paint18_linear_1489_1319)"/>
<path d="M181.392 170.312H139.131V172.687H181.392V170.312Z" fill="url(#paint19_linear_1489_1319)"/>
<path d="M162.082 176.644H139.131V179.018H162.082V176.644Z" fill="url(#paint20_linear_1489_1319)"/>
<path d="M232.201 170.312H189.939V172.687H232.201V170.312Z" fill="url(#paint21_linear_1489_1319)"/>
<path d="M212.89 176.644H189.939V179.018H212.89V176.644Z" fill="url(#paint22_linear_1489_1319)"/>
<path d="M154.393 93.148L187.899 86.4818C190.355 85.9555 192.811 86.4818 194.741 87.7098L220.529 102.621" stroke="#BBC1CF" stroke-width="2" stroke-miterlimit="10" stroke-linejoin="round"/>
<g filter="url(#filter0_d_1489_1319)">
<path d="M220.16 173.318L135.288 160.512C132.657 160.161 130.903 157.705 131.254 155.074L139.849 93.8496C140.2 91.2181 142.656 89.4639 145.288 89.8147L230.159 102.621C232.79 102.972 234.545 105.428 234.194 108.059L225.598 169.283C225.247 171.739 222.791 173.669 220.16 173.318Z" fill="white"/>
</g>
<path d="M217.38 166.351L141.512 154.501C139.368 154.215 137.938 152.214 138.224 150.069L145.23 100.168C145.516 98.0236 147.518 96.5938 149.662 96.8797L225.53 108.729C227.675 109.015 229.105 111.017 228.819 113.161L221.813 163.062C221.527 165.064 219.525 166.637 217.38 166.351Z" fill="#EFF3FB"/>
<path d="M264.807 61.8888L276.679 73.76C277.47 74.5514 278.578 75.0263 279.528 75.0263H309.285V47.1685H263.383V58.8814C263.699 60.1477 264.016 61.0974 264.807 61.8888Z" fill="#B9C0D0"/>
<path d="M291.587 59.8135L303.516 59.8135C304.068 59.8135 304.516 59.3658 304.516 58.8135L304.516 52.741C304.516 52.1888 304.068 51.741 303.516 51.741L291.587 51.741C291.034 51.741 290.587 52.1888 290.587 52.741L290.587 58.8135C290.587 59.3658 291.034 59.8135 291.587 59.8135Z" fill="white"/>
<path d="M273.581 59.8135L285.51 59.8135C286.062 59.8135 286.51 59.3658 286.51 58.8135L286.51 52.741C286.51 52.1888 286.062 51.741 285.51 51.741L273.581 51.741C273.029 51.741 272.581 52.1888 272.581 52.741L272.581 58.8135C272.581 59.3658 273.029 59.8135 273.581 59.8135Z" fill="white"/>
<path d="M1.58203 241.857H391.557" stroke="#CDD6E1" stroke-width="3" stroke-miterlimit="10" stroke-linecap="round" stroke-linejoin="round"/>
<path d="M136.433 240.591H115.064L116.014 238.217L118.23 232.202L120.13 226.979L122.345 220.964L123.928 216.849C124.245 216.057 125.036 215.424 125.828 215.424C126.619 215.424 127.411 215.899 127.727 216.849L129.31 220.964L131.526 226.979L133.425 232.202L135.641 238.217L136.433 240.591Z" fill="#E8EDF8"/>
<path d="M131.532 226.979H120.143L122.283 221.122H129.361L131.532 226.979Z" fill="url(#paint23_linear_1489_1319)"/>
<path d="M135.635 238.217H116.008L118.224 232.202H133.419L135.635 238.217Z" fill="url(#paint24_linear_1489_1319)"/>
<path d="M136.433 240.591H114.907C114.274 240.591 113.641 240.117 113.641 239.325C113.641 238.692 114.115 238.059 114.907 238.059H136.433C137.067 238.059 137.7 238.534 137.7 239.325C137.7 240.117 137.225 240.591 136.433 240.591Z" fill="#E8EDF8"/>
<path d="M253.53 240.591H232.162L233.112 238.217L235.328 232.202L237.227 226.979L239.443 220.964L241.026 216.849C241.343 216.057 242.134 215.424 242.925 215.424C243.717 215.424 244.508 215.899 244.825 216.849L246.408 220.964L248.624 226.979L250.523 232.202L252.739 238.217L253.53 240.591Z" fill="#E8EDF8"/>
<path d="M248.63 226.979H237.24L239.381 221.122H246.459L248.63 226.979Z" fill="url(#paint25_linear_1489_1319)"/>
<path d="M252.733 238.217H233.105L235.321 232.202H250.517L252.733 238.217Z" fill="url(#paint26_linear_1489_1319)"/>
<path d="M253.531 240.591H232.005C231.371 240.591 230.738 240.117 230.738 239.325C230.738 238.692 231.213 238.059 232.005 238.059H253.531C254.164 238.059 254.797 238.534 254.797 239.325C254.797 240.117 254.322 240.591 253.531 240.591Z" fill="#E8EDF8"/>
<path d="M180.555 115.415C183.284 110.772 189.471 110.914 192.525 113.188C195.579 115.462 196.145 119.32 194.634 122.612C193.122 125.903 188.857 126.992 185.474 128.238C181.244 129.795 178.008 133.647 177.932 138.256" stroke="#4B5563" stroke-width="6" stroke-linecap="round"/>
<path d="M195.496 136.904C195.164 139.088 193.124 140.589 190.94 140.257C188.756 139.925 187.255 137.886 187.587 135.702C187.918 133.518 189.958 132.016 192.142 132.348C194.326 132.68 195.828 134.72 195.496 136.904Z" fill="#374151"/>
<path d="M176.924 125.99C176.592 128.174 174.552 129.675 172.368 129.343C170.184 129.012 168.682 126.972 169.014 124.788C169.346 122.604 171.386 121.102 173.57 121.434C175.754 121.766 177.255 123.806 176.924 125.99Z" fill="#374151"/>
<path d="M181.487 148.457C181.155 150.641 178.673 152.075 175.943 151.66C173.213 151.246 171.268 149.139 171.6 146.955C171.932 144.771 174.414 143.336 177.144 143.751C179.875 144.166 181.819 146.273 181.487 148.457Z" fill="#374151"/>
<path d="M114.117 256.173H324.393" stroke="#CDD6E1" stroke-width="3" stroke-miterlimit="10" stroke-linecap="round" stroke-linejoin="round"/>
<path d="M45.7227 256.173H72.296" stroke="#CDD6E1" stroke-width="3" stroke-miterlimit="10" stroke-linecap="round" stroke-linejoin="round"/>
<defs>
<filter id="filter0_d_1489_1319" x="109.209" y="84.7701" width="147.029" height="127.589" filterUnits="userSpaceOnUse" color-interpolation-filters="sRGB">
<feFlood flood-opacity="0" result="BackgroundImageFix"/>
<feColorMatrix in="SourceAlpha" type="matrix" values="0 0 0 0 0 0 0 0 0 0 0 0 0 0 0 0 0 0 127 0" result="hardAlpha"/>
<feOffset dy="17"/>
<feGaussianBlur stdDeviation="11"/>
<feColorMatrix type="matrix" values="0 0 0 0 0.397708 0 0 0 0 0.47749 0 0 0 0 0.575 0 0 0 0.37 0"/>
<feBlend mode="normal" in2="BackgroundImageFix" result="effect1_dropShadow_1489_1319"/>
<feBlend mode="normal" in="SourceGraphic" in2="effect1_dropShadow_1489_1319" result="shape"/>
</filter>
<linearGradient id="paint0_linear_1489_1319" x1="171.333" y1="239.678" x2="171.333" y2="212.486" gradientUnits="userSpaceOnUse">
<stop stop-color="#F5F8FF"/>
<stop offset="0.9913" stop-color="#D8E0EB"/>
</linearGradient>
<linearGradient id="paint1_linear_1489_1319" x1="341.051" y1="207.826" x2="341.051" y2="222.23" gradientUnits="userSpaceOnUse">
<stop stop-color="#E3E8F0"/>
<stop offset="1" stop-color="#CCD3DE"/>
</linearGradient>
<linearGradient id="paint2_linear_1489_1319" x1="351.973" y1="207.826" x2="351.973" y2="222.23" gradientUnits="userSpaceOnUse">
<stop stop-color="#E3E8F0"/>
<stop offset="1" stop-color="#CCD3DE"/>
</linearGradient>
<linearGradient id="paint3_linear_1489_1319" x1="362.895" y1="207.826" x2="362.895" y2="222.23" gradientUnits="userSpaceOnUse">
<stop stop-color="#E3E8F0"/>
<stop offset="1" stop-color="#CCD3DE"/>
</linearGradient>
<linearGradient id="paint4_linear_1489_1319" x1="373.817" y1="207.826" x2="373.817" y2="222.23" gradientUnits="userSpaceOnUse">
<stop stop-color="#E3E8F0"/>
<stop offset="1" stop-color="#CCD3DE"/>
</linearGradient>
<linearGradient id="paint5_linear_1489_1319" x1="24.9297" y1="203.71" x2="24.9297" y2="220.014" gradientUnits="userSpaceOnUse">
<stop stop-color="#E3E8F0"/>
<stop offset="1" stop-color="#CCD3DE"/>
</linearGradient>
<linearGradient id="paint6_linear_1489_1319" x1="37.4336" y1="203.71" x2="37.4336" y2="220.014" gradientUnits="userSpaceOnUse">
<stop stop-color="#E3E8F0"/>
<stop offset="1" stop-color="#CCD3DE"/>
</linearGradient>
<linearGradient id="paint7_linear_1489_1319" x1="49.9375" y1="203.71" x2="49.9375" y2="220.014" gradientUnits="userSpaceOnUse">
<stop stop-color="#E3E8F0"/>
<stop offset="1" stop-color="#CCD3DE"/>
</linearGradient>
<linearGradient id="paint8_linear_1489_1319" x1="62.4433" y1="203.71" x2="62.4433" y2="220.014" gradientUnits="userSpaceOnUse">
<stop stop-color="#E3E8F0"/>
<stop offset="1" stop-color="#CCD3DE"/>
</linearGradient>
<linearGradient id="paint9_linear_1489_1319" x1="267.601" y1="238.994" x2="328.019" y2="238.994" gradientUnits="userSpaceOnUse">
<stop stop-color="#B0BACC"/>
<stop offset="1" stop-color="#969EAE"/>
</linearGradient>
<linearGradient id="paint10_linear_1489_1319" x1="275.634" y1="219.044" x2="320.227" y2="219.044" gradientUnits="userSpaceOnUse">
<stop stop-color="#B0BACC"/>
<stop offset="1" stop-color="#969EAE"/>
</linearGradient>
<linearGradient id="paint11_linear_1489_1319" x1="115.51" y1="106.05" x2="109.527" y2="106.05" gradientUnits="userSpaceOnUse">
<stop stop-color="#E3E8F0"/>
<stop offset="1" stop-color="#CCD3DE"/>
</linearGradient>
<linearGradient id="paint12_linear_1489_1319" x1="117.991" y1="120.295" x2="106.894" y2="120.295" gradientUnits="userSpaceOnUse">
<stop stop-color="#E3E8F0"/>
<stop offset="1" stop-color="#CCD3DE"/>
</linearGradient>
<linearGradient id="paint13_linear_1489_1319" x1="117.991" y1="126.943" x2="106.894" y2="126.943" gradientUnits="userSpaceOnUse">
<stop stop-color="#E3E8F0"/>
<stop offset="1" stop-color="#CCD3DE"/>
</linearGradient>
<linearGradient id="paint14_linear_1489_1319" x1="117.991" y1="133.591" x2="106.894" y2="133.591" gradientUnits="userSpaceOnUse">
<stop stop-color="#E3E8F0"/>
<stop offset="1" stop-color="#CCD3DE"/>
</linearGradient>
<linearGradient id="paint15_linear_1489_1319" x1="117.991" y1="140.397" x2="106.894" y2="140.397" gradientUnits="userSpaceOnUse">
<stop stop-color="#E3E8F0"/>
<stop offset="1" stop-color="#CCD3DE"/>
</linearGradient>
<linearGradient id="paint16_linear_1489_1319" x1="117.991" y1="147.045" x2="106.894" y2="147.045" gradientUnits="userSpaceOnUse">
<stop stop-color="#E3E8F0"/>
<stop offset="1" stop-color="#CCD3DE"/>
</linearGradient>
<linearGradient id="paint17_linear_1489_1319" x1="117.991" y1="153.693" x2="106.894" y2="153.693" gradientUnits="userSpaceOnUse">
<stop stop-color="#E3E8F0"/>
<stop offset="1" stop-color="#CCD3DE"/>
</linearGradient>
<linearGradient id="paint18_linear_1489_1319" x1="116.233" y1="160.341" x2="108.953" y2="160.341" gradientUnits="userSpaceOnUse">
<stop stop-color="#E3E8F0"/>
<stop offset="1" stop-color="#CCD3DE"/>
</linearGradient>
<linearGradient id="paint19_linear_1489_1319" x1="173.48" y1="170.312" x2="146.854" y2="170.312" gradientUnits="userSpaceOnUse">
<stop stop-color="#E3E8F0"/>
<stop offset="1" stop-color="#CCD3DE"/>
</linearGradient>
<linearGradient id="paint20_linear_1489_1319" x1="157.785" y1="176.644" x2="143.325" y2="176.644" gradientUnits="userSpaceOnUse">
<stop stop-color="#E3E8F0"/>
<stop offset="1" stop-color="#CCD3DE"/>
</linearGradient>
<linearGradient id="paint21_linear_1489_1319" x1="224.289" y1="170.312" x2="197.663" y2="170.312" gradientUnits="userSpaceOnUse">
<stop stop-color="#E3E8F0"/>
<stop offset="1" stop-color="#CCD3DE"/>
</linearGradient>
<linearGradient id="paint22_linear_1489_1319" x1="208.594" y1="176.644" x2="194.134" y2="176.644" gradientUnits="userSpaceOnUse">
<stop stop-color="#E3E8F0"/>
<stop offset="1" stop-color="#CCD3DE"/>
</linearGradient>
<linearGradient id="paint23_linear_1489_1319" x1="129.4" y1="221.122" x2="122.224" y2="221.122" gradientUnits="userSpaceOnUse">
<stop stop-color="#E3E8F0"/>
<stop offset="1" stop-color="#CCD3DE"/>
</linearGradient>
<linearGradient id="paint24_linear_1489_1319" x1="131.96" y1="232.202" x2="119.595" y2="232.202" gradientUnits="userSpaceOnUse">
<stop stop-color="#E3E8F0"/>
<stop offset="1" stop-color="#CCD3DE"/>
</linearGradient>
<linearGradient id="paint25_linear_1489_1319" x1="246.497" y1="221.122" x2="239.322" y2="221.122" gradientUnits="userSpaceOnUse">
<stop stop-color="#E3E8F0"/>
<stop offset="1" stop-color="#CCD3DE"/>
</linearGradient>
<linearGradient id="paint26_linear_1489_1319" x1="249.058" y1="232.202" x2="236.692" y2="232.202" gradientUnits="userSpaceOnUse">
<stop stop-color="#E3E8F0"/>
<stop offset="1" stop-color="#CCD3DE"/>
</linearGradient>
</defs>
</svg>
