<svg width="47" height="32" viewBox="0 0 47 32" fill="none" xmlns="http://www.w3.org/2000/svg">
<path d="M5.43655 15.8762C5.43655 15.8762 6.42491 14.6023 5.78571 12.833C5.14428 11.0649 3.65059 10.3934 3.65059 10.3934C3.65059 10.3934 2.53284 11.9116 3.15753 13.6351C3.78111 15.3597 5.43655 15.8762 5.43655 15.8762Z" fill="#D97706"/>
<path d="M8.18006 16.7808C8.18006 16.7808 9.90801 16.6425 10.8975 15.0975C11.887 13.5536 11.1306 11.8268 11.1306 11.8268C11.1306 11.8268 9.5265 12.1525 8.51026 13.7377C7.49513 15.3217 8.18006 16.7808 8.18006 16.7808Z" fill="#D97706"/>
<path d="M8.355 18.8223C7.55516 20.5257 8.42416 21.8844 8.42416 21.8844C8.42416 21.8844 10.1209 21.5208 10.8995 19.862C11.677 18.2009 10.7021 16.5879 10.7021 16.5879C10.7021 16.5879 9.15483 17.1189 8.355 18.8223Z" fill="#D97706"/>
<path d="M12.2591 20.1943C12.2591 20.1943 10.7676 20.8703 10.1317 22.6396C9.4959 24.4121 10.4876 25.6816 10.4876 25.6816C10.4876 25.6816 12.1408 25.1607 12.761 23.4349C13.3802 21.7092 12.2591 20.1943 12.2591 20.1943Z" fill="#D97706"/>
<path d="M13.5025 29.5113C13.5025 29.5113 14.9371 28.5352 15.0342 26.7046C15.1301 24.8729 13.6186 23.7462 13.6186 23.7462C13.6186 23.7462 12.3848 24.8227 12.2855 26.7012C12.1873 28.5787 13.5025 29.5113 13.5025 29.5113Z" fill="#D97706"/>
<path d="M7.63884 12.4671C7.63884 12.4671 9.16822 11.9562 9.61667 10.1301C10.0662 8.30397 9.19723 6.91626 9.19723 6.91626C9.19723 6.91626 7.42577 7.5588 6.98737 9.3403C6.55008 11.1207 7.63884 12.4671 7.63884 12.4671Z" fill="#D97706"/>
<path d="M5.43521 19.7593C5.43521 19.7593 6.00301 18.25 4.87075 16.7496C3.73626 15.2481 2.11206 15.0462 2.11206 15.0462C2.11206 15.0462 1.49182 16.8266 2.59619 18.2902C3.70057 19.7548 5.43521 19.7593 5.43521 19.7593Z" fill="#D97706"/>
<path d="M6.70337 23.7417C6.70337 23.7417 6.9209 22.1443 5.4841 20.9329C4.04507 19.7203 2.41641 19.8854 2.41641 19.8854C2.41641 19.8854 2.20669 21.7595 3.60779 22.9408C5.01112 24.121 6.70337 23.7417 6.70337 23.7417Z" fill="#D97706"/>
<path d="M8.63178 27.0348C8.63178 27.0348 8.35848 25.4463 6.62049 24.7279C4.88138 24.0072 3.37988 24.6576 3.37988 24.6576C3.37988 24.6576 3.74801 26.5071 5.44138 27.2099C7.13475 27.9094 8.63178 27.0348 8.63178 27.0348Z" fill="#D97706"/>
<path d="M9.47513 28.4024C7.66351 27.8959 6.24902 28.7203 6.24902 28.7203C6.24902 28.7203 6.83468 30.5118 8.59944 31.006C10.3664 31.5002 11.7475 30.4527 11.7475 30.4527C11.7475 30.4527 11.2867 28.9077 9.47513 28.4024Z" fill="#D97706"/>
<path d="M7.82817 13.5559L7.02276 13.1599C6.98037 13.248 2.8373 22.0484 14.4789 32L15.0612 31.3184C3.97737 21.842 7.6653 13.8894 7.82817 13.5559Z" fill="#D97706"/>
<path d="M24.212 24C23.764 24 23.396 23.864 23.108 23.592C22.82 23.304 22.676 22.952 22.676 22.536V10.44L23.012 10.968L21.26 12.264C21.036 12.44 20.756 12.528 20.42 12.528C20.036 12.528 19.7 12.384 19.412 12.096C19.124 11.808 18.98 11.464 18.98 11.064C18.98 10.552 19.228 10.136 19.724 9.816L23.18 7.512C23.34 7.4 23.516 7.32 23.708 7.272C23.916 7.224 24.108 7.2 24.284 7.2C24.748 7.2 25.116 7.344 25.388 7.632C25.66 7.904 25.796 8.248 25.796 8.664V22.536C25.796 22.952 25.644 23.304 25.34 23.592C25.052 23.864 24.676 24 24.212 24Z" fill="#92400E"/>
<path d="M41.5629 15.8773C41.5629 15.8773 40.5734 14.6034 41.2137 12.8352C41.8529 11.066 43.3477 10.3945 43.3477 10.3945C43.3477 10.3945 44.4644 11.9116 43.8397 13.6362C43.2183 15.3608 41.5629 15.8773 41.5629 15.8773Z" fill="#D97706"/>
<path d="M38.8199 16.782C38.8199 16.782 37.092 16.6426 36.1014 15.0987C35.1119 13.5548 35.8682 11.8279 35.8682 11.8279C35.8682 11.8279 37.4723 12.1537 38.4897 13.7377C39.5048 15.3229 38.8199 16.782 38.8199 16.782Z" fill="#D97706"/>
<path d="M38.6449 18.8223C39.4447 20.5257 38.5757 21.8844 38.5757 21.8844C38.5757 21.8844 36.879 21.5207 36.0992 19.862C35.3228 18.2009 36.2967 16.5879 36.2967 16.5879C36.2967 16.5879 37.845 17.12 38.6449 18.8223Z" fill="#D97706"/>
<path d="M34.7397 20.1955C34.7397 20.1955 36.23 20.8704 36.867 22.643C37.5028 24.4144 36.51 25.6839 36.51 25.6839C36.51 25.6839 34.8579 25.1618 34.2377 23.4361C33.6174 21.7104 34.7397 20.1955 34.7397 20.1955Z" fill="#D97706"/>
<path d="M33.4939 29.5113C33.4939 29.5113 32.0604 28.5363 31.9634 26.7046C31.8674 24.8729 33.3801 23.7451 33.3801 23.7451C33.3801 23.7451 34.6116 24.8216 34.712 26.7013C34.8113 28.5809 33.4939 29.5113 33.4939 29.5113Z" fill="#D97706"/>
<path d="M39.3585 12.4682C39.3585 12.4682 37.8313 11.9573 37.3829 10.1312C36.9333 8.30509 37.8034 6.91626 37.8034 6.91626C37.8034 6.91626 39.5749 7.5588 40.0122 9.34141C40.4495 11.1207 39.3585 12.4682 39.3585 12.4682Z" fill="#D97706"/>
<path d="M41.5644 19.7604C41.5644 19.7604 40.9966 18.2511 42.1277 16.7507C43.2622 15.2492 44.8875 15.0473 44.8875 15.0473C44.8875 15.0473 45.5089 16.8277 44.4034 18.2913C43.2979 19.7559 41.5644 19.7604 41.5644 19.7604Z" fill="#D97706"/>
<path d="M40.297 23.7429C40.297 23.7429 40.0784 22.1454 41.5163 20.9317C42.9553 19.7203 44.584 19.8854 44.584 19.8854C44.584 19.8854 44.7937 21.7606 43.3915 22.9408C41.9893 24.121 40.297 23.7429 40.297 23.7429Z" fill="#D97706"/>
<path d="M38.3652 27.0359C38.3652 27.0359 38.6397 25.4463 40.3776 24.7268C42.1179 24.0062 43.6182 24.6565 43.6182 24.6565C43.6182 24.6565 43.2501 26.506 41.5568 27.2077C39.8623 27.9105 38.3652 27.0359 38.3652 27.0359Z" fill="#D97706"/>
<path d="M37.522 28.4035C39.3337 27.8982 40.7493 28.7214 40.7493 28.7214C40.7493 28.7214 40.1647 30.5119 38.3989 31.0094C36.633 31.5013 35.252 30.4539 35.252 30.4539C35.252 30.4539 35.7115 28.91 37.522 28.4035Z" fill="#D97706"/>
<path d="M39.1703 13.557L39.9779 13.1609C40.0203 13.2491 44.1634 22.0495 32.5206 32L31.9395 31.3184C43.0211 21.8442 39.3332 13.8894 39.1703 13.557Z" fill="#D97706"/>
</svg>
