<svg width="48" height="49" viewBox="0 0 48 49" fill="none" xmlns="http://www.w3.org/2000/svg">
<g id="Frame">
<g id="Group">
<path id="Vector" d="M23.9985 45.4795C37.9995 45.4795 44.997 36.0776 44.997 24.4796C44.997 12.8846 37.9995 3.48255 23.997 3.48255C9.9975 3.48255 3 12.8846 3 24.4811C3 36.0776 9.996 45.4795 23.9985 45.4795Z" fill="url(#paint0_radial_5236_5165)"/>
<path id="Vector_2" d="M23.9985 45.4795C37.9995 45.4795 44.997 36.0776 44.997 24.4796C44.997 12.8846 37.9995 3.48255 23.997 3.48255C9.9975 3.48255 3 12.8846 3 24.4811C3 36.0776 9.996 45.4795 23.9985 45.4795Z" fill="url(#paint1_radial_5236_5165)"/>
<path id="Vector_3" d="M23.9985 45.4795C37.9995 45.4795 44.997 36.0776 44.997 24.4796C44.997 12.8846 37.9995 3.48255 23.997 3.48255C9.9975 3.48255 3 12.8846 3 24.4811C3 36.0776 9.996 45.4795 23.9985 45.4795Z" fill="url(#paint2_radial_5236_5165)"/>
<path id="Vector_4" d="M23.9985 45.4795C37.9995 45.4795 44.997 36.0776 44.997 24.4796C44.997 12.8846 37.9995 3.48255 23.997 3.48255C9.9975 3.48255 3 12.8846 3 24.4811C3 36.0776 9.996 45.4795 23.9985 45.4795Z" fill="url(#paint3_radial_5236_5165)" fill-opacity="0.6"/>
<path id="Vector_5" d="M23.9985 45.4795C37.9995 45.4795 44.997 36.0776 44.997 24.4796C44.997 12.8846 37.9995 3.48255 23.997 3.48255C9.9975 3.48255 3 12.8846 3 24.4811C3 36.0776 9.996 45.4795 23.9985 45.4795Z" fill="url(#paint4_radial_5236_5165)"/>
<path id="Vector_6" d="M23.9985 45.4795C37.9995 45.4795 44.997 36.0776 44.997 24.4796C44.997 12.8846 37.9995 3.48255 23.997 3.48255C9.9975 3.48255 3 12.8846 3 24.4811C3 36.0776 9.996 45.4795 23.9985 45.4795Z" fill="url(#paint5_radial_5236_5165)"/>
<path id="Vector_7" d="M23.9985 45.4795C37.9995 45.4795 44.997 36.0776 44.997 24.4796C44.997 12.8846 37.9995 3.48255 23.997 3.48255C9.9975 3.48255 3 12.8846 3 24.4811C3 36.0776 9.996 45.4795 23.9985 45.4795Z" fill="url(#paint6_radial_5236_5165)"/>
<path id="Vector_8" d="M23.9985 45.4795C37.9995 45.4795 44.997 36.0776 44.997 24.4796C44.997 12.8846 37.9995 3.48255 23.997 3.48255C9.9975 3.48255 3 12.8846 3 24.4811C3 36.0776 9.996 45.4795 23.9985 45.4795Z" fill="url(#paint7_radial_5236_5165)"/>
<path id="Vector_9" d="M24 37.9826C10.5 37.9826 10.5 24.4826 10.5 24.4826H37.5C37.5 24.4826 37.5 37.9826 24 37.9826Z" fill="url(#paint8_radial_5236_5165)"/>
<path id="Vector_10" d="M12 25.2326V24.4826H36V25.2326C36 25.6304 35.842 26.0119 35.5607 26.2932C35.2794 26.5745 34.8978 26.7326 34.5 26.7326H13.5C13.1022 26.7326 12.7206 26.5745 12.4393 26.2932C12.158 26.0119 12 25.6304 12 25.2326Z" fill="url(#paint9_linear_5236_5165)"/>
<path id="Vector_11" d="M15.7492 23.7325C15.7492 23.7325 11.2492 22.9825 8.17421 19.4335C5.03921 15.8155 7.96571 10.633 13.4992 13.2325C15.8647 9.37455 21.7342 10.8025 20.9542 15.4825C20.2042 19.9825 15.7492 23.7325 15.7492 23.7325Z" fill="url(#paint10_radial_5236_5165)"/>
<path id="Vector_12" d="M29.2755 23.7326C29.2755 23.7326 33.7755 22.9826 36.8505 19.4336C39.9855 15.8156 37.0605 10.6331 31.5255 13.2326C29.16 9.37455 23.2905 10.8026 24.0705 15.4826C24.8205 19.9826 29.2755 23.7326 29.2755 23.7326Z" fill="url(#paint11_radial_5236_5165)"/>
<path id="Vector_13" d="M15.8894 21.8876C14.3204 21.3926 11.6774 20.2706 9.65395 17.9336C6.51895 14.3156 9.44545 9.13305 14.9789 11.7326C17.3444 7.87455 23.214 9.30255 22.434 13.9826C21.9104 17.1176 19.5914 19.8881 18.2309 21.2816C17.936 21.5908 17.5604 21.8115 17.1466 21.9186C16.7329 22.0256 16.2974 22.0149 15.8894 21.8876Z" fill="url(#paint12_linear_5236_5165)"/>
<path id="Vector_14" d="M32.115 21.8876C33.684 21.3926 36.327 20.2706 38.3505 17.9336C41.4855 14.3156 38.5605 9.13305 33.0255 11.7326C30.66 7.87455 24.7905 9.30255 25.5705 13.9826C26.094 17.1176 28.413 19.8881 29.7735 21.2816C30.3885 21.9101 31.278 22.1516 32.115 21.8876Z" fill="url(#paint13_linear_5236_5165)"/>
<path id="Vector_15" d="M17.33 17.6306C18.2086 16.7519 17.4963 14.615 15.739 12.8576C13.9816 11.1003 11.8447 10.388 10.966 11.2666C10.0873 12.1453 10.7996 14.2822 12.557 16.0396C14.3143 17.797 16.4513 18.5093 17.33 17.6306Z" fill="url(#paint14_radial_5236_5165)"/>
<path id="Vector_16" d="M32.3882 18.6652C34.0028 18.2934 34.8596 16.0287 34.302 13.6068C33.7444 11.1849 31.9834 9.52287 30.3688 9.89462C28.7542 10.2664 27.8974 12.5311 28.455 14.953C29.0126 17.3749 30.7736 19.0369 32.3882 18.6652Z" fill="url(#paint15_radial_5236_5165)"/>
<path id="Vector_17" d="M18.026 13.5095C18.9046 14.3882 20.3293 14.3882 21.2079 13.5095C22.0866 12.6309 22.0866 11.2062 21.2079 10.3276C20.3293 9.44888 18.9046 9.44888 18.026 10.3276C17.1473 11.2062 17.1473 12.6309 18.026 13.5095Z" fill="url(#paint16_radial_5236_5165)"/>
<path id="Vector_18" d="M34.4352 15.5399C35.021 16.1257 36.4456 15.6508 37.6172 14.4792C38.7888 13.3076 39.2636 11.883 38.6778 11.2972C38.0921 10.7114 36.6674 11.1863 35.4959 12.3579C34.3243 13.5295 33.8494 14.9541 34.4352 15.5399Z" fill="url(#paint17_radial_5236_5165)"/>
</g>
</g>
<defs>
<radialGradient id="paint0_radial_5236_5165" cx="0" cy="0" r="1" gradientUnits="userSpaceOnUse" gradientTransform="translate(38.2503 13.9819) rotate(132.839) scale(56.2549)">
<stop stop-color="#FFF478"/>
<stop offset="0.475" stop-color="#FFB02E"/>
<stop offset="1" stop-color="#F70A8D"/>
</radialGradient>
<radialGradient id="paint1_radial_5236_5165" cx="0" cy="0" r="1" gradientUnits="userSpaceOnUse" gradientTransform="translate(38.2482 13.9835) rotate(131.878) scale(58.423)">
<stop stop-color="#FFF478"/>
<stop offset="0.475" stop-color="#FFB02E"/>
<stop offset="1" stop-color="#F70A8D"/>
</radialGradient>
<radialGradient id="paint2_radial_5236_5165" cx="0" cy="0" r="1" gradientUnits="userSpaceOnUse" gradientTransform="translate(23.999 19.2321) rotate(101.31) scale(26.7699 34.2871)">
<stop offset="0.788" stop-color="#F59639" stop-opacity="0"/>
<stop offset="0.973" stop-color="#FF7DCE"/>
</radialGradient>
<radialGradient id="paint3_radial_5236_5165" cx="0" cy="0" r="1" gradientUnits="userSpaceOnUse" gradientTransform="translate(27 21.4826) rotate(135) scale(61.5183)">
<stop offset="0.315" stop-opacity="0"/>
<stop offset="1"/>
</radialGradient>
<radialGradient id="paint4_radial_5236_5165" cx="0" cy="0" r="1" gradientUnits="userSpaceOnUse" gradientTransform="translate(23.9999 25.9837) rotate(77.692) scale(42.2203)">
<stop offset="0.508" stop-color="#7D6133" stop-opacity="0"/>
<stop offset="1" stop-color="#715B32"/>
</radialGradient>
<radialGradient id="paint5_radial_5236_5165" cx="0" cy="0" r="1" gradientUnits="userSpaceOnUse" gradientTransform="translate(24.75 25.2326) rotate(55.713) scale(19.9702 14.4755)">
<stop stop-color="#FFB849"/>
<stop offset="1" stop-color="#FFB847" stop-opacity="0"/>
</radialGradient>
<radialGradient id="paint6_radial_5236_5165" cx="0" cy="0" r="1" gradientUnits="userSpaceOnUse" gradientTransform="translate(30.75 27.4826) rotate(9.86582) scale(17.5089)">
<stop stop-color="#FFA64B"/>
<stop offset="0.9" stop-color="#FFAE46" stop-opacity="0"/>
</radialGradient>
<radialGradient id="paint7_radial_5236_5165" cx="0" cy="0" r="1" gradientUnits="userSpaceOnUse" gradientTransform="translate(26.2501 22.983) rotate(43.971) scale(88.5793)">
<stop offset="0.185" stop-opacity="0"/>
<stop offset="1" stop-opacity="0.4"/>
</radialGradient>
<radialGradient id="paint8_radial_5236_5165" cx="0" cy="0" r="1" gradientUnits="userSpaceOnUse" gradientTransform="translate(24 40.9826) rotate(-90) scale(16.5 33)">
<stop stop-color="#F70A8D"/>
<stop offset="1" stop-color="#89029C"/>
</radialGradient>
<linearGradient id="paint9_linear_5236_5165" x1="24" y1="24.4826" x2="24" y2="26.7326" gradientUnits="userSpaceOnUse">
<stop stop-color="#ECCDFF"/>
<stop offset="1" stop-color="white"/>
</linearGradient>
<radialGradient id="paint10_radial_5236_5165" cx="0" cy="0" r="1" gradientUnits="userSpaceOnUse" gradientTransform="translate(20.9992 21.4825) rotate(-155.376) scale(19.8006 8.23042)">
<stop stop-color="#CC7521"/>
<stop offset="1" stop-color="#E6872B" stop-opacity="0"/>
</radialGradient>
<radialGradient id="paint11_radial_5236_5165" cx="0" cy="0" r="1" gradientUnits="userSpaceOnUse" gradientTransform="translate(30.0015 16.9832) rotate(122.005) scale(7.07548)">
<stop stop-color="#EC812A"/>
<stop offset="1" stop-color="#FBA84C" stop-opacity="0"/>
</radialGradient>
<linearGradient id="paint12_linear_5236_5165" x1="19.4789" y1="10.9826" x2="14.9789" y2="21.4826" gradientUnits="userSpaceOnUse">
<stop stop-color="#CA0B4A"/>
<stop offset="1" stop-color="#F70A8D"/>
</linearGradient>
<linearGradient id="paint13_linear_5236_5165" x1="36" y1="10.9826" x2="28.5" y2="22.9826" gradientUnits="userSpaceOnUse">
<stop stop-color="#CA0B4A"/>
<stop offset="1" stop-color="#F70A8D"/>
</linearGradient>
<radialGradient id="paint14_radial_5236_5165" cx="0" cy="0" r="1" gradientUnits="userSpaceOnUse" gradientTransform="translate(14.1469 14.4475) rotate(45) scale(4.65222 2.3646)">
<stop stop-color="#EC6686"/>
<stop offset="1" stop-color="#EC6686" stop-opacity="0"/>
</radialGradient>
<radialGradient id="paint15_radial_5236_5165" cx="0" cy="0" r="1" gradientUnits="userSpaceOnUse" gradientTransform="translate(31.5012 13.9838) rotate(68.199) scale(4.03887 2.73713)">
<stop stop-color="#EC6686"/>
<stop offset="0.26" stop-color="#EC6686"/>
<stop offset="1" stop-color="#EC6686" stop-opacity="0"/>
</radialGradient>
<radialGradient id="paint16_radial_5236_5165" cx="0" cy="0" r="1" gradientUnits="userSpaceOnUse" gradientTransform="translate(19.6169 11.9186) rotate(135) scale(2.25)">
<stop stop-color="#EC6686"/>
<stop offset="1" stop-color="#EC6686" stop-opacity="0"/>
</radialGradient>
<radialGradient id="paint17_radial_5236_5165" cx="0" cy="0" r="1" gradientUnits="userSpaceOnUse" gradientTransform="translate(36.5565 13.4186) rotate(135) scale(3 1.5)">
<stop stop-color="#EC6686"/>
<stop offset="1" stop-color="#EC6686" stop-opacity="0"/>
</radialGradient>
</defs>
</svg>
