<svg width="184" height="134" viewBox="0 0 184 134" fill="none" xmlns="http://www.w3.org/2000/svg">
<g id="Frame 275">
<g id="14">
<g id="Group 822">
<g id="Group 821">
<path id="Vector" d="M91.8769 111.317C119.877 111.317 142.577 88.6167 142.577 60.5167C142.577 32.4167 119.777 9.71674 91.8769 9.71674C63.8769 9.71674 41.1768 32.4167 41.1768 60.5167C41.1768 88.6167 63.8769 111.317 91.8769 111.317Z" fill="#E5E7EB"/>
<path id="Vector_2" d="M139.277 27.2168C141.541 27.2168 143.377 25.3812 143.377 23.1168C143.377 20.8524 141.541 19.0168 139.277 19.0168C137.013 19.0168 135.177 20.8524 135.177 23.1168C135.177 25.3812 137.013 27.2168 139.277 27.2168Z" fill="#E5E7EB"/>
<path id="Vector_3" d="M145.277 11.2168C146.823 11.2168 148.077 9.96316 148.077 8.41676C148.077 6.87036 146.823 5.61676 145.277 5.61676C143.731 5.61676 142.477 6.87036 142.477 8.41676C142.477 9.96316 143.731 11.2168 145.277 11.2168Z" fill="#E5E7EB"/>
<path id="Vector_4" d="M43.8769 27.1168C45.4233 27.1168 46.6769 25.8632 46.6769 24.3168C46.6769 22.7704 45.4233 21.5168 43.8769 21.5168C42.3305 21.5168 41.0769 22.7704 41.0769 24.3168C41.0769 25.8632 42.3305 27.1168 43.8769 27.1168Z" fill="#E5E7EB"/>
<path id="Vector_5" d="M26.7769 81.1167C29.6488 81.1167 31.9769 78.7886 31.9769 75.9167C31.9769 73.0449 29.6488 70.7167 26.7769 70.7167C23.905 70.7167 21.5769 73.0449 21.5769 75.9167C21.5769 78.7886 23.905 81.1167 26.7769 81.1167Z" fill="#E5E7EB"/>
</g>
<g id="Group 820">
<g id="Group 849">
<g id="Vector_6" filter="url(#filter0_d_5236_5020)">
<path d="M126.109 100.158L58.4733 100.644C54.5693 100.661 51.3858 97.5137 51.3336 93.6352L50.8094 28.9243C50.7876 25.0195 53.9307 21.8391 57.8085 21.7911L125.445 21.3059C129.349 21.2884 132.532 24.4357 132.584 28.3142L133.109 93.0252C133.13 96.9299 129.987 100.11 126.109 100.158Z" fill="url(#paint0_linear_5236_5020)"/>
</g>
<path id="Vector_7" d="M122.301 90.4966L62.8434 90.9466C61.1615 90.9615 59.8078 89.6339 59.7909 87.9517L59.3399 34.4712C59.323 32.789 60.649 31.4366 62.3308 31.4216L121.788 30.9716C123.47 30.9567 124.824 32.2844 124.841 33.9665L125.292 87.447C125.309 89.1292 123.983 90.4816 122.301 90.4966Z" fill="#E5E7EB"/>
<path id="Vector_8" d="M93.5464 70.4252L71.8565 70.5758L82.6085 58.2002L93.5464 70.4252Z" fill="#9CA3AF"/>
<path id="Vector_9" d="M111.533 70.2786L80.266 70.5009L95.751 52.7292L111.533 70.2786Z" fill="#D1D5DB"/>
<path id="Vector_10" d="M82.5878 52.7573C84.3027 51.2824 84.4959 48.695 83.0193 46.9782C81.5427 45.2614 78.9555 45.0652 77.2407 46.5401C75.5258 48.015 75.3326 50.6025 76.8092 52.3193C78.2858 54.0361 80.873 54.2322 82.5878 52.7573Z" fill="#9CA3AF"/>
</g>
<path id="Vector_11" d="M107.018 97.8129C106.708 99.1307 106.243 100.526 105.7 101.689C104.227 104.557 101.902 106.805 99.0335 108.278C96.0878 109.751 92.5993 110.371 89.1109 109.596C80.8938 107.89 75.6224 99.8284 77.3279 91.6113C79.0333 83.3941 87.0179 78.0453 95.235 79.8282C98.1808 80.4484 100.739 81.9213 102.91 83.9368C106.553 87.5802 108.103 92.8516 107.018 97.8129Z" fill="url(#paint1_linear_5236_5020)"/>
<path id="Vector_12" d="M97.018 93.3942H93.5296V89.9058C93.5296 89.2081 92.9869 88.5879 92.2117 88.5879C91.5141 88.5879 90.8939 89.1306 90.8939 89.9058V93.3942H87.4055C86.7078 93.3942 86.0876 93.9368 86.0876 94.712C86.0876 95.4872 86.6303 96.0299 87.4055 96.0299H90.8939V99.5183C90.8939 100.216 91.4365 100.836 92.2117 100.836C92.9094 100.836 93.5296 100.293 93.5296 99.5183V96.0299H97.018C97.7157 96.0299 98.3358 95.4872 98.3358 94.712C98.3358 93.9368 97.7157 93.3942 97.018 93.3942Z" fill="white"/>
</g>
</g>
</g>
</g>
<defs>
<filter id="filter0_d_5236_5020" x="28.8093" y="10.3058" width="126.299" height="123.338" filterUnits="userSpaceOnUse" color-interpolation-filters="sRGB">
<feFlood flood-opacity="0" result="BackgroundImageFix"/>
<feColorMatrix in="SourceAlpha" type="matrix" values="0 0 0 0 0 0 0 0 0 0 0 0 0 0 0 0 0 0 127 0" result="hardAlpha"/>
<feOffset dy="11"/>
<feGaussianBlur stdDeviation="11"/>
<feColorMatrix type="matrix" values="0 0 0 0 0.397708 0 0 0 0 0.47749 0 0 0 0 0.575 0 0 0 0.27 0"/>
<feBlend mode="normal" in2="BackgroundImageFix" result="effect1_dropShadow_5236_5020"/>
<feBlend mode="normal" in="SourceGraphic" in2="effect1_dropShadow_5236_5020" result="shape"/>
</filter>
<linearGradient id="paint0_linear_5236_5020" x1="55.3451" y1="18.4573" x2="127.656" y2="102.534" gradientUnits="userSpaceOnUse">
<stop stop-color="#FDFEFF"/>
<stop offset="0.9964" stop-color="#ECF0F5"/>
</linearGradient>
<linearGradient id="paint1_linear_5236_5020" x1="76.9935" y1="94.7117" x2="107.364" y2="94.7117" gradientUnits="userSpaceOnUse">
<stop stop-color="#B0BACC"/>
<stop offset="1" stop-color="#969EAE"/>
</linearGradient>
</defs>
</svg>
