<svg width="279" height="196" viewBox="0 0 279 196" fill="none" xmlns="http://www.w3.org/2000/svg">
<g filter="url(#filter0_d_1229_227)">
<rect x="-96" y="44" width="200" height="120" rx="8" fill="url(#paint0_linear_1229_227)" shape-rendering="crispEdges"/>
<rect x="-95.5" y="44.5" width="199" height="119" rx="7.5" stroke="url(#paint1_linear_1229_227)" shape-rendering="crispEdges"/>
<rect x="-88" y="76" width="128" height="31" rx="4" fill="url(#paint2_linear_1229_227)"/>
<path d="M85.4486 89.8234C86.2739 89.7512 87.0093 90.3627 86.9988 91.191C86.9771 92.8905 86.6668 94.5776 86.0774 96.1795C85.488 97.7813 84.6309 99.2673 83.546 100.576C83.0171 101.213 82.0607 101.202 81.4791 100.612C80.8974 100.022 80.9126 99.0778 81.4254 98.4271C82.2045 97.4384 82.8251 96.3308 83.2619 95.1436C83.6987 93.9564 83.944 92.7106 83.9915 91.4527C84.0227 90.6249 84.6234 89.8956 85.4486 89.8234Z" fill="#67E8F9"/>
<path d="M62.4541 100.546C61.8683 101.132 60.9119 101.136 60.3875 100.495C59.2119 99.0569 58.3107 97.4098 57.7342 95.6353C57.0027 93.384 56.8144 90.9915 57.1847 88.6535C57.555 86.3155 58.4734 84.0983 59.8647 82.1832C61.2561 80.2682 63.081 78.7096 65.1901 77.6349C67.2993 76.5602 69.6328 76 72 76C74.3672 76 76.7007 76.5602 78.8099 77.6349C80.919 78.7096 82.7439 80.2682 84.1353 82.1832C85.232 83.6927 86.0348 85.39 86.507 87.1861C86.7177 87.9873 86.152 88.7585 85.3338 88.8881C84.5156 89.0177 83.7563 88.4554 83.5257 87.6597C83.1403 86.3298 82.5265 85.0729 81.7082 83.9466C80.5951 82.4145 79.1352 81.1677 77.4479 80.3079C75.7606 79.4482 73.8937 79 72 79C70.1063 79 68.2394 79.4482 66.5521 80.3079C64.8648 81.1677 63.4049 82.4145 62.2918 83.9466C61.1787 85.4786 60.444 87.2524 60.1477 89.1228C59.8515 90.9932 60.0021 92.9072 60.5873 94.7082C61.0175 96.0323 61.6736 97.2676 62.523 98.3612C63.0312 99.0154 63.0398 99.9602 62.4541 100.546Z" fill="#CFFAFE"/>
<rect x="65.5" y="87" width="13" height="12" rx="2" fill="url(#paint3_linear_1229_227)"/>
<rect x="48" y="110" width="48" height="15" rx="4" fill="url(#paint4_linear_1229_227)"/>
<rect x="60" y="115.5" width="24" height="4" rx="2" fill="url(#paint5_linear_1229_227)"/>
<rect x="48" y="127" width="48" height="15" rx="4" fill="url(#paint6_linear_1229_227)"/>
<rect x="60" y="132.5" width="24" height="4" rx="2" fill="url(#paint7_linear_1229_227)"/>
</g>
<path d="M148.86 93.9666L148.86 93.9668C148.668 94.1454 148.442 94.2843 148.195 94.3756C147.949 94.4669 147.687 94.5088 147.425 94.4989C147.162 94.489 146.904 94.4275 146.666 94.3179C146.427 94.2083 146.212 94.0528 146.034 93.8602C145.855 93.6676 145.716 93.4417 145.625 93.1954C145.533 92.9491 145.492 92.6872 145.501 92.4248C145.511 92.1623 145.573 91.9043 145.682 91.6656C145.792 91.427 145.947 91.2123 146.14 91.0338L148.86 93.9666ZM148.86 93.9666L155.86 87.4669C155.86 87.4668 155.86 87.4667 155.86 87.4667C155.86 87.4666 155.86 87.4666 155.86 87.4666C156.062 87.2794 156.223 87.0526 156.333 86.8004C156.444 86.548 156.5 86.2756 156.5 86.0002C156.5 85.7248 156.444 85.4524 156.333 85.2C156.223 84.9476 156.062 84.7207 155.86 84.5335L148.86 78.0338L148.86 78.0336C148.668 77.855 148.442 77.716 148.195 77.6247C147.949 77.5334 147.687 77.4915 147.425 77.5014C147.162 77.5113 146.904 77.5728 146.666 77.6825C146.427 77.7921 146.212 77.9476 146.034 78.1402C145.855 78.3328 145.716 78.5587 145.625 78.805C145.533 79.0513 145.492 79.3131 145.501 79.5756C145.511 79.8381 145.573 80.0961 145.682 80.3348C145.792 80.5735 145.948 80.7883 146.14 80.9669L149.407 84.0002H133.5C132.97 84.0002 132.461 84.2109 132.086 84.586C131.711 84.961 131.5 85.4698 131.5 86.0002C131.5 86.5306 131.711 87.0393 132.086 87.4144C132.461 87.7895 132.97 88.0002 133.5 88.0002H149.407L146.14 91.0336L148.86 93.9666ZM131.14 94.0338L131.14 94.0336C131.333 93.855 131.559 93.716 131.805 93.6247C132.051 93.5334 132.313 93.4915 132.576 93.5014C132.838 93.5113 133.096 93.5728 133.335 93.6825C133.573 93.7921 133.788 93.9476 133.967 94.1403M131.14 94.0338L133.967 94.1403M131.14 94.0338L124.14 100.534C123.938 100.721 123.777 100.948 123.667 101.2C123.557 101.452 123.5 101.725 123.5 102C123.5 102.276 123.557 102.548 123.667 102.8C123.777 103.053 123.938 103.28 124.14 103.467L131.14 109.967L131.14 109.967C131.333 110.145 131.559 110.284 131.805 110.376C132.051 110.467 132.313 110.509 132.576 110.499C132.838 110.489 133.096 110.427 133.335 110.318C133.573 110.208 133.788 110.053 133.967 109.86C134.145 109.668 134.284 109.442 134.376 109.195C134.467 108.949 134.509 108.687 134.499 108.425C134.489 108.162 134.427 107.904 134.318 107.666C134.208 107.427 134.053 107.212 133.86 107.034L130.593 104H146.5C147.031 104 147.539 103.789 147.914 103.414C148.289 103.039 148.5 102.531 148.5 102C148.5 101.47 148.289 100.961 147.914 100.586C147.539 100.211 147.031 100 146.5 100H130.593L133.86 96.9669M131.14 94.0338L133.86 96.9669M133.967 94.1403C134.145 94.3328 134.284 94.5587 134.376 94.805C134.467 95.0513 134.509 95.3131 134.499 95.5756C134.489 95.8381 134.428 96.0961 134.318 96.3348C134.208 96.5735 134.053 96.7883 133.86 96.9669M133.967 94.1403L133.86 96.9669" fill="url(#paint8_linear_1229_227)" stroke="url(#paint9_linear_1229_227)"/>
<g filter="url(#filter1_d_1229_227)">
<g clip-path="url(#clip0_1229_227)">
<rect x="176" y="24" width="200" height="120" rx="8" fill="url(#paint10_linear_1229_227)" shape-rendering="crispEdges"/>
<g clip-path="url(#clip1_1229_227)">
<path fill-rule="evenodd" clip-rule="evenodd" d="M192.005 31.9999C188.266 32.9907 186.404 34.3136 184.15 37.7087C183.937 41.5723 184.619 43.7496 187.151 46.9431C190.759 48.3397 193.041 48.3653 196.862 46.9431C199.306 43.9423 200.033 41.7795 199.863 37.7087C197.762 34.4582 195.931 33.0956 192.005 31.9999ZM191.403 38.5884C191.406 38.702 191.432 38.7957 191.469 38.8808H191.46C191.459 38.9745 191.459 39.0824 191.459 39.1892C191.459 39.296 191.459 39.4017 191.457 39.4911C191.154 39.6757 190.924 39.8829 190.753 40.1043L190.751 40.0873L190.035 36.5985C189.973 36.3004 189.899 36.1103 189.757 36.0052C189.7 35.9655 189.635 35.9371 189.561 35.9229C189.571 35.9158 189.582 35.9087 189.592 35.9016C189.603 35.8945 189.614 35.8874 189.624 35.8803C189.851 35.727 190.078 35.5737 190.316 35.727C190.404 35.7838 190.447 35.8264 190.464 35.9257L190.816 37.8759C190.85 38.0236 191.026 37.9952 190.989 37.8277L190.648 35.94C190.645 35.9226 190.642 35.905 190.639 35.8871C190.62 35.7849 190.599 35.6752 190.628 35.5738C190.679 35.3983 190.843 35.2849 190.99 35.183L190.992 35.182L191.009 35.1696C191.071 35.1259 191.13 35.0842 191.182 35.0401C191.188 35.0738 191.193 35.1059 191.197 35.1353L191.202 35.165L191.423 37.4104C191.44 37.5467 191.616 37.5325 191.599 37.3707L191.412 35.4602L191.411 35.4492C191.395 35.2636 191.386 35.1709 191.528 35.0373C191.581 34.9867 191.64 34.9403 191.698 34.8945L191.73 34.8698C191.748 34.8558 191.767 34.8421 191.785 34.8287C191.837 34.7904 191.887 34.7536 191.929 34.7136C191.96 34.6853 191.985 34.654 192.005 34.6228C192.025 34.654 192.051 34.6853 192.079 34.7136C192.12 34.7544 192.168 34.7893 192.218 34.8257C192.238 34.84 192.258 34.8546 192.278 34.8698L192.304 34.8906C192.364 34.9382 192.427 34.9877 192.479 35.0373C192.624 35.1763 192.616 35.2672 192.596 35.4602L192.408 37.3707C192.391 37.5325 192.567 37.5495 192.584 37.4104L192.806 35.165C192.808 35.1518 192.81 35.1378 192.813 35.1233C192.817 35.0972 192.822 35.0692 192.826 35.0401C192.876 35.0849 192.936 35.1273 192.999 35.1718L193.013 35.182L193.017 35.1852C193.167 35.2893 193.329 35.4023 193.379 35.5738C193.409 35.6759 193.386 35.789 193.365 35.8958L193.356 35.94L193.016 37.8277C192.979 37.9952 193.158 38.0236 193.189 37.8759L193.541 35.9257C193.558 35.8264 193.601 35.7838 193.689 35.727C193.93 35.5766 194.157 35.727 194.384 35.8803C194.394 35.8874 194.405 35.8945 194.415 35.9016C194.426 35.9087 194.437 35.9158 194.446 35.9229C194.37 35.9371 194.307 35.9626 194.251 36.0052C194.106 36.1131 194.035 36.3004 193.972 36.5985L193.254 40.0873L193.251 40.1043C193.078 39.8829 192.848 39.6757 192.545 39.4911C192.543 39.3703 192.543 39.2197 192.544 39.0769C192.544 39.0084 192.545 38.9416 192.545 38.8808C192.581 38.7985 192.607 38.702 192.61 38.5884C192.615 38.3226 192.478 38.1284 192.34 37.9353L192.334 37.927C192.32 37.9073 192.306 37.8883 192.293 37.8698C192.182 37.7175 192.094 37.5974 192.056 37.3848C192.039 37.2741 191.968 37.2542 191.948 37.382C191.913 37.6095 191.828 37.7245 191.72 37.8712C191.706 37.8892 191.693 37.9078 191.679 37.927C191.537 38.1229 191.398 38.3188 191.403 38.5884ZM191.805 38.9832L191.809 38.9883C191.878 39.0775 191.95 39.1698 192.006 39.2812C192.059 39.1697 192.131 39.0773 192.201 38.9879L192.213 38.9731C192.321 38.8349 192.424 38.703 192.429 38.5034C192.435 38.2996 192.317 38.1332 192.199 37.9653L192.188 37.9499L192.17 37.9248C192.111 37.8399 192.053 37.7565 192.006 37.666C191.955 37.7653 191.89 37.859 191.824 37.9499L191.814 37.9652C191.695 38.1331 191.578 38.2996 191.583 38.5034C191.586 38.7064 191.692 38.8393 191.805 38.9802L191.807 38.9832H191.805ZM187.149 43.5931C187.322 43.667 187.481 43.7067 187.64 43.7237C187.785 43.7408 187.932 43.7379 188.091 43.7322C188.202 43.7266 188.213 43.9054 188.089 43.9111C187.927 43.9196 187.776 43.9196 187.62 43.9026C187.504 43.8912 187.387 43.8685 187.265 43.8288C187.271 43.8515 187.279 43.8713 187.288 43.8912C187.416 44.2063 187.7 44.3766 188.054 44.4476C188.426 44.5243 188.875 44.4959 189.321 44.4164C189.783 44.3341 190.237 44.1978 190.589 44.0672C190.064 43.9707 189.658 43.7919 189.377 43.5165C189.059 43.2071 188.909 42.7841 188.94 42.2277C188.96 41.8683 189.068 41.5006 189.17 41.1575L189.176 41.1346C189.246 40.8975 189.312 40.6718 189.34 40.4763C189.394 40.1072 189.301 39.8319 188.801 39.7581C188.418 39.8631 187.972 40.0391 187.512 40.2321C187.189 40.3684 186.942 40.4025 186.757 40.3656C186.661 40.3457 186.584 40.3088 186.519 40.2549C186.456 40.2009 186.408 40.1328 186.374 40.0561C186.306 39.8915 186.303 39.6758 186.348 39.4515L186.416 39.1217C186.45 38.9575 186.482 38.8003 186.507 38.634C186.425 38.7958 186.331 38.9576 186.238 39.1194L186.231 39.1317C185.943 39.6357 185.657 40.1391 185.755 40.5642C185.88 41.1036 186.513 41.2256 186.976 41.2938C187.174 41.3222 187.152 41.501 186.933 41.4641C186.678 41.4244 186.382 41.3591 186.15 41.2569C186.101 41.2342 186.056 41.2115 186.011 41.1859C186.016 41.3222 186.042 41.4386 186.082 41.5436C186.28 42.0574 186.669 42.117 187.163 42.1653C187.393 42.188 187.385 42.364 187.152 42.3441C186.902 42.3214 186.629 42.276 186.422 42.1908C186.388 42.1766 186.354 42.1596 186.323 42.1426C186.275 42.4179 186.493 42.6763 186.754 42.804C187.024 42.9346 187.342 42.9317 187.552 42.9147C187.711 42.9033 187.711 43.0935 187.555 43.0935C187.387 43.0935 187.203 43.0907 187.027 43.068C186.908 43.051 186.794 43.0254 186.692 42.9857L186.7 43.0254C186.743 43.1929 186.874 43.403 187.14 43.5846L187.149 43.5931ZM190.686 40.5559C190.828 40.2408 191.072 39.9455 191.461 39.6872C191.458 39.727 191.455 39.7638 191.452 39.8007C191.404 40.2768 191.133 40.5859 190.866 40.8891L190.865 40.8908C190.743 41.0271 190.623 41.1633 190.524 41.3138C190.53 41.0526 190.578 40.7971 190.686 40.5559ZM191.901 45.5114V44.984C191.781 44.9728 191.697 44.9479 191.597 44.9184C191.546 44.9032 191.49 44.8868 191.424 44.8705L191.417 44.8688C191.036 44.7728 190.627 44.6697 190.197 44.8023C190.024 44.8563 189.874 44.9074 189.738 44.9585L189.725 44.963C189.41 45.0745 189.151 45.1661 188.804 45.1998C188.799 45.2233 188.793 45.2473 188.788 45.2717C188.78 45.3031 188.773 45.3353 188.767 45.3672C188.761 45.3921 188.755 45.4171 188.75 45.4423C188.727 45.5409 188.705 45.6413 188.673 45.7363C188.959 45.7307 189.22 45.6114 189.475 45.4947L189.513 45.4776C189.674 45.404 189.832 45.3314 189.993 45.2878C190.664 45.1094 191.118 45.2586 191.54 45.3973L191.543 45.3985C191.589 45.4138 191.627 45.4274 191.661 45.4397C191.74 45.468 191.801 45.4898 191.901 45.5114ZM196.374 43.7237C196.533 43.7067 196.692 43.667 196.865 43.5931L196.865 43.5846C197.132 43.403 197.262 43.1929 197.305 43.0254L197.313 42.9857C197.211 43.0254 197.098 43.051 196.978 43.068C196.805 43.0907 196.621 43.0935 196.45 43.0935C196.294 43.0935 196.297 42.9033 196.453 42.9147C196.663 42.9317 196.981 42.9346 197.251 42.804C197.515 42.6763 197.733 42.4179 197.685 42.1426C197.654 42.1596 197.62 42.1766 197.586 42.1908C197.379 42.276 197.103 42.3214 196.856 42.3441C196.626 42.364 196.615 42.188 196.845 42.1653C197.342 42.117 197.731 42.0574 197.929 41.5436C197.969 41.4386 197.995 41.3222 198 41.1859C197.958 41.2115 197.912 41.2342 197.864 41.2569C197.631 41.3591 197.336 41.4244 197.081 41.4641C196.862 41.501 196.839 41.3222 197.038 41.2938C197.501 41.2256 198.134 41.1036 198.259 40.5642C198.358 40.1356 198.068 39.6275 197.776 39.1194L197.721 39.0224C197.648 38.8929 197.575 38.7635 197.509 38.634C197.54 38.8412 197.58 39.0342 197.626 39.2443L197.668 39.4515C197.714 39.6758 197.711 39.8915 197.643 40.0561C197.609 40.1328 197.56 40.2009 197.498 40.2549C197.433 40.3088 197.356 40.3457 197.259 40.3656C197.075 40.4025 196.828 40.3684 196.504 40.2321C196.044 40.0391 195.599 39.8631 195.216 39.7581C194.716 39.8319 194.625 40.1072 194.676 40.4763C194.704 40.6718 194.771 40.8975 194.84 41.1346L194.847 41.1575C194.948 41.5006 195.057 41.8683 195.076 42.2277C195.108 42.7841 194.957 43.2071 194.639 43.5165C194.358 43.7919 193.952 43.9707 193.427 44.0672C193.779 44.1978 194.233 44.3341 194.696 44.4164C195.139 44.4959 195.587 44.5243 195.959 44.4476C196.314 44.3766 196.598 44.2063 196.726 43.8912C196.734 43.8713 196.743 43.8515 196.748 43.8288C196.626 43.8685 196.51 43.8912 196.394 43.9026C196.237 43.9196 196.087 43.9196 195.925 43.9111C195.8 43.9054 195.812 43.7266 195.922 43.7322C196.081 43.7379 196.229 43.7408 196.374 43.7237ZM192.553 39.6872C192.942 39.9455 193.186 40.2408 193.328 40.5559C193.438 40.7971 193.487 41.0526 193.489 41.3138C193.39 41.1633 193.271 41.0271 193.149 40.8908L193.147 40.8891C192.881 40.5859 192.609 40.2768 192.561 39.8007L192.561 39.7997C192.558 39.7632 192.556 39.7266 192.553 39.6872ZM192.105 45.5108V45.512H192.099L192.105 45.5108ZM192.105 45.5108V44.984C192.226 44.9728 192.31 44.9479 192.409 44.9185C192.46 44.9033 192.515 44.8869 192.582 44.8705L192.585 44.8697C192.967 44.7734 193.38 44.6693 193.808 44.8023C193.981 44.8563 194.129 44.9074 194.268 44.9585L194.281 44.963C194.596 45.0745 194.854 45.1661 195.202 45.1998C195.207 45.2232 195.212 45.2473 195.218 45.2716C195.225 45.3031 195.232 45.3352 195.239 45.3672C195.264 45.4893 195.293 45.617 195.329 45.7363C195.041 45.7307 194.777 45.6089 194.522 45.4912L194.512 45.4865L194.493 45.478C194.332 45.4042 194.173 45.3315 194.009 45.2878C193.339 45.1094 192.885 45.2586 192.463 45.3973L192.46 45.3985C192.414 45.4138 192.376 45.4273 192.342 45.4396C192.263 45.4677 192.203 45.4893 192.105 45.5108ZM192.398 45.6122C192.258 45.662 192.153 45.6994 192.006 45.7107C191.861 45.6995 191.757 45.6627 191.617 45.6135C191.578 45.5995 191.535 45.5845 191.488 45.5689L191.485 45.5677C191.088 45.4375 190.66 45.2968 190.04 45.461C189.887 45.5007 189.728 45.5745 189.569 45.6483C189.47 45.6966 189.368 45.742 189.263 45.7846C189.058 45.8669 188.845 45.9237 188.61 45.9152C188.578 45.9805 188.544 46.0401 188.505 46.0969C188.874 46.0801 189.21 45.9363 189.519 45.8044L189.532 45.7988C189.722 45.7165 189.901 45.6398 190.08 45.5944C190.73 45.4326 191.057 45.5547 191.42 45.6909L191.442 45.6992C191.662 45.7825 191.804 45.8362 192.005 45.8527C192.209 45.8332 192.349 45.7806 192.579 45.695L192.59 45.6909C192.953 45.5547 193.279 45.4326 193.929 45.5944C194.108 45.6398 194.29 45.7165 194.48 45.7988C194.792 45.9351 195.133 46.0798 195.508 46.0969C195.465 46.0401 195.431 45.9805 195.403 45.9152C195.167 45.9237 194.954 45.8641 194.753 45.7846C194.652 45.7438 194.551 45.6977 194.456 45.654L194.408 45.6321C194.258 45.5639 194.114 45.4978 193.972 45.461C193.354 45.2973 192.927 45.4367 192.528 45.5667L192.521 45.5689C192.477 45.584 192.436 45.5986 192.398 45.6122ZM192.365 39.1336C192.362 39.1365 192.359 39.1402 192.356 39.1442L192.356 39.1336L192.365 39.1336ZM192.356 39.1442C192.353 39.148 192.35 39.1522 192.348 39.1564C192.251 39.2784 192.152 39.4062 192.109 39.585C192.064 39.7837 191.95 39.8007 191.908 39.5935C191.873 39.4317 191.788 39.3125 191.703 39.1989V39.2046L191.652 39.1365C191.652 39.3551 191.649 39.6304 191.632 39.8206C191.575 40.3514 191.286 40.6864 190.999 41.01C190.775 41.2655 190.556 41.5153 190.48 41.8474L190.451 41.9666L190.346 41.9042C190.131 41.7793 189.997 41.643 189.918 41.5096C189.835 41.3733 189.804 41.2456 189.79 41.132C189.773 40.9881 189.794 40.8549 189.832 40.6166L189.835 40.5984L189.843 40.5511C189.853 40.4905 189.864 40.419 189.878 40.323C189.957 39.8007 189.722 39.6361 189.316 39.6616C189.268 39.6645 189.219 39.6701 189.165 39.6786C189.503 39.8348 189.566 40.13 189.512 40.5019C189.484 40.7071 189.417 40.9333 189.347 41.173L189.339 41.2002C189.239 41.5352 189.134 41.8957 189.114 42.2392C189.086 42.7416 189.219 43.1192 189.497 43.3917C189.781 43.6699 190.219 43.8402 190.795 43.9225L190.846 43.9481C190.894 43.9992 190.945 44.0474 190.996 44.0928C191.05 44.1383 191.104 44.1837 191.161 44.2263C191.351 44.3682 191.746 44.6606 191.976 44.6549C192.217 44.6521 192.841 44.2263 192.841 44.2263C192.841 44.2263 192.955 44.1411 193.006 44.0928C193.06 44.0474 193.111 43.9992 193.159 43.9481L193.21 43.9225C193.787 43.8402 194.224 43.6699 194.508 43.3917C194.786 43.1192 194.919 42.7416 194.891 42.2392C194.871 41.8928 194.766 41.5352 194.667 41.2002C194.593 40.9504 194.525 40.7148 194.494 40.5019C194.44 40.13 194.502 39.8348 194.84 39.6786C194.789 39.6701 194.738 39.6645 194.689 39.6616C194.284 39.6332 194.048 39.8007 194.127 40.323C194.135 40.3694 194.142 40.4102 194.147 40.4471C194.156 40.5047 194.164 40.5534 194.173 40.5984C194.215 40.8453 194.238 40.9844 194.218 41.132C194.204 41.2456 194.173 41.3733 194.09 41.5096C194.008 41.643 193.878 41.7793 193.662 41.9042L193.557 41.9666L193.528 41.8474C193.452 41.5153 193.233 41.2655 193.009 41.01C192.725 40.6864 192.433 40.3514 192.376 39.8206C192.356 39.6335 192.353 39.3611 192.356 39.1442Z" fill="#CFFAFE"/>
</g>
<path d="M210.864 36.088C211.072 36.088 211.24 36.16 211.368 36.304C211.496 36.44 211.56 36.612 211.56 36.82V41.164C211.56 41.828 211.416 42.416 211.128 42.928C210.848 43.44 210.46 43.84 209.964 44.128C209.468 44.416 208.892 44.56 208.236 44.56C207.58 44.56 207 44.416 206.496 44.128C206 43.84 205.608 43.44 205.32 42.928C205.04 42.416 204.9 41.828 204.9 41.164V36.82C204.9 36.612 204.972 36.44 205.116 36.304C205.26 36.16 205.444 36.088 205.668 36.088C205.852 36.088 206.016 36.16 206.16 36.304C206.312 36.44 206.388 36.612 206.388 36.82V41.164C206.388 41.564 206.472 41.912 206.64 42.208C206.816 42.496 207.044 42.72 207.324 42.88C207.612 43.04 207.916 43.12 208.236 43.12C208.58 43.12 208.9 43.04 209.196 42.88C209.492 42.72 209.732 42.496 209.916 42.208C210.1 41.912 210.192 41.564 210.192 41.164V36.82C210.192 36.612 210.252 36.44 210.372 36.304C210.492 36.16 210.656 36.088 210.864 36.088ZM216.205 44.5C215.981 44.5 215.797 44.432 215.653 44.296C215.509 44.152 215.437 43.976 215.437 43.768V36.808H216.997V43.768C216.997 43.976 216.921 44.152 216.769 44.296C216.625 44.432 216.437 44.5 216.205 44.5ZM213.553 37.48C213.345 37.48 213.169 37.416 213.025 37.288C212.889 37.16 212.821 36.992 212.821 36.784C212.821 36.576 212.889 36.412 213.025 36.292C213.169 36.164 213.345 36.1 213.553 36.1H218.881C219.089 36.1 219.261 36.164 219.397 36.292C219.541 36.42 219.613 36.588 219.613 36.796C219.613 37.004 219.541 37.172 219.397 37.3C219.261 37.42 219.089 37.48 218.881 37.48H213.553ZM224.629 36.1C225.397 36.1 225.969 36.28 226.345 36.64C226.721 37 226.909 37.532 226.909 38.236C226.909 38.612 226.817 38.944 226.633 39.232C226.449 39.512 226.177 39.732 225.817 39.892C225.457 40.044 225.013 40.12 224.485 40.12L224.533 39.58C224.781 39.58 225.065 39.616 225.385 39.688C225.705 39.752 226.013 39.872 226.309 40.048C226.613 40.216 226.861 40.456 227.053 40.768C227.253 41.072 227.353 41.464 227.353 41.944C227.353 42.472 227.265 42.904 227.089 43.24C226.921 43.576 226.697 43.836 226.417 44.02C226.137 44.204 225.837 44.332 225.517 44.404C225.197 44.468 224.889 44.5 224.593 44.5H221.605C221.397 44.5 221.221 44.432 221.077 44.296C220.941 44.152 220.873 43.976 220.873 43.768V36.832C220.873 36.624 220.941 36.452 221.077 36.316C221.221 36.172 221.397 36.1 221.605 36.1H224.629ZM224.413 37.516H222.277L222.433 37.324V39.496L222.289 39.388H224.449C224.681 39.388 224.889 39.312 225.073 39.16C225.257 39.008 225.349 38.788 225.349 38.5C225.349 38.156 225.261 37.908 225.085 37.756C224.917 37.596 224.693 37.516 224.413 37.516ZM224.509 40.804H222.325L222.433 40.708V43.24L222.313 43.12H224.593C224.961 43.12 225.253 43.024 225.469 42.832C225.685 42.632 225.793 42.336 225.793 41.944C225.793 41.584 225.721 41.324 225.577 41.164C225.433 41.004 225.261 40.904 225.061 40.864C224.861 40.824 224.677 40.804 224.509 40.804ZM234.52 44.5C234.296 44.5 234.116 44.408 233.98 44.224L231.208 40.576L232.3 39.46L235.168 43.252C235.28 43.404 235.336 43.568 235.336 43.744C235.336 43.968 235.252 44.152 235.084 44.296C234.916 44.432 234.728 44.5 234.52 44.5ZM234.664 36.04C234.856 36.04 235.012 36.12 235.132 36.28C235.26 36.432 235.324 36.588 235.324 36.748C235.324 36.916 235.252 37.072 235.108 37.216L230.08 42.028L230.02 40.312L234.076 36.316C234.26 36.132 234.456 36.04 234.664 36.04ZM229.48 44.5C229.256 44.5 229.076 44.432 228.94 44.296C228.804 44.152 228.736 43.976 228.736 43.768V36.832C228.736 36.624 228.808 36.452 228.952 36.316C229.096 36.172 229.28 36.1 229.504 36.1C229.728 36.1 229.904 36.172 230.032 36.316C230.168 36.452 230.236 36.624 230.236 36.832V43.768C230.236 43.976 230.168 44.152 230.032 44.296C229.896 44.432 229.712 44.5 229.48 44.5ZM237.031 41.536C236.823 41.536 236.647 41.468 236.503 41.332C236.367 41.196 236.299 41.024 236.299 40.816C236.299 40.608 236.367 40.44 236.503 40.312C236.647 40.176 236.823 40.108 237.031 40.108H239.119C239.327 40.108 239.499 40.18 239.635 40.324C239.779 40.46 239.851 40.632 239.851 40.84C239.851 41.04 239.779 41.208 239.635 41.344C239.499 41.472 239.327 41.536 239.119 41.536H237.031ZM244.057 44.62C243.497 44.62 242.993 44.552 242.545 44.416C242.097 44.272 241.669 44.024 241.261 43.672C241.157 43.584 241.077 43.484 241.021 43.372C240.965 43.26 240.937 43.148 240.937 43.036C240.937 42.852 241.001 42.692 241.129 42.556C241.265 42.412 241.433 42.34 241.633 42.34C241.785 42.34 241.921 42.388 242.041 42.484C242.345 42.732 242.645 42.92 242.941 43.048C243.245 43.176 243.617 43.24 244.057 43.24C244.353 43.24 244.625 43.196 244.873 43.108C245.121 43.012 245.321 42.888 245.473 42.736C245.625 42.576 245.701 42.396 245.701 42.196C245.701 41.956 245.629 41.752 245.485 41.584C245.341 41.416 245.121 41.276 244.825 41.164C244.529 41.044 244.153 40.952 243.697 40.888C243.265 40.824 242.885 40.728 242.557 40.6C242.229 40.464 241.953 40.296 241.729 40.096C241.513 39.888 241.349 39.648 241.237 39.376C241.125 39.096 241.069 38.784 241.069 38.44C241.069 37.92 241.201 37.476 241.465 37.108C241.737 36.74 242.101 36.46 242.557 36.268C243.013 36.076 243.517 35.98 244.069 35.98C244.589 35.98 245.069 36.06 245.509 36.22C245.957 36.372 246.321 36.568 246.601 36.808C246.833 36.992 246.949 37.204 246.949 37.444C246.949 37.62 246.881 37.78 246.745 37.924C246.609 38.068 246.449 38.14 246.265 38.14C246.145 38.14 246.037 38.104 245.941 38.032C245.813 37.92 245.641 37.816 245.425 37.72C245.209 37.616 244.981 37.532 244.741 37.468C244.501 37.396 244.277 37.36 244.069 37.36C243.725 37.36 243.433 37.404 243.193 37.492C242.961 37.58 242.785 37.7 242.665 37.852C242.545 38.004 242.485 38.18 242.485 38.38C242.485 38.62 242.553 38.82 242.689 38.98C242.833 39.132 243.037 39.256 243.301 39.352C243.565 39.44 243.881 39.52 244.249 39.592C244.729 39.68 245.149 39.784 245.509 39.904C245.877 40.024 246.181 40.18 246.421 40.372C246.661 40.556 246.841 40.792 246.961 41.08C247.081 41.36 247.141 41.704 247.141 42.112C247.141 42.632 246.997 43.08 246.709 43.456C246.421 43.832 246.041 44.12 245.569 44.32C245.105 44.52 244.601 44.62 244.057 44.62ZM254.889 36.1C255.081 36.1 255.237 36.164 255.357 36.292C255.477 36.42 255.537 36.58 255.537 36.772V43.768C255.537 43.976 255.465 44.152 255.321 44.296C255.185 44.432 255.013 44.5 254.805 44.5C254.701 44.5 254.593 44.484 254.481 44.452C254.377 44.412 254.297 44.36 254.241 44.296L249.525 38.308L249.837 38.116V43.828C249.837 44.02 249.773 44.18 249.645 44.308C249.525 44.436 249.365 44.5 249.165 44.5C248.973 44.5 248.817 44.436 248.697 44.308C248.577 44.18 248.517 44.02 248.517 43.828V36.832C248.517 36.624 248.585 36.452 248.721 36.316C248.865 36.172 249.041 36.1 249.249 36.1C249.361 36.1 249.477 36.124 249.597 36.172C249.717 36.212 249.805 36.276 249.861 36.364L254.433 42.196L254.229 42.34V36.772C254.229 36.58 254.289 36.42 254.409 36.292C254.529 36.164 254.689 36.1 254.889 36.1ZM261.097 36.1C261.865 36.1 262.437 36.28 262.813 36.64C263.189 37 263.377 37.532 263.377 38.236C263.377 38.612 263.285 38.944 263.101 39.232C262.917 39.512 262.645 39.732 262.285 39.892C261.925 40.044 261.481 40.12 260.953 40.12L261.001 39.58C261.249 39.58 261.533 39.616 261.853 39.688C262.173 39.752 262.481 39.872 262.777 40.048C263.081 40.216 263.329 40.456 263.521 40.768C263.721 41.072 263.821 41.464 263.821 41.944C263.821 42.472 263.733 42.904 263.557 43.24C263.389 43.576 263.165 43.836 262.885 44.02C262.605 44.204 262.305 44.332 261.985 44.404C261.665 44.468 261.357 44.5 261.061 44.5H258.073C257.865 44.5 257.689 44.432 257.545 44.296C257.409 44.152 257.341 43.976 257.341 43.768V36.832C257.341 36.624 257.409 36.452 257.545 36.316C257.689 36.172 257.865 36.1 258.073 36.1H261.097ZM260.881 37.516H258.745L258.901 37.324V39.496L258.757 39.388H260.917C261.149 39.388 261.357 39.312 261.541 39.16C261.725 39.008 261.817 38.788 261.817 38.5C261.817 38.156 261.729 37.908 261.553 37.756C261.385 37.596 261.161 37.516 260.881 37.516ZM260.977 40.804H258.793L258.901 40.708V43.24L258.781 43.12H261.061C261.429 43.12 261.721 43.024 261.937 42.832C262.153 42.632 262.261 42.336 262.261 41.944C262.261 41.584 262.189 41.324 262.045 41.164C261.901 41.004 261.729 40.904 261.529 40.864C261.329 40.824 261.145 40.804 260.977 40.804ZM267.873 44.5C267.649 44.5 267.465 44.432 267.321 44.296C267.177 44.152 267.105 43.976 267.105 43.768V36.808H268.665V43.768C268.665 43.976 268.589 44.152 268.437 44.296C268.293 44.432 268.105 44.5 267.873 44.5ZM265.221 37.48C265.013 37.48 264.837 37.416 264.693 37.288C264.557 37.16 264.489 36.992 264.489 36.784C264.489 36.576 264.557 36.412 264.693 36.292C264.837 36.164 265.013 36.1 265.221 36.1H270.549C270.757 36.1 270.929 36.164 271.065 36.292C271.209 36.42 271.281 36.588 271.281 36.796C271.281 37.004 271.209 37.172 271.065 37.3C270.929 37.42 270.757 37.48 270.549 37.48H265.221Z" fill="#CFFAFE"/>
<rect x="184" y="56" width="159" height="31" rx="4" fill="url(#paint11_linear_1229_227)"/>
<rect x="184" y="95" width="64" height="8" rx="4" fill="url(#paint12_linear_1229_227)"/>
<rect x="196" y="97" width="40" height="4" rx="2" fill="url(#paint13_linear_1229_227)"/>
<rect x="184" y="111" width="68" height="8" rx="4" fill="url(#paint14_linear_1229_227)"/>
<rect x="196" y="113" width="44" height="4" rx="2" fill="url(#paint15_linear_1229_227)"/>
<rect x="184" y="127" width="58" height="8" rx="4" fill="url(#paint16_linear_1229_227)"/>
<rect x="196" y="129" width="34" height="4" rx="2" fill="url(#paint17_linear_1229_227)"/>
<rect x="184" y="143" width="75" height="8" rx="4" fill="url(#paint18_linear_1229_227)"/>
</g>
<rect x="176.5" y="24.5" width="199" height="119" rx="7.5" stroke="url(#paint19_linear_1229_227)" shape-rendering="crispEdges"/>
</g>
<defs>
<filter id="filter0_d_1229_227" x="-116" y="36" width="240" height="160" filterUnits="userSpaceOnUse" color-interpolation-filters="sRGB">
<feFlood flood-opacity="0" result="BackgroundImageFix"/>
<feColorMatrix in="SourceAlpha" type="matrix" values="0 0 0 0 0 0 0 0 0 0 0 0 0 0 0 0 0 0 127 0" result="hardAlpha"/>
<feOffset dy="12"/>
<feGaussianBlur stdDeviation="10"/>
<feComposite in2="hardAlpha" operator="out"/>
<feColorMatrix type="matrix" values="0 0 0 0 0.101961 0 0 0 0 0.458824 0 0 0 0 0.564706 0 0 0 1 0"/>
<feBlend mode="normal" in2="BackgroundImageFix" result="effect1_dropShadow_1229_227"/>
<feBlend mode="normal" in="SourceGraphic" in2="effect1_dropShadow_1229_227" result="shape"/>
</filter>
<filter id="filter1_d_1229_227" x="156" y="16" width="240" height="160" filterUnits="userSpaceOnUse" color-interpolation-filters="sRGB">
<feFlood flood-opacity="0" result="BackgroundImageFix"/>
<feColorMatrix in="SourceAlpha" type="matrix" values="0 0 0 0 0 0 0 0 0 0 0 0 0 0 0 0 0 0 127 0" result="hardAlpha"/>
<feOffset dy="12"/>
<feGaussianBlur stdDeviation="10"/>
<feComposite in2="hardAlpha" operator="out"/>
<feColorMatrix type="matrix" values="0 0 0 0 0.101961 0 0 0 0 0.458824 0 0 0 0 0.564706 0 0 0 1 0"/>
<feBlend mode="normal" in2="BackgroundImageFix" result="effect1_dropShadow_1229_227"/>
<feBlend mode="normal" in="SourceGraphic" in2="effect1_dropShadow_1229_227" result="shape"/>
</filter>
<linearGradient id="paint0_linear_1229_227" x1="4" y1="44" x2="4" y2="164" gradientUnits="userSpaceOnUse">
<stop stop-color="#A9F4FC" stop-opacity="0"/>
<stop offset="1" stop-color="#A9F4FC"/>
</linearGradient>
<linearGradient id="paint1_linear_1229_227" x1="4" y1="44" x2="4" y2="164" gradientUnits="userSpaceOnUse">
<stop stop-color="#D1FAFE"/>
<stop offset="1" stop-color="#D1FAFE" stop-opacity="0"/>
</linearGradient>
<linearGradient id="paint2_linear_1229_227" x1="-24" y1="76" x2="-24" y2="107" gradientUnits="userSpaceOnUse">
<stop stop-color="#A9F4FC" stop-opacity="0"/>
<stop offset="1" stop-color="#A9F4FC"/>
</linearGradient>
<linearGradient id="paint3_linear_1229_227" x1="72" y1="87" x2="72" y2="99" gradientUnits="userSpaceOnUse">
<stop stop-color="#1A7590" stop-opacity="0"/>
<stop offset="1" stop-color="#1A7590"/>
</linearGradient>
<linearGradient id="paint4_linear_1229_227" x1="72" y1="110" x2="72" y2="125" gradientUnits="userSpaceOnUse">
<stop stop-color="#25B7D4" stop-opacity="0"/>
<stop offset="1" stop-color="#25B7D4"/>
</linearGradient>
<linearGradient id="paint5_linear_1229_227" x1="72" y1="115.5" x2="72" y2="119.5" gradientUnits="userSpaceOnUse">
<stop stop-color="#1A7590" stop-opacity="0"/>
<stop offset="1" stop-color="#1A7590"/>
</linearGradient>
<linearGradient id="paint6_linear_1229_227" x1="72" y1="127" x2="72" y2="142" gradientUnits="userSpaceOnUse">
<stop stop-color="#25B7D4" stop-opacity="0"/>
<stop offset="1" stop-color="#25B7D4"/>
</linearGradient>
<linearGradient id="paint7_linear_1229_227" x1="72" y1="132.5" x2="72" y2="136.5" gradientUnits="userSpaceOnUse">
<stop stop-color="#1A7590" stop-opacity="0"/>
<stop offset="1" stop-color="#1A7590"/>
</linearGradient>
<linearGradient id="paint8_linear_1229_227" x1="140" y1="78" x2="140" y2="110" gradientUnits="userSpaceOnUse">
<stop offset="0.729167" stop-color="#A9F4FC" stop-opacity="0.2"/>
<stop offset="1" stop-color="#A9F4FC" stop-opacity="0.6"/>
</linearGradient>
<linearGradient id="paint9_linear_1229_227" x1="140" y1="78" x2="140" y2="110" gradientUnits="userSpaceOnUse">
<stop stop-color="#A9F4FC" stop-opacity="0.4"/>
<stop offset="1" stop-color="#A9F4FC" stop-opacity="0.7"/>
</linearGradient>
<linearGradient id="paint10_linear_1229_227" x1="276" y1="24" x2="276" y2="144" gradientUnits="userSpaceOnUse">
<stop stop-color="#A9F4FC" stop-opacity="0"/>
<stop offset="1" stop-color="#A9F4FC"/>
</linearGradient>
<linearGradient id="paint11_linear_1229_227" x1="263.5" y1="56" x2="263.5" y2="87" gradientUnits="userSpaceOnUse">
<stop stop-color="#A9F4FC" stop-opacity="0"/>
<stop offset="1" stop-color="#A9F4FC"/>
</linearGradient>
<linearGradient id="paint12_linear_1229_227" x1="216" y1="95" x2="216" y2="103" gradientUnits="userSpaceOnUse">
<stop stop-color="#A9F4FC" stop-opacity="0"/>
<stop offset="1" stop-color="#A9F4FC"/>
</linearGradient>
<linearGradient id="paint13_linear_1229_227" x1="216" y1="97" x2="216" y2="101" gradientUnits="userSpaceOnUse">
<stop stop-color="#1A7590" stop-opacity="0"/>
<stop offset="1" stop-color="#1A7590"/>
</linearGradient>
<linearGradient id="paint14_linear_1229_227" x1="218" y1="111" x2="218" y2="119" gradientUnits="userSpaceOnUse">
<stop stop-color="#A9F4FC" stop-opacity="0"/>
<stop offset="1" stop-color="#A9F4FC"/>
</linearGradient>
<linearGradient id="paint15_linear_1229_227" x1="218" y1="113" x2="218" y2="117" gradientUnits="userSpaceOnUse">
<stop stop-color="#1A7590" stop-opacity="0"/>
<stop offset="1" stop-color="#1A7590"/>
</linearGradient>
<linearGradient id="paint16_linear_1229_227" x1="213" y1="127" x2="213" y2="135" gradientUnits="userSpaceOnUse">
<stop stop-color="#A9F4FC" stop-opacity="0"/>
<stop offset="1" stop-color="#A9F4FC"/>
</linearGradient>
<linearGradient id="paint17_linear_1229_227" x1="213" y1="129" x2="213" y2="133" gradientUnits="userSpaceOnUse">
<stop stop-color="#1A7590" stop-opacity="0"/>
<stop offset="1" stop-color="#1A7590"/>
</linearGradient>
<linearGradient id="paint18_linear_1229_227" x1="221.5" y1="143" x2="221.5" y2="151" gradientUnits="userSpaceOnUse">
<stop stop-color="#A9F4FC" stop-opacity="0"/>
<stop offset="1" stop-color="#A9F4FC"/>
</linearGradient>
<linearGradient id="paint19_linear_1229_227" x1="276" y1="24" x2="276" y2="144" gradientUnits="userSpaceOnUse">
<stop stop-color="#D1FAFE"/>
<stop offset="1" stop-color="#D1FAFE" stop-opacity="0"/>
</linearGradient>
<clipPath id="clip0_1229_227">
<rect x="176" y="24" width="200" height="120" rx="8" fill="white"/>
</clipPath>
<clipPath id="clip1_1229_227">
<rect width="16" height="16" fill="white" transform="translate(184 32)"/>
</clipPath>
</defs>
</svg>
