<svg width="178" height="48" viewBox="0 0 178 48" fill="none" xmlns="http://www.w3.org/2000/svg">
<mask id="path-1-outside-1_1142_3035" maskUnits="userSpaceOnUse" x="0.5" y="0" width="177" height="48" fill="black">
<rect fill="white" x="0.5" width="177" height="48"/>
<path d="M1.5 0H176.5V48H1.5V0Z"/>
</mask>
<path d="M1.5 0H176.5V48H1.5V0Z" fill="url(#paint0_linear_1142_3035)"/>
<path d="M175.5 0V48H177.5V0H175.5ZM2.5 48V0H0.5V48H2.5Z" fill="#FEF3C7" mask="url(#path-1-outside-1_1142_3035)"/>
<path d="M26.4366 23.8762C26.4366 23.8762 27.4249 22.6023 26.7857 20.833C26.1443 19.0649 24.6506 18.3934 24.6506 18.3934C24.6506 18.3934 23.5328 19.9116 24.1575 21.6351C24.7811 23.3597 26.4366 23.8762 26.4366 23.8762Z" fill="#D97706"/>
<path d="M29.1801 24.7808C29.1801 24.7808 30.908 24.6425 31.8975 23.0975C32.887 21.5536 32.1306 19.8268 32.1306 19.8268C32.1306 19.8268 30.5265 20.1525 29.5103 21.7377C28.4951 23.3217 29.1801 24.7808 29.1801 24.7808Z" fill="#D97706"/>
<path d="M29.355 26.8223C28.5552 28.5257 29.4242 29.8844 29.4242 29.8844C29.4242 29.8844 31.1209 29.5208 31.8995 27.862C32.677 26.2009 31.7021 24.5879 31.7021 24.5879C31.7021 24.5879 30.1548 25.1189 29.355 26.8223Z" fill="#D97706"/>
<path d="M33.2591 28.1943C33.2591 28.1943 31.7676 28.8703 31.1317 30.6396C30.4959 32.4121 31.4876 33.6816 31.4876 33.6816C31.4876 33.6816 33.1408 33.1607 33.761 31.4349C34.3802 29.7092 33.2591 28.1943 33.2591 28.1943Z" fill="#D97706"/>
<path d="M34.5025 37.5113C34.5025 37.5113 35.9371 36.5352 36.0342 34.7046C36.1301 32.8729 34.6186 31.7462 34.6186 31.7462C34.6186 31.7462 33.3848 32.8227 33.2855 34.7012C33.1873 36.5787 34.5025 37.5113 34.5025 37.5113Z" fill="#D97706"/>
<path d="M28.6388 20.4671C28.6388 20.4671 30.1682 19.9562 30.6167 18.1301C31.0662 16.304 30.1972 14.9163 30.1972 14.9163C30.1972 14.9163 28.4258 15.5588 27.9874 17.3403C27.5501 19.1207 28.6388 20.4671 28.6388 20.4671Z" fill="#D97706"/>
<path d="M26.4352 27.7593C26.4352 27.7593 27.003 26.25 25.8708 24.7496C24.7363 23.2481 23.1121 23.0462 23.1121 23.0462C23.1121 23.0462 22.4918 24.8266 23.5962 26.2902C24.7006 27.7548 26.4352 27.7593 26.4352 27.7593Z" fill="#D97706"/>
<path d="M27.7034 31.7417C27.7034 31.7417 27.9209 30.1443 26.4841 28.9329C25.0451 27.7203 23.4164 27.8854 23.4164 27.8854C23.4164 27.8854 23.2067 29.7595 24.6078 30.9408C26.0111 32.121 27.7034 31.7417 27.7034 31.7417Z" fill="#D97706"/>
<path d="M29.6318 35.0348C29.6318 35.0348 29.3585 33.4463 27.6205 32.7279C25.8814 32.0072 24.3799 32.6576 24.3799 32.6576C24.3799 32.6576 24.748 34.5071 26.4414 35.2099C28.1347 35.9094 29.6318 35.0348 29.6318 35.0348Z" fill="#D97706"/>
<path d="M30.4751 36.4024C28.6635 35.8959 27.249 36.7203 27.249 36.7203C27.249 36.7203 27.8347 38.5118 29.5994 39.006C31.3664 39.5002 32.7475 38.4527 32.7475 38.4527C32.7475 38.4527 32.2867 36.9077 30.4751 36.4024Z" fill="#D97706"/>
<path d="M28.8282 21.5559L28.0228 21.1599C27.9804 21.248 23.8373 30.0484 35.4789 40L36.0612 39.3184C24.9774 29.842 28.6653 21.8894 28.8282 21.5559Z" fill="#D97706"/>
<path d="M45.212 32C44.764 32 44.396 31.864 44.108 31.592C43.82 31.304 43.676 30.952 43.676 30.536V18.44L44.012 18.968L42.26 20.264C42.036 20.44 41.756 20.528 41.42 20.528C41.036 20.528 40.7 20.384 40.412 20.096C40.124 19.808 39.98 19.464 39.98 19.064C39.98 18.552 40.228 18.136 40.724 17.816L44.18 15.512C44.34 15.4 44.516 15.32 44.708 15.272C44.916 15.224 45.108 15.2 45.284 15.2C45.748 15.2 46.116 15.344 46.388 15.632C46.66 15.904 46.796 16.248 46.796 16.664V30.536C46.796 30.952 46.644 31.304 46.34 31.592C46.052 31.864 45.676 32 45.212 32Z" fill="#92400E"/>
<path d="M62.5629 23.8773C62.5629 23.8773 61.5734 22.6034 62.2137 20.8352C62.8529 19.066 64.3477 18.3945 64.3477 18.3945C64.3477 18.3945 65.4644 19.9116 64.8397 21.6362C64.2183 23.3608 62.5629 23.8773 62.5629 23.8773Z" fill="#D97706"/>
<path d="M59.8199 24.782C59.8199 24.782 58.092 24.6426 57.1014 23.0987C56.1119 21.5548 56.8682 19.8279 56.8682 19.8279C56.8682 19.8279 58.4723 20.1537 59.4897 21.7377C60.5048 23.3229 59.8199 24.782 59.8199 24.782Z" fill="#D97706"/>
<path d="M59.6449 26.8223C60.4447 28.5257 59.5757 29.8844 59.5757 29.8844C59.5757 29.8844 57.879 29.5207 57.0992 27.862C56.3228 26.2009 57.2967 24.5879 57.2967 24.5879C57.2967 24.5879 58.845 25.12 59.6449 26.8223Z" fill="#D97706"/>
<path d="M55.7397 28.1955C55.7397 28.1955 57.23 28.8704 57.867 30.643C58.5028 32.4144 57.51 33.6839 57.51 33.6839C57.51 33.6839 55.8579 33.1618 55.2377 31.4361C54.6174 29.7104 55.7397 28.1955 55.7397 28.1955Z" fill="#D97706"/>
<path d="M54.4939 37.5113C54.4939 37.5113 53.0604 36.5363 52.9634 34.7046C52.8674 32.8729 54.3801 31.7451 54.3801 31.7451C54.3801 31.7451 55.6116 32.8216 55.712 34.7013C55.8113 36.5809 54.4939 37.5113 54.4939 37.5113Z" fill="#D97706"/>
<path d="M60.3585 20.4682C60.3585 20.4682 58.8313 19.9573 58.3829 18.1312C57.9333 16.3051 58.8034 14.9163 58.8034 14.9163C58.8034 14.9163 60.5749 15.5588 61.0122 17.3414C61.4495 19.1207 60.3585 20.4682 60.3585 20.4682Z" fill="#D97706"/>
<path d="M62.5644 27.7604C62.5644 27.7604 61.9966 26.2511 63.1277 24.7507C64.2622 23.2492 65.8875 23.0473 65.8875 23.0473C65.8875 23.0473 66.5089 24.8277 65.4034 26.2913C64.2979 27.7559 62.5644 27.7604 62.5644 27.7604Z" fill="#D97706"/>
<path d="M61.297 31.7429C61.297 31.7429 61.0784 30.1454 62.5163 28.9317C63.9553 27.7203 65.584 27.8854 65.584 27.8854C65.584 27.8854 65.7937 29.7606 64.3915 30.9408C62.9893 32.121 61.297 31.7429 61.297 31.7429Z" fill="#D97706"/>
<path d="M59.3652 35.0359C59.3652 35.0359 59.6397 33.4463 61.3776 32.7268C63.1179 32.0062 64.6182 32.6565 64.6182 32.6565C64.6182 32.6565 64.2501 34.506 62.5568 35.2077C60.8623 35.9105 59.3652 35.0359 59.3652 35.0359Z" fill="#D97706"/>
<path d="M58.522 36.4035C60.3337 35.8982 61.7493 36.7214 61.7493 36.7214C61.7493 36.7214 61.1647 38.5119 59.3989 39.0094C57.633 39.5013 56.252 38.4539 56.252 38.4539C56.252 38.4539 56.7115 36.91 58.522 36.4035Z" fill="#D97706"/>
<path d="M60.1703 21.557L60.9779 21.1609C61.0203 21.2491 65.1634 30.0495 53.5206 40L52.9395 39.3184C64.0211 29.8442 60.3332 21.8894 60.1703 21.557Z" fill="#D97706"/>
<rect x="79.5" y="15" width="2" height="18" rx="1" fill="#F59E0B"/>
<path d="M98.3928 31.5C98.0195 31.5 97.7128 31.3867 97.4728 31.16C97.2328 30.92 97.1128 30.6267 97.1128 30.28V20.2L97.3928 20.64L95.9328 21.72C95.7461 21.8667 95.5128 21.94 95.2328 21.94C94.9128 21.94 94.6328 21.82 94.3928 21.58C94.1528 21.34 94.0328 21.0533 94.0328 20.72C94.0328 20.2933 94.2395 19.9467 94.6528 19.68L97.5328 17.76C97.6661 17.6667 97.8128 17.6 97.9728 17.56C98.1461 17.52 98.3061 17.5 98.4528 17.5C98.8395 17.5 99.1461 17.62 99.3728 17.86C99.5995 18.0867 99.7128 18.3733 99.7128 18.72V30.28C99.7128 30.6267 99.5861 30.92 99.3328 31.16C99.0928 31.3867 98.7795 31.5 98.3928 31.5ZM105.406 31.6C105.073 31.6 104.78 31.4933 104.526 31.28C104.286 31.0533 104.166 30.7733 104.166 30.44C104.166 30.2533 104.206 30.0733 104.286 29.9L109.186 19.28L109.406 19.82H103.626C103.306 19.82 103.04 19.7133 102.826 19.5C102.613 19.2867 102.506 19.02 102.506 18.7C102.506 18.3933 102.613 18.14 102.826 17.94C103.04 17.7267 103.306 17.62 103.626 17.62H110.586C110.933 17.62 111.233 17.7333 111.486 17.96C111.753 18.1733 111.886 18.4533 111.886 18.8C111.886 18.9733 111.846 19.1533 111.766 19.34L106.506 30.84C106.413 31.08 106.26 31.2667 106.046 31.4C105.846 31.5333 105.633 31.6 105.406 31.6ZM120.103 24.4L120.063 23.94C120.569 24.1667 121.009 24.46 121.383 24.82C121.756 25.18 122.043 25.5733 122.243 26C122.443 26.4267 122.543 26.8667 122.543 27.32C122.543 28.08 122.329 28.78 121.903 29.42C121.489 30.0467 120.929 30.5533 120.223 30.94C119.516 31.3133 118.729 31.5 117.863 31.5C116.996 31.5 116.209 31.3133 115.503 30.94C114.796 30.5533 114.229 30.0467 113.803 29.42C113.389 28.78 113.183 28.08 113.183 27.32C113.183 26.7067 113.309 26.18 113.563 25.74C113.829 25.2867 114.156 24.9067 114.543 24.6C114.943 24.2933 115.336 24.04 115.723 23.84L115.563 24.4C115.229 24.2667 114.903 24.08 114.583 23.84C114.276 23.5867 114.023 23.2667 113.823 22.88C113.623 22.4933 113.523 22.04 113.523 21.52C113.523 20.7733 113.716 20.1 114.103 19.5C114.489 18.8867 115.009 18.4 115.663 18.04C116.329 17.68 117.063 17.5 117.863 17.5C118.676 17.5 119.403 17.68 120.043 18.04C120.696 18.4 121.216 18.8867 121.603 19.5C121.989 20.1 122.183 20.7733 122.183 21.52C122.183 22.0933 122.069 22.5733 121.843 22.96C121.616 23.3467 121.343 23.6533 121.023 23.88C120.703 24.1067 120.396 24.28 120.103 24.4ZM115.923 21.56C115.923 21.92 116.003 22.24 116.163 22.52C116.336 22.8 116.569 23.0267 116.863 23.2C117.156 23.36 117.489 23.44 117.863 23.44C118.236 23.44 118.563 23.36 118.843 23.2C119.136 23.0267 119.363 22.8 119.523 22.52C119.696 22.24 119.783 21.92 119.783 21.56C119.783 21.0267 119.596 20.5867 119.223 20.24C118.863 19.88 118.409 19.7 117.863 19.7C117.303 19.7 116.836 19.88 116.463 20.24C116.103 20.5867 115.923 21.0267 115.923 21.56ZM117.863 29.3C118.503 29.3 119.043 29.1067 119.483 28.72C119.923 28.32 120.143 27.84 120.143 27.28C120.143 26.8933 120.043 26.5467 119.843 26.24C119.643 25.9333 119.369 25.6933 119.023 25.52C118.676 25.3333 118.289 25.24 117.863 25.24C117.436 25.24 117.049 25.3333 116.703 25.52C116.356 25.6933 116.083 25.9333 115.883 26.24C115.683 26.5467 115.583 26.8933 115.583 27.28C115.583 27.84 115.803 28.32 116.243 28.72C116.683 29.1067 117.223 29.3 117.863 29.3ZM129.48 31.7C128.333 31.7 127.36 31.4 126.56 30.8C125.773 30.1867 125.173 29.34 124.76 28.26C124.347 27.1667 124.14 25.9133 124.14 24.5C124.14 23.0733 124.347 21.82 124.76 20.74C125.173 19.66 125.773 18.82 126.56 18.22C127.36 17.6067 128.333 17.3 129.48 17.3C130.627 17.3 131.593 17.6067 132.38 18.22C133.18 18.82 133.787 19.66 134.2 20.74C134.613 21.82 134.82 23.0733 134.82 24.5C134.82 25.9133 134.613 27.1667 134.2 28.26C133.787 29.34 133.18 30.1867 132.38 30.8C131.593 31.4 130.627 31.7 129.48 31.7ZM129.48 29.3C130.04 29.3 130.52 29.1267 130.92 28.78C131.333 28.42 131.653 27.8867 131.88 27.18C132.107 26.46 132.22 25.5667 132.22 24.5C132.22 23.42 132.107 22.5267 131.88 21.82C131.653 21.1133 131.333 20.5867 130.92 20.24C130.52 19.88 130.04 19.7 129.48 19.7C128.933 19.7 128.453 19.88 128.04 20.24C127.627 20.5867 127.307 21.1133 127.08 21.82C126.853 22.5267 126.74 23.42 126.74 24.5C126.74 25.5667 126.853 26.46 127.08 27.18C127.307 27.8867 127.627 28.42 128.04 28.78C128.453 29.1267 128.933 29.3 129.48 29.3ZM142.465 20.6C143.398 20.6 144.232 20.84 144.965 21.32C145.712 21.7867 146.298 22.4333 146.725 23.26C147.165 24.0867 147.385 25.0467 147.385 26.14C147.385 27.2333 147.165 28.2 146.725 29.04C146.298 29.8667 145.718 30.52 144.985 31C144.265 31.4667 143.452 31.7 142.545 31.7C142.012 31.7 141.512 31.6133 141.045 31.44C140.578 31.2667 140.165 31.0467 139.805 30.78C139.458 30.5133 139.185 30.2467 138.985 29.98C138.798 29.7 138.705 29.4667 138.705 29.28L139.325 29.02V34.28C139.325 34.6267 139.212 34.9133 138.985 35.14C138.758 35.38 138.472 35.5 138.125 35.5C137.778 35.5 137.492 35.3867 137.265 35.16C137.038 34.9333 136.925 34.64 136.925 34.28V22.02C136.925 21.6733 137.038 21.3867 137.265 21.16C137.492 20.92 137.778 20.8 138.125 20.8C138.472 20.8 138.758 20.92 138.985 21.16C139.212 21.3867 139.325 21.6733 139.325 22.02V23L138.985 22.82C138.985 22.6467 139.078 22.44 139.265 22.2C139.452 21.9467 139.705 21.7 140.025 21.46C140.345 21.2067 140.712 21 141.125 20.84C141.552 20.68 141.998 20.6 142.465 20.6ZM142.165 22.8C141.578 22.8 141.065 22.9467 140.625 23.24C140.185 23.5333 139.838 23.9333 139.585 24.44C139.345 24.9333 139.225 25.5 139.225 26.14C139.225 26.7667 139.345 27.34 139.585 27.86C139.838 28.3667 140.185 28.7667 140.625 29.06C141.065 29.3533 141.578 29.5 142.165 29.5C142.752 29.5 143.258 29.3533 143.685 29.06C144.125 28.7667 144.465 28.3667 144.705 27.86C144.958 27.34 145.085 26.7667 145.085 26.14C145.085 25.5 144.958 24.9333 144.705 24.44C144.465 23.9333 144.125 23.5333 143.685 23.24C143.258 22.9467 142.752 22.8 142.165 22.8ZM149.604 21H154.344C154.664 21 154.93 21.1067 155.144 21.32C155.357 21.5333 155.464 21.8 155.464 22.12C155.464 22.4267 155.357 22.6867 155.144 22.9C154.93 23.1 154.664 23.2 154.344 23.2H149.604C149.284 23.2 149.017 23.0933 148.804 22.88C148.59 22.6667 148.484 22.4 148.484 22.08C148.484 21.7733 148.59 21.52 148.804 21.32C149.017 21.1067 149.284 21 149.604 21ZM151.744 18.5C152.09 18.5 152.37 18.62 152.584 18.86C152.81 19.0867 152.924 19.3733 152.924 19.72V28.62C152.924 28.8067 152.957 28.96 153.024 29.08C153.104 29.2 153.204 29.2867 153.324 29.34C153.457 29.3933 153.597 29.42 153.744 29.42C153.904 29.42 154.05 29.3933 154.184 29.34C154.317 29.2733 154.47 29.24 154.644 29.24C154.83 29.24 154.997 29.3267 155.144 29.5C155.304 29.6733 155.384 29.9133 155.384 30.22C155.384 30.5933 155.177 30.9 154.764 31.14C154.364 31.38 153.93 31.5 153.464 31.5C153.184 31.5 152.87 31.48 152.524 31.44C152.19 31.3867 151.87 31.2733 151.564 31.1C151.27 30.9133 151.024 30.6333 150.824 30.26C150.624 29.8867 150.524 29.3733 150.524 28.72V19.72C150.524 19.3733 150.637 19.0867 150.864 18.86C151.104 18.62 151.397 18.5 151.744 18.5Z" fill="#92400E"/>
<defs>
<linearGradient id="paint0_linear_1142_3035" x1="1.5" y1="24" x2="176.5" y2="24" gradientUnits="userSpaceOnUse">
<stop stop-color="#F6D365"/>
<stop offset="1" stop-color="#FDA085"/>
</linearGradient>
</defs>
</svg>
