<svg width="279" height="210" viewBox="0 0 279 210" fill="none" xmlns="http://www.w3.org/2000/svg">
<g clip-path="url(#clip0_1233_3038)">
<g filter="url(#filter0_d_1233_3038)">
<g clip-path="url(#clip1_1233_3038)">
<rect x="127" y="-75.25" width="150" height="250" rx="5" fill="url(#paint0_linear_1233_3038)"/>
<rect x="132" y="-7.125" width="65" height="10" rx="2.5" fill="url(#paint1_linear_1233_3038)"/>
<rect x="132" y="4.125" width="65" height="11.25" rx="2.5" fill="url(#paint2_linear_1233_3038)"/>
<rect x="132" y="20.375" width="41.25" height="5" rx="2.5" fill="url(#paint3_linear_1233_3038)"/>
<rect x="133.25" y="21.625" width="38.75" height="2.5" rx="1.25" fill="url(#paint4_linear_1233_3038)"/>
<rect x="132" y="26.625" width="31.25" height="5" rx="2.5" fill="url(#paint5_linear_1233_3038)"/>
<rect x="133.25" y="27.875" width="28.75" height="2.5" rx="1.25" fill="url(#paint6_linear_1233_3038)"/>
<rect x="132" y="32.875" width="45" height="5" rx="2.5" fill="url(#paint7_linear_1233_3038)"/>
<rect x="133.25" y="34.125" width="42.5" height="2.5" rx="1.25" fill="url(#paint8_linear_1233_3038)"/>
<rect x="132" y="39.125" width="32.5" height="5" rx="2.5" fill="url(#paint9_linear_1233_3038)"/>
<rect x="133.25" y="40.375" width="30" height="2.5" rx="1.25" fill="url(#paint10_linear_1233_3038)"/>
<rect x="202" y="-12.75" width="75" height="62.5" stroke="#FB7185" stroke-width="1.25"/>
<rect x="132" y="56.625" width="65" height="20" rx="2.5" fill="url(#paint11_linear_1233_3038)"/>
<rect x="132" y="81.625" width="21.25" height="5" rx="2.5" fill="url(#paint12_linear_1233_3038)"/>
<rect x="133.25" y="82.875" width="18.75" height="2.5" rx="1.25" fill="url(#paint13_linear_1233_3038)"/>
<rect x="132" y="87.875" width="25" height="5" rx="2.5" fill="url(#paint14_linear_1233_3038)"/>
<rect x="133.25" y="89.125" width="22.5" height="2.5" rx="1.25" fill="url(#paint15_linear_1233_3038)"/>
<rect x="132" y="94.125" width="56.25" height="5" rx="2.5" fill="url(#paint16_linear_1233_3038)"/>
<rect x="133.25" y="95.375" width="53.75" height="2.5" rx="1.25" fill="url(#paint17_linear_1233_3038)"/>
<rect x="132" y="100.375" width="43.75" height="5" rx="2.5" fill="url(#paint18_linear_1233_3038)"/>
<rect x="133.25" y="101.625" width="41.25" height="2.5" rx="1.25" fill="url(#paint19_linear_1233_3038)"/>
<rect x="202" y="49.75" width="75" height="62.5" stroke="#FB7185" stroke-width="1.25"/>
<rect x="132" y="116.625" width="65" height="17.5" rx="2.5" fill="url(#paint20_linear_1233_3038)"/>
<rect x="132" y="135.375" width="65" height="6.25" rx="2.5" fill="url(#paint21_linear_1233_3038)"/>
<rect x="132" y="146.625" width="31.25" height="5" rx="2.5" fill="url(#paint22_linear_1233_3038)"/>
<rect x="133.25" y="147.875" width="28.75" height="2.5" rx="1.25" fill="url(#paint23_linear_1233_3038)"/>
<rect x="132" y="152.875" width="42.5" height="5" rx="2.5" fill="url(#paint24_linear_1233_3038)"/>
<rect x="133.25" y="154.125" width="40" height="2.5" rx="1.25" fill="url(#paint25_linear_1233_3038)"/>
<rect x="132" y="159.125" width="50" height="5" rx="2.5" fill="url(#paint26_linear_1233_3038)"/>
<rect x="133.25" y="160.375" width="47.5" height="2.5" rx="1.25" fill="url(#paint27_linear_1233_3038)"/>
<rect x="132" y="165.375" width="41.25" height="5" rx="2.5" fill="url(#paint28_linear_1233_3038)"/>
<rect x="133.25" y="166.625" width="38.75" height="2.5" rx="1.25" fill="url(#paint29_linear_1233_3038)"/>
<rect x="202" y="112.25" width="75" height="62.5" stroke="#FB7185" stroke-width="1.25"/>
</g>
<rect x="127.625" y="-74.625" width="148.75" height="248.75" rx="4.375" stroke="url(#paint30_linear_1233_3038)" stroke-width="1.25"/>
</g>
<g filter="url(#filter1_d_1233_3038)">
<g clip-path="url(#clip2_1233_3038)">
<rect x="2" y="57.25" width="150" height="250" rx="5" fill="url(#paint31_linear_1233_3038)"/>
<rect x="7" y="64.125" width="65" height="20" rx="2.5" fill="url(#paint32_linear_1233_3038)"/>
<rect x="7" y="89.125" width="52.5" height="5" rx="2.5" fill="url(#paint33_linear_1233_3038)"/>
<rect x="8.25" y="90.375" width="50" height="2.5" rx="1.25" fill="url(#paint34_linear_1233_3038)"/>
<rect x="7" y="95.375" width="57.5" height="5" rx="2.5" fill="url(#paint35_linear_1233_3038)"/>
<rect x="8.25" y="96.625" width="55" height="2.5" rx="1.25" fill="url(#paint36_linear_1233_3038)"/>
<rect x="7" y="101.625" width="45" height="5" rx="2.5" fill="url(#paint37_linear_1233_3038)"/>
<rect x="8.25" y="102.875" width="42.5" height="2.5" rx="1.25" fill="url(#paint38_linear_1233_3038)"/>
<rect x="7" y="107.875" width="66.25" height="5" rx="2.5" fill="url(#paint39_linear_1233_3038)"/>
<rect x="8.25" y="109.125" width="63.75" height="2.5" rx="1.25" fill="url(#paint40_linear_1233_3038)"/>
<rect x="77" y="57.25" width="75" height="62.5" stroke="#FB7185" stroke-width="1.25"/>
<rect x="7" y="125.375" width="65" height="10" rx="2.5" fill="url(#paint41_linear_1233_3038)"/>
<rect x="7" y="136.625" width="65" height="11.25" rx="2.5" fill="url(#paint42_linear_1233_3038)"/>
<rect x="7" y="152.875" width="41.25" height="5" rx="2.5" fill="url(#paint43_linear_1233_3038)"/>
<rect x="8.25" y="154.125" width="38.75" height="2.5" rx="1.25" fill="url(#paint44_linear_1233_3038)"/>
<rect x="7" y="159.125" width="31.25" height="5" rx="2.5" fill="url(#paint45_linear_1233_3038)"/>
<rect x="8.25" y="160.375" width="28.75" height="2.5" rx="1.25" fill="url(#paint46_linear_1233_3038)"/>
<rect x="7" y="165.375" width="45" height="5" rx="2.5" fill="url(#paint47_linear_1233_3038)"/>
<rect x="8.25" y="166.625" width="42.5" height="2.5" rx="1.25" fill="url(#paint48_linear_1233_3038)"/>
<rect x="7" y="171.625" width="32.5" height="5" rx="2.5" fill="url(#paint49_linear_1233_3038)"/>
<rect x="8.25" y="172.875" width="30" height="2.5" rx="1.25" fill="url(#paint50_linear_1233_3038)"/>
<rect x="77" y="119.75" width="75" height="62.5" stroke="#FB7185" stroke-width="1.25"/>
<rect x="7" y="189.125" width="65" height="20" rx="2.5" fill="url(#paint51_linear_1233_3038)"/>
<rect x="77" y="182.25" width="75" height="62.5" stroke="#FB7185" stroke-width="1.25"/>
</g>
<rect x="2.625" y="57.875" width="148.75" height="248.75" rx="4.375" stroke="url(#paint52_linear_1233_3038)" stroke-width="1.25"/>
</g>
<g filter="url(#filter2_f_1233_3038)">
<path d="M117.118 133.605L113.799 134.596L115.725 137.475L115.726 137.474L121.171 145.616L121.169 145.659L207.911 176.897C208.701 177.181 209.571 177.14 210.331 176.783C211.09 176.425 211.677 175.781 211.961 174.991L215.18 166.057C215.321 165.666 215.383 165.251 215.364 164.836C215.344 164.42 215.243 164.013 215.066 163.636C214.889 163.26 214.64 162.923 214.332 162.643C214.025 162.363 213.665 162.146 213.274 162.006L201.396 157.73L201.396 157.727L126.53 130.767L126.497 130.807L117.119 133.606L117.117 133.608L117.118 133.605Z" fill="#9F1239"/>
</g>
<path d="M189.572 47.4499L198.592 52.52L203.714 61.594L132.615 132.69L122.891 127.55L118.471 118.55L189.572 47.4499Z" fill="url(#paint53_linear_1233_3038)"/>
<path d="M116.655 130.838L117.819 133.462L120.329 134.512L132.589 132.662L118.505 118.578L116.655 130.838Z" fill="url(#paint54_linear_1233_3038)"/>
<path d="M116.002 135.167L116.654 130.839L120.33 134.513L116.002 135.167Z" fill="#9F1239"/>
<path d="M200.854 36.1699C201.225 35.7983 201.666 35.5036 202.152 35.3024C202.637 35.1013 203.157 34.9978 203.683 34.9978C204.208 34.9978 204.728 35.1013 205.214 35.3024C205.699 35.5036 206.14 35.7983 206.512 36.1699L214.996 44.656C215.746 45.4061 216.167 46.4233 216.167 47.484C216.167 48.5446 215.746 49.5619 214.996 50.312L207.926 57.384L198.872 52.856L193.782 43.242L200.854 36.1699Z" fill="url(#paint55_linear_1233_3038)"/>
<path d="M193.781 43.241L207.925 57.383L203.681 61.625L189.542 47.485L193.781 43.241Z" fill="url(#paint56_linear_1233_3038)"/>
</g>
<defs>
<filter id="filter0_d_1233_3038" x="102" y="-85.25" width="200" height="300" filterUnits="userSpaceOnUse" color-interpolation-filters="sRGB">
<feFlood flood-opacity="0" result="BackgroundImageFix"/>
<feColorMatrix in="SourceAlpha" type="matrix" values="0 0 0 0 0 0 0 0 0 0 0 0 0 0 0 0 0 0 127 0" result="hardAlpha"/>
<feOffset dy="15"/>
<feGaussianBlur stdDeviation="12.5"/>
<feComposite in2="hardAlpha" operator="out"/>
<feColorMatrix type="matrix" values="0 0 0 0 0.733333 0 0 0 0 0.0431373 0 0 0 0 0.235294 0 0 0 1 0"/>
<feBlend mode="normal" in2="BackgroundImageFix" result="effect1_dropShadow_1233_3038"/>
<feBlend mode="normal" in="SourceGraphic" in2="effect1_dropShadow_1233_3038" result="shape"/>
</filter>
<filter id="filter1_d_1233_3038" x="-23" y="47.25" width="200" height="300" filterUnits="userSpaceOnUse" color-interpolation-filters="sRGB">
<feFlood flood-opacity="0" result="BackgroundImageFix"/>
<feColorMatrix in="SourceAlpha" type="matrix" values="0 0 0 0 0 0 0 0 0 0 0 0 0 0 0 0 0 0 127 0" result="hardAlpha"/>
<feOffset dy="15"/>
<feGaussianBlur stdDeviation="12.5"/>
<feComposite in2="hardAlpha" operator="out"/>
<feColorMatrix type="matrix" values="0 0 0 0 0.733333 0 0 0 0 0.0431373 0 0 0 0 0.235294 0 0 0 1 0"/>
<feBlend mode="normal" in2="BackgroundImageFix" result="effect1_dropShadow_1233_3038"/>
<feBlend mode="normal" in="SourceGraphic" in2="effect1_dropShadow_1233_3038" result="shape"/>
</filter>
<filter id="filter2_f_1233_3038" x="89.7991" y="106.767" width="149.568" height="94.3169" filterUnits="userSpaceOnUse" color-interpolation-filters="sRGB">
<feFlood flood-opacity="0" result="BackgroundImageFix"/>
<feBlend mode="normal" in="SourceGraphic" in2="BackgroundImageFix" result="shape"/>
<feGaussianBlur stdDeviation="12" result="effect1_foregroundBlur_1233_3038"/>
</filter>
<linearGradient id="paint0_linear_1233_3038" x1="202" y1="-75.25" x2="202" y2="174.75" gradientUnits="userSpaceOnUse">
<stop stop-color="#F03C5E"/>
<stop offset="1" stop-color="#FBA4AF"/>
</linearGradient>
<linearGradient id="paint1_linear_1233_3038" x1="164.5" y1="-7.125" x2="164.5" y2="2.875" gradientUnits="userSpaceOnUse">
<stop stop-color="#FBA4AF"/>
<stop offset="1" stop-color="#F87085"/>
</linearGradient>
<linearGradient id="paint2_linear_1233_3038" x1="164.5" y1="4.125" x2="164.5" y2="15.375" gradientUnits="userSpaceOnUse">
<stop stop-color="#FBA4AF"/>
<stop offset="1" stop-color="#F87085"/>
</linearGradient>
<linearGradient id="paint3_linear_1233_3038" x1="152.625" y1="20.375" x2="152.625" y2="25.375" gradientUnits="userSpaceOnUse">
<stop stop-color="#FBA4AF"/>
<stop offset="1" stop-color="#F87085"/>
</linearGradient>
<linearGradient id="paint4_linear_1233_3038" x1="152.625" y1="21.625" x2="152.625" y2="24.125" gradientUnits="userSpaceOnUse">
<stop stop-color="#F03C5E"/>
<stop offset="1" stop-color="#BB0B3C"/>
</linearGradient>
<linearGradient id="paint5_linear_1233_3038" x1="147.625" y1="26.625" x2="147.625" y2="31.625" gradientUnits="userSpaceOnUse">
<stop stop-color="#FBA4AF"/>
<stop offset="1" stop-color="#F87085"/>
</linearGradient>
<linearGradient id="paint6_linear_1233_3038" x1="147.625" y1="27.875" x2="147.625" y2="30.375" gradientUnits="userSpaceOnUse">
<stop stop-color="#F03C5E"/>
<stop offset="1" stop-color="#BB0B3C"/>
</linearGradient>
<linearGradient id="paint7_linear_1233_3038" x1="154.5" y1="32.875" x2="154.5" y2="37.875" gradientUnits="userSpaceOnUse">
<stop stop-color="#FBA4AF"/>
<stop offset="1" stop-color="#F87085"/>
</linearGradient>
<linearGradient id="paint8_linear_1233_3038" x1="154.5" y1="34.125" x2="154.5" y2="36.625" gradientUnits="userSpaceOnUse">
<stop stop-color="#F03C5E"/>
<stop offset="1" stop-color="#BB0B3C"/>
</linearGradient>
<linearGradient id="paint9_linear_1233_3038" x1="148.25" y1="39.125" x2="148.25" y2="44.125" gradientUnits="userSpaceOnUse">
<stop stop-color="#FBA4AF"/>
<stop offset="1" stop-color="#F87085"/>
</linearGradient>
<linearGradient id="paint10_linear_1233_3038" x1="148.25" y1="40.375" x2="148.25" y2="42.875" gradientUnits="userSpaceOnUse">
<stop stop-color="#F03C5E"/>
<stop offset="1" stop-color="#BB0B3C"/>
</linearGradient>
<linearGradient id="paint11_linear_1233_3038" x1="164.5" y1="56.625" x2="164.5" y2="76.625" gradientUnits="userSpaceOnUse">
<stop stop-color="#FBA4AF"/>
<stop offset="1" stop-color="#F87085"/>
</linearGradient>
<linearGradient id="paint12_linear_1233_3038" x1="142.625" y1="81.625" x2="142.625" y2="86.625" gradientUnits="userSpaceOnUse">
<stop stop-color="#FBA4AF"/>
<stop offset="1" stop-color="#F87085"/>
</linearGradient>
<linearGradient id="paint13_linear_1233_3038" x1="142.625" y1="82.875" x2="142.625" y2="85.375" gradientUnits="userSpaceOnUse">
<stop stop-color="#F03C5E"/>
<stop offset="1" stop-color="#BB0B3C"/>
</linearGradient>
<linearGradient id="paint14_linear_1233_3038" x1="144.5" y1="87.875" x2="144.5" y2="92.875" gradientUnits="userSpaceOnUse">
<stop stop-color="#FBA4AF"/>
<stop offset="1" stop-color="#F87085"/>
</linearGradient>
<linearGradient id="paint15_linear_1233_3038" x1="144.5" y1="89.125" x2="144.5" y2="91.625" gradientUnits="userSpaceOnUse">
<stop stop-color="#F03C5E"/>
<stop offset="1" stop-color="#BB0B3C"/>
</linearGradient>
<linearGradient id="paint16_linear_1233_3038" x1="160.125" y1="94.125" x2="160.125" y2="99.125" gradientUnits="userSpaceOnUse">
<stop stop-color="#FBA4AF"/>
<stop offset="1" stop-color="#F87085"/>
</linearGradient>
<linearGradient id="paint17_linear_1233_3038" x1="160.125" y1="95.375" x2="160.125" y2="97.875" gradientUnits="userSpaceOnUse">
<stop stop-color="#F03C5E"/>
<stop offset="1" stop-color="#BB0B3C"/>
</linearGradient>
<linearGradient id="paint18_linear_1233_3038" x1="153.875" y1="100.375" x2="153.875" y2="105.375" gradientUnits="userSpaceOnUse">
<stop stop-color="#FBA4AF"/>
<stop offset="1" stop-color="#F87085"/>
</linearGradient>
<linearGradient id="paint19_linear_1233_3038" x1="153.875" y1="101.625" x2="153.875" y2="104.125" gradientUnits="userSpaceOnUse">
<stop stop-color="#F03C5E"/>
<stop offset="1" stop-color="#BB0B3C"/>
</linearGradient>
<linearGradient id="paint20_linear_1233_3038" x1="164.5" y1="116.625" x2="164.5" y2="134.125" gradientUnits="userSpaceOnUse">
<stop stop-color="#FBA4AF"/>
<stop offset="1" stop-color="#F87085"/>
</linearGradient>
<linearGradient id="paint21_linear_1233_3038" x1="164.5" y1="135.375" x2="164.5" y2="141.625" gradientUnits="userSpaceOnUse">
<stop stop-color="#FBA4AF"/>
<stop offset="1" stop-color="#F87085"/>
</linearGradient>
<linearGradient id="paint22_linear_1233_3038" x1="147.625" y1="146.625" x2="147.625" y2="151.625" gradientUnits="userSpaceOnUse">
<stop stop-color="#FBA4AF"/>
<stop offset="1" stop-color="#F87085"/>
</linearGradient>
<linearGradient id="paint23_linear_1233_3038" x1="147.625" y1="147.875" x2="147.625" y2="150.375" gradientUnits="userSpaceOnUse">
<stop stop-color="#F03C5E"/>
<stop offset="1" stop-color="#BB0B3C"/>
</linearGradient>
<linearGradient id="paint24_linear_1233_3038" x1="153.25" y1="152.875" x2="153.25" y2="157.875" gradientUnits="userSpaceOnUse">
<stop stop-color="#FBA4AF"/>
<stop offset="1" stop-color="#F87085"/>
</linearGradient>
<linearGradient id="paint25_linear_1233_3038" x1="153.25" y1="154.125" x2="153.25" y2="156.625" gradientUnits="userSpaceOnUse">
<stop stop-color="#F03C5E"/>
<stop offset="1" stop-color="#BB0B3C"/>
</linearGradient>
<linearGradient id="paint26_linear_1233_3038" x1="157" y1="159.125" x2="157" y2="164.125" gradientUnits="userSpaceOnUse">
<stop stop-color="#FBA4AF"/>
<stop offset="1" stop-color="#F87085"/>
</linearGradient>
<linearGradient id="paint27_linear_1233_3038" x1="157" y1="160.375" x2="157" y2="162.875" gradientUnits="userSpaceOnUse">
<stop stop-color="#F03C5E"/>
<stop offset="1" stop-color="#BB0B3C"/>
</linearGradient>
<linearGradient id="paint28_linear_1233_3038" x1="152.625" y1="165.375" x2="152.625" y2="170.375" gradientUnits="userSpaceOnUse">
<stop stop-color="#FBA4AF"/>
<stop offset="1" stop-color="#F87085"/>
</linearGradient>
<linearGradient id="paint29_linear_1233_3038" x1="152.625" y1="166.625" x2="152.625" y2="169.125" gradientUnits="userSpaceOnUse">
<stop stop-color="#F03C5E"/>
<stop offset="1" stop-color="#BB0B3C"/>
</linearGradient>
<linearGradient id="paint30_linear_1233_3038" x1="202" y1="-75.25" x2="202" y2="174.75" gradientUnits="userSpaceOnUse">
<stop stop-color="#FBA4AF"/>
<stop offset="1" stop-color="#FBA4AF" stop-opacity="0"/>
</linearGradient>
<linearGradient id="paint31_linear_1233_3038" x1="77" y1="57.25" x2="77" y2="307.25" gradientUnits="userSpaceOnUse">
<stop stop-color="#F03C5E"/>
<stop offset="1" stop-color="#FBA4AF"/>
</linearGradient>
<linearGradient id="paint32_linear_1233_3038" x1="39.5" y1="64.125" x2="39.5" y2="84.125" gradientUnits="userSpaceOnUse">
<stop stop-color="#FBA4AF"/>
<stop offset="1" stop-color="#F87085"/>
</linearGradient>
<linearGradient id="paint33_linear_1233_3038" x1="33.25" y1="89.125" x2="33.25" y2="94.125" gradientUnits="userSpaceOnUse">
<stop stop-color="#FBA4AF"/>
<stop offset="1" stop-color="#F87085"/>
</linearGradient>
<linearGradient id="paint34_linear_1233_3038" x1="33.25" y1="90.375" x2="33.25" y2="92.875" gradientUnits="userSpaceOnUse">
<stop stop-color="#F03C5E"/>
<stop offset="1" stop-color="#BB0B3C"/>
</linearGradient>
<linearGradient id="paint35_linear_1233_3038" x1="35.75" y1="95.375" x2="35.75" y2="100.375" gradientUnits="userSpaceOnUse">
<stop stop-color="#FBA4AF"/>
<stop offset="1" stop-color="#F87085"/>
</linearGradient>
<linearGradient id="paint36_linear_1233_3038" x1="35.75" y1="96.625" x2="35.75" y2="99.125" gradientUnits="userSpaceOnUse">
<stop stop-color="#F03C5E"/>
<stop offset="1" stop-color="#BB0B3C"/>
</linearGradient>
<linearGradient id="paint37_linear_1233_3038" x1="29.5" y1="101.625" x2="29.5" y2="106.625" gradientUnits="userSpaceOnUse">
<stop stop-color="#FBA4AF"/>
<stop offset="1" stop-color="#F87085"/>
</linearGradient>
<linearGradient id="paint38_linear_1233_3038" x1="29.5" y1="102.875" x2="29.5" y2="105.375" gradientUnits="userSpaceOnUse">
<stop stop-color="#F03C5E"/>
<stop offset="1" stop-color="#BB0B3C"/>
</linearGradient>
<linearGradient id="paint39_linear_1233_3038" x1="40.125" y1="107.875" x2="40.125" y2="112.875" gradientUnits="userSpaceOnUse">
<stop stop-color="#FBA4AF"/>
<stop offset="1" stop-color="#F87085"/>
</linearGradient>
<linearGradient id="paint40_linear_1233_3038" x1="40.125" y1="109.125" x2="40.125" y2="111.625" gradientUnits="userSpaceOnUse">
<stop stop-color="#F03C5E"/>
<stop offset="1" stop-color="#BB0B3C"/>
</linearGradient>
<linearGradient id="paint41_linear_1233_3038" x1="39.5" y1="125.375" x2="39.5" y2="135.375" gradientUnits="userSpaceOnUse">
<stop stop-color="#FBA4AF"/>
<stop offset="1" stop-color="#F87085"/>
</linearGradient>
<linearGradient id="paint42_linear_1233_3038" x1="39.5" y1="136.625" x2="39.5" y2="147.875" gradientUnits="userSpaceOnUse">
<stop stop-color="#FBA4AF"/>
<stop offset="1" stop-color="#F87085"/>
</linearGradient>
<linearGradient id="paint43_linear_1233_3038" x1="27.625" y1="152.875" x2="27.625" y2="157.875" gradientUnits="userSpaceOnUse">
<stop stop-color="#FBA4AF"/>
<stop offset="1" stop-color="#F87085"/>
</linearGradient>
<linearGradient id="paint44_linear_1233_3038" x1="27.625" y1="154.125" x2="27.625" y2="156.625" gradientUnits="userSpaceOnUse">
<stop stop-color="#F03C5E"/>
<stop offset="1" stop-color="#BB0B3C"/>
</linearGradient>
<linearGradient id="paint45_linear_1233_3038" x1="22.625" y1="159.125" x2="22.625" y2="164.125" gradientUnits="userSpaceOnUse">
<stop stop-color="#FBA4AF"/>
<stop offset="1" stop-color="#F87085"/>
</linearGradient>
<linearGradient id="paint46_linear_1233_3038" x1="22.625" y1="160.375" x2="22.625" y2="162.875" gradientUnits="userSpaceOnUse">
<stop stop-color="#F03C5E"/>
<stop offset="1" stop-color="#BB0B3C"/>
</linearGradient>
<linearGradient id="paint47_linear_1233_3038" x1="29.5" y1="165.375" x2="29.5" y2="170.375" gradientUnits="userSpaceOnUse">
<stop stop-color="#FBA4AF"/>
<stop offset="1" stop-color="#F87085"/>
</linearGradient>
<linearGradient id="paint48_linear_1233_3038" x1="29.5" y1="166.625" x2="29.5" y2="169.125" gradientUnits="userSpaceOnUse">
<stop stop-color="#F03C5E"/>
<stop offset="1" stop-color="#BB0B3C"/>
</linearGradient>
<linearGradient id="paint49_linear_1233_3038" x1="23.25" y1="171.625" x2="23.25" y2="176.625" gradientUnits="userSpaceOnUse">
<stop stop-color="#FBA4AF"/>
<stop offset="1" stop-color="#F87085"/>
</linearGradient>
<linearGradient id="paint50_linear_1233_3038" x1="23.25" y1="172.875" x2="23.25" y2="175.375" gradientUnits="userSpaceOnUse">
<stop stop-color="#F03C5E"/>
<stop offset="1" stop-color="#BB0B3C"/>
</linearGradient>
<linearGradient id="paint51_linear_1233_3038" x1="39.5" y1="189.125" x2="39.5" y2="209.125" gradientUnits="userSpaceOnUse">
<stop stop-color="#FBA4AF"/>
<stop offset="1" stop-color="#F87085"/>
</linearGradient>
<linearGradient id="paint52_linear_1233_3038" x1="77" y1="57.25" x2="77" y2="307.25" gradientUnits="userSpaceOnUse">
<stop stop-color="#FBA4AF"/>
<stop offset="1" stop-color="#FBA4AF" stop-opacity="0"/>
</linearGradient>
<linearGradient id="paint53_linear_1233_3038" x1="189.5" y1="49.9998" x2="132" y2="131.5" gradientUnits="userSpaceOnUse">
<stop stop-color="#F03C5E"/>
<stop offset="1" stop-color="#DE1648"/>
</linearGradient>
<linearGradient id="paint54_linear_1233_3038" x1="124.622" y1="118.578" x2="124.622" y2="134.512" gradientUnits="userSpaceOnUse">
<stop stop-color="#FBA4AF"/>
<stop offset="1" stop-color="#F87085"/>
</linearGradient>
<linearGradient id="paint55_linear_1233_3038" x1="204.974" y1="34.9978" x2="204.974" y2="57.384" gradientUnits="userSpaceOnUse">
<stop stop-color="#F03C5E"/>
<stop offset="1" stop-color="#BB0B3C"/>
</linearGradient>
<linearGradient id="paint56_linear_1233_3038" x1="198.733" y1="43.241" x2="198.733" y2="61.625" gradientUnits="userSpaceOnUse">
<stop stop-color="#FBA4AF"/>
<stop offset="1" stop-color="#F87085"/>
</linearGradient>
<clipPath id="clip0_1233_3038">
<rect width="279" height="210" fill="white"/>
</clipPath>
<clipPath id="clip1_1233_3038">
<rect x="127" y="-75.25" width="150" height="250" rx="5" fill="white"/>
</clipPath>
<clipPath id="clip2_1233_3038">
<rect x="2" y="57.25" width="150" height="250" rx="5" fill="white"/>
</clipPath>
</defs>
</svg>
