<svg width="51" height="32" viewBox="0 0 51 32" fill="none" xmlns="http://www.w3.org/2000/svg">
<path d="M5.43655 15.8762C5.43655 15.8762 6.42491 14.6023 5.78571 12.833C5.14428 11.0649 3.65059 10.3934 3.65059 10.3934C3.65059 10.3934 2.53284 11.9116 3.15753 13.6351C3.78111 15.3597 5.43655 15.8762 5.43655 15.8762Z" fill="#6B7280"/>
<path d="M8.18006 16.7808C8.18006 16.7808 9.90801 16.6425 10.8975 15.0975C11.887 13.5536 11.1306 11.8268 11.1306 11.8268C11.1306 11.8268 9.5265 12.1525 8.51026 13.7377C7.49513 15.3217 8.18006 16.7808 8.18006 16.7808Z" fill="#6B7280"/>
<path d="M8.355 18.8223C7.55516 20.5257 8.42416 21.8844 8.42416 21.8844C8.42416 21.8844 10.1209 21.5208 10.8995 19.862C11.677 18.2009 10.7021 16.5879 10.7021 16.5879C10.7021 16.5879 9.15483 17.1189 8.355 18.8223Z" fill="#6B7280"/>
<path d="M12.2591 20.1943C12.2591 20.1943 10.7676 20.8703 10.1317 22.6396C9.4959 24.4121 10.4876 25.6816 10.4876 25.6816C10.4876 25.6816 12.1408 25.1607 12.761 23.4349C13.3802 21.7092 12.2591 20.1943 12.2591 20.1943Z" fill="#6B7280"/>
<path d="M13.5025 29.5113C13.5025 29.5113 14.9371 28.5352 15.0342 26.7046C15.1301 24.8729 13.6186 23.7462 13.6186 23.7462C13.6186 23.7462 12.3848 24.8227 12.2855 26.7012C12.1873 28.5787 13.5025 29.5113 13.5025 29.5113Z" fill="#6B7280"/>
<path d="M7.63884 12.4671C7.63884 12.4671 9.16822 11.9562 9.61667 10.1301C10.0662 8.30397 9.19723 6.91626 9.19723 6.91626C9.19723 6.91626 7.42577 7.5588 6.98737 9.3403C6.55008 11.1207 7.63884 12.4671 7.63884 12.4671Z" fill="#6B7280"/>
<path d="M5.43521 19.7593C5.43521 19.7593 6.00301 18.25 4.87075 16.7496C3.73626 15.2481 2.11206 15.0462 2.11206 15.0462C2.11206 15.0462 1.49182 16.8266 2.59619 18.2902C3.70057 19.7548 5.43521 19.7593 5.43521 19.7593Z" fill="#6B7280"/>
<path d="M6.70337 23.7417C6.70337 23.7417 6.9209 22.1443 5.4841 20.9329C4.04507 19.7203 2.41641 19.8854 2.41641 19.8854C2.41641 19.8854 2.20669 21.7595 3.60779 22.9408C5.01112 24.121 6.70337 23.7417 6.70337 23.7417Z" fill="#6B7280"/>
<path d="M8.63178 27.0348C8.63178 27.0348 8.35848 25.4463 6.62049 24.7279C4.88138 24.0072 3.37988 24.6576 3.37988 24.6576C3.37988 24.6576 3.74801 26.5071 5.44138 27.2099C7.13475 27.9094 8.63178 27.0348 8.63178 27.0348Z" fill="#6B7280"/>
<path d="M9.47513 28.4024C7.66351 27.8959 6.24902 28.7203 6.24902 28.7203C6.24902 28.7203 6.83468 30.5118 8.59944 31.006C10.3664 31.5002 11.7475 30.4527 11.7475 30.4527C11.7475 30.4527 11.2867 28.9077 9.47513 28.4024Z" fill="#6B7280"/>
<path d="M7.82817 13.5559L7.02276 13.1599C6.98037 13.248 2.8373 22.0484 14.4789 32L15.0612 31.3184C3.97737 21.842 7.6653 13.8894 7.82817 13.5559Z" fill="#6B7280"/>
<path d="M29.492 21.36C29.876 21.36 30.196 21.488 30.452 21.744C30.708 22 30.836 22.32 30.836 22.704C30.836 23.072 30.708 23.384 30.452 23.64C30.196 23.88 29.876 24 29.492 24H21.332C20.916 24 20.588 23.872 20.348 23.616C20.108 23.36 19.988 23.032 19.988 22.632C19.988 22.232 20.132 21.88 20.42 21.576L25.652 15.984C26.244 15.344 26.708 14.688 27.044 14.016C27.396 13.344 27.572 12.76 27.572 12.264C27.572 11.464 27.34 10.824 26.876 10.344C26.412 9.848 25.796 9.6 25.028 9.6C24.724 9.6 24.412 9.672 24.092 9.816C23.772 9.96 23.46 10.16 23.156 10.416C22.868 10.672 22.596 10.968 22.34 11.304C22.148 11.56 21.956 11.72 21.764 11.784C21.572 11.848 21.396 11.88 21.236 11.88C20.884 11.88 20.556 11.752 20.252 11.496C19.964 11.224 19.82 10.912 19.82 10.56C19.82 10.288 19.908 10.024 20.084 9.768C20.276 9.512 20.508 9.248 20.78 8.976C21.18 8.576 21.628 8.224 22.124 7.92C22.62 7.616 23.132 7.384 23.66 7.224C24.188 7.048 24.7 6.96 25.196 6.96C26.268 6.96 27.196 7.176 27.98 7.608C28.78 8.024 29.396 8.624 29.828 9.408C30.26 10.176 30.476 11.088 30.476 12.144C30.476 13.024 30.212 14.008 29.684 15.096C29.172 16.168 28.476 17.176 27.596 18.12L24.356 21.576L24.092 21.36H29.492Z" fill="#374151"/>
<path d="M45.5629 15.8773C45.5629 15.8773 44.5734 14.6034 45.2137 12.8352C45.8529 11.066 47.3477 10.3945 47.3477 10.3945C47.3477 10.3945 48.4644 11.9116 47.8397 13.6362C47.2183 15.3608 45.5629 15.8773 45.5629 15.8773Z" fill="#6B7280"/>
<path d="M42.8199 16.782C42.8199 16.782 41.092 16.6426 40.1014 15.0987C39.1119 13.5548 39.8682 11.8279 39.8682 11.8279C39.8682 11.8279 41.4723 12.1537 42.4897 13.7377C43.5048 15.3229 42.8199 16.782 42.8199 16.782Z" fill="#6B7280"/>
<path d="M42.6449 18.8223C43.4447 20.5257 42.5757 21.8844 42.5757 21.8844C42.5757 21.8844 40.879 21.5207 40.0992 19.862C39.3228 18.2009 40.2967 16.5879 40.2967 16.5879C40.2967 16.5879 41.845 17.12 42.6449 18.8223Z" fill="#6B7280"/>
<path d="M38.7397 20.1955C38.7397 20.1955 40.23 20.8704 40.867 22.643C41.5028 24.4144 40.51 25.6839 40.51 25.6839C40.51 25.6839 38.8579 25.1618 38.2377 23.4361C37.6174 21.7104 38.7397 20.1955 38.7397 20.1955Z" fill="#6B7280"/>
<path d="M37.4939 29.5113C37.4939 29.5113 36.0604 28.5363 35.9634 26.7046C35.8674 24.8729 37.3801 23.7451 37.3801 23.7451C37.3801 23.7451 38.6116 24.8216 38.712 26.7013C38.8113 28.5809 37.4939 29.5113 37.4939 29.5113Z" fill="#6B7280"/>
<path d="M43.3585 12.4682C43.3585 12.4682 41.8313 11.9573 41.3829 10.1312C40.9333 8.30509 41.8034 6.91626 41.8034 6.91626C41.8034 6.91626 43.5749 7.5588 44.0122 9.34141C44.4495 11.1207 43.3585 12.4682 43.3585 12.4682Z" fill="#6B7280"/>
<path d="M45.5644 19.7604C45.5644 19.7604 44.9966 18.2511 46.1277 16.7507C47.2622 15.2492 48.8875 15.0473 48.8875 15.0473C48.8875 15.0473 49.5089 16.8277 48.4034 18.2913C47.2979 19.7559 45.5644 19.7604 45.5644 19.7604Z" fill="#6B7280"/>
<path d="M44.297 23.7429C44.297 23.7429 44.0784 22.1454 45.5163 20.9317C46.9553 19.7203 48.584 19.8854 48.584 19.8854C48.584 19.8854 48.7937 21.7606 47.3915 22.9408C45.9893 24.121 44.297 23.7429 44.297 23.7429Z" fill="#6B7280"/>
<path d="M42.3652 27.0359C42.3652 27.0359 42.6397 25.4463 44.3776 24.7268C46.1179 24.0062 47.6182 24.6565 47.6182 24.6565C47.6182 24.6565 47.2501 26.506 45.5568 27.2077C43.8623 27.9105 42.3652 27.0359 42.3652 27.0359Z" fill="#6B7280"/>
<path d="M41.522 28.4035C43.3337 27.8982 44.7493 28.7214 44.7493 28.7214C44.7493 28.7214 44.1647 30.5119 42.3989 31.0094C40.633 31.5013 39.252 30.4539 39.252 30.4539C39.252 30.4539 39.7115 28.91 41.522 28.4035Z" fill="#6B7280"/>
<path d="M43.1703 13.557L43.9779 13.1609C44.0203 13.2491 48.1634 22.0495 36.5206 32L35.9395 31.3184C47.0211 21.8442 43.3332 13.8894 43.1703 13.557Z" fill="#6B7280"/>
</svg>
