<svg width="49" height="32" viewBox="0 0 49 32" fill="none" xmlns="http://www.w3.org/2000/svg">
<path d="M4.93655 15.8762C4.93655 15.8762 5.92491 14.6023 5.28571 12.833C4.64428 11.0649 3.15059 10.3934 3.15059 10.3934C3.15059 10.3934 2.03284 11.9116 2.65753 13.6351C3.28111 15.3597 4.93655 15.8762 4.93655 15.8762Z" fill="#A16207"/>
<path d="M7.68006 16.7808C7.68006 16.7808 9.40801 16.6425 10.3975 15.0975C11.387 13.5536 10.6306 11.8268 10.6306 11.8268C10.6306 11.8268 9.0265 12.1525 8.01026 13.7377C6.99513 15.3217 7.68006 16.7808 7.68006 16.7808Z" fill="#A16207"/>
<path d="M7.855 18.8223C7.05516 20.5257 7.92416 21.8844 7.92416 21.8844C7.92416 21.8844 9.62088 21.5208 10.3995 19.862C11.177 18.2009 10.2021 16.5879 10.2021 16.5879C10.2021 16.5879 8.65483 17.1189 7.855 18.8223Z" fill="#A16207"/>
<path d="M11.7591 20.1943C11.7591 20.1943 10.2676 20.8703 9.63175 22.6396C8.9959 24.4121 9.9876 25.6816 9.9876 25.6816C9.9876 25.6816 11.6408 25.1607 12.261 23.4349C12.8802 21.7092 11.7591 20.1943 11.7591 20.1943Z" fill="#A16207"/>
<path d="M13.0025 29.5113C13.0025 29.5113 14.4371 28.5352 14.5342 26.7046C14.6301 24.8729 13.1186 23.7462 13.1186 23.7462C13.1186 23.7462 11.8848 24.8227 11.7855 26.7012C11.6873 28.5787 13.0025 29.5113 13.0025 29.5113Z" fill="#A16207"/>
<path d="M7.13884 12.4671C7.13884 12.4671 8.66822 11.9562 9.11667 10.1301C9.56622 8.30397 8.69723 6.91626 8.69723 6.91626C8.69723 6.91626 6.92577 7.5588 6.48737 9.3403C6.05008 11.1207 7.13884 12.4671 7.13884 12.4671Z" fill="#A16207"/>
<path d="M4.93521 19.7593C4.93521 19.7593 5.50301 18.25 4.37075 16.7496C3.23626 15.2481 1.61206 15.0462 1.61206 15.0462C1.61206 15.0462 0.991823 16.8266 2.09619 18.2902C3.20057 19.7548 4.93521 19.7593 4.93521 19.7593Z" fill="#A16207"/>
<path d="M6.20337 23.7417C6.20337 23.7417 6.4209 22.1443 4.9841 20.9329C3.54507 19.7203 1.91641 19.8854 1.91641 19.8854C1.91641 19.8854 1.70669 21.7595 3.10779 22.9408C4.51112 24.121 6.20337 23.7417 6.20337 23.7417Z" fill="#A16207"/>
<path d="M8.13178 27.0348C8.13178 27.0348 7.85848 25.4463 6.12049 24.7279C4.38138 24.0072 2.87988 24.6576 2.87988 24.6576C2.87988 24.6576 3.24801 26.5071 4.94138 27.2099C6.63475 27.9094 8.13178 27.0348 8.13178 27.0348Z" fill="#A16207"/>
<path d="M8.97513 28.4024C7.16351 27.8959 5.74902 28.7203 5.74902 28.7203C5.74902 28.7203 6.33468 30.5118 8.09944 31.006C9.86643 31.5002 11.2475 30.4527 11.2475 30.4527C11.2475 30.4527 10.7867 28.9077 8.97513 28.4024Z" fill="#A16207"/>
<path d="M7.32817 13.5559L6.52276 13.1599C6.48037 13.248 2.3373 22.0484 13.9789 32L14.5612 31.3184C3.47737 21.842 7.1653 13.8894 7.32817 13.5559Z" fill="#A16207"/>
<path d="M20.688 20.616C20.832 20.616 20.984 20.64 21.144 20.688C21.32 20.736 21.512 20.832 21.72 20.976C21.992 21.184 22.312 21.368 22.68 21.528C23.064 21.688 23.504 21.768 24 21.768C24.496 21.768 24.96 21.648 25.392 21.408C25.84 21.152 26.208 20.8 26.496 20.352C26.784 19.888 26.928 19.336 26.928 18.696C26.928 18.088 26.8 17.584 26.544 17.184C26.304 16.784 25.976 16.48 25.56 16.272C25.16 16.064 24.728 15.96 24.264 15.96C23.912 15.96 23.616 15.992 23.376 16.056C23.152 16.12 22.928 16.192 22.704 16.272C22.496 16.336 22.248 16.368 21.96 16.368C21.592 16.368 21.304 16.24 21.096 15.984C20.904 15.728 20.808 15.424 20.808 15.072C20.808 14.848 20.848 14.648 20.928 14.472C21.024 14.296 21.16 14.104 21.336 13.896L25.56 9.408L26.208 9.96H20.304C19.92 9.96 19.6 9.832 19.344 9.576C19.088 9.32 18.96 9 18.96 8.616C18.96 8.248 19.088 7.944 19.344 7.704C19.6 7.448 19.92 7.32 20.304 7.32H27.648C28.144 7.32 28.512 7.456 28.752 7.728C29.008 8 29.136 8.344 29.136 8.76C29.136 8.968 29.08 9.176 28.968 9.384C28.856 9.576 28.72 9.752 28.56 9.912L24.312 14.472L23.664 13.656C23.84 13.576 24.08 13.504 24.384 13.44C24.704 13.376 24.968 13.344 25.176 13.344C26.12 13.344 26.936 13.592 27.624 14.088C28.328 14.568 28.864 15.2 29.232 15.984C29.616 16.752 29.808 17.584 29.808 18.48C29.808 19.664 29.544 20.688 29.016 21.552C28.488 22.416 27.744 23.08 26.784 23.544C25.824 24.008 24.704 24.24 23.424 24.24C22.832 24.24 22.248 24.168 21.672 24.024C21.096 23.88 20.6 23.688 20.184 23.448C19.832 23.256 19.592 23.048 19.464 22.824C19.352 22.584 19.296 22.36 19.296 22.152C19.296 21.784 19.424 21.44 19.68 21.12C19.952 20.784 20.288 20.616 20.688 20.616Z" fill="#713F12"/>
<path d="M44.0629 15.8773C44.0629 15.8773 43.0734 14.6034 43.7137 12.8352C44.3529 11.066 45.8477 10.3945 45.8477 10.3945C45.8477 10.3945 46.9644 11.9116 46.3397 13.6362C45.7183 15.3608 44.0629 15.8773 44.0629 15.8773Z" fill="#A16207"/>
<path d="M41.3199 16.782C41.3199 16.782 39.592 16.6426 38.6014 15.0987C37.6119 13.5548 38.3682 11.8279 38.3682 11.8279C38.3682 11.8279 39.9723 12.1537 40.9897 13.7377C42.0048 15.3229 41.3199 16.782 41.3199 16.782Z" fill="#A16207"/>
<path d="M41.1449 18.8223C41.9447 20.5257 41.0757 21.8844 41.0757 21.8844C41.0757 21.8844 39.379 21.5207 38.5992 19.862C37.8228 18.2009 38.7967 16.5879 38.7967 16.5879C38.7967 16.5879 40.345 17.12 41.1449 18.8223Z" fill="#A16207"/>
<path d="M37.2397 20.1955C37.2397 20.1955 38.73 20.8704 39.367 22.643C40.0028 24.4144 39.01 25.6839 39.01 25.6839C39.01 25.6839 37.3579 25.1618 36.7377 23.4361C36.1174 21.7104 37.2397 20.1955 37.2397 20.1955Z" fill="#A16207"/>
<path d="M35.9939 29.5113C35.9939 29.5113 34.5604 28.5363 34.4634 26.7046C34.3674 24.8729 35.8801 23.7451 35.8801 23.7451C35.8801 23.7451 37.1116 24.8216 37.212 26.7013C37.3113 28.5809 35.9939 29.5113 35.9939 29.5113Z" fill="#A16207"/>
<path d="M41.8585 12.4682C41.8585 12.4682 40.3313 11.9573 39.8829 10.1312C39.4333 8.30509 40.3034 6.91626 40.3034 6.91626C40.3034 6.91626 42.0749 7.5588 42.5122 9.34141C42.9495 11.1207 41.8585 12.4682 41.8585 12.4682Z" fill="#A16207"/>
<path d="M44.0644 19.7604C44.0644 19.7604 43.4966 18.2511 44.6277 16.7507C45.7622 15.2492 47.3875 15.0473 47.3875 15.0473C47.3875 15.0473 48.0089 16.8277 46.9034 18.2913C45.7979 19.7559 44.0644 19.7604 44.0644 19.7604Z" fill="#A16207"/>
<path d="M42.797 23.7429C42.797 23.7429 42.5784 22.1454 44.0163 20.9317C45.4553 19.7203 47.084 19.8854 47.084 19.8854C47.084 19.8854 47.2937 21.7606 45.8915 22.9408C44.4893 24.121 42.797 23.7429 42.797 23.7429Z" fill="#A16207"/>
<path d="M40.8652 27.0359C40.8652 27.0359 41.1397 25.4463 42.8776 24.7268C44.6179 24.0062 46.1182 24.6565 46.1182 24.6565C46.1182 24.6565 45.7501 26.506 44.0568 27.2077C42.3623 27.9105 40.8652 27.0359 40.8652 27.0359Z" fill="#A16207"/>
<path d="M40.022 28.4035C41.8337 27.8982 43.2493 28.7214 43.2493 28.7214C43.2493 28.7214 42.6647 30.5119 40.8989 31.0094C39.133 31.5013 37.752 30.4539 37.752 30.4539C37.752 30.4539 38.2115 28.91 40.022 28.4035Z" fill="#A16207"/>
<path d="M41.6703 13.557L42.4779 13.1609C42.5203 13.2491 46.6634 22.0495 35.0206 32L34.4395 31.3184C45.5211 21.8442 41.8332 13.8894 41.6703 13.557Z" fill="#A16207"/>
</svg>
