<svg width="279" height="166" viewBox="0 0 279 166" fill="none" xmlns="http://www.w3.org/2000/svg">
<g opacity="0.5">
<path d="M0.147362 39.384C0.892784 36.1552 4.12798 34.1133 7.26621 35.1773C15.348 37.9175 22.7753 42.3584 29.0346 48.2261C36.7574 55.4656 42.4275 64.6194 45.4694 74.7584C48.5112 84.8974 48.8165 95.6607 46.3544 105.956C44.3588 114.3 40.6028 122.096 35.3641 128.833C33.3299 131.448 29.505 131.525 27.1053 129.239C24.7056 126.954 24.6479 123.176 26.6161 120.51C30.4297 115.344 33.1806 109.449 34.6835 103.165C36.6532 94.9285 36.409 86.3179 33.9755 78.2067C31.542 70.0955 27.006 62.7725 20.8277 56.9809C16.1138 52.5619 10.5718 49.1545 4.54454 46.9414C1.43389 45.7992 -0.598061 42.6128 0.147362 39.384Z" fill="#4F46E5"/>
<path d="M-30.5473 96.36C-30.3073 96.36 -30.054 96.4 -29.7873 96.48C-29.494 96.56 -29.174 96.72 -28.8273 96.96C-28.374 97.3067 -27.8407 97.6133 -27.2273 97.88C-26.5873 98.1467 -25.854 98.28 -25.0273 98.28C-24.2007 98.28 -23.4273 98.08 -22.7073 97.68C-21.9607 97.2533 -21.3473 96.6667 -20.8673 95.92C-20.3873 95.1467 -20.1473 94.2267 -20.1473 93.16C-20.1473 92.1467 -20.3607 91.3067 -20.7873 90.64C-21.1873 89.9733 -21.734 89.4667 -22.4273 89.12C-23.094 88.7733 -23.814 88.6 -24.5873 88.6C-25.174 88.6 -25.6673 88.6533 -26.0673 88.76C-26.4407 88.8667 -26.814 88.9867 -27.1873 89.12C-27.534 89.2267 -27.9473 89.28 -28.4273 89.28C-29.0407 89.28 -29.5207 89.0667 -29.8673 88.64C-30.1873 88.2133 -30.3473 87.7067 -30.3473 87.12C-30.3473 86.7467 -30.2807 86.4133 -30.1473 86.12C-29.9873 85.8267 -29.7607 85.5067 -29.4673 85.16L-22.4273 77.68L-21.3473 78.6H-31.1873C-31.8273 78.6 -32.3607 78.3867 -32.7873 77.96C-33.214 77.5333 -33.4273 77 -33.4273 76.36C-33.4273 75.7467 -33.214 75.24 -32.7873 74.84C-32.3607 74.4133 -31.8273 74.2 -31.1873 74.2H-18.9473C-18.1207 74.2 -17.5073 74.4267 -17.1073 74.88C-16.6807 75.3333 -16.4673 75.9067 -16.4673 76.6C-16.4673 76.9467 -16.5607 77.2933 -16.7473 77.64C-16.934 77.96 -17.1607 78.2533 -17.4273 78.52L-24.5073 86.12L-25.5873 84.76C-25.294 84.6267 -24.894 84.5067 -24.3873 84.4C-23.854 84.2933 -23.414 84.24 -23.0673 84.24C-21.494 84.24 -20.134 84.6533 -18.9873 85.48C-17.814 86.28 -16.9207 87.3333 -16.3073 88.64C-15.6673 89.92 -15.3473 91.3067 -15.3473 92.8C-15.3473 94.7733 -15.7873 96.48 -16.6673 97.92C-17.5473 99.36 -18.7873 100.467 -20.3873 101.24C-21.9873 102.013 -23.854 102.4 -25.9873 102.4C-26.974 102.4 -27.9473 102.28 -28.9073 102.04C-29.8673 101.8 -30.694 101.48 -31.3873 101.08C-31.974 100.76 -32.374 100.413 -32.5873 100.04C-32.774 99.64 -32.8673 99.2667 -32.8673 98.92C-32.8673 98.3067 -32.654 97.7333 -32.2273 97.2C-31.774 96.64 -31.214 96.36 -30.5473 96.36ZM-1.26297 102.4C-3.5563 102.4 -5.50297 101.8 -7.10297 100.6C-8.6763 99.3733 -9.8763 97.68 -10.703 95.52C-11.5296 93.3333 -11.943 90.8267 -11.943 88C-11.943 85.1467 -11.5296 82.64 -10.703 80.48C-9.8763 78.32 -8.6763 76.64 -7.10297 75.44C-5.50297 74.2133 -3.5563 73.6 -1.26297 73.6C1.03036 73.6 2.9637 74.2133 4.53703 75.44C6.13703 76.64 7.35037 78.32 8.17703 80.48C9.0037 82.64 9.41703 85.1467 9.41703 88C9.41703 90.8267 9.0037 93.3333 8.17703 95.52C7.35037 97.68 6.13703 99.3733 4.53703 100.6C2.9637 101.8 1.03036 102.4 -1.26297 102.4ZM-1.26297 97.6C-0.142968 97.6 0.817032 97.2533 1.61703 96.56C2.4437 95.84 3.0837 94.7733 3.53703 93.36C3.99037 91.92 4.21703 90.1333 4.21703 88C4.21703 85.84 3.99037 84.0533 3.53703 82.64C3.0837 81.2267 2.4437 80.1733 1.61703 79.48C0.817032 78.76 -0.142968 78.4 -1.26297 78.4C-2.3563 78.4 -3.3163 78.76 -4.14297 79.48C-4.96963 80.1733 -5.60964 81.2267 -6.06297 82.64C-6.5163 84.0533 -6.74297 85.84 -6.74297 88C-6.74297 90.1333 -6.5163 91.92 -6.06297 93.36C-5.60964 94.7733 -4.96963 95.84 -4.14297 96.56C-3.3163 97.2533 -2.3563 97.6 -1.26297 97.6Z" fill="#A5B4FC"/>
<path d="M-22.5469 124.16C-22.3655 124.16 -22.2162 124.224 -22.0989 124.352C-21.9709 124.469 -21.9069 124.619 -21.9069 124.8V135.344C-21.9069 135.525 -21.9709 135.68 -22.0989 135.808C-22.2162 135.936 -22.3655 136 -22.5469 136C-22.7389 136 -22.8935 135.936 -23.0109 135.808C-23.1282 135.68 -23.1869 135.525 -23.1869 135.344V133.824L-22.8829 133.712C-22.8829 133.968 -22.9629 134.24 -23.1229 134.528C-23.2829 134.805 -23.5015 135.067 -23.7789 135.312C-24.0562 135.557 -24.3869 135.76 -24.7709 135.92C-25.1442 136.08 -25.5495 136.16 -25.9869 136.16C-26.7015 136.16 -27.3522 135.973 -27.9389 135.6C-28.5149 135.227 -28.9735 134.715 -29.3149 134.064C-29.6455 133.413 -29.8109 132.672 -29.8109 131.84C-29.8109 130.997 -29.6455 130.251 -29.3149 129.6C-28.9735 128.949 -28.5149 128.443 -27.9389 128.08C-27.3629 127.707 -26.7229 127.52 -26.0189 127.52C-25.5709 127.52 -25.1495 127.595 -24.7549 127.744C-24.3602 127.893 -24.0189 128.096 -23.7309 128.352C-23.4322 128.608 -23.1975 128.891 -23.0269 129.2C-22.8562 129.509 -22.7709 129.819 -22.7709 130.128L-23.1869 130.032V124.8C-23.1869 124.619 -23.1282 124.469 -23.0109 124.352C-22.8935 124.224 -22.7389 124.16 -22.5469 124.16ZM-25.8429 134.976C-25.3095 134.976 -24.8402 134.843 -24.4349 134.576C-24.0189 134.299 -23.6989 133.925 -23.4749 133.456C-23.2402 132.976 -23.1229 132.437 -23.1229 131.84C-23.1229 131.232 -23.2402 130.693 -23.4749 130.224C-23.6989 129.755 -24.0189 129.387 -24.4349 129.12C-24.8402 128.843 -25.3095 128.704 -25.8429 128.704C-26.3655 128.704 -26.8349 128.843 -27.2509 129.12C-27.6562 129.387 -27.9762 129.755 -28.2109 130.224C-28.4455 130.693 -28.5629 131.232 -28.5629 131.84C-28.5629 132.427 -28.4455 132.96 -28.2109 133.44C-27.9762 133.909 -27.6562 134.283 -27.2509 134.56C-26.8349 134.837 -26.3655 134.976 -25.8429 134.976ZM-15.7107 136.16C-16.5641 136.16 -17.3107 135.979 -17.9507 135.616C-18.5907 135.253 -19.0921 134.757 -19.4547 134.128C-19.8067 133.488 -19.9827 132.752 -19.9827 131.92C-19.9827 130.992 -19.8014 130.203 -19.4387 129.552C-19.0654 128.891 -18.5854 128.389 -17.9987 128.048C-17.4014 127.696 -16.7721 127.52 -16.1107 127.52C-15.6201 127.52 -15.1454 127.611 -14.6867 127.792C-14.2281 127.973 -13.8227 128.24 -13.4707 128.592C-13.1187 128.933 -12.8361 129.349 -12.6227 129.84C-12.4094 130.32 -12.2974 130.859 -12.2867 131.456C-12.2867 131.627 -12.3507 131.771 -12.4787 131.888C-12.6067 132.005 -12.7561 132.064 -12.9267 132.064H-19.2467L-19.5347 130.96H-13.3747L-13.6307 131.184V130.832C-13.6734 130.395 -13.8227 130.021 -14.0787 129.712C-14.3241 129.392 -14.6281 129.147 -14.9907 128.976C-15.3427 128.805 -15.7161 128.72 -16.1107 128.72C-16.4307 128.72 -16.7507 128.779 -17.0707 128.896C-17.3801 129.003 -17.6627 129.184 -17.9187 129.44C-18.1641 129.685 -18.3667 130.005 -18.5267 130.4C-18.6761 130.795 -18.7507 131.269 -18.7507 131.824C-18.7507 132.443 -18.6281 132.987 -18.3827 133.456C-18.1267 133.925 -17.7747 134.299 -17.3267 134.576C-16.8787 134.843 -16.3561 134.976 -15.7587 134.976C-15.3854 134.976 -15.0601 134.928 -14.7827 134.832C-14.5054 134.736 -14.2654 134.619 -14.0627 134.48C-13.8601 134.331 -13.6894 134.181 -13.5507 134.032C-13.4121 133.936 -13.2787 133.888 -13.1507 133.888C-12.9907 133.888 -12.8627 133.941 -12.7667 134.048C-12.6601 134.155 -12.6067 134.283 -12.6067 134.432C-12.6067 134.613 -12.6921 134.773 -12.8627 134.912C-13.1614 135.243 -13.5667 135.536 -14.0787 135.792C-14.5907 136.037 -15.1347 136.16 -15.7107 136.16ZM-10.6829 127.776H-6.92287C-6.75221 127.776 -6.61354 127.835 -6.50687 127.952C-6.38954 128.069 -6.33087 128.208 -6.33087 128.368C-6.33087 128.539 -6.38954 128.683 -6.50687 128.8C-6.61354 128.907 -6.75221 128.96 -6.92287 128.96H-10.6829C-10.8429 128.96 -10.9815 128.901 -11.0989 128.784C-11.2162 128.667 -11.2749 128.523 -11.2749 128.352C-11.2749 128.192 -11.2162 128.059 -11.0989 127.952C-10.9815 127.835 -10.8429 127.776 -10.6829 127.776ZM-9.00287 125.6C-8.82154 125.6 -8.67221 125.664 -8.55487 125.792C-8.43754 125.909 -8.37887 126.059 -8.37887 126.24V133.968C-8.37887 134.224 -8.34154 134.416 -8.26687 134.544C-8.19221 134.672 -8.09621 134.763 -7.97887 134.816C-7.85087 134.859 -7.72821 134.88 -7.61087 134.88C-7.50421 134.88 -7.41354 134.864 -7.33887 134.832C-7.25354 134.789 -7.15754 134.768 -7.05087 134.768C-6.94421 134.768 -6.84821 134.821 -6.76287 134.928C-6.66687 135.024 -6.61887 135.152 -6.61887 135.312C-6.61887 135.504 -6.73087 135.669 -6.95487 135.808C-7.17887 135.936 -7.42954 136 -7.70687 136C-7.85621 136 -8.04287 135.989 -8.26687 135.968C-8.48021 135.947 -8.69354 135.877 -8.90687 135.76C-9.12021 135.643 -9.30154 135.451 -9.45087 135.184C-9.58954 134.907 -9.65887 134.523 -9.65887 134.032V126.24C-9.65887 126.059 -9.59487 125.909 -9.46687 125.792C-9.33887 125.664 -9.18421 125.6 -9.00287 125.6ZM-3.31837 135.344C-3.31837 135.525 -3.38237 135.68 -3.51037 135.808C-3.62771 135.936 -3.77704 136 -3.95837 136C-4.15037 136 -4.30504 135.936 -4.42237 135.808C-4.53971 135.68 -4.59837 135.525 -4.59837 135.344V128.24C-4.59837 128.059 -4.53971 127.909 -4.42237 127.792C-4.29437 127.664 -4.13971 127.6 -3.95837 127.6C-3.77704 127.6 -3.62771 127.664 -3.51037 127.792C-3.38237 127.909 -3.31837 128.059 -3.31837 128.24V135.344ZM-3.95837 126.528C-4.22504 126.528 -4.42237 126.475 -4.55037 126.368C-4.67837 126.261 -4.74237 126.096 -4.74237 125.872V125.648C-4.74237 125.424 -4.67304 125.259 -4.53437 125.152C-4.39571 125.045 -4.19837 124.992 -3.94237 124.992C-3.68637 124.992 -3.49437 125.045 -3.36637 125.152C-3.23837 125.259 -3.17437 125.424 -3.17437 125.648V125.872C-3.17437 126.096 -3.24371 126.261 -3.38238 126.368C-3.51037 126.475 -3.70237 126.528 -3.95837 126.528ZM-0.251125 136C-0.443125 136 -0.597792 135.936 -0.715125 135.808C-0.832458 135.68 -0.891125 135.525 -0.891125 135.344V124.8C-0.891125 124.619 -0.832458 124.469 -0.715125 124.352C-0.597792 124.224 -0.443125 124.16 -0.251125 124.16C-0.0697915 124.16 0.0795418 124.224 0.196875 124.352C0.324875 124.469 0.388875 124.619 0.388875 124.8V135.344C0.388875 135.525 0.324875 135.68 0.196875 135.808C0.0795418 135.936 -0.0697915 136 -0.251125 136ZM5.06088 127.68C5.23154 127.68 5.37554 127.749 5.49288 127.888C5.62088 128.016 5.68488 128.149 5.68488 128.288C5.68488 128.469 5.59954 128.629 5.42888 128.768L0.244875 133.296L0.196875 131.808L4.61288 127.872C4.74088 127.744 4.89021 127.68 5.06088 127.68ZM5.23688 135.984C5.05554 135.984 4.89554 135.915 4.75688 135.776L1.34888 132.144L2.30888 131.264L5.68488 134.88C5.81288 135.019 5.87687 135.179 5.87687 135.36C5.87687 135.552 5.80221 135.707 5.65288 135.824C5.50354 135.931 5.36488 135.984 5.23688 135.984Z" fill="#A5B4FC"/>
</g>
<path d="M193.795 87.2936C197.096 87.0048 200.037 89.4506 199.995 92.7641C199.909 99.5618 198.667 106.31 196.31 112.718C193.952 119.125 190.524 125.069 186.184 130.302C184.068 132.853 180.243 132.809 177.916 130.449C175.59 128.09 175.651 124.311 177.701 121.709C180.818 117.754 183.3 113.323 185.048 108.574C186.795 103.826 187.776 98.8424 187.966 93.8108C188.091 90.4995 190.493 87.5824 193.795 87.2936Z" fill="#4F46E5"/>
<path d="M101.816 130.184C99.4731 132.527 95.6474 132.544 93.5499 129.979C88.8477 124.228 85.243 117.639 82.9366 110.541C80.0106 101.536 79.2575 91.966 80.7387 82.6139C82.2199 73.2619 85.8935 64.3932 91.459 56.7329C97.0245 49.0726 104.324 42.8383 112.761 38.5396C121.197 34.2409 130.531 32 140 32C149.469 32 158.803 34.2409 167.239 38.5396C175.676 42.8383 182.976 49.0726 188.541 56.7329C192.928 62.771 196.139 69.5599 198.028 76.7445C198.871 79.9493 196.608 83.0342 193.335 83.5525C190.062 84.0709 187.025 81.8217 186.103 78.6389C184.561 73.3192 182.106 68.2915 178.833 63.7863C174.38 57.6581 168.541 52.6706 161.792 49.2317C155.042 45.7928 147.575 44 140 44C132.425 44 124.958 45.7928 118.208 49.2317C111.459 52.6706 105.62 57.6581 101.167 63.7863C96.7148 69.9145 93.7759 77.0095 92.591 84.4911C91.406 91.9728 92.0085 99.6287 94.3493 106.833C96.0701 112.129 98.6945 117.071 102.092 121.445C104.125 124.062 104.159 127.841 101.816 130.184Z" fill="#818CF8"/>
<path d="M133.06 102C132.393 102 131.833 101.773 131.38 101.32C130.927 100.84 130.7 100.253 130.7 99.56V80.76L131.54 80.96L123.82 90.52L123.62 90H137.78C138.42 90 138.953 90.2133 139.38 90.64C139.807 91.0667 140.02 91.6 140.02 92.24C140.02 92.8533 139.807 93.3733 139.38 93.8C138.953 94.2 138.42 94.4 137.78 94.4H120.3C119.74 94.4 119.193 94.1733 118.66 93.72C118.153 93.2667 117.9 92.7067 117.9 92.04C117.9 91.4533 118.1 90.92 118.5 90.44L131.14 74.96C131.353 74.6667 131.633 74.44 131.98 74.28C132.327 74.0933 132.713 74 133.14 74C133.833 74 134.393 74.24 134.82 74.72C135.273 75.1733 135.5 75.7467 135.5 76.44V99.56C135.5 100.253 135.26 100.84 134.78 101.32C134.327 101.773 133.753 102 133.06 102ZM145.496 96.36C145.736 96.36 145.989 96.4 146.256 96.48C146.549 96.56 146.869 96.72 147.216 96.96C147.669 97.3067 148.202 97.6133 148.816 97.88C149.456 98.1467 150.189 98.28 151.016 98.28C151.842 98.28 152.616 98.08 153.336 97.68C154.082 97.2533 154.696 96.6667 155.176 95.92C155.656 95.1467 155.896 94.2267 155.896 93.16C155.896 92.1467 155.682 91.3067 155.256 90.64C154.856 89.9733 154.309 89.4667 153.616 89.12C152.949 88.7733 152.229 88.6 151.456 88.6C150.869 88.6 150.376 88.6533 149.976 88.76C149.602 88.8667 149.229 88.9867 148.856 89.12C148.509 89.2267 148.096 89.28 147.616 89.28C147.002 89.28 146.522 89.0667 146.176 88.64C145.856 88.2133 145.696 87.7067 145.696 87.12C145.696 86.7467 145.762 86.4133 145.896 86.12C146.056 85.8267 146.282 85.5067 146.576 85.16L153.616 77.68L154.696 78.6H144.856C144.216 78.6 143.682 78.3867 143.256 77.96C142.829 77.5333 142.616 77 142.616 76.36C142.616 75.7467 142.829 75.24 143.256 74.84C143.682 74.4133 144.216 74.2 144.856 74.2H157.096C157.922 74.2 158.536 74.4267 158.936 74.88C159.362 75.3333 159.576 75.9067 159.576 76.6C159.576 76.9467 159.482 77.2933 159.296 77.64C159.109 77.96 158.882 78.2533 158.616 78.52L151.536 86.12L150.456 84.76C150.749 84.6267 151.149 84.5067 151.656 84.4C152.189 84.2933 152.629 84.24 152.976 84.24C154.549 84.24 155.909 84.6533 157.056 85.48C158.229 86.28 159.122 87.3333 159.736 88.64C160.376 89.92 160.696 91.3067 160.696 92.8C160.696 94.7733 160.256 96.48 159.376 97.92C158.496 99.36 157.256 100.467 155.656 101.24C154.056 102.013 152.189 102.4 150.056 102.4C149.069 102.4 148.096 102.28 147.136 102.04C146.176 101.8 145.349 101.48 144.656 101.08C144.069 100.76 143.669 100.413 143.456 100.04C143.269 99.64 143.176 99.2667 143.176 98.92C143.176 98.3067 143.389 97.7333 143.816 97.2C144.269 96.64 144.829 96.36 145.496 96.36Z" fill="#A5B4FC"/>
<path d="M129.453 124.16C129.634 124.16 129.784 124.224 129.901 124.352C130.029 124.469 130.093 124.619 130.093 124.8V135.344C130.093 135.525 130.029 135.68 129.901 135.808C129.784 135.936 129.634 136 129.453 136C129.261 136 129.106 135.936 128.989 135.808C128.872 135.68 128.813 135.525 128.813 135.344V133.824L129.117 133.712C129.117 133.968 129.037 134.24 128.877 134.528C128.717 134.805 128.498 135.067 128.221 135.312C127.944 135.557 127.613 135.76 127.229 135.92C126.856 136.08 126.45 136.16 126.013 136.16C125.298 136.16 124.648 135.973 124.061 135.6C123.485 135.227 123.026 134.715 122.685 134.064C122.354 133.413 122.189 132.672 122.189 131.84C122.189 130.997 122.354 130.251 122.685 129.6C123.026 128.949 123.485 128.443 124.061 128.08C124.637 127.707 125.277 127.52 125.981 127.52C126.429 127.52 126.85 127.595 127.245 127.744C127.64 127.893 127.981 128.096 128.269 128.352C128.568 128.608 128.802 128.891 128.973 129.2C129.144 129.509 129.229 129.819 129.229 130.128L128.813 130.032V124.8C128.813 124.619 128.872 124.469 128.989 124.352C129.106 124.224 129.261 124.16 129.453 124.16ZM126.157 134.976C126.69 134.976 127.16 134.843 127.565 134.576C127.981 134.299 128.301 133.925 128.525 133.456C128.76 132.976 128.877 132.437 128.877 131.84C128.877 131.232 128.76 130.693 128.525 130.224C128.301 129.755 127.981 129.387 127.565 129.12C127.16 128.843 126.69 128.704 126.157 128.704C125.634 128.704 125.165 128.843 124.749 129.12C124.344 129.387 124.024 129.755 123.789 130.224C123.554 130.693 123.437 131.232 123.437 131.84C123.437 132.427 123.554 132.96 123.789 133.44C124.024 133.909 124.344 134.283 124.749 134.56C125.165 134.837 125.634 134.976 126.157 134.976ZM136.289 136.16C135.436 136.16 134.689 135.979 134.049 135.616C133.409 135.253 132.908 134.757 132.545 134.128C132.193 133.488 132.017 132.752 132.017 131.92C132.017 130.992 132.199 130.203 132.561 129.552C132.935 128.891 133.415 128.389 134.001 128.048C134.599 127.696 135.228 127.52 135.889 127.52C136.38 127.52 136.855 127.611 137.313 127.792C137.772 127.973 138.177 128.24 138.529 128.592C138.881 128.933 139.164 129.349 139.377 129.84C139.591 130.32 139.703 130.859 139.713 131.456C139.713 131.627 139.649 131.771 139.521 131.888C139.393 132.005 139.244 132.064 139.073 132.064H132.753L132.465 130.96H138.625L138.369 131.184V130.832C138.327 130.395 138.177 130.021 137.921 129.712C137.676 129.392 137.372 129.147 137.009 128.976C136.657 128.805 136.284 128.72 135.889 128.72C135.569 128.72 135.249 128.779 134.929 128.896C134.62 129.003 134.337 129.184 134.081 129.44C133.836 129.685 133.633 130.005 133.473 130.4C133.324 130.795 133.249 131.269 133.249 131.824C133.249 132.443 133.372 132.987 133.617 133.456C133.873 133.925 134.225 134.299 134.673 134.576C135.121 134.843 135.644 134.976 136.241 134.976C136.615 134.976 136.94 134.928 137.217 134.832C137.495 134.736 137.735 134.619 137.937 134.48C138.14 134.331 138.311 134.181 138.449 134.032C138.588 133.936 138.721 133.888 138.849 133.888C139.009 133.888 139.137 133.941 139.233 134.048C139.34 134.155 139.393 134.283 139.393 134.432C139.393 134.613 139.308 134.773 139.137 134.912C138.839 135.243 138.433 135.536 137.921 135.792C137.409 136.037 136.865 136.16 136.289 136.16ZM141.317 127.776H145.077C145.248 127.776 145.386 127.835 145.493 127.952C145.61 128.069 145.669 128.208 145.669 128.368C145.669 128.539 145.61 128.683 145.493 128.8C145.386 128.907 145.248 128.96 145.077 128.96H141.317C141.157 128.96 141.018 128.901 140.901 128.784C140.784 128.667 140.725 128.523 140.725 128.352C140.725 128.192 140.784 128.059 140.901 127.952C141.018 127.835 141.157 127.776 141.317 127.776ZM142.997 125.6C143.178 125.6 143.328 125.664 143.445 125.792C143.562 125.909 143.621 126.059 143.621 126.24V133.968C143.621 134.224 143.658 134.416 143.733 134.544C143.808 134.672 143.904 134.763 144.021 134.816C144.149 134.859 144.272 134.88 144.389 134.88C144.496 134.88 144.586 134.864 144.661 134.832C144.746 134.789 144.842 134.768 144.949 134.768C145.056 134.768 145.152 134.821 145.237 134.928C145.333 135.024 145.381 135.152 145.381 135.312C145.381 135.504 145.269 135.669 145.045 135.808C144.821 135.936 144.57 136 144.293 136C144.144 136 143.957 135.989 143.733 135.968C143.52 135.947 143.306 135.877 143.093 135.76C142.88 135.643 142.698 135.451 142.549 135.184C142.41 134.907 142.341 134.523 142.341 134.032V126.24C142.341 126.059 142.405 125.909 142.533 125.792C142.661 125.664 142.816 125.6 142.997 125.6ZM148.682 135.344C148.682 135.525 148.618 135.68 148.49 135.808C148.372 135.936 148.223 136 148.042 136C147.85 136 147.695 135.936 147.578 135.808C147.46 135.68 147.402 135.525 147.402 135.344V128.24C147.402 128.059 147.46 127.909 147.578 127.792C147.706 127.664 147.86 127.6 148.042 127.6C148.223 127.6 148.372 127.664 148.49 127.792C148.618 127.909 148.682 128.059 148.682 128.24V135.344ZM148.042 126.528C147.775 126.528 147.578 126.475 147.45 126.368C147.322 126.261 147.258 126.096 147.258 125.872V125.648C147.258 125.424 147.327 125.259 147.466 125.152C147.604 125.045 147.802 124.992 148.058 124.992C148.314 124.992 148.506 125.045 148.634 125.152C148.762 125.259 148.826 125.424 148.826 125.648V125.872C148.826 126.096 148.756 126.261 148.618 126.368C148.49 126.475 148.298 126.528 148.042 126.528ZM151.749 136C151.557 136 151.402 135.936 151.285 135.808C151.168 135.68 151.109 135.525 151.109 135.344V124.8C151.109 124.619 151.168 124.469 151.285 124.352C151.402 124.224 151.557 124.16 151.749 124.16C151.93 124.16 152.08 124.224 152.197 124.352C152.325 124.469 152.389 124.619 152.389 124.8V135.344C152.389 135.525 152.325 135.68 152.197 135.808C152.08 135.936 151.93 136 151.749 136ZM157.061 127.68C157.232 127.68 157.376 127.749 157.493 127.888C157.621 128.016 157.685 128.149 157.685 128.288C157.685 128.469 157.6 128.629 157.429 128.768L152.245 133.296L152.197 131.808L156.613 127.872C156.741 127.744 156.89 127.68 157.061 127.68ZM157.237 135.984C157.056 135.984 156.896 135.915 156.757 135.776L153.349 132.144L154.309 131.264L157.685 134.88C157.813 135.019 157.877 135.179 157.877 135.36C157.877 135.552 157.802 135.707 157.653 135.824C157.504 135.931 157.365 135.984 157.237 135.984Z" fill="#A5B4FC"/>
<g opacity="0.5">
<path d="M238.205 96.7064C234.904 96.9952 231.963 94.5493 232.005 91.2359C232.106 83.2556 233.8 75.3546 237.008 68.003C241.018 58.8133 247.267 50.7751 255.184 44.6228C263.101 38.4705 272.434 34.4004 282.33 32.7844C292.225 31.1684 302.368 32.058 311.831 35.3719C321.294 38.6859 329.776 44.3184 336.501 51.755C343.226 59.1915 347.981 68.1949 350.33 77.9424C352.679 87.6899 352.548 97.8706 349.949 107.554C347.869 115.301 344.263 122.532 339.364 128.833C337.33 131.448 333.505 131.525 331.105 129.239C328.706 126.954 328.648 123.176 330.616 120.51C334.168 115.699 336.8 110.253 338.359 104.444C340.438 96.6965 340.543 88.5519 338.664 80.7539C336.785 72.9559 332.981 65.7532 327.601 59.804C322.221 53.8548 315.435 49.3487 307.865 46.6976C300.294 44.0464 292.18 43.3347 284.264 44.6275C276.347 45.9204 268.881 49.1764 262.547 54.0982C256.214 59.0201 251.214 65.4507 248.006 72.8024C245.601 78.3151 244.26 84.2139 244.034 90.1892C243.909 93.5005 241.507 96.4176 238.205 96.7064Z" fill="#4F46E5"/>
<path d="M253.816 130.184C251.473 132.527 247.647 132.544 245.55 129.979C240.107 123.322 236.158 115.572 233.972 107.256C233.129 104.051 235.392 100.966 238.665 100.447C241.938 99.9291 244.975 102.178 245.897 105.361C247.587 111.192 250.368 116.65 254.092 121.445C256.125 124.062 256.159 127.841 253.816 130.184Z" fill="#818CF8"/>
<path d="M281.453 124.16C281.634 124.16 281.784 124.224 281.901 124.352C282.029 124.469 282.093 124.619 282.093 124.8V135.344C282.093 135.525 282.029 135.68 281.901 135.808C281.784 135.936 281.634 136 281.453 136C281.261 136 281.106 135.936 280.989 135.808C280.872 135.68 280.813 135.525 280.813 135.344V133.824L281.117 133.712C281.117 133.968 281.037 134.24 280.877 134.528C280.717 134.805 280.498 135.067 280.221 135.312C279.944 135.557 279.613 135.76 279.229 135.92C278.856 136.08 278.45 136.16 278.013 136.16C277.298 136.16 276.648 135.973 276.061 135.6C275.485 135.227 275.026 134.715 274.685 134.064C274.354 133.413 274.189 132.672 274.189 131.84C274.189 130.997 274.354 130.251 274.685 129.6C275.026 128.949 275.485 128.443 276.061 128.08C276.637 127.707 277.277 127.52 277.981 127.52C278.429 127.52 278.85 127.595 279.245 127.744C279.64 127.893 279.981 128.096 280.269 128.352C280.568 128.608 280.802 128.891 280.973 129.2C281.144 129.509 281.229 129.819 281.229 130.128L280.813 130.032V124.8C280.813 124.619 280.872 124.469 280.989 124.352C281.106 124.224 281.261 124.16 281.453 124.16ZM278.157 134.976C278.69 134.976 279.16 134.843 279.565 134.576C279.981 134.299 280.301 133.925 280.525 133.456C280.76 132.976 280.877 132.437 280.877 131.84C280.877 131.232 280.76 130.693 280.525 130.224C280.301 129.755 279.981 129.387 279.565 129.12C279.16 128.843 278.69 128.704 278.157 128.704C277.634 128.704 277.165 128.843 276.749 129.12C276.344 129.387 276.024 129.755 275.789 130.224C275.554 130.693 275.437 131.232 275.437 131.84C275.437 132.427 275.554 132.96 275.789 133.44C276.024 133.909 276.344 134.283 276.749 134.56C277.165 134.837 277.634 134.976 278.157 134.976ZM288.289 136.16C287.436 136.16 286.689 135.979 286.049 135.616C285.409 135.253 284.908 134.757 284.545 134.128C284.193 133.488 284.017 132.752 284.017 131.92C284.017 130.992 284.199 130.203 284.561 129.552C284.935 128.891 285.415 128.389 286.001 128.048C286.599 127.696 287.228 127.52 287.889 127.52C288.38 127.52 288.855 127.611 289.313 127.792C289.772 127.973 290.177 128.24 290.529 128.592C290.881 128.933 291.164 129.349 291.377 129.84C291.591 130.32 291.703 130.859 291.713 131.456C291.713 131.627 291.649 131.771 291.521 131.888C291.393 132.005 291.244 132.064 291.073 132.064H284.753L284.465 130.96H290.625L290.369 131.184V130.832C290.327 130.395 290.177 130.021 289.921 129.712C289.676 129.392 289.372 129.147 289.009 128.976C288.657 128.805 288.284 128.72 287.889 128.72C287.569 128.72 287.249 128.779 286.929 128.896C286.62 129.003 286.337 129.184 286.081 129.44C285.836 129.685 285.633 130.005 285.473 130.4C285.324 130.795 285.249 131.269 285.249 131.824C285.249 132.443 285.372 132.987 285.617 133.456C285.873 133.925 286.225 134.299 286.673 134.576C287.121 134.843 287.644 134.976 288.241 134.976C288.615 134.976 288.94 134.928 289.217 134.832C289.495 134.736 289.735 134.619 289.937 134.48C290.14 134.331 290.311 134.181 290.449 134.032C290.588 133.936 290.721 133.888 290.849 133.888C291.009 133.888 291.137 133.941 291.233 134.048C291.34 134.155 291.393 134.283 291.393 134.432C291.393 134.613 291.308 134.773 291.137 134.912C290.839 135.243 290.433 135.536 289.921 135.792C289.409 136.037 288.865 136.16 288.289 136.16ZM293.317 127.776H297.077C297.248 127.776 297.386 127.835 297.493 127.952C297.61 128.069 297.669 128.208 297.669 128.368C297.669 128.539 297.61 128.683 297.493 128.8C297.386 128.907 297.248 128.96 297.077 128.96H293.317C293.157 128.96 293.018 128.901 292.901 128.784C292.784 128.667 292.725 128.523 292.725 128.352C292.725 128.192 292.784 128.059 292.901 127.952C293.018 127.835 293.157 127.776 293.317 127.776ZM294.997 125.6C295.178 125.6 295.328 125.664 295.445 125.792C295.562 125.909 295.621 126.059 295.621 126.24V133.968C295.621 134.224 295.658 134.416 295.733 134.544C295.808 134.672 295.904 134.763 296.021 134.816C296.149 134.859 296.272 134.88 296.389 134.88C296.496 134.88 296.586 134.864 296.661 134.832C296.746 134.789 296.842 134.768 296.949 134.768C297.056 134.768 297.152 134.821 297.237 134.928C297.333 135.024 297.381 135.152 297.381 135.312C297.381 135.504 297.269 135.669 297.045 135.808C296.821 135.936 296.57 136 296.293 136C296.144 136 295.957 135.989 295.733 135.968C295.52 135.947 295.306 135.877 295.093 135.76C294.88 135.643 294.698 135.451 294.549 135.184C294.41 134.907 294.341 134.523 294.341 134.032V126.24C294.341 126.059 294.405 125.909 294.533 125.792C294.661 125.664 294.816 125.6 294.997 125.6ZM300.682 135.344C300.682 135.525 300.618 135.68 300.49 135.808C300.372 135.936 300.223 136 300.042 136C299.85 136 299.695 135.936 299.578 135.808C299.46 135.68 299.402 135.525 299.402 135.344V128.24C299.402 128.059 299.46 127.909 299.578 127.792C299.706 127.664 299.86 127.6 300.042 127.6C300.223 127.6 300.372 127.664 300.49 127.792C300.618 127.909 300.682 128.059 300.682 128.24V135.344ZM300.042 126.528C299.775 126.528 299.578 126.475 299.45 126.368C299.322 126.261 299.258 126.096 299.258 125.872V125.648C299.258 125.424 299.327 125.259 299.466 125.152C299.604 125.045 299.802 124.992 300.058 124.992C300.314 124.992 300.506 125.045 300.634 125.152C300.762 125.259 300.826 125.424 300.826 125.648V125.872C300.826 126.096 300.756 126.261 300.618 126.368C300.49 126.475 300.298 126.528 300.042 126.528ZM303.749 136C303.557 136 303.402 135.936 303.285 135.808C303.168 135.68 303.109 135.525 303.109 135.344V124.8C303.109 124.619 303.168 124.469 303.285 124.352C303.402 124.224 303.557 124.16 303.749 124.16C303.93 124.16 304.08 124.224 304.197 124.352C304.325 124.469 304.389 124.619 304.389 124.8V135.344C304.389 135.525 304.325 135.68 304.197 135.808C304.08 135.936 303.93 136 303.749 136ZM309.061 127.68C309.232 127.68 309.376 127.749 309.493 127.888C309.621 128.016 309.685 128.149 309.685 128.288C309.685 128.469 309.6 128.629 309.429 128.768L304.245 133.296L304.197 131.808L308.613 127.872C308.741 127.744 308.89 127.68 309.061 127.68ZM309.237 135.984C309.056 135.984 308.896 135.915 308.757 135.776L305.349 132.144L306.309 131.264L309.685 134.88C309.813 135.019 309.877 135.179 309.877 135.36C309.877 135.552 309.802 135.707 309.653 135.824C309.504 135.931 309.365 135.984 309.237 135.984Z" fill="#A5B4FC"/>
</g>
</svg>
