<svg width="32" height="32" viewBox="0 0 32 32" fill="none" xmlns="http://www.w3.org/2000/svg">
<path d="M31.5009 15.5C31.4994 14.1351 31.1262 12.7964 30.4215 11.6275C29.7168 10.4586 28.7072 9.50364 27.5009 8.86501C27.4729 7.54018 27.0405 6.25559 26.2619 5.18337C25.4832 4.11115 24.3954 3.30252 23.1443 2.86586C21.8932 2.42919 20.5385 2.38535 19.2618 2.7402C17.9851 3.09504 16.8473 3.83163 16.0009 4.85126C15.1546 3.83163 14.0168 3.09504 12.7401 2.7402C11.4634 2.38535 10.1087 2.42919 8.85756 2.86586C7.60645 3.30252 6.51868 4.11115 5.74003 5.18337C4.96138 6.25559 4.52904 7.54018 4.50095 8.86501C3.29346 9.50191 2.28271 10.4563 1.57766 11.6253C0.87261 12.7943 0.5 14.1336 0.5 15.4988C0.5 16.8639 0.87261 18.2032 1.57766 19.3722C2.28271 20.5412 3.29346 21.4956 4.50095 22.1325C4.52855 23.4575 4.96053 24.7425 5.739 25.8151C6.51746 26.8877 7.60521 27.6967 8.85642 28.1337C10.1076 28.5706 11.4625 28.6147 12.7395 28.2599C14.0165 27.9052 15.1545 27.1685 16.0009 26.1488C16.8474 27.1685 17.9854 27.9052 19.2624 28.2599C20.5394 28.6147 21.8943 28.5706 23.1455 28.1337C24.3967 27.6967 25.4844 26.8877 26.2629 25.8151C27.0414 24.7425 27.4733 23.4575 27.5009 22.1325C28.7076 21.495 29.7177 20.5407 30.4225 19.372C31.1273 18.2034 31.5001 16.8647 31.5009 15.5ZM11.0009 25.5C10.2457 25.4999 9.51081 25.2555 8.90591 24.8034C8.30101 24.3512 7.85859 23.7155 7.6447 22.9913C7.7697 22.9913 7.88095 23 8.00095 23H9.00095C9.39877 23 9.7803 22.842 10.0616 22.5607C10.3429 22.2794 10.5009 21.8978 10.5009 21.5C10.5009 21.1022 10.3429 20.7207 10.0616 20.4393C9.7803 20.158 9.39877 20 9.00095 20H8.00095C6.93886 20.0007 5.91074 19.6258 5.09848 18.9415C4.28622 18.2572 3.74217 17.3077 3.56259 16.2609C3.38302 15.2141 3.57948 14.1375 4.11722 13.2216C4.65497 12.3057 5.49934 11.6095 6.50095 11.2563C6.79353 11.1528 7.04682 10.9612 7.22592 10.7077C7.40502 10.4543 7.50111 10.1516 7.50095 9.84126V9.00001C7.50095 8.07175 7.8697 7.18151 8.52608 6.52513C9.18245 5.86875 10.0727 5.50001 11.0009 5.50001C11.9292 5.50001 12.8194 5.86875 13.4758 6.52513C14.1322 7.18151 14.5009 8.07175 14.5009 9.00001V16.5188C14.018 16.2117 13.4969 15.9692 12.9509 15.7975C12.5714 15.6782 12.1599 15.7145 11.8071 15.8985C11.4543 16.0825 11.189 16.3992 11.0697 16.7788C10.9504 17.1583 10.9867 17.5698 11.1707 17.9226C11.3547 18.2754 11.6714 18.5407 12.0509 18.66C12.8496 18.9101 13.5322 19.4382 13.9749 20.1484C14.4177 20.8585 14.5913 21.7039 14.4643 22.5311C14.3373 23.3583 13.9181 24.1126 13.2827 24.6573C12.6474 25.202 11.8378 25.5009 11.0009 25.5ZM24.0009 20H23.0009C22.6031 20 22.2216 20.158 21.9403 20.4393C21.659 20.7207 21.5009 21.1022 21.5009 21.5C21.5009 21.8978 21.659 22.2794 21.9403 22.5607C22.2216 22.842 22.6031 23 23.0009 23H24.0009C24.1259 23 24.2384 23 24.3572 22.9913C24.1858 23.5711 23.8671 24.0966 23.4322 24.5166C22.9973 24.9366 22.4611 25.2369 21.8756 25.388C21.2902 25.5391 20.6756 25.536 20.0918 25.379C19.5079 25.222 18.9747 24.9164 18.544 24.492C18.1134 24.0676 17.8 23.5389 17.6345 22.9573C17.469 22.3758 17.4569 21.7614 17.5995 21.1738C17.742 20.5862 18.0344 20.0456 18.448 19.6046C18.8616 19.1637 19.3825 18.8373 19.9597 18.6575C20.3396 18.5393 20.657 18.275 20.8421 17.9228C21.0272 17.5706 21.0648 17.1593 20.9466 16.7794C20.8284 16.3995 20.5641 16.082 20.2119 15.897C19.8597 15.7119 19.4484 15.6743 19.0684 15.7925C18.516 15.9638 17.9888 16.208 17.5009 16.5188V9.00001C17.5009 8.07175 17.8697 7.18151 18.5261 6.52513C19.1825 5.86875 20.0727 5.50001 21.0009 5.50001C21.9292 5.50001 22.8194 5.86875 23.4758 6.52513C24.1322 7.18151 24.5009 8.07175 24.5009 9.00001V9.84126C24.5008 10.1516 24.5969 10.4543 24.776 10.7077C24.9551 10.9612 25.2084 11.1528 25.5009 11.2563C26.507 11.6063 27.3563 12.302 27.8977 13.2195C28.439 14.1369 28.6374 15.2167 28.4574 16.2666C28.2774 17.3166 27.7307 18.2686 26.9147 18.9534C26.0987 19.6382 25.0662 20.0113 24.0009 20.0063V20ZM26.0009 14.5C26.0009 14.8978 25.8429 15.2794 25.5616 15.5607C25.2803 15.842 24.8988 16 24.5009 16C23.1749 16 21.9031 15.4732 20.9654 14.5355C20.0277 13.5979 19.5009 12.3261 19.5009 11V10.5C19.5009 10.1022 19.659 9.72065 19.9403 9.43934C20.2216 9.15804 20.6031 9.00001 21.0009 9.00001C21.3988 9.00001 21.7803 9.15804 22.0616 9.43934C22.3429 9.72065 22.5009 10.1022 22.5009 10.5V11C22.5009 11.5304 22.7117 12.0391 23.0867 12.4142C23.4618 12.7893 23.9705 13 24.5009 13C24.8988 13 25.2803 13.158 25.5616 13.4393C25.8429 13.7206 26.0009 14.1022 26.0009 14.5ZM7.50095 16C7.10312 16 6.72159 15.842 6.44029 15.5607C6.15898 15.2794 6.00095 14.8978 6.00095 14.5C6.00095 14.1022 6.15898 13.7206 6.44029 13.4393C6.72159 13.158 7.10312 13 7.50095 13C8.03138 13 8.54009 12.7893 8.91516 12.4142C9.29023 12.0391 9.50095 11.5304 9.50095 11V10.5C9.50095 10.1022 9.65898 9.72065 9.94029 9.43934C10.2216 9.15804 10.6031 9.00001 11.0009 9.00001C11.3988 9.00001 11.7803 9.15804 12.0616 9.43934C12.3429 9.72065 12.5009 10.1022 12.5009 10.5V11C12.5009 12.3261 11.9742 13.5979 11.0365 14.5355C10.0988 15.4732 8.82703 16 7.50095 16Z" fill="url(#paint0_linear_1219_3009)"/>
<defs>
<linearGradient id="paint0_linear_1219_3009" x1="1" y1="3" x2="27" y2="3" gradientUnits="userSpaceOnUse">
<stop stop-color="#D1D5DB"/>
<stop offset="1" stop-color="#D1D5DB" stop-opacity="0"/>
</linearGradient>
</defs>
</svg>
