<svg width="24" height="24" viewBox="0 0 24 24" fill="none" xmlns="http://www.w3.org/2000/svg">
<path d="M20.1924 15.2869C20.1357 15.4239 20.0396 15.5411 19.9163 15.6235C19.7929 15.706 19.648 15.75 19.4996 15.75H4.49961C4.35119 15.7501 4.20607 15.7062 4.08263 15.6238C3.95918 15.5414 3.86296 15.4242 3.80615 15.2871C3.74933 15.15 3.73448 14.9991 3.76347 14.8535C3.79245 14.708 3.86398 14.5743 3.96899 14.4694L11.469 6.96938C11.5386 6.89965 11.6214 6.84433 11.7124 6.80659C11.8035 6.76885 11.9011 6.74942 11.9996 6.74942C12.0982 6.74942 12.1958 6.76885 12.2868 6.80659C12.3779 6.84433 12.4606 6.89965 12.5302 6.96938L20.0302 14.4694C20.1351 14.5743 20.2065 14.708 20.2353 14.8535C20.2642 14.999 20.2493 15.1499 20.1924 15.2869Z" fill="#A7F3D0"/>
</svg>
