<svg width="32" height="32" viewBox="0 0 32 32" fill="none" xmlns="http://www.w3.org/2000/svg">
<path d="M18.4679 18.1992V25.3733C18.4679 25.9255 18.0201 26.3733 17.4679 26.3733H14.6397C14.0875 26.3733 13.6397 25.9255 13.6397 25.3733V18.3271L1.51957 26.2122C1.35999 26.316 1.17371 26.3712 0.983331 26.3712H0.583075C0.261052 26.3712 0 26.1102 0 25.7882C0 25.5908 0.0997956 25.4069 0.265217 25.2993L11.3028 18.122H1C0.447715 18.122 0 17.6743 0 17.122V14.2939C0 13.7416 0.447715 13.2939 1 13.2939H10.9252L0.350832 6.4179C0.132011 6.27561 0 6.03231 0 5.77129V5.6358C0 5.28466 0.284656 5 0.635797 5C0.758827 5 0.879215 5.0357 0.982362 5.10276L13.5809 13.2939H13.6397V6C13.6397 5.44772 14.0875 5 14.6397 5H17.4679C18.0201 5 18.4679 5.44772 18.4679 6V13.2939H18.7237L31.383 5.06453C31.4478 5.02241 31.5234 5 31.6007 5C31.8212 5 32 5.17879 32 5.39934V5.90029C32 6.20495 31.8459 6.48894 31.5905 6.65503L21.3814 13.2939H31C31.5523 13.2939 32 13.7416 32 14.2939V17.122C32 17.6743 31.5523 18.122 31 18.122H21.0017L31.6767 25.0646C31.8784 25.1958 32 25.42 32 25.6605C32 26.053 31.6818 26.3712 31.2892 26.3712H31.2546C31.1104 26.3712 30.9692 26.3294 30.8482 26.2507L18.4679 18.1992Z" fill="url(#paint0_linear_1219_3052)"/>
<defs>
<linearGradient id="paint0_linear_1219_3052" x1="0.516113" y1="5.40881" x2="27.354" y2="5.40881" gradientUnits="userSpaceOnUse">
<stop stop-color="#D1D5DB"/>
<stop offset="1" stop-color="#D1D5DB" stop-opacity="0"/>
</linearGradient>
</defs>
</svg>
