<svg width="33" height="32" viewBox="0 0 33 32" fill="none" xmlns="http://www.w3.org/2000/svg">
<g id="Fire">
<path id="Vector" opacity="0.2" d="M26.334 18C26.334 20.6522 25.2804 23.1957 23.4051 25.0711C21.5297 26.9464 18.9861 28 16.334 28C13.6818 28 11.1383 26.9464 9.26292 25.0711C7.38755 23.1957 6.33398 20.6522 6.33398 18C6.33398 14.1788 8.13648 10.7175 10.209 8L14.334 12L17.6177 3C20.3165 5.24 26.334 11.0188 26.334 18Z" fill="#FF0000"/>
<path id="Vector_2" d="M23.3202 19.1675C23.0609 20.6159 22.3641 21.9501 21.3235 22.9904C20.283 24.0307 18.9487 24.7273 17.5002 24.9863C17.4452 24.9951 17.3897 24.9997 17.334 25C17.0831 24.9999 16.8415 24.9056 16.6569 24.7357C16.4724 24.5658 16.3584 24.3328 16.3377 24.0828C16.3169 23.8328 16.3909 23.5842 16.5448 23.3861C16.6988 23.1881 16.9216 23.0552 17.169 23.0138C19.2402 22.665 20.9977 20.9075 21.349 18.8325C21.3934 18.5709 21.5399 18.3377 21.7563 18.1842C21.9727 18.0306 22.2412 17.9693 22.5027 18.0138C22.7643 18.0582 22.9975 18.2047 23.1511 18.4211C23.3046 18.6374 23.3659 18.9059 23.3215 19.1675H23.3202ZM27.334 18C27.334 20.9174 26.1751 23.7153 24.1122 25.7782C22.0493 27.8411 19.2514 29 16.334 29C13.4166 29 10.6187 27.8411 8.55581 25.7782C6.49291 23.7153 5.33398 20.9174 5.33398 18C5.33398 14.51 6.70898 10.9413 9.41648 7.39376C9.50219 7.28143 9.61072 7.18854 9.73493 7.1212C9.85915 7.05387 9.99622 7.01362 10.1371 7.00311C10.278 6.9926 10.4195 7.01206 10.5524 7.06022C10.6852 7.10838 10.8063 7.18414 10.9077 7.28251L13.9227 10.2088L16.6727 2.65751C16.7277 2.5069 16.818 2.37171 16.9362 2.26333C17.0543 2.15496 17.1967 2.07657 17.3515 2.03478C17.5063 1.99299 17.6688 1.98903 17.8255 2.02323C17.9821 2.05742 18.1282 2.12877 18.2515 2.23126C20.9852 4.50001 27.334 10.5688 27.334 18ZM25.334 18C25.334 12.2388 20.8602 7.26001 18.0577 4.70876L15.274 12.3425C15.2169 12.4993 15.1214 12.6393 14.9963 12.7497C14.8712 12.8602 14.7205 12.9376 14.5578 12.9749C14.3952 13.0121 14.2258 13.0081 14.0651 12.9632C13.9043 12.9182 13.7574 12.8338 13.6377 12.7175L10.3415 9.52001C8.34523 12.4013 7.33398 15.25 7.33398 18C7.33398 20.387 8.2822 22.6761 9.97002 24.364C11.6579 26.0518 13.947 27 16.334 27C18.7209 27 21.0101 26.0518 22.6979 24.364C24.3858 22.6761 25.334 20.387 25.334 18Z" fill="#FF0000"/>
</g>
</svg>
