<svg width="32" height="32" viewBox="0 0 32 32" fill="none" xmlns="http://www.w3.org/2000/svg">
<path fill-rule="evenodd" clip-rule="evenodd" d="M0.0406329 6.59693C0.0139911 6.72713 0 6.86193 0 7V25C0 26.1046 0.895431 27 2 27H30C31.1046 27 32 26.1046 32 25V7C32 5.89543 31.1046 5 30 5H2C1.0335 5 0.227125 5.68556 0.0406329 6.59693ZM1.5 16H30.5V25C30.5 25.2761 30.2761 25.5 30 25.5H2C1.72386 25.5 1.5 25.2761 1.5 25V16Z" fill="url(#paint0_linear_1219_3089)"/>
<defs>
<linearGradient id="paint0_linear_1219_3089" x1="0.516113" y1="5.42079" x2="27.354" y2="5.42079" gradientUnits="userSpaceOnUse">
<stop stop-color="#D1D5DB"/>
<stop offset="1" stop-color="#D1D5DB" stop-opacity="0"/>
</linearGradient>
</defs>
</svg>
