<svg width="64" height="64" viewBox="0 0 64 64" fill="none" xmlns="http://www.w3.org/2000/svg">
<path d="M36.3021 19.1117C36.6616 19.1086 36.9805 19.093 37.0055 19.0773C37.0305 19.0617 37.9121 19.0555 38.9593 19.0617C40.0066 19.068 41.2383 19.0867 41.6947 19.1023C42.1511 19.118 42.867 19.1555 43.289 19.1836C43.711 19.2117 44.4551 19.2711 44.9459 19.3148C45.4367 19.3585 46.0056 19.4117 46.2119 19.4367C46.4183 19.4617 46.6934 19.4866 46.8215 19.4991C46.9497 19.5085 47.156 19.5366 47.2748 19.5616C47.3936 19.5866 47.5999 19.6147 47.7281 19.6241C47.8563 19.6335 48.0751 19.6616 48.2127 19.6866C48.3502 19.7116 48.5409 19.7397 48.6347 19.7491C48.7285 19.7585 48.9129 19.7866 49.0411 19.8116C49.1693 19.8335 49.3381 19.8647 49.4162 19.8741C49.4944 19.8835 49.6632 19.9116 49.7914 19.9366C49.9195 19.9616 50.1821 20.0116 50.3697 20.049C50.5573 20.0834 50.7542 20.1209 50.8073 20.1303C50.8605 20.1365 51.0262 20.1709 51.1825 20.2053C51.3388 20.2365 51.5857 20.2928 51.7389 20.3271C51.889 20.3615 52.1422 20.4209 52.3016 20.4552C52.4579 20.4927 52.683 20.549 52.8018 20.5802C52.9175 20.6146 53.03 20.6396 53.0519 20.6396C53.0707 20.6396 53.1894 20.6677 53.3082 20.7052C53.427 20.7396 53.6177 20.7958 53.7303 20.827C53.8428 20.8583 54.046 20.9145 54.1836 20.952C54.3211 20.9895 54.5181 21.0489 54.6212 21.0801C54.7244 21.1114 55.0214 21.2082 55.2777 21.2926C55.5372 21.3769 55.8873 21.4988 56.0592 21.5613C56.2312 21.6238 56.45 21.705 56.5438 21.7394C56.6376 21.7738 56.7564 21.8206 56.8095 21.8425C56.8626 21.8644 56.9814 21.9144 57.0752 21.9518C57.169 21.9893 57.3034 22.0456 57.3722 22.0768C57.441 22.1081 57.6035 22.1768 57.7317 22.233C57.8599 22.2893 58.0787 22.3893 58.2163 22.458C58.3538 22.5267 58.607 22.6548 58.779 22.7423L58.7983 22.7522C58.965 22.837 59.1438 22.928 59.201 22.961C59.2604 22.9954 59.4011 23.0735 59.5136 23.1329C59.6261 23.1923 59.7387 23.261 59.7637 23.2797C59.7887 23.3016 59.8731 23.3547 59.9513 23.3953C60.0294 23.4391 60.2639 23.5922 60.4702 23.7359C60.6796 23.8796 60.9985 24.1108 61.1736 24.2452C61.3518 24.3827 61.6925 24.6826 61.9301 24.917C62.1677 25.1513 62.374 25.3481 62.3865 25.3575C62.399 25.3669 62.5084 25.4919 62.6272 25.6387C62.746 25.7856 62.9117 26.0105 62.9961 26.1386C63.0805 26.2667 63.1712 26.4073 63.2024 26.4511C63.2306 26.4948 63.3275 26.6667 63.4181 26.8354C63.5057 27.001 63.5682 27.1384 63.5557 27.1384C63.54 27.1353 63.5463 27.1541 63.5682 27.1759C63.5901 27.1978 63.6495 27.3353 63.7026 27.4821C63.7557 27.629 63.8308 27.8946 63.8745 28.0758C63.9152 28.257 63.9652 28.5882 63.9808 28.81C64.0058 29.0912 64.0058 29.3224 63.984 29.5599C63.9652 29.7505 63.9464 29.9598 63.9371 30.0286C63.9308 30.0973 63.8933 30.2816 63.8558 30.4347C63.8214 30.5878 63.7589 30.8128 63.7182 30.9347C63.6776 31.0565 63.6088 31.244 63.5619 31.3565C63.515 31.4689 63.4088 31.7002 63.3212 31.872C63.2337 32.0438 63.1149 32.2563 63.0586 32.3407C63.0024 32.4282 62.9523 32.5063 62.9523 32.5219C62.9523 32.5344 62.8586 32.6812 62.7429 32.85C62.6272 33.0156 62.4146 33.2999 62.2677 33.4811C62.1208 33.6623 61.6925 34.1185 61.3142 34.4965C60.9329 34.8777 60.4858 35.2995 60.317 35.4339C60.1482 35.5714 59.9513 35.7276 59.8794 35.7838C59.8075 35.8401 59.6699 35.9432 59.5761 36.0182C59.4823 36.0931 59.251 36.2619 59.0603 36.3931C58.8727 36.5243 58.6758 36.6618 58.6227 36.6993C58.5695 36.7337 58.3663 36.8711 58.1694 37.0024C57.9724 37.1336 57.7036 37.2929 57.5754 37.3617C57.4472 37.4273 57.3347 37.496 57.3253 37.5085C57.3159 37.5241 57.1471 37.6304 56.9502 37.746C56.7532 37.8616 56.4844 38.0116 56.3562 38.0803C56.228 38.1522 56.0499 38.2459 55.9654 38.2928C55.881 38.3396 55.5278 38.5208 55.1839 38.6927C54.84 38.8645 54.4024 39.077 54.2148 39.1676C54.0272 39.2551 53.8084 39.3582 53.7303 39.3926C53.6521 39.4301 53.5615 39.4707 53.5271 39.4832C53.4927 39.4957 53.3739 39.5488 53.2613 39.6019C53.1488 39.655 53.0488 39.6988 53.0331 39.6988C53.0206 39.6988 52.9362 39.7331 52.8456 39.7738C52.758 39.8144 52.558 39.8987 52.4017 39.9643C52.2454 40.0268 52.0797 40.0987 52.0265 40.1206C51.9734 40.1456 51.7983 40.2174 51.6358 40.2799C51.4732 40.3424 51.2825 40.4143 51.2137 40.4393C51.145 40.4643 51.0481 40.5018 50.9949 40.5267C50.9418 40.5486 50.873 40.5736 50.8386 40.583C50.8042 40.5924 50.6198 40.658 50.4322 40.7298C50.2446 40.7986 50.0258 40.8829 49.9477 40.9111C49.8695 40.9392 49.7914 40.9642 49.7757 40.9673C49.7601 40.9704 49.6726 40.9985 49.5882 41.0298C49.5006 41.0579 49.3912 41.1016 49.3381 41.1235C49.2849 41.1423 49.1786 41.1829 49.0942 41.211C49.0129 41.2391 48.9254 41.261 48.9004 41.261C48.8754 41.261 48.816 41.2797 48.766 41.3047C48.7191 41.3297 48.4909 41.4078 48.2595 41.4797C48.0282 41.5516 47.7813 41.6297 47.7125 41.6516C47.6437 41.6734 47.4655 41.7297 47.3123 41.7734C47.1623 41.8171 46.9184 41.8921 46.7653 41.9359C46.6152 41.9796 46.4526 42.0296 46.3995 42.0452C46.3464 42.0577 46.1713 42.1077 46.0087 42.1546C45.8462 42.1983 45.6211 42.2608 45.5086 42.2921C45.396 42.3233 45.0865 42.4045 44.8208 42.4764C44.5551 42.5451 44.0705 42.6639 43.7423 42.742C43.4141 42.8201 43.0858 42.9013 43.0077 42.9201C42.9295 42.9419 42.8045 42.9669 42.7264 42.9826L42.7263 42.9826C42.6482 42.9951 42.4668 43.0357 42.3199 43.0701C42.173 43.1075 41.9291 43.1638 41.7728 43.1982C41.6165 43.2294 41.3571 43.2856 41.1945 43.32C41.0319 43.3544 40.7912 43.4012 40.6631 43.4294C40.5349 43.4575 40.3442 43.4919 40.241 43.5075L40.2016 43.5146C40.0942 43.5341 39.9322 43.5635 39.819 43.5856C39.6908 43.6106 39.422 43.6606 39.225 43.6949C39.0281 43.7293 38.703 43.7856 38.506 43.8199C38.3091 43.8543 38.0121 43.9012 37.8496 43.9293C37.687 43.9543 37.4901 43.9824 37.4119 43.9949C37.3337 44.0043 37.1024 44.0386 36.8961 44.073C36.6898 44.1043 36.3646 44.1542 36.1771 44.1824C35.9895 44.2074 35.7613 44.2386 35.6769 44.248C35.5894 44.2542 35.3174 44.2886 35.0673 44.323C34.8172 44.3542 34.4171 44.4042 34.1764 44.4323C33.9356 44.4604 33.6605 44.4886 33.5668 44.4917C33.473 44.4979 33.1416 44.5323 32.8321 44.5667C32.5226 44.601 31.9943 44.6542 31.6598 44.6823C31.3253 44.7104 30.9252 44.7385 30.7689 44.7479C30.6126 44.7541 30.1999 44.7823 29.8467 44.8073C29.4934 44.8323 28.9464 44.8666 28.6275 44.8854C28.3086 44.9041 28.021 44.9166 27.9866 44.9166C27.9522 44.9135 27.0175 44.9229 25.9078 44.9354C24.7292 44.9447 23.385 44.9416 22.6722 44.9229C22.0001 44.9041 21.1217 44.8666 20.7184 44.8385C20.3151 44.8135 19.6743 44.7635 19.296 44.7291C18.9177 44.6948 18.5113 44.6573 18.3894 44.651C18.2675 44.6417 17.9393 44.6073 17.6548 44.5729C17.3703 44.5386 16.9076 44.4792 16.6232 44.4448C16.3387 44.4104 15.9229 44.3542 15.701 44.3198C15.479 44.2855 15.2383 44.2511 15.1695 44.2417C15.1007 44.2324 14.9257 44.2042 14.7788 44.1792C14.6318 44.1542 14.3505 44.1043 14.1535 44.0699C13.9566 44.0355 13.6471 43.9762 13.4658 43.9418C13.2845 43.9105 13.0031 43.8543 12.8406 43.8168C12.678 43.7824 12.4154 43.7262 12.2622 43.6918C12.109 43.6575 11.8527 43.6012 11.6995 43.5668L11.6544 43.5558C11.5059 43.5195 11.3169 43.4733 11.215 43.445C11.1024 43.4137 10.9899 43.3856 10.9649 43.3856C10.9399 43.3856 10.8054 43.3513 10.6679 43.3106C10.5304 43.27 10.3272 43.2107 10.2146 43.1825C10.1021 43.1513 9.90513 43.0951 9.77695 43.0576C9.64878 43.0169 9.43621 42.9545 9.30804 42.9138C9.17986 42.8763 8.88914 42.7857 8.66718 42.7107C8.44523 42.6358 8.16387 42.5358 8.04196 42.492C7.92316 42.4483 7.76686 42.392 7.69808 42.3702C7.62931 42.3483 7.38234 42.2514 7.15101 42.1577C6.91968 42.064 6.5758 41.9203 6.38511 41.839C6.19442 41.7578 5.91306 41.6297 5.75988 41.5516C5.6067 41.4766 5.3785 41.361 5.2597 41.3016L5.25905 41.3013C5.14026 41.2388 4.96255 41.1453 4.86894 41.0954C4.77516 41.0423 4.64698 40.9735 4.58759 40.9392C4.52819 40.9048 4.43753 40.8548 4.38439 40.8267C4.33125 40.8017 4.1218 40.6705 3.91547 40.5392C3.70915 40.4049 3.52471 40.283 3.50907 40.2705C3.49032 40.2549 3.39966 40.1956 3.30588 40.1362C3.21209 40.0768 3.11518 40.005 3.08705 39.9768C3.06204 39.9487 2.92762 39.8456 2.79007 39.7456C2.65252 39.6457 2.3993 39.4269 2.22736 39.2645C2.05543 39.102 1.78345 38.827 1.62402 38.6552C1.46146 38.4802 1.26452 38.249 1.18636 38.1365C1.10821 38.0241 1.03318 37.9272 1.02381 37.9178C1.0113 37.9085 0.917518 37.7616 0.814355 37.5898C0.711193 37.4179 0.579896 37.1805 0.523626 37.0586L0.52357 37.0585C0.467318 36.9367 0.41108 36.8149 0.395455 36.7868C0.379824 36.7555 0.32668 36.6087 0.276662 36.4587C0.226644 36.3056 0.157869 36.065 0.123482 35.9182C0.0890946 35.7713 0.0422027 35.462 0.0234459 35.2308C-0.00781531 34.8965 -0.00781531 34.7215 0.0234459 34.3872C0.0422027 34.156 0.0890945 33.8467 0.120356 33.6998C0.154743 33.553 0.211013 33.3374 0.245401 33.2155C0.282914 33.0937 0.348563 32.9062 0.389203 32.7937C0.432968 32.6812 0.542383 32.4375 0.63304 32.2469C0.726824 32.0563 0.839364 31.8345 0.889382 31.747C0.936274 31.6627 0.995671 31.5689 1.02068 31.5439C1.04256 31.5189 1.08945 31.4471 1.12072 31.3877C1.1551 31.3283 1.25201 31.1815 1.33642 31.0596C1.42082 30.9378 1.51148 30.8191 1.53336 30.7941C1.55525 30.7691 1.68342 30.6066 1.82097 30.4347C1.95852 30.2629 2.35241 29.8411 2.69941 29.4974C3.04641 29.1537 3.39028 28.8319 3.46531 28.7788C3.54034 28.7288 3.63099 28.6569 3.66538 28.6194C3.69977 28.5851 3.84044 28.4632 3.97799 28.3507C4.11554 28.2414 4.30936 28.0883 4.41252 28.0102L4.41259 28.0101C4.51264 27.9351 4.68765 27.8039 4.80329 27.7227C4.91583 27.6415 5.10652 27.5071 5.22532 27.4259C5.34098 27.3447 5.51292 27.2291 5.60358 27.1697C5.69424 27.1103 5.80052 27.0385 5.84116 27.0103C5.8818 26.9822 6.00685 26.9041 6.11939 26.8354C6.23193 26.7666 6.37261 26.6823 6.432 26.651C6.4914 26.6198 6.5633 26.576 6.58831 26.5542C6.61332 26.5323 6.68209 26.4917 6.73836 26.4604C6.79151 26.4292 7.01659 26.298 7.23854 26.1699C7.45737 26.0418 7.76373 25.8699 7.91691 25.7887C8.07009 25.7074 8.54839 25.4669 8.97979 25.2513L9.07048 25.2066C9.47748 25.0061 9.91061 24.7928 10.0677 24.7201C10.2334 24.642 10.3897 24.5764 10.4116 24.5764C10.4334 24.5764 10.4647 24.5639 10.4835 24.5483C10.4991 24.5295 10.6304 24.467 10.7773 24.4045C10.9242 24.3452 11.0868 24.2733 11.1368 24.2483C11.1868 24.2265 11.2806 24.1858 11.34 24.1608C11.3994 24.1358 11.562 24.0702 11.6995 24.014C11.8371 23.9577 11.9934 23.8953 12.0434 23.8734C12.0934 23.8515 12.2341 23.7953 12.356 23.7484C12.4779 23.7047 12.603 23.6547 12.6374 23.6391C12.6717 23.6234 12.8343 23.5609 12.9969 23.4985C13.1594 23.4391 13.3407 23.3672 13.397 23.3422C13.4502 23.3172 13.5189 23.2954 13.5439 23.2954C13.5689 23.2954 13.6158 23.2797 13.644 23.2641C13.6752 23.2454 13.8628 23.1766 14.0597 23.1048C14.2567 23.036 14.6287 22.9111 14.8882 22.8267C15.1445 22.7455 15.4352 22.6486 15.529 22.6142C15.6228 22.5767 15.9823 22.4643 16.3262 22.358C16.6701 22.2549 17.0202 22.1487 17.1077 22.1206C17.1921 22.0956 17.3766 22.0393 17.5141 21.9987C17.6517 21.9612 17.8767 21.8956 18.0143 21.8581C18.1518 21.8206 18.3425 21.7675 18.4363 21.7425L18.452 21.7383C18.5439 21.7138 18.6615 21.6825 18.7177 21.6706C18.7771 21.6581 18.9115 21.6238 19.0147 21.5957C19.1178 21.5644 19.3148 21.5144 19.4523 21.4801C19.5899 21.4457 19.8993 21.3676 20.1401 21.3051C20.3808 21.2426 20.6903 21.1707 20.8278 21.1395C20.9654 21.1082 21.1404 21.0676 21.2186 21.0489C21.2967 21.0301 21.478 20.9895 21.625 20.9551C21.7576 20.9241 21.9768 20.8778 22.1377 20.8438L22.1877 20.8333C22.3502 20.7958 22.6034 20.7458 22.7504 20.7177C22.8973 20.6896 23.1349 20.6396 23.2818 20.6083C23.4287 20.5771 23.5913 20.5427 23.6413 20.5333C23.6913 20.5271 23.8977 20.4896 24.0946 20.4521C24.2916 20.4146 24.5948 20.3584 24.7667 20.324C24.9387 20.2928 25.1356 20.2584 25.2044 20.249C25.2732 20.2396 25.4076 20.2178 25.5014 20.2021C25.5951 20.1834 25.7577 20.1584 25.8609 20.1428C25.964 20.1272 26.1672 20.0928 26.3142 20.0647C26.4611 20.0397 26.658 20.0084 26.7518 19.9991C26.8456 19.9866 27.03 19.9584 27.1582 19.9334C27.2864 19.9084 27.4614 19.8835 27.549 19.8741C27.6334 19.8678 27.9022 19.8335 28.1429 19.7991C28.3836 19.7647 28.8119 19.7085 29.0964 19.6741C29.3809 19.6366 29.8592 19.5835 30.1593 19.5491C30.4594 19.5148 30.8814 19.471 31.0971 19.4523C31.3128 19.4335 31.6067 19.4054 31.7536 19.3898C31.9005 19.3742 32.3851 19.3335 32.8321 19.2992C33.2792 19.2648 33.8075 19.2273 34.0044 19.2179C34.2014 19.2086 34.6515 19.1836 35.0048 19.1586C35.358 19.1367 35.9426 19.1148 36.3021 19.1117Z" fill="#4B5563"/>
<path d="M36.6585 23.0016C37.0962 22.9922 37.4619 22.9735 37.4713 22.9641C37.4807 22.9547 38.4873 22.9516 39.7096 22.961C40.9288 22.9672 42.148 22.9829 42.4137 22.9922C42.653 23.0035 43.0419 23.0249 43.3247 23.0404L43.4141 23.0453C43.6986 23.0641 44.1331 23.0922 44.3832 23.1078C44.6333 23.1266 44.9897 23.1547 45.1803 23.1703C45.3679 23.1891 45.6586 23.2172 45.8212 23.2328C45.9838 23.2516 46.1745 23.2641 46.2432 23.2641C46.312 23.2641 46.4464 23.2766 46.5402 23.2953C46.634 23.3109 46.8591 23.339 47.0404 23.3578C47.2217 23.3765 47.453 23.4047 47.5562 23.4203C47.6594 23.4359 47.8626 23.464 48.0095 23.4828C48.1564 23.5015 48.3627 23.5296 48.469 23.5453C48.5784 23.564 48.7566 23.589 48.8692 23.6077C48.9817 23.6265 49.1662 23.6546 49.2818 23.6702L49.282 23.6703C49.4008 23.689 49.5789 23.7171 49.682 23.7358C49.7851 23.7546 49.9321 23.7796 50.0102 23.7952C50.0884 23.8077 50.229 23.8358 50.3228 23.8546L50.3228 23.8546C50.4014 23.8703 50.5523 23.8991 50.6856 23.9246L50.7605 23.9389C50.9074 23.9671 51.0825 24.0014 51.1512 24.017C51.22 24.0327 51.3451 24.0608 51.4326 24.0764C51.517 24.092 51.6452 24.1202 51.7139 24.1358C51.7827 24.1514 51.9734 24.1951 52.136 24.2326C52.2985 24.2701 52.483 24.3139 52.5424 24.3264C52.6018 24.342 52.7862 24.3857 52.9488 24.4295C53.1113 24.4732 53.3864 24.5451 53.5584 24.5919C53.7303 24.6388 54.046 24.7325 54.2617 24.7982C54.4774 24.8669 54.8432 24.9856 55.0745 25.0637C55.3059 25.1419 55.6216 25.2512 55.7779 25.3106C55.9311 25.3668 56.1843 25.4668 56.3406 25.5293C56.4938 25.5918 56.7845 25.7136 56.9815 25.8011C57.1784 25.8886 57.5035 26.0417 57.7005 26.1386C57.8974 26.2385 58.2507 26.426 58.482 26.5604C58.7133 26.6916 59.0572 26.9072 59.2479 27.0353C59.4355 27.1665 59.7231 27.379 59.8856 27.5102C60.0482 27.6414 60.3014 27.8664 60.4515 28.0132C60.5984 28.1601 60.8172 28.4007 60.936 28.5506C61.0579 28.6975 61.2236 28.9381 61.308 29.0818C61.3956 29.2255 61.5112 29.4474 61.5644 29.5755C61.6206 29.7036 61.6957 29.9223 61.7301 30.0597C61.7644 30.1972 61.8082 30.3878 61.827 30.4816C61.852 30.5878 61.8582 30.8065 61.8488 31.0596C61.8395 31.2814 61.8176 31.547 61.7988 31.6439C61.7801 31.7438 61.7269 31.9344 61.6832 32.0657C61.6394 32.2 61.5331 32.4562 61.4456 32.6374C61.3612 32.8186 61.2174 33.078 61.1267 33.2155C61.0361 33.3529 60.8485 33.606 60.7109 33.7779C60.5734 33.9497 60.2858 34.259 60.0732 34.4652C59.8606 34.6746 59.4949 34.9933 59.2635 35.1807C59.0322 35.3651 58.582 35.69 58.2632 35.9025C57.9443 36.1149 57.4441 36.4243 57.1534 36.5899C56.8596 36.7586 56.3625 37.0242 56.0436 37.1804C55.7248 37.3397 55.2684 37.5584 55.0276 37.6678C54.7869 37.7772 54.3868 37.949 54.1367 38.0521C53.8866 38.1521 53.3677 38.3583 52.98 38.502C52.5924 38.6489 51.989 38.8645 51.6358 38.9801C51.2825 39.0988 50.8105 39.2488 50.5885 39.3206C50.3635 39.3894 49.9852 39.5019 49.7445 39.5706C49.5038 39.6393 49.2224 39.7174 49.1193 39.7456C49.0161 39.7737 48.6285 39.8737 48.2596 39.9674C47.8907 40.0611 47.5374 40.1517 47.4781 40.1674C47.4187 40.183 47.1498 40.2455 46.8841 40.308C46.6184 40.3673 46.1963 40.4579 45.9462 40.5111C45.6962 40.5611 45.3867 40.6267 45.2585 40.6517C45.1303 40.6767 44.8771 40.7267 44.6958 40.761C44.5145 40.7954 44.2894 40.8391 44.1956 40.8579C44.1018 40.8766 43.9518 40.9016 43.8674 40.9172C43.7798 40.9329 43.6548 40.9547 43.586 40.9672C43.5172 40.9766 43.3985 40.9985 43.3203 41.011C43.2421 41.0235 43.0327 41.0578 42.8514 41.086C42.6701 41.1141 42.4387 41.1485 42.3356 41.1672C42.2324 41.1828 42.0417 41.2109 41.9135 41.2297C41.7854 41.2484 41.6009 41.2766 41.5071 41.2922C41.4134 41.3078 41.1039 41.3515 40.8194 41.3859C40.5477 41.4187 40.2333 41.4601 40.1021 41.4774L40.0848 41.4796C39.9628 41.4953 39.6627 41.5328 39.4126 41.5609C39.1626 41.5859 38.8312 41.6234 38.678 41.639C38.5217 41.6546 38.2341 41.6827 38.0372 41.6984C37.8402 41.7171 37.5026 41.7452 37.2869 41.7608C37.0712 41.7796 36.7054 41.8077 36.4741 41.8233C36.2428 41.839 35.8207 41.8702 35.5363 41.8858C35.2518 41.9046 34.7172 41.9327 34.3483 41.9514C33.9794 41.9671 32.754 41.9889 31.6286 41.9983C30.0155 42.0108 29.334 42.0046 28.4087 41.9639C27.7647 41.9358 27.0457 41.9014 26.8144 41.8858C26.583 41.8702 26.2016 41.8421 25.9703 41.8233C25.739 41.8046 25.4014 41.7796 25.22 41.764C25.0387 41.7483 24.7449 41.7202 24.5636 41.7015L24.5141 41.6964C24.3351 41.6779 24.0938 41.653 23.954 41.6359C23.7977 41.6202 23.5601 41.589 23.4225 41.5734C23.285 41.5546 23.0724 41.5265 22.9536 41.5109C22.8317 41.4953 22.6222 41.4671 22.4847 41.4484C22.3471 41.4328 22.1502 41.4047 22.047 41.389C21.9439 41.3734 21.7688 41.3453 21.6563 41.3265C21.5437 41.3109 21.2842 41.2672 21.0779 41.2297C20.8716 41.1953 20.6246 41.1516 20.5308 41.1328C20.4371 41.1172 20.2808 41.0891 20.187 41.0735C20.0932 41.0547 19.9525 41.0297 19.8744 41.011C19.7962 40.9954 19.6618 40.9641 19.5774 40.9485C19.4899 40.9329 19.3648 40.9047 19.296 40.8891C19.2273 40.8735 19.1085 40.8454 19.0303 40.8298C18.9522 40.811 18.8115 40.7829 18.7177 40.761C18.6239 40.7391 18.4957 40.7142 18.4363 40.6985C18.3769 40.686 18.1581 40.6298 17.9518 40.5767C17.7455 40.5204 17.4422 40.4392 17.2797 40.3955C17.1171 40.3517 16.8201 40.2674 16.6232 40.208C16.4262 40.1517 15.9886 40.0111 15.6541 39.8987C15.3196 39.7862 14.8038 39.5956 14.5131 39.48C14.2192 39.3644 13.8191 39.1957 13.6221 39.1082C13.4252 39.0176 13.0719 38.8457 12.8406 38.727C12.6092 38.6051 12.2435 38.4021 12.0278 38.2739C11.8121 38.1458 11.4901 37.9334 11.3088 37.8053C11.1275 37.6772 10.8336 37.4428 10.6523 37.2835C10.471 37.1241 10.199 36.8617 10.0458 36.6992C9.89577 36.5368 9.69257 36.2837 9.59254 36.1368C9.4925 35.99 9.34557 35.7463 9.27055 35.59C9.19239 35.4338 9.09861 35.2214 9.0611 35.112C9.02671 35.0058 8.97044 34.8152 8.9423 34.6933C8.90479 34.5308 8.88916 34.3278 8.88916 33.9809C8.88916 33.6872 8.90792 33.4279 8.93293 33.3248C8.95481 33.2311 9.01421 33.0249 9.06422 32.8718C9.11424 32.7187 9.2174 32.4625 9.29243 32.3094C9.36746 32.1563 9.51126 31.9001 9.6113 31.747C9.71446 31.5939 9.88639 31.3533 9.99581 31.2158C10.1052 31.0783 10.3834 30.7784 10.6179 30.5472C10.8524 30.316 11.2212 29.9848 11.437 29.8129C11.6527 29.6379 12.0059 29.3755 12.2185 29.2286C12.4311 29.0818 12.7874 28.8475 13.0125 28.71C13.2345 28.5725 13.6721 28.3194 13.9816 28.1507C14.2911 27.982 14.8319 27.707 15.1852 27.5414C15.5384 27.3758 16.0574 27.1415 16.3418 27.0197C16.6263 26.9009 17.1046 26.7072 17.4047 26.5916C17.7048 26.476 18.0487 26.3479 18.1706 26.3042C18.2894 26.2604 18.6489 26.1386 18.9678 26.0292C19.2867 25.923 19.7274 25.7761 19.9525 25.7074C20.1745 25.6355 20.584 25.5137 20.8591 25.4356C21.1342 25.3574 21.4562 25.2637 21.5781 25.2293C21.6969 25.1981 22.0908 25.095 22.4534 25.0013C22.8129 24.9106 23.2912 24.7919 23.5163 24.7388C23.7383 24.6888 24.0571 24.6138 24.2197 24.5795C24.3822 24.542 24.5761 24.4982 24.648 24.4826C24.723 24.4638 24.8418 24.4389 24.9137 24.4232C24.9887 24.4076 25.1169 24.3795 25.2044 24.3639C25.2888 24.3451 25.5233 24.3014 25.7202 24.2639C25.9172 24.2264 26.2204 24.1701 26.3923 24.1358C26.5643 24.1045 26.7737 24.0608 26.8613 24.0452C26.9457 24.0295 27.152 23.9921 27.3145 23.9639C27.4771 23.9389 27.7022 23.9014 27.8147 23.8858C27.9273 23.8671 28.0961 23.8421 28.1899 23.8265C28.2836 23.814 28.515 23.7796 28.7057 23.7515C28.8932 23.7233 29.1402 23.689 29.2527 23.6702C29.3653 23.6546 29.5747 23.6265 29.7217 23.6077C29.8686 23.589 30.0718 23.5609 30.1749 23.5453C30.2781 23.5296 30.5032 23.5015 30.6751 23.4828C30.8471 23.464 31.0784 23.4359 31.1909 23.4203C31.3035 23.4047 31.4848 23.3828 31.5973 23.3734C31.7099 23.3609 31.935 23.3422 32.0975 23.3234C32.2601 23.3078 32.4726 23.289 32.5664 23.2797C32.6602 23.2703 32.8728 23.2516 33.0354 23.2359C33.1979 23.2172 33.5637 23.1891 33.8481 23.1703C34.1326 23.1516 34.5171 23.1235 34.7078 23.1047C34.8954 23.0891 35.1861 23.0766 35.3487 23.0766C35.5112 23.0766 35.6957 23.0641 35.7551 23.0485C35.8145 23.0328 36.224 23.011 36.6585 23.0016Z" fill="white"/>
<path d="M54.8086 26.0136C54.9962 25.9949 55.412 25.9512 55.7308 25.923C56.0497 25.8918 56.3561 25.8637 56.4092 25.8605C56.4967 25.8574 56.5124 25.8699 56.5124 25.9293C56.5124 25.9668 56.4717 26.3136 56.4186 26.701C56.3686 27.0885 56.206 28.3101 56.0591 29.4193C55.9122 30.5285 55.7715 31.5814 55.7465 31.7626C55.7246 31.9439 55.6371 32.5906 55.5558 33.1999C55.4776 33.8092 55.4089 34.3122 55.4057 34.3153C55.4057 34.3216 55.015 34.3528 54.5429 34.3872C54.0709 34.4216 53.627 34.4559 53.5582 34.4653C53.4894 34.4747 53.3925 34.4716 53.3456 34.4591C53.2831 34.4403 53.2237 34.3841 53.158 34.2716C53.1018 34.1841 52.9892 33.9998 52.9048 33.8654C52.8204 33.7311 52.6766 33.503 52.5828 33.3561L52.5349 33.2811C52.445 33.1404 52.3324 32.964 52.264 32.8562C52.1827 32.7281 51.9138 32.3032 51.6638 31.9126C51.4168 31.5221 51.173 31.1315 51.1198 31.044C51.0667 30.9565 50.9229 30.7222 50.7947 30.5191C50.6665 30.3191 50.479 30.0223 50.3727 29.863C50.1882 29.5849 50.182 29.5755 50.1601 29.6599C50.1476 29.7068 50.1132 29.9317 50.0882 30.1536C50.0601 30.3754 50.0194 30.7003 49.9944 30.8722C49.9725 31.044 49.86 31.9595 49.7443 32.9031C49.6287 33.8498 49.5224 34.6528 49.5067 34.6934C49.4817 34.7559 49.4536 34.7653 49.1879 34.7778C49.0316 34.7902 48.7377 34.809 48.5408 34.8246C48.3438 34.8402 48.0187 34.8621 47.4622 34.8965L47.4873 34.759C47.4998 34.684 47.5529 34.2966 47.606 33.9029C47.6561 33.5092 47.7123 33.0874 47.728 32.9656C47.7436 32.8437 47.8155 32.3188 47.8843 31.7939C47.953 31.269 48.0312 30.6785 48.0593 30.4816C48.0843 30.2848 48.1969 29.4256 48.3094 28.5757C48.422 27.7258 48.522 26.9416 48.5345 26.8354C48.547 26.7291 48.572 26.6292 48.5877 26.6104C48.6033 26.5948 49.0128 26.5448 49.4942 26.5011C49.9757 26.4573 50.4258 26.4136 50.6196 26.3855L50.8103 26.676C50.9135 26.8354 51.1542 27.2041 51.3386 27.4978C51.5262 27.7915 51.7513 28.1414 51.8388 28.2789C51.9295 28.4164 52.1358 28.7413 52.2984 28.9975C52.4609 29.2568 52.8579 29.8817 53.1831 30.3879C53.505 30.8941 53.7833 31.3284 53.8052 31.3533C53.8333 31.3877 53.8427 31.3815 53.8646 31.3221C53.8771 31.2815 53.9146 30.994 53.949 30.6847C53.9833 30.3754 54.0584 29.6443 54.1209 29.06C54.1834 28.4757 54.2678 27.6602 54.3085 27.2478C54.3522 26.8354 54.3929 26.4136 54.4054 26.3105C54.4147 26.2074 54.4335 26.1074 54.4429 26.0855C54.4554 26.0636 54.6117 26.0324 54.8086 26.0136Z" fill="#1F2937"/>
<path d="M37.0366 26.6073C37.6806 26.5386 38.2245 26.4761 38.2402 26.4667C38.2558 26.4604 38.3121 26.4604 38.3652 26.4698C38.4184 26.4792 38.4621 26.4886 38.4653 26.4917C38.4715 26.4948 38.459 26.7666 38.4434 27.0916C38.4277 27.4165 38.4121 27.7633 38.4121 27.8571C38.4121 27.9508 38.3965 28.0508 38.3746 28.0789C38.3402 28.1227 38.0776 28.157 36.9272 28.2758C36.1519 28.357 35.3829 28.4382 35.211 28.4601C35.0422 28.482 34.8984 28.5101 34.8921 28.5288C34.889 28.5476 34.8608 28.7788 34.8358 29.0444C34.8077 29.31 34.7452 29.938 34.692 30.4348C34.6389 30.9315 34.5639 31.6658 34.5201 32.0595C34.4763 32.4532 34.4138 33.0468 34.3794 33.3717C34.345 33.6967 34.2606 34.4841 34.1918 35.1214C34.1262 35.7588 34.0605 36.39 34.0512 36.5274C34.0387 36.6649 34.0199 36.7962 34.0105 36.818C33.9949 36.8461 33.6792 36.8899 32.957 36.9649C32.3881 37.0211 31.8316 37.0805 31.5034 37.1211V36.9899C31.5034 36.9149 31.5159 36.7618 31.5315 36.6462C31.5503 36.5274 31.5784 36.2994 31.5972 36.1369C31.6159 35.9744 31.6566 35.6089 31.6909 35.3245C31.7253 35.0402 31.8035 34.3809 31.8629 33.856C31.9254 33.3311 32.0036 32.6656 32.0379 32.3719C32.0723 32.0782 32.1286 31.6096 32.1599 31.3252C32.1943 31.0409 32.2505 30.5722 32.2849 30.2785C32.3193 29.9848 32.3662 29.5724 32.3943 29.3568C32.4193 29.1412 32.4412 28.9163 32.4412 28.7475L32.1849 28.7725C32.0411 28.785 31.8129 28.81 31.6753 28.8257C31.5378 28.8444 30.9344 28.9069 30.3311 28.9663C29.7277 29.0287 29.2338 29.0756 29.2276 29.0694C29.2244 29.0631 29.2901 28.7007 29.3807 28.2633C29.4683 27.8258 29.5433 27.4571 29.5527 27.4446C29.5589 27.429 29.6121 27.4134 29.6652 27.404C29.7215 27.3978 30.2404 27.3415 30.8156 27.2791C31.3908 27.2197 31.9879 27.1541 32.1442 27.1385C32.3005 27.1197 32.6788 27.0791 32.9883 27.0447C33.2978 27.0103 33.8261 26.9541 34.1606 26.9197C34.4951 26.8822 35.0171 26.826 35.3173 26.7948C35.6174 26.7604 36.3926 26.676 37.0366 26.6073Z" fill="#1F2937"/>
<path d="M45.2271 26.9197C45.4928 26.8822 45.8867 26.8291 46.0993 26.7979C46.315 26.7698 46.4994 26.751 46.515 26.7635C46.5275 26.7729 46.5088 27.1103 46.4713 27.5134C46.4338 27.9477 46.3931 28.257 46.3712 28.2695C46.3525 28.282 46.2306 28.307 46.1024 28.3257C45.9742 28.3445 45.621 28.3914 45.3209 28.4351C45.0207 28.4757 44.4518 28.5538 44.0548 28.6069C43.6578 28.6601 42.8919 28.7632 42.351 28.8382C41.8102 28.9131 41.3475 28.9881 41.3288 29.0038C41.3038 29.0194 41.26 29.3006 41.21 29.7724C41.1662 30.1785 41.1318 30.5597 41.1318 30.716L41.3569 30.691C41.482 30.6785 41.8102 30.641 42.0853 30.6066C42.3604 30.5722 42.945 30.5035 43.3827 30.4504C43.8203 30.4004 44.3549 30.3348 44.5706 30.3098C44.7863 30.2817 45.1177 30.2442 45.3052 30.2192C45.4928 30.1973 45.6679 30.1848 45.6897 30.1973C45.7116 30.2067 45.7335 30.2285 45.7398 30.2473C45.746 30.266 45.7272 30.5535 45.6929 30.8878C45.6616 31.2221 45.6335 31.5252 45.6335 31.5596C45.6335 31.6158 45.5991 31.6283 45.3459 31.6627C45.1864 31.6845 44.4768 31.772 43.7734 31.8564C43.07 31.9407 42.3854 32.0251 42.2572 32.0439C42.1351 32.0617 41.8229 32.0994 41.5477 32.1327L41.507 32.1376C41.1944 32.1782 40.9818 32.2157 40.9693 32.2407C40.9568 32.2594 40.9443 32.2907 40.9443 32.3094C40.9443 32.3282 40.9224 32.5531 40.8974 32.8093L40.8966 32.8177C40.8715 33.0777 40.8314 33.4932 40.8036 33.7467C40.7786 34.006 40.7661 34.2247 40.7786 34.2372C40.7942 34.2497 41.1193 34.2278 41.507 34.1841C41.8946 34.1435 42.5542 34.0716 42.9763 34.0279C43.3983 33.9841 43.9235 33.9279 44.1486 33.9029L44.1489 33.9029C44.3741 33.8779 44.8521 33.8248 45.2177 33.7873C45.6595 33.7394 45.8908 33.7259 45.9117 33.7467C45.9336 33.7654 45.9336 33.8779 45.9179 34.0591C45.9023 34.2122 45.871 34.5622 45.846 34.834C45.8242 35.1089 45.7898 35.3402 45.7741 35.3558C45.7585 35.3683 45.2083 35.4433 44.555 35.5245C43.9016 35.6026 42.6636 35.7526 41.804 35.8557C40.9443 35.9619 39.9439 36.0807 39.5844 36.1244C39.2249 36.1681 38.8466 36.2119 38.7466 36.2244C38.6466 36.2369 38.5528 36.24 38.534 36.2306C38.5184 36.2213 38.5122 36.1588 38.5215 36.09C38.5309 36.0213 38.6309 35.2058 38.7404 34.2778C38.8529 33.3499 38.9873 32.2532 39.0373 31.8408C39.0874 31.4283 39.1874 30.6191 39.2562 30.0442C39.3245 29.4976 39.4099 28.7956 39.453 28.4405L39.4594 28.3882C39.5031 28.0539 39.5375 27.7665 39.5375 27.7477C39.5375 27.729 39.6376 27.6977 39.7626 27.679C39.8876 27.6571 40.1096 27.6259 40.2565 27.6071C40.4035 27.5884 40.6567 27.554 40.8192 27.529C40.9818 27.504 41.335 27.454 41.6008 27.4197C41.8665 27.3853 42.176 27.3415 42.2885 27.3259C42.4011 27.3103 42.8074 27.2541 43.1951 27.2009C43.5827 27.1478 44.0892 27.0791 44.3205 27.0447C44.5518 27.0135 44.9613 26.9572 45.2271 26.9197Z" fill="#1F2937"/>
<path d="M16.1447 29.1162C16.6043 29.0787 17.0325 29.0444 17.0919 29.0381C17.1513 29.0319 17.2357 29.035 17.2764 29.0444C17.3452 29.06 17.3483 29.0662 17.3295 29.2475C17.317 29.3506 17.2795 29.6255 17.2483 29.8567C17.2139 30.0879 17.1388 30.6503 17.0794 31.1065C17.0169 31.5627 16.7668 33.453 16.5167 35.3089C16.2698 37.1648 16.0572 38.7052 16.0478 38.7302C16.0322 38.7646 15.9447 38.7833 15.6914 38.8021C15.507 38.8146 15.21 38.8395 15.0287 38.8552C14.8474 38.8708 14.5348 38.8958 14.3316 38.9083C14.0909 38.9239 13.9658 38.9239 13.9658 38.902C13.9658 38.8864 13.9877 38.7364 14.0127 38.574C14.0408 38.4115 14.0815 38.1084 14.1065 37.9022C14.1315 37.696 14.1721 37.3804 14.1972 37.1992C14.2222 37.018 14.2722 36.6524 14.3066 36.3868C14.3441 36.1213 14.4004 35.6932 14.4347 35.4339C14.4691 35.1777 14.5191 34.8121 14.5442 34.6215C14.5692 34.4309 14.6661 33.6936 14.763 32.9812C14.8568 32.2688 14.9631 31.4877 14.9943 31.2471C15.0287 31.0065 15.1037 30.4598 15.16 30.0317C15.2163 29.6068 15.2725 29.2412 15.285 29.2193C15.3007 29.1975 15.6258 29.16 16.1447 29.1162Z" fill="#1F2937"/>
<path d="M26.314 29.5912C26.6141 29.5599 27.0455 29.5193 27.2675 29.4974C27.4894 29.4755 27.7051 29.4568 27.7427 29.4537C27.7864 29.4537 27.8146 29.4693 27.8146 29.4974C27.8146 29.5224 27.752 30.0255 27.6739 30.6128C27.5957 31.2034 27.5113 31.8376 27.4863 32.0282C27.4613 32.2188 27.4113 32.5844 27.3769 32.8406C27.3425 33.0999 27.2769 33.578 27.2362 33.9029C27.1925 34.2278 27.1362 34.659 27.108 34.8559C27.083 35.0527 27.0111 35.587 26.9517 36.0432C26.8923 36.4993 26.8142 37.0899 26.7798 37.3554C26.7454 37.621 26.711 37.8585 26.7048 37.8803C26.6954 37.8991 26.6298 37.9241 26.5547 37.9335C26.4828 37.9428 26.017 37.9772 25.5169 38.0116C24.6478 38.0741 24.6071 38.0741 24.5603 38.0209C24.5321 37.9897 24.3508 37.7116 24.157 37.4023C23.9632 37.093 23.76 36.7712 23.7037 36.6837C23.6474 36.5993 23.4942 36.3525 23.3598 36.1369C23.2254 35.9213 23.0722 35.6776 23.016 35.5901C22.9597 35.5057 22.7971 35.2433 22.6502 35.0121C22.5033 34.7809 22.2094 34.3153 21.9968 33.981C21.7874 33.6467 21.5811 33.328 21.4779 33.1843L21.4435 33.3561C21.4248 33.4499 21.2747 34.6028 21.109 35.9182C20.9465 37.2336 20.812 38.3146 20.812 38.324C20.812 38.3334 20.7026 38.3521 20.5713 38.3646C20.4369 38.3771 20.0461 38.4084 19.7023 38.4334C19.3584 38.4584 19.0051 38.4802 18.7644 38.4802L18.7894 38.3334C18.8019 38.249 18.8488 37.9178 18.8895 37.5898C18.9332 37.2617 19.0239 36.5743 19.0927 36.0588C19.1583 35.5432 19.2302 35.0152 19.249 34.8871C19.2646 34.759 19.3021 34.4903 19.3271 34.2935C19.3521 34.0966 19.4147 33.6092 19.4678 33.2155C19.5209 32.8218 19.6304 31.9782 19.7179 31.3408C19.8023 30.7035 19.8773 30.1817 19.8804 30.1817C19.8867 30.1785 20.3056 30.1411 20.812 30.0942C21.3185 30.0504 21.7843 30.013 21.8437 30.013C21.9468 30.0161 21.9624 30.0317 22.1094 30.266C22.1938 30.4035 22.3313 30.616 22.4095 30.741C22.4876 30.8659 22.6439 31.1065 22.7502 31.2784C22.8596 31.4502 23.0347 31.7252 23.141 31.8876C23.2473 32.0501 23.438 32.35 23.5661 32.5531C23.6912 32.7562 23.8475 32.9968 23.9069 33.0937C23.9663 33.1874 24.2539 33.6373 24.5478 34.0966C24.8416 34.5528 25.0886 34.9433 25.1011 34.9621C25.1198 34.9871 25.1355 34.9808 25.1542 34.9496C25.1699 34.9246 25.1917 34.8184 25.2011 34.7153C25.2136 34.6122 25.2574 34.1841 25.3011 33.7623C25.3418 33.3405 25.4262 32.5313 25.4887 31.9657C25.5481 31.4002 25.6263 30.6535 25.6607 30.3098C25.695 29.9661 25.7357 29.6755 25.7451 29.663C25.7576 29.6505 26.0139 29.6193 26.314 29.5912Z" fill="#1F2937"/>
</svg>
