<svg width="32" height="32" viewBox="0 0 32 32" fill="none" xmlns="http://www.w3.org/2000/svg">
<path d="M22.5002 29C22.5002 29.3978 22.3421 29.7794 22.0608 30.0607C21.7795 30.342 21.398 30.5 21.0002 30.5H11.0002C10.6023 30.5 10.2208 30.342 9.93951 30.0607C9.6582 29.7794 9.50017 29.3978 9.50017 29C9.50017 28.6022 9.6582 28.2207 9.93951 27.9393C10.2208 27.658 10.6023 27.5 11.0002 27.5H21.0002C21.398 27.5 21.7795 27.658 22.0608 27.9393C22.3421 28.2207 22.5002 28.6022 22.5002 29ZM27.5002 13C27.4952 14.7894 27.0749 16.5532 26.2723 18.1525C25.4698 19.7517 24.3068 21.1429 22.8752 22.2163C22.7564 22.3091 22.6607 22.4281 22.5957 22.5641C22.5306 22.7001 22.4979 22.8493 22.5002 23C22.5002 23.3283 22.4355 23.6534 22.3099 23.9567C22.1842 24.26 22.0001 24.5356 21.7679 24.7678C21.5358 24.9999 21.2602 25.1841 20.9569 25.3097C20.6536 25.4353 20.3285 25.5 20.0002 25.5H12.0002C11.6719 25.5 11.3468 25.4353 11.0435 25.3097C10.7401 25.1841 10.4645 24.9999 10.2324 24.7678C10.0003 24.5356 9.81611 24.26 9.69047 23.9567C9.56483 23.6534 9.50017 23.3283 9.50017 23V22.9713C9.49791 22.8193 9.45996 22.67 9.3894 22.5353C9.31883 22.4007 9.21762 22.2846 9.09392 22.1963C7.67235 21.1363 6.51713 19.7599 5.71978 18.1761C4.92244 16.5922 4.50487 14.8445 4.50017 13.0713C4.46642 6.83626 9.50017 1.65001 15.7239 1.50001C17.2572 1.46316 18.7824 1.7334 20.2097 2.29481C21.6369 2.85622 22.9375 3.69747 24.0348 4.76903C25.1321 5.8406 26.004 7.12083 26.5991 8.53439C27.1943 9.94795 27.5006 11.4663 27.5002 13ZM24.5002 13C24.5005 11.8662 24.274 10.7438 23.834 9.69884C23.394 8.6539 22.7494 7.70754 21.9381 6.91549C21.1268 6.12343 20.1653 5.50169 19.1101 5.08686C18.0549 4.67203 16.9274 4.4725 15.7939 4.50001C11.1952 4.61126 7.47517 8.44501 7.50017 13.0488C7.50298 14.3605 7.81151 15.6535 8.40126 16.8252C8.99102 17.9969 9.84577 19.0151 10.8977 19.7988C11.3272 20.121 11.6878 20.5261 11.9581 20.99C12.2284 21.454 12.4029 21.9674 12.4714 22.5H14.5002V18.625L10.9389 15.0613C10.7994 14.9217 10.6887 14.7561 10.6132 14.5738C10.5377 14.3915 10.4988 14.1961 10.4988 13.9988C10.4988 13.6002 10.6571 13.218 10.9389 12.9363C11.2207 12.6545 11.6029 12.4962 12.0014 12.4962C12.3999 12.4962 12.7821 12.6545 13.0639 12.9363L16.0002 15.875L18.9389 12.9363C19.2207 12.6545 19.6029 12.4962 20.0014 12.4962C20.3999 12.4962 20.7821 12.6545 21.0639 12.9363C21.3457 13.218 21.504 13.6002 21.504 13.9988C21.504 14.3973 21.3457 14.7795 21.0639 15.0613L17.5002 18.625V22.5H19.5314C19.5973 21.9713 19.7686 21.4612 20.035 20.9998C20.3015 20.5384 20.6577 20.1351 21.0827 19.8138C22.1474 19.0262 23.0117 17.9989 23.6054 16.8152C24.1992 15.6314 24.5057 14.3243 24.5002 13Z" fill="url(#paint0_linear_1219_2975)"/>
<defs>
<linearGradient id="paint0_linear_1219_2975" x1="4.87096" y1="2.05143" x2="24.1608" y2="2.05143" gradientUnits="userSpaceOnUse">
<stop stop-color="#D1D5DB"/>
<stop offset="1" stop-color="#D1D5DB" stop-opacity="0"/>
</linearGradient>
</defs>
</svg>
