<svg width="32" height="32" viewBox="0 0 32 32" fill="none" xmlns="http://www.w3.org/2000/svg">
<path d="M14.5 9.00001C14.5 9.39783 14.342 9.77936 14.0607 10.0607C13.7794 10.342 13.3978 10.5 13 10.5H5C4.60218 10.5 4.22064 10.342 3.93934 10.0607C3.65804 9.77936 3.5 9.39783 3.5 9.00001C3.5 8.60218 3.65804 8.22065 3.93934 7.93935C4.22064 7.65804 4.60218 7.50001 5 7.50001H13C13.3978 7.50001 13.7794 7.65804 14.0607 7.93935C14.342 8.22065 14.5 8.60218 14.5 9.00001ZM13 21.5H10.5V19C10.5 18.6022 10.342 18.2207 10.0607 17.9393C9.77936 17.658 9.39782 17.5 9 17.5C8.60218 17.5 8.22064 17.658 7.93934 17.9393C7.65804 18.2207 7.5 18.6022 7.5 19V21.5H5C4.60218 21.5 4.22064 21.658 3.93934 21.9393C3.65804 22.2207 3.5 22.6022 3.5 23C3.5 23.3978 3.65804 23.7794 3.93934 24.0607C4.22064 24.342 4.60218 24.5 5 24.5H7.5V27C7.5 27.3978 7.65804 27.7794 7.93934 28.0607C8.22064 28.342 8.60218 28.5 9 28.5C9.39782 28.5 9.77936 28.342 10.0607 28.0607C10.342 27.7794 10.5 27.3978 10.5 27V24.5H13C13.3978 24.5 13.7794 24.342 14.0607 24.0607C14.342 23.7794 14.5 23.3978 14.5 23C14.5 22.6022 14.342 22.2207 14.0607 21.9393C13.7794 21.658 13.3978 21.5 13 21.5ZM19 22H27C27.3978 22 27.7794 21.842 28.0607 21.5607C28.342 21.2794 28.5 20.8978 28.5 20.5C28.5 20.1022 28.342 19.7207 28.0607 19.4393C27.7794 19.158 27.3978 19 27 19H19C18.6022 19 18.2206 19.158 17.9393 19.4393C17.658 19.7207 17.5 20.1022 17.5 20.5C17.5 20.8978 17.658 21.2794 17.9393 21.5607C18.2206 21.842 18.6022 22 19 22ZM27 24H19C18.6022 24 18.2206 24.158 17.9393 24.4393C17.658 24.7207 17.5 25.1022 17.5 25.5C17.5 25.8978 17.658 26.2794 17.9393 26.5607C18.2206 26.842 18.6022 27 19 27H27C27.3978 27 27.7794 26.842 28.0607 26.5607C28.342 26.2794 28.5 25.8978 28.5 25.5C28.5 25.1022 28.342 24.7207 28.0607 24.4393C27.7794 24.158 27.3978 24 27 24ZM18.9387 13.0613C19.0781 13.2011 19.2437 13.3121 19.426 13.3878C19.6083 13.4635 19.8038 13.5024 20.0012 13.5024C20.1987 13.5024 20.3941 13.4635 20.5765 13.3878C20.7588 13.3121 20.9244 13.2011 21.0637 13.0613L23 11.125L24.9387 13.065C25.2205 13.3468 25.6027 13.5051 26.0012 13.5051C26.3998 13.5051 26.782 13.3468 27.0637 13.065C27.3455 12.7832 27.5039 12.401 27.5039 12.0025C27.5039 11.604 27.3455 11.2218 27.0637 10.94L25.125 9.00001L27.065 7.06126C27.3468 6.77946 27.5051 6.39727 27.5051 5.99876C27.5051 5.60024 27.3468 5.21805 27.065 4.93626C26.7832 4.65446 26.401 4.49615 26.0025 4.49615C25.604 4.49615 25.2218 4.65446 24.94 4.93626L23 6.87501L21.0613 4.93876C20.7795 4.65696 20.3973 4.49865 19.9988 4.49865C19.6002 4.49865 19.218 4.65696 18.9363 4.93876C18.6545 5.22055 18.4961 5.60274 18.4961 6.00126C18.4961 6.39977 18.6545 6.78196 18.9363 7.06376L20.875 9.00001L18.9387 10.9388C18.7993 11.0781 18.6886 11.2435 18.6132 11.4256C18.5377 11.6077 18.4988 11.8029 18.4988 12C18.4988 12.1971 18.5377 12.3923 18.6132 12.5744C18.6886 12.7565 18.7993 12.9219 18.9387 13.0613Z" fill="url(#paint0_linear_1219_2992)"/>
<defs>
<linearGradient id="paint0_linear_1219_2992" x1="3.90321" y1="4.95528" x2="24.8703" y2="4.95528" gradientUnits="userSpaceOnUse">
<stop stop-color="#D1D5DB"/>
<stop offset="1" stop-color="#D1D5DB" stop-opacity="0"/>
</linearGradient>
</defs>
</svg>
