<svg width="64" height="64" viewBox="0 0 64 64" fill="none" xmlns="http://www.w3.org/2000/svg">
<path d="M32 6C26.8577 6 21.8309 7.52487 17.5552 10.3818C13.2795 13.2387 9.94702 17.2994 7.97914 22.0502C6.01127 26.8011 5.49638 32.0288 6.49959 37.0723C7.50281 42.1159 9.97907 46.7486 13.6152 50.3848C17.2514 54.0209 21.8842 56.4972 26.9277 57.5004C31.9712 58.5036 37.1989 57.9887 41.9498 56.0209C46.7007 54.053 50.7613 50.7205 53.6182 46.4448C56.4751 42.1691 58 37.1423 58 32C57.9927 25.1066 55.2511 18.4976 50.3767 13.6233C45.5024 8.74889 38.8934 6.00728 32 6ZM25.4075 42H38.5925C37.25 46.585 35 50.7175 32 53.9725C29 50.7175 26.75 46.585 25.4075 42ZM24.5 38C23.8367 34.0275 23.8367 29.9725 24.5 26H39.5C40.1633 29.9725 40.1633 34.0275 39.5 38H24.5ZM10 32C9.99827 29.9711 10.2785 27.9518 10.8325 26H20.4475C19.8508 29.9777 19.8508 34.0223 20.4475 38H10.8325C10.2785 36.0482 9.99827 34.0289 10 32ZM38.5925 22H25.4075C26.75 17.415 29 13.2825 32 10.0275C35 13.2825 37.25 17.415 38.5925 22ZM43.5525 26H53.1675C54.2775 29.923 54.2775 34.077 53.1675 38H43.5525C44.1492 34.0223 44.1492 29.9777 43.5525 26ZM51.5925 22H42.735C41.7144 17.9838 40.0003 14.1766 37.67 10.75C40.6471 11.5501 43.4239 12.9643 45.8217 14.9018C48.2194 16.8393 50.1852 19.2572 51.5925 22ZM26.33 10.75C23.9997 14.1766 22.2857 17.9838 21.265 22H12.4075C13.8148 19.2572 15.7806 16.8393 18.1784 14.9018C20.5762 12.9643 23.3529 11.5501 26.33 10.75ZM12.4075 42H21.265C22.2857 46.0162 23.9997 49.8234 26.33 53.25C23.3529 52.4499 20.5762 51.0357 18.1784 49.0982C15.7806 47.1607 13.8148 44.7428 12.4075 42ZM37.67 53.25C40.0003 49.8234 41.7144 46.0162 42.735 42H51.5925C50.1852 44.7428 48.2194 47.1607 45.8217 49.0982C43.4239 51.0357 40.6471 52.4499 37.67 53.25Z" fill="#1F2937"/>
</svg>
