<svg width="64" height="64" viewBox="0 0 64 64" fill="none" xmlns="http://www.w3.org/2000/svg">
<g clip-path="url(#clip0_339_2219)">
<path d="M1.94115 16.533C2.15687 16.6765 2.30069 16.8918 2.3726 17.107C2.51643 17.3223 2.51643 17.6093 2.51643 17.9681V25.7179C2.51643 26.0767 2.44452 26.4355 2.3726 26.6508C2.30069 26.8661 2.15687 27.0813 1.94115 27.2249C1.72542 27.3684 1.50968 27.4401 1.29395 27.4401C1.07822 27.4401 0.574852 27.5119 0.21526 27.5119C0.14335 27.5119 0.0714438 27.5119 0.0714438 27.5836C-0.000465978 27.6554 -0.000465978 27.6554 -0.000465978 27.7272V28.373C-0.000465978 28.4447 -0.000465978 28.5165 0.0714438 28.5165C0.143355 28.5882 0.143355 28.5882 0.21526 28.5882H7.40624C7.55007 28.5882 7.62197 28.5165 7.62197 28.373V27.7272C7.62197 27.5836 7.55007 27.5119 7.40624 27.5119H6.90287C6.61523 27.5119 6.3995 27.5119 6.11186 27.4401C5.89613 27.4401 5.6804 27.2966 5.46467 27.2249C5.24894 27.0813 5.10512 26.9378 5.03321 26.7225C4.88939 26.5073 4.88939 26.2202 4.88939 25.8615V21.9148C4.88939 21.6278 4.88939 21.269 4.9613 20.8384C4.9613 20.4796 5.03321 20.1209 5.10512 19.6903C5.17703 19.3315 5.24894 18.901 5.39276 18.5422C5.53658 18.1834 5.6804 17.8246 5.82422 17.5376C5.96804 17.2505 6.18377 17.0353 6.47141 16.82C6.68714 16.6765 6.97478 16.533 7.26243 16.533C7.7658 16.533 8.05344 16.6765 8.26917 16.9635C8.41298 17.2505 8.55681 17.6811 8.55681 18.2552C8.55681 18.3987 8.62872 18.4704 8.77253 18.4704C9.06017 18.4704 9.34782 18.3987 9.63546 18.3269C9.92309 18.2552 10.1388 18.1116 10.3546 17.9681C10.5703 17.8246 10.6422 17.6093 10.786 17.3941C10.858 17.1788 10.9298 16.8918 10.9298 16.6765C10.9298 16.1024 10.7141 15.6719 10.2827 15.3131C9.85123 15.0261 9.20396 14.8108 8.26917 14.8108C7.69389 14.8108 7.26243 14.8825 6.90287 15.0261C6.54332 15.3131 6.25569 15.5284 5.96805 15.7436C5.6804 16.0307 5.53658 16.3177 5.32085 16.6047C5.24894 16.82 5.10512 17.0353 4.9613 17.3223C4.9613 17.3941 4.88939 17.3941 4.81748 17.3941C4.74557 17.3223 4.74557 17.3223 4.74557 17.2505V16.2459C4.74557 15.6719 4.2422 15.1696 3.66688 15.1696H0.21524C0.0714244 15.2413 -0.000488281 15.3131 -0.000488281 15.3849C-0.000488281 15.8154 0.359066 16.2459 0.790523 16.2459H1.22198C1.50962 16.3177 1.72542 16.4612 1.94115 16.533Z" fill="#1F2937"/>
<path d="M31.8562 20.8384C29.9865 20.9102 28.5483 21.269 27.6134 21.9148C26.6787 22.5606 26.1753 23.5652 26.1753 24.8569C26.1753 25.5027 26.2471 26.1485 26.4629 26.6508C26.6067 27.1531 26.8943 27.5119 27.2539 27.8707C27.6134 28.2295 28.045 28.4447 28.4764 28.5883C28.9798 28.7318 29.4831 28.8035 29.9865 28.8035C30.4899 28.8035 30.9213 28.7318 31.2808 28.66C31.6404 28.5165 32 28.373 32.2876 28.1577C32.5753 27.9424 32.8629 27.6554 33.0787 27.3684C33.2943 27.0814 33.9416 26.4355 33.9416 26.4355V27.5119C33.9416 28.086 34.373 28.5165 34.9483 28.5165H37.537C37.6808 28.5165 37.7528 28.4447 37.7528 28.3012V27.6554C37.7528 27.5837 37.6808 27.4401 37.537 27.4401C37.3213 27.4401 37.1056 27.4401 36.9618 27.3684C36.7461 27.2966 36.6022 27.2249 36.4584 27.0814C36.3145 26.9378 36.2427 26.7226 36.1707 26.5073C36.0989 26.2203 36.0989 25.9332 36.0989 25.6462V19.188C36.0989 18.3987 36.0269 17.7529 35.8112 17.1788C35.6674 16.6765 35.3798 16.246 34.9483 15.8154C34.5888 15.4566 34.0854 15.2414 33.5101 15.0978C32.9348 14.9543 32.2876 14.8826 31.4966 14.8826C30.9213 14.8826 30.3461 14.9543 29.7707 15.0261C29.2674 15.0978 28.8359 15.2414 28.3326 15.4566C27.973 15.6001 27.6134 15.8872 27.3977 16.1742C27.3258 16.533 27.2539 16.8918 27.2539 17.3223C27.2539 17.8964 27.3977 18.3269 27.7573 18.5422C28.045 18.7575 28.5483 18.901 29.1236 18.901C29.1955 18.901 29.2674 18.901 29.2674 18.8292C29.3393 18.7575 29.3393 18.7575 29.3393 18.6857C29.3393 18.3987 29.3393 18.1117 29.4112 17.8246C29.4831 17.5376 29.5551 17.2506 29.7707 16.9635C29.9145 16.7483 30.2023 16.533 30.4899 16.3895C30.7775 16.246 31.137 16.1742 31.6404 16.1742C32.1438 16.1742 32.5753 16.246 32.8629 16.3895C33.1505 16.533 33.3663 16.7483 33.582 17.0353C33.6539 17.3941 33.7977 17.6811 33.7977 18.0399C33.8696 18.4704 33.8696 18.8292 33.8696 19.2598V20.5514C33.8696 20.6949 33.7977 20.7667 33.6539 20.7667L31.8562 20.8384ZM33.8696 23.7805C33.8696 24.2828 33.7977 24.7851 33.6539 25.2157C33.5101 25.6462 33.2943 26.005 33.0067 26.292C32.7191 26.5791 32.3595 26.8661 31.928 27.0096C31.4966 27.1531 31.0652 27.2249 30.5618 27.2249C29.9145 27.2249 29.3393 27.0096 29.0517 26.6508C28.6921 26.292 28.5483 25.718 28.5483 24.9286C28.5483 24.4981 28.6202 24.0675 28.764 23.637C28.9078 23.2782 29.1236 22.9194 29.4112 22.7041C29.6989 22.4171 30.0584 22.2736 30.5618 22.1301C31.0652 21.9866 31.6404 21.9148 32.2876 21.8431L33.6539 21.7713C33.7258 21.7713 33.7977 21.7713 33.7977 21.8431C33.8696 21.9148 33.8696 21.9148 33.8696 21.9866V23.7805Z" fill="#1F2937"/>
<path d="M11.5781 15.3859C11.5781 15.8165 11.9376 16.247 12.3691 16.247H12.441C12.6567 16.247 12.8725 16.3906 13.0882 16.4623C13.3039 16.6058 13.4477 16.7493 13.5197 16.9646C13.5916 17.3234 13.6635 17.6104 13.6635 17.9692V23.9251C13.6635 24.7862 13.7354 25.5038 13.9511 26.1496C14.1668 26.7954 14.3826 27.2977 14.7421 27.6565C15.1017 28.087 15.5331 28.3741 16.0365 28.5176C16.6118 28.7329 17.187 28.8046 17.7624 28.8046C18.1219 28.8046 18.5533 28.8046 18.9129 28.7329C19.7039 28.5893 20.423 28.2306 20.9264 27.7282C21.1421 27.513 21.5017 27.0824 21.7174 26.7954C21.7174 26.7954 21.7893 26.7236 21.8612 26.7954L21.9331 26.8672C21.9331 27.8 22.7241 28.5893 23.659 28.5893H26.032C26.1758 28.5893 26.2477 28.5176 26.2477 28.3741V27.7282C26.2477 27.6565 26.1758 27.513 26.032 27.513C25.8163 27.513 25.5287 27.513 25.3849 27.4412C25.1691 27.4412 24.9533 27.3695 24.7376 27.2259C24.5219 27.0824 24.3781 26.9389 24.3062 26.7236C24.1624 26.5084 24.1624 26.2213 24.1624 25.8626V15.4577C24.1624 15.3142 24.0904 15.2424 23.9466 15.2424H19.9197C19.7758 15.2424 19.7039 15.3142 19.7039 15.4577C19.7039 15.8882 20.0635 16.3188 20.495 16.3188H20.5668C20.7826 16.3188 20.9983 16.4623 21.214 16.5341C21.4298 16.6776 21.5736 16.8929 21.6455 17.1081C21.7893 17.3234 21.7893 17.6822 21.7893 18.041V23.2075C21.7893 23.7816 21.7174 24.2839 21.5736 24.8579C21.5017 25.2885 21.286 25.719 20.9983 26.1496C20.7106 26.5084 20.423 26.7954 20.0635 26.9389C19.7039 27.1542 19.2005 27.2259 18.6253 27.2259C18.1219 27.2259 17.6904 27.1542 17.4028 27.0107C17.1152 26.8672 16.8275 26.6519 16.6118 26.3649C16.3961 26.0061 16.2523 25.6473 16.1803 25.2885C16.1085 24.7862 16.0365 24.3556 16.0365 23.8533V15.4577C16.0365 15.3859 16.0365 15.3142 15.9645 15.3142C15.8927 15.2424 15.8927 15.2424 15.8207 15.2424H11.7938C11.65 15.2424 11.5781 15.3142 11.5781 15.3859Z" fill="#1F2937"/>
<path d="M51.7758 28.7323C51.4881 29.0193 51.2724 29.3064 51.0567 29.6652C50.9128 30.0239 50.769 30.4545 50.769 30.9568C50.769 32.1049 51.2005 32.966 52.0634 33.6118C52.9263 34.2576 54.2207 34.5447 55.9465 34.5447C57.0971 34.5447 58.032 34.4012 58.8948 34.1859C59.7577 33.9706 60.405 33.6836 60.9802 33.253C61.4836 32.8943 61.9151 32.392 62.2027 31.8179C62.4903 31.1721 62.6342 30.5263 62.5623 29.8804C62.5623 29.3781 62.4903 28.8758 62.3465 28.3735C62.2027 27.943 61.987 27.5124 61.6274 27.1536C61.2679 26.7949 60.8364 26.5796 60.3331 26.3643C59.8297 26.149 59.1825 26.0773 58.4634 26.0773H55.6589H55.0118C54.8679 26.0773 54.6522 26.0055 54.5084 25.9338C54.3645 25.862 54.2926 25.7903 54.2207 25.6467C54.1488 25.5032 54.0769 25.3597 54.0769 25.1444C54.0769 25.0009 54.0769 24.7856 54.1488 24.6421C54.2207 24.4986 54.2926 24.3551 54.4364 24.2116C54.5802 24.0681 54.6522 23.9963 54.796 23.8528C54.9398 23.7811 55.0117 23.7093 55.1556 23.6375C55.2274 23.6375 55.2994 23.5658 55.3712 23.6375H55.5151H55.8746H56.2342H56.5937C57.3128 23.6375 58.032 23.5658 58.5353 23.3505C59.0387 23.1352 59.5421 22.8482 59.9016 22.4177C60.2611 22.0589 60.5488 21.5566 60.7645 21.0543C60.9802 20.4802 61.0522 19.9062 61.0522 19.3321C61.0522 18.6145 60.9802 18.0405 60.7645 17.5382C60.6207 17.1794 60.4049 16.8206 60.1893 16.4618C60.1893 16.39 60.1173 16.3183 60.1893 16.3183C60.1893 16.2465 60.2611 16.2465 60.3331 16.1748C60.405 16.103 60.5488 16.103 60.6207 16.0312C60.8364 15.9595 60.9802 15.9595 61.196 15.9595C61.3398 15.9595 61.4836 15.9595 61.6274 16.0312C61.6994 16.103 61.8432 16.1748 61.8432 16.2465C61.9151 16.3183 61.9151 16.39 61.987 16.5335V16.6771C61.987 16.7488 62.1308 16.8923 62.2027 16.8206C62.3465 16.8206 62.4904 16.7488 62.5623 16.7488C62.7061 16.6771 62.8499 16.6053 62.9937 16.4618C63.0657 16.3183 63.2095 16.1748 63.2095 16.0312C63.2813 16.103 63.2813 15.8877 63.2813 15.7442C63.2813 15.6007 63.2813 15.3854 63.2095 15.2419C63.1375 15.0984 63.0657 14.9549 62.9219 14.8114C62.778 14.6678 62.6342 14.5961 62.4903 14.5243C62.2746 14.4526 62.0589 14.3808 61.8432 14.4526C61.5556 14.4526 61.3398 14.5243 61.0522 14.5961C60.8364 14.6678 60.6207 14.8114 60.405 14.9549C60.1893 15.0984 60.0455 15.2419 59.8297 15.3854C59.6859 15.4572 59.6139 15.6007 59.5421 15.6725C59.4701 15.7442 59.3982 15.7442 59.2544 15.6725C59.1106 15.6007 59.0387 15.5289 58.8948 15.4572C58.6792 15.3854 58.4634 15.2419 58.2476 15.1702C57.96 15.0984 57.7443 15.0266 57.4567 14.9549C57.169 14.8831 56.8813 14.8831 56.5937 14.8831C55.8027 14.8831 55.1556 14.9549 54.5084 15.1702C53.9331 15.3854 53.4297 15.6725 53.0701 16.103C52.6387 16.5335 52.351 17.0358 52.2072 17.5382C51.9914 18.1122 51.9196 18.758 51.9196 19.4756C51.9196 19.9062 51.9914 20.2649 52.0634 20.6955C52.1353 21.0543 52.2792 21.4131 52.4948 21.7718C52.7106 22.1306 52.9263 22.4177 53.2139 22.6329C53.4297 22.7765 53.5735 22.92 53.7893 23.0635C53.8611 23.1352 53.9331 23.207 53.9331 23.2788C53.9331 23.3505 53.9331 23.4223 53.8611 23.494C53.5015 23.7811 53.1421 24.0681 52.9982 24.3551C52.7106 24.7139 52.6387 25.1444 52.6387 25.6467C52.6387 25.862 52.7106 26.149 52.7825 26.3643C52.8544 26.5796 52.9982 26.7949 53.0701 26.9384L53.5015 27.3689C53.5735 27.4407 53.6455 27.5124 53.7173 27.5124C53.7893 27.5124 53.7893 27.5842 53.7893 27.5842C53.7893 27.6559 53.7173 27.6559 53.7173 27.6559C53.4297 27.7277 53.0701 27.7995 52.7825 27.943C52.351 28.3018 52.0634 28.517 51.7758 28.7323ZM54.796 17.0358C55.1556 16.4618 55.7308 16.2465 56.5219 16.2465C57.3128 16.2465 57.8881 16.5335 58.2476 17.0358C58.6072 17.5381 58.751 18.3992 58.751 19.5473C58.751 20.0496 58.751 20.4802 58.6072 20.9825C58.5353 21.3413 58.3914 21.6283 58.2476 21.9871C58.1038 22.2024 57.8162 22.4176 57.5286 22.5612C57.2409 22.7047 56.8813 22.7764 56.5219 22.7764C55.7308 22.7764 55.1556 22.5612 54.796 22.0589C54.4364 21.5566 54.2926 20.7672 54.2926 19.6909C54.2926 18.3992 54.4364 17.5381 54.796 17.0358ZM53.0701 29.5934C53.2139 29.3064 53.4297 29.0911 53.6455 28.8758C53.9331 28.7323 54.2207 28.5888 54.5084 28.517C54.8679 28.4453 55.1556 28.4453 55.5151 28.4453H57.96C58.3196 28.4453 58.6792 28.4453 59.0387 28.517C59.3263 28.5888 59.6139 28.6606 59.8297 28.8041C60.0455 28.9476 60.1893 29.1629 60.3331 29.3781C60.4769 29.5934 60.4769 29.9522 60.4769 30.311C60.4769 30.7415 60.405 31.1003 60.2611 31.5309C60.1173 31.8896 59.9016 32.2484 59.5421 32.4637C59.1825 32.7507 58.751 32.966 58.1758 33.1095C57.6005 33.253 56.8813 33.3248 55.9465 33.3248C55.2994 33.3248 54.796 33.253 54.3645 33.1095C53.9331 32.966 53.6455 32.8225 53.3577 32.6072C53.1421 32.392 52.9263 32.1049 52.8544 31.8179C52.7825 31.4591 52.7106 31.1721 52.7106 30.8133C52.7825 30.311 52.9263 29.8804 53.0701 29.5934Z" fill="#1F2937"/>
<path d="M49.1145 17.6096C48.8987 17.0356 48.611 16.5333 48.2516 16.1027C47.892 15.7439 47.4605 15.3851 46.9571 15.2416C46.3819 15.0263 45.8066 14.9546 45.2313 14.9546C44.8718 14.9546 44.4403 14.9546 44.0807 15.0263C43.7212 15.0981 43.3617 15.1699 43.074 15.3851C42.7144 15.6004 42.4268 15.8157 42.1392 16.1027C41.9954 16.318 41.6358 16.6768 41.4201 16.9638C41.4201 17.0356 41.3482 17.0356 41.2762 17.0356C41.2043 17.0356 41.2043 16.9638 41.2043 16.892V16.318C41.2043 15.6722 40.7009 15.1699 40.0537 15.1699H37.0335C36.8897 15.1699 36.8179 15.2416 36.8179 15.3851C36.8179 15.8157 37.1773 16.2462 37.6089 16.2462H37.6807C37.8965 16.318 38.1122 16.3897 38.328 16.4615C38.5436 16.605 38.6874 16.7485 38.7594 16.9638C38.9032 17.1791 38.9032 17.4661 38.9032 17.8249V28.2297C38.9032 28.3733 38.9752 28.445 39.119 28.445H43.1459C43.2897 28.445 43.3617 28.3733 43.3617 28.2297V27.5839C43.3617 27.5122 43.2897 27.3686 43.1459 27.3686C42.9302 27.3686 42.6425 27.3686 42.4987 27.2969C42.283 27.2969 42.0672 27.2251 41.8516 27.0816C41.6358 26.9381 41.492 26.7946 41.4201 26.5793C41.2762 26.364 41.2762 26.077 41.2762 25.7182V20.6234C41.2762 20.1211 41.3482 19.6188 41.4201 19.1165C41.492 18.686 41.7077 18.2554 41.9234 17.8249C42.1392 17.4661 42.4987 17.1791 42.8583 16.9638C43.2178 16.7485 43.7211 16.605 44.2965 16.605C44.7998 16.605 45.2314 16.6768 45.5908 16.8203C45.9504 16.9638 46.2381 17.1791 46.4538 17.4661C46.6695 17.7531 46.8133 18.1837 46.8853 18.5425C46.9571 19.0448 47.0291 19.4753 47.0291 19.9776V28.3733C47.0291 28.5168 47.1009 28.5885 47.2448 28.5885H51.1998C51.3436 28.5885 51.4156 28.5168 51.4156 28.3733V27.7274C51.4156 27.6557 51.3436 27.5122 51.1998 27.5122C50.9841 27.5122 50.6965 27.5122 50.5527 27.4404C50.3369 27.4404 50.1212 27.2969 49.9773 27.2251C49.8335 27.0816 49.6897 26.8663 49.6178 26.6511C49.5459 26.4358 49.474 26.077 49.474 25.7182V19.8341C49.4021 18.973 49.2583 18.2554 49.1145 17.6096Z" fill="#1F2937"/>
<path d="M11.5052 43.658C11.3614 43.2274 11.1456 42.7969 10.7861 42.5099C10.4265 42.1511 9.9951 41.864 9.49173 41.7205C8.98836 41.5053 8.34118 41.4335 7.62206 41.4335H4.8176H4.24231C4.0985 41.4335 3.88276 41.3617 3.73894 41.29C3.59512 41.2182 3.52322 41.1465 3.4513 41.003C3.37939 40.8594 3.30749 40.7159 3.30749 40.5007C3.30749 40.3571 3.30749 40.1419 3.37939 39.9983C3.4513 39.8548 3.52322 39.7113 3.66703 39.5678C3.81086 39.4243 3.88276 39.3525 4.02659 39.209C4.1704 39.1373 4.31423 38.9937 4.45804 38.922H4.74568H5.10524H5.46478H5.82434C6.54343 38.922 7.26259 38.8502 7.76586 38.635C8.26914 38.4197 8.7726 38.1327 9.13217 37.7739C9.49171 37.4151 9.77936 36.9128 9.99512 36.4105C10.2108 35.8364 10.2827 35.2623 10.2827 34.6883C10.2827 33.9707 10.2108 33.3967 9.99512 32.8943C9.77936 32.392 9.49171 31.8897 9.13217 31.4592C9.06025 31.3874 8.98834 31.3157 8.91644 31.2439C8.84452 31.1722 8.84452 31.1004 8.91644 31.0287C8.98834 30.9569 9.06025 30.8134 9.13217 30.7416C9.27598 30.5981 9.41981 30.4546 9.56362 30.3828C9.70741 30.3111 9.85131 30.2393 9.92317 30.2393C10.067 30.2393 10.1389 30.2393 10.2108 30.3111C10.2827 30.3828 10.3547 30.3828 10.4265 30.4546L10.4985 30.5263C10.5703 30.5981 10.7141 30.5981 10.7861 30.5981C10.9299 30.5264 11.0019 30.4546 11.0737 30.3111C11.1457 30.1676 11.2175 30.024 11.2895 29.8805V29.3782C11.2895 29.2347 11.2175 29.0194 11.0737 28.8759C11.0019 28.7324 10.8581 28.5889 10.7861 28.5171C10.6423 28.4454 10.4985 28.3019 10.3547 28.3019C10.2108 28.2301 9.99512 28.2301 9.85131 28.3019C9.63554 28.3736 9.41981 28.4454 9.27598 28.5171C9.06025 28.6607 8.84453 28.8042 8.7007 29.0194C8.55688 29.2347 8.41306 29.45 8.26924 29.6653C8.19733 29.8805 8.05351 30.0958 7.9816 30.3111V30.3828C7.9816 30.4546 7.90969 30.4546 7.90969 30.5263H7.76587C7.69396 30.5263 7.62205 30.4546 7.47823 30.4546C7.19059 30.3828 6.97486 30.3111 6.68722 30.2393C6.39958 30.1676 6.11194 30.1676 5.8243 30.1676C5.03329 30.1676 4.38614 30.2393 3.81082 30.4546C3.2355 30.6699 2.73213 30.9569 2.37256 31.3874C2.013 31.818 1.65347 32.3203 1.50964 32.8226C1.29391 33.3967 1.222 34.0425 1.222 34.76C1.222 35.1906 1.29391 35.5494 1.36582 35.9799C1.43774 36.3387 1.58155 36.6975 1.79728 37.0563C2.01301 37.4151 2.22875 37.7021 2.51639 37.9174C2.80402 38.2044 3.09166 38.3479 3.45122 38.4914C2.87593 38.8502 2.44448 39.209 2.22872 39.5678C1.72535 40.2136 1.65344 41.003 1.86917 41.6488C1.94108 41.864 2.08489 42.0793 2.15681 42.2228C2.30062 42.3663 2.44445 42.5099 2.58826 42.6534C2.73209 42.7969 2.8759 42.8687 3.09163 42.9404C2.66018 43.0122 2.30062 43.1557 1.94109 43.2992C1.58153 43.4427 1.22198 43.658 0.934348 43.945C0.646707 44.232 0.430978 44.5191 0.287153 44.8779C0.0714245 45.3084 -0.000488281 45.739 -0.000488281 46.1695C-0.000488281 47.3176 0.430969 48.1787 1.29386 48.8245C2.15679 49.4703 3.45115 49.7574 5.17701 49.7574C6.32756 49.7574 7.26244 49.6139 8.12528 49.3986C8.91629 49.1833 9.63539 48.8963 10.2106 48.4657C10.714 48.107 11.1455 47.6047 11.4331 47.0306C11.7207 46.4565 11.8646 45.739 11.7927 45.0931C11.7207 44.6626 11.649 44.1603 11.5052 43.658ZM3.95457 32.2485C4.31412 31.6745 4.8894 31.4592 5.68043 31.4592C6.47146 31.4592 7.04674 31.7462 7.4063 32.2485C7.76585 32.7508 7.90967 33.6119 7.90967 34.76C7.90967 35.2624 7.90967 35.6929 7.76585 36.1952C7.69394 36.554 7.55013 36.841 7.4063 37.128C7.26248 37.3433 6.97484 37.5586 6.75911 37.7021C6.47147 37.8456 6.11192 37.9174 5.75238 37.9174C4.96136 37.9174 4.38607 37.7021 4.02651 37.1998C3.59504 36.6257 3.45123 35.8364 3.45123 34.76C3.45123 33.6119 3.59502 32.8226 3.95457 32.2485ZM9.49163 46.7436C9.34782 47.1023 9.13209 47.4611 8.77254 47.6764C8.41298 47.9634 7.98152 48.1787 7.40623 48.3222C6.83094 48.4657 6.11188 48.5375 5.177 48.5375C4.5298 48.5375 4.02645 48.4657 3.59493 48.3222C3.16347 48.1787 2.87583 48.0352 2.5882 47.8199C2.37247 47.6047 2.15674 47.3176 2.08483 47.0306C2.01291 46.6718 1.94101 46.3848 1.94101 46.026C1.94101 45.5237 2.01291 45.0931 2.15674 44.8061C2.30055 44.5191 2.51629 44.3038 2.80392 44.0885C3.09157 43.945 3.37921 43.8015 3.66685 43.7297C4.0264 43.658 4.31404 43.658 4.67359 43.658H7.19044C7.54999 43.658 7.90953 43.658 8.26913 43.7297C8.55677 43.8015 8.84441 43.8733 9.06014 44.0168C9.27587 44.1603 9.41969 44.3756 9.56351 44.5908C9.70729 44.8061 9.70729 45.1649 9.70729 45.5237C9.70729 45.9542 9.63546 46.3848 9.49163 46.7436Z" fill="#1F2937"/>
<path d="M11.5781 30.6699C11.5781 31.1004 11.9376 31.531 12.3691 31.531H12.441C12.6567 31.531 12.8725 31.6745 13.0882 31.7462C13.3039 31.8897 13.4477 32.0333 13.5197 32.2485C13.6635 32.4638 13.6635 32.7508 13.6635 33.1096V39.0655C13.6635 39.9266 13.7354 40.6442 13.9511 41.29C14.1668 41.9358 14.3826 42.4381 14.7421 42.7969C15.1017 43.2274 15.5331 43.5145 16.0365 43.658C16.6118 43.8733 17.187 43.945 17.7624 43.945C18.1219 43.945 18.5533 43.945 18.9129 43.8733C19.7039 43.7297 20.423 43.371 20.9264 42.8687C21.1421 42.6534 21.5017 42.2228 21.7174 41.9358C21.7174 41.9358 21.7893 41.864 21.8612 41.9358L21.9331 42.0076C21.9331 42.4381 22.0769 42.9404 22.4365 43.2274C22.7241 43.5862 23.2275 43.7297 23.659 43.7297H26.032C26.1758 43.7297 26.2477 43.658 26.2477 43.5145V42.8687C26.2477 42.7969 26.1758 42.6534 26.032 42.6534C25.8163 42.6534 25.5287 42.6534 25.3849 42.5816C25.1691 42.5816 24.9533 42.5099 24.7376 42.3663C24.5219 42.2228 24.3781 42.0793 24.3062 41.864C24.1624 41.6488 24.1624 41.3617 24.1624 41.003V30.6699C24.1624 30.5981 24.1624 30.5263 24.0904 30.5263C24.0186 30.4546 24.0186 30.4546 23.9466 30.4546H19.9197C19.8477 30.4546 19.7758 30.4546 19.7758 30.5263C19.7039 30.5981 19.7039 30.5981 19.7039 30.6699C19.7039 31.1004 20.0635 31.531 20.495 31.531H20.5668C20.7826 31.531 20.9983 31.6745 21.214 31.7462C21.4298 31.8897 21.5736 32.105 21.6455 32.3203C21.7893 32.5356 21.7893 32.8943 21.7893 33.2531V38.4197C21.7893 38.9937 21.7174 39.496 21.5736 40.0701C21.5017 40.5007 21.286 40.9312 20.9983 41.3617C20.7106 41.7205 20.423 42.0076 20.0635 42.1511C19.7039 42.3663 19.2005 42.4381 18.6253 42.4381C18.1219 42.4381 17.6904 42.3663 17.4028 42.2228C17.1152 42.0793 16.8275 41.864 16.6118 41.577C16.3961 41.2182 16.2523 40.8594 16.1803 40.5007C16.1085 39.9983 16.0365 39.5678 16.0365 39.0655V30.6699C16.0365 30.5263 15.9646 30.4546 15.8207 30.4546H11.7938C11.65 30.4546 11.5781 30.5263 11.5781 30.6699Z" fill="#1F2937"/>
<path d="M35.5239 30.6688C35.0925 30.3818 34.4452 30.1665 33.5104 30.1665C32.9351 30.1665 32.5037 30.2383 32.1441 30.3818C31.7845 30.5253 31.4969 30.7406 31.2093 30.9558C30.9935 31.2429 30.7778 31.5299 30.562 31.8169C30.4902 31.9604 30.3464 32.2475 30.2026 32.4627C30.2026 32.5345 30.1306 32.5345 30.0587 32.5345C29.9868 32.5345 29.9868 32.4627 29.9868 32.391V31.4581C29.9868 30.8841 29.4834 30.3818 28.9081 30.3818H25.4565C25.3127 30.3818 25.2407 30.4535 25.2407 30.597C25.2407 31.0276 25.6003 31.4581 26.0317 31.4581H26.4632C26.6789 31.4581 26.8946 31.6017 27.1104 31.6734C27.3262 31.8169 27.47 31.9604 27.5418 32.1757C27.6856 32.391 27.6856 32.678 27.6856 33.0368V43.4417C27.6856 43.5852 27.7576 43.6569 27.9014 43.6569H32.5037C32.6475 43.6569 32.7194 43.5852 32.7194 43.4417V42.7958C32.7194 42.6523 32.6475 42.5806 32.5037 42.5806H32.0003C31.7127 42.5806 31.4969 42.5806 31.2093 42.5088C30.9935 42.5088 30.7778 42.3653 30.562 42.2935C30.3464 42.15 30.2026 42.0065 30.1306 41.7912C29.9868 41.576 29.9868 41.2889 29.9868 40.9301V36.9835C29.9868 36.6964 29.9868 36.3377 30.0587 35.9071C30.0587 35.5483 30.1306 35.1178 30.2026 34.759C30.2744 34.4002 30.3464 33.9697 30.4902 33.6109C30.634 33.2521 30.7778 32.9651 30.9216 32.6063C31.0654 32.3192 31.2812 32.104 31.5688 31.8887C31.7845 31.7452 32.0721 31.6017 32.3599 31.6017C32.8632 31.6017 33.1508 31.7452 33.3666 32.0322C33.5104 32.3192 33.6542 32.7498 33.6542 33.3238C33.6542 33.4674 33.7262 33.5391 33.87 33.5391C34.1576 33.5391 34.4452 33.4674 34.7329 33.3956C35.0205 33.3238 35.2363 33.1803 35.4519 33.0368C35.6677 32.8933 35.7396 32.678 35.8834 32.4627C35.9553 32.2475 36.0272 31.9604 36.0272 31.7452C36.1711 31.4581 35.9553 31.0276 35.5239 30.6688Z" fill="#1F2937"/>
<path d="M51.128 42.7969C50.9122 42.7969 50.6965 42.7969 50.6246 42.7251C50.4089 42.7251 50.1931 42.6534 49.9773 42.5099C49.7617 42.3663 49.6179 42.2228 49.5459 42.0076C49.4021 41.7923 49.4021 41.5053 49.4021 41.1465V30.6699C49.4021 30.5981 49.4021 30.5263 49.3302 30.5263C49.2583 30.4546 49.2583 30.4546 49.1864 30.4546H45.1594C45.0156 30.4546 44.9436 30.5263 44.9436 30.6699C44.9436 31.1004 45.3032 31.531 45.7347 31.531H45.8066C46.0223 31.531 46.2381 31.6745 46.4537 31.7462C46.6695 31.8897 46.8133 32.105 46.8853 32.3203C47.0291 32.5356 47.0291 32.8943 47.0291 33.2531V38.4197C47.0291 38.9937 46.9571 39.496 46.8133 40.0701C46.7415 40.5007 46.5257 40.9312 46.2381 41.3617C45.9504 41.7205 45.6628 42.0076 45.3032 42.1511C44.9436 42.3663 44.4403 42.4381 43.865 42.4381C43.3617 42.4381 42.9302 42.3663 42.6425 42.2228C42.3549 42.0793 42.0672 41.864 41.8516 41.577C41.6358 41.2182 41.492 40.8594 41.4201 40.5007C41.3482 39.9983 41.2762 39.5678 41.2762 39.0655V30.6699C41.2762 30.5263 41.2043 30.4546 41.0605 30.4546H37.0335C36.8897 30.4546 36.8179 30.5263 36.8179 30.6699C36.8179 31.1004 37.1773 31.531 37.6089 31.531H37.6807C37.8965 31.531 38.1122 31.6745 38.328 31.7462C38.5436 31.8897 38.6874 32.0333 38.7594 32.2485C38.9032 32.4638 38.9032 32.7508 38.9032 33.1096V39.0655C38.9032 39.9266 38.9752 40.6442 39.1908 41.29C39.4066 41.9358 39.6223 42.4381 39.9819 42.7969C40.3415 43.2274 40.7729 43.5145 41.2762 43.658C41.8516 43.8733 42.4268 43.945 43.0021 43.945C43.3617 43.945 43.7931 43.945 44.1527 43.8733C44.9436 43.7297 45.6628 43.371 46.1661 42.8687C46.3819 42.6534 46.7415 42.2228 46.9571 41.9358C46.9571 41.9358 47.0291 41.864 47.1009 41.9358L47.1729 42.0076C47.1729 42.4381 47.3167 42.9404 47.6762 43.2274C47.9639 43.5862 48.4672 43.7297 48.8987 43.7297H62.4183C62.4901 43.7297 62.5621 43.658 62.5621 43.5862V42.8687C62.5621 42.7969 62.4901 42.7251 62.4183 42.7251L51.128 42.7969Z" fill="#1F2937"/>
</g>
<defs>
<clipPath id="clip0_339_2219">
<rect width="64" height="35.8788" fill="white" transform="translate(0 14.3806)"/>
</clipPath>
</defs>
</svg>
