<svg width="19" height="19" viewBox="0 0 19 19" fill="none" xmlns="http://www.w3.org/2000/svg">
<g filter="url(#filter0_iii_1878_5924)">
<path d="M10.7068 2.72736L11.9461 5.32598C12.1379 5.71186 12.4879 5.98318 12.8943 6.04347L15.6659 6.43537C17.0939 6.64642 17.6326 8.17969 16.5251 9.29591L14.5828 11.2998C14.2667 11.6133 14.12 12.0776 14.1989 12.5298L14.6355 15.3779C14.8838 16.8551 13.6397 17.9031 12.381 17.2278L9.82977 15.8713C9.47421 15.6843 9.05655 15.6843 8.70094 15.8713L6.14972 17.2278C4.89106 17.897 3.57007 16.8808 3.93921 15.3428L4.36988 12.5567C4.4489 12.1044 4.30215 11.6402 3.98606 11.3267L2.00559 9.25198C0.889401 8.14892 1.43678 6.64642 2.86477 6.43537L5.53451 6.04347C5.94092 5.98318 6.40723 5.71789 6.59353 5.32598L7.85781 2.72736C8.50125 1.419 10.069 1.419 10.7068 2.72736Z" fill="url(#paint0_radial_1878_5924)"/>
<path d="M10.7068 2.72736L11.9461 5.32598C12.1379 5.71186 12.4879 5.98318 12.8943 6.04347L15.6659 6.43537C17.0939 6.64642 17.6326 8.17969 16.5251 9.29591L14.5828 11.2998C14.2667 11.6133 14.12 12.0776 14.1989 12.5298L14.6355 15.3779C14.8838 16.8551 13.6397 17.9031 12.381 17.2278L9.82977 15.8713C9.47421 15.6843 9.05655 15.6843 8.70094 15.8713L6.14972 17.2278C4.89106 17.897 3.57007 16.8808 3.93921 15.3428L4.36988 12.5567C4.4489 12.1044 4.30215 11.6402 3.98606 11.3267L2.00559 9.25198C0.889401 8.14892 1.43678 6.64642 2.86477 6.43537L5.53451 6.04347C5.94092 5.98318 6.40723 5.71789 6.59353 5.32598L7.85781 2.72736C8.50125 1.419 10.069 1.419 10.7068 2.72736Z" fill="url(#paint1_radial_1878_5924)"/>
</g>
<path d="M10.7068 2.72736L11.9461 5.32598C12.1379 5.71186 12.4879 5.98318 12.8943 6.04347L15.6659 6.43537C17.0939 6.64642 17.6326 8.17969 16.5251 9.29591L14.5828 11.2998C14.2667 11.6133 14.12 12.0776 14.1989 12.5298L14.6355 15.3779C14.8838 16.8551 13.6397 17.9031 12.381 17.2278L9.82977 15.8713C9.47421 15.6843 9.05655 15.6843 8.70094 15.8713L6.14972 17.2278C4.89106 17.897 3.57007 16.8808 3.93921 15.3428L4.36988 12.5567C4.4489 12.1044 4.30215 11.6402 3.98606 11.3267L2.00559 9.25198C0.889401 8.14892 1.43678 6.64642 2.86477 6.43537L5.53451 6.04347C5.94092 5.98318 6.40723 5.71789 6.59353 5.32598L7.85781 2.72736C8.50125 1.419 10.069 1.419 10.7068 2.72736Z" fill="url(#paint2_radial_1878_5924)"/>
<path d="M10.7068 2.72736L11.9461 5.32598C12.1379 5.71186 12.4879 5.98318 12.8943 6.04347L15.6659 6.43537C17.0939 6.64642 17.6326 8.17969 16.5251 9.29591L14.5828 11.2998C14.2667 11.6133 14.12 12.0776 14.1989 12.5298L14.6355 15.3779C14.8838 16.8551 13.6397 17.9031 12.381 17.2278L9.82977 15.8713C9.47421 15.6843 9.05655 15.6843 8.70094 15.8713L6.14972 17.2278C4.89106 17.897 3.57007 16.8808 3.93921 15.3428L4.36988 12.5567C4.4489 12.1044 4.30215 11.6402 3.98606 11.3267L2.00559 9.25198C0.889401 8.14892 1.43678 6.64642 2.86477 6.43537L5.53451 6.04347C5.94092 5.98318 6.40723 5.71789 6.59353 5.32598L7.85781 2.72736C8.50125 1.419 10.069 1.419 10.7068 2.72736Z" fill="url(#paint3_radial_1878_5924)"/>
<path d="M10.7068 2.72736L11.9461 5.32598C12.1379 5.71186 12.4879 5.98318 12.8943 6.04347L15.6659 6.43537C17.0939 6.64642 17.6326 8.17969 16.5251 9.29591L14.5828 11.2998C14.2667 11.6133 14.12 12.0776 14.1989 12.5298L14.6355 15.3779C14.8838 16.8551 13.6397 17.9031 12.381 17.2278L9.82977 15.8713C9.47421 15.6843 9.05655 15.6843 8.70094 15.8713L6.14972 17.2278C4.89106 17.897 3.57007 16.8808 3.93921 15.3428L4.36988 12.5567C4.4489 12.1044 4.30215 11.6402 3.98606 11.3267L2.00559 9.25198C0.889401 8.14892 1.43678 6.64642 2.86477 6.43537L5.53451 6.04347C5.94092 5.98318 6.40723 5.71789 6.59353 5.32598L7.85781 2.72736C8.50125 1.419 10.069 1.419 10.7068 2.72736Z" fill="url(#paint4_radial_1878_5924)"/>
<path d="M10.7068 2.72736L11.9461 5.32598C12.1379 5.71186 12.4879 5.98318 12.8943 6.04347L15.6659 6.43537C17.0939 6.64642 17.6326 8.17969 16.5251 9.29591L14.5828 11.2998C14.2667 11.6133 14.12 12.0776 14.1989 12.5298L14.6355 15.3779C14.8838 16.8551 13.6397 17.9031 12.381 17.2278L9.82977 15.8713C9.47421 15.6843 9.05655 15.6843 8.70094 15.8713L6.14972 17.2278C4.89106 17.897 3.57007 16.8808 3.93921 15.3428L4.36988 12.5567C4.4489 12.1044 4.30215 11.6402 3.98606 11.3267L2.00559 9.25198C0.889401 8.14892 1.43678 6.64642 2.86477 6.43537L5.53451 6.04347C5.94092 5.98318 6.40723 5.71789 6.59353 5.32598L7.85781 2.72736C8.50125 1.419 10.069 1.419 10.7068 2.72736Z" fill="url(#paint5_radial_1878_5924)"/>
<defs>
<filter id="filter0_iii_1878_5924" x="0.707031" y="1.46484" width="17.2539" height="16.6756" filterUnits="userSpaceOnUse" color-interpolation-filters="sRGB">
<feFlood flood-opacity="0" result="BackgroundImageFix"/>
<feBlend mode="normal" in="SourceGraphic" in2="BackgroundImageFix" result="shape"/>
<feColorMatrix in="SourceAlpha" type="matrix" values="0 0 0 0 0 0 0 0 0 0 0 0 0 0 0 0 0 0 127 0" result="hardAlpha"/>
<feOffset dy="-0.28125"/>
<feGaussianBlur stdDeviation="0.84375"/>
<feComposite in2="hardAlpha" operator="arithmetic" k2="-1" k3="1"/>
<feColorMatrix type="matrix" values="0 0 0 0 0.772549 0 0 0 0 0.494118 0 0 0 0 0.282353 0 0 0 1 0"/>
<feBlend mode="normal" in2="shape" result="effect1_innerShadow_1878_5924"/>
<feColorMatrix in="SourceAlpha" type="matrix" values="0 0 0 0 0 0 0 0 0 0 0 0 0 0 0 0 0 0 127 0" result="hardAlpha"/>
<feOffset dx="-0.703125" dy="0.703125"/>
<feGaussianBlur stdDeviation="0.421875"/>
<feComposite in2="hardAlpha" operator="arithmetic" k2="-1" k3="1"/>
<feColorMatrix type="matrix" values="0 0 0 0 1 0 0 0 0 0.952941 0 0 0 0 0.286275 0 0 0 1 0"/>
<feBlend mode="normal" in2="effect1_innerShadow_1878_5924" result="effect2_innerShadow_1878_5924"/>
<feColorMatrix in="SourceAlpha" type="matrix" values="0 0 0 0 0 0 0 0 0 0 0 0 0 0 0 0 0 0 127 0" result="hardAlpha"/>
<feOffset dx="0.84375" dy="-0.28125"/>
<feGaussianBlur stdDeviation="0.421875"/>
<feComposite in2="hardAlpha" operator="arithmetic" k2="-1" k3="1"/>
<feColorMatrix type="matrix" values="0 0 0 0 0.698039 0 0 0 0 0.537255 0 0 0 0 0.192157 0 0 0 1 0"/>
<feBlend mode="normal" in2="effect2_innerShadow_1878_5924" result="effect3_innerShadow_1878_5924"/>
</filter>
<radialGradient id="paint0_radial_1878_5924" cx="0" cy="0" r="1" gradientUnits="userSpaceOnUse" gradientTransform="translate(14.0467 5.66603) rotate(132.939) scale(11.2389 11.1224)">
<stop stop-color="#FFBD00"/>
<stop offset="1" stop-color="#F7C632"/>
</radialGradient>
<radialGradient id="paint1_radial_1878_5924" cx="0" cy="0" r="1" gradientUnits="userSpaceOnUse" gradientTransform="translate(9.26344 9.59173) rotate(90) scale(7.84564 7.85329)">
<stop stop-color="#DDBA38"/>
<stop offset="1" stop-color="#DDBA38" stop-opacity="0"/>
</radialGradient>
<radialGradient id="paint2_radial_1878_5924" cx="0" cy="0" r="1" gradientUnits="userSpaceOnUse" gradientTransform="translate(4.21301 6.29194) rotate(74.0546) scale(1.27415 4.25216)">
<stop stop-color="#DDBA38"/>
<stop offset="1" stop-color="#DDBA38" stop-opacity="0"/>
</radialGradient>
<radialGradient id="paint3_radial_1878_5924" cx="0" cy="0" r="1" gradientUnits="userSpaceOnUse" gradientTransform="translate(1.41016 7.10137) rotate(16.0828) scale(2.2112 2.21336)">
<stop stop-color="#B5953A"/>
<stop offset="1" stop-color="#B5953A" stop-opacity="0"/>
</radialGradient>
<radialGradient id="paint4_radial_1878_5924" cx="0" cy="0" r="1" gradientUnits="userSpaceOnUse" gradientTransform="translate(5.24124 17.9524) rotate(-58.4957) scale(1.59088 1.59243)">
<stop stop-color="#C47E42"/>
<stop offset="1" stop-color="#C47E42" stop-opacity="0"/>
</radialGradient>
<radialGradient id="paint5_radial_1878_5924" cx="0" cy="0" r="1" gradientUnits="userSpaceOnUse" gradientTransform="translate(17.7112 7.1889) rotate(150.751) scale(1.2537 1.64847)">
<stop stop-color="#FFF246"/>
<stop offset="1" stop-color="#FFF246" stop-opacity="0"/>
</radialGradient>
</defs>
</svg>
