<svg width="33" height="33" viewBox="0 0 33 33" fill="none" xmlns="http://www.w3.org/2000/svg">
<path opacity="0.2" d="M22.5 16.2422C22.5 17.4289 22.1481 18.5889 21.4888 19.5756C20.8295 20.5623 19.8925 21.3313 18.7961 21.7855C17.6997 22.2396 16.4933 22.3584 15.3295 22.1269C14.1656 21.8954 13.0965 21.3239 12.2574 20.4848C11.4182 19.6457 10.8468 18.5766 10.6153 17.4127C10.3838 16.2488 10.5026 15.0424 10.9567 13.9461C11.4109 12.8497 12.1799 11.9127 13.1666 11.2534C14.1533 10.5941 15.3133 10.2422 16.5 10.2422C18.0913 10.2422 19.6174 10.8743 20.7426 11.9995C21.8679 13.1248 22.5 14.6509 22.5 16.2422Z" fill="black"/>
<path d="M28.2345 10.6372C29.6222 13.5394 29.8856 16.8528 28.974 19.9379C28.0623 23.023 26.0403 25.661 23.298 27.3428C20.5557 29.0247 17.2876 29.6311 14.1245 29.0451C10.9614 28.4591 8.12749 26.7221 6.1697 24.1695C4.21191 21.6169 3.26905 18.4296 3.52308 15.2227C3.77711 12.0158 5.21003 9.01672 7.54529 6.8042C9.88054 4.59167 12.9526 3.32259 16.1685 3.24189C19.3844 3.16119 22.5163 4.27459 24.9595 6.3672L27.7933 3.5322C27.9809 3.34456 28.2354 3.23914 28.5008 3.23914C28.7662 3.23914 29.0207 3.34456 29.2083 3.5322C29.3959 3.71984 29.5014 3.97433 29.5014 4.2397C29.5014 4.50506 29.3959 4.75956 29.2083 4.9472L17.2083 16.9472C17.0207 17.1348 16.7662 17.2403 16.5008 17.2403C16.2354 17.2403 15.9809 17.1348 15.7933 16.9472C15.6057 16.7596 15.5002 16.5051 15.5002 16.2397C15.5002 15.9743 15.6057 15.7198 15.7933 15.5322L19.2583 12.0672C18.3192 11.4461 17.1981 11.1602 16.0763 11.2556C14.9545 11.3511 13.8977 11.8223 13.0771 12.5931C12.2564 13.3639 11.7199 14.389 11.5544 15.5027C11.3889 16.6163 11.6041 17.7532 12.1652 18.7293C12.7262 19.7054 13.6003 20.4636 14.6459 20.8811C15.6914 21.2986 16.8473 21.351 17.9264 21.0299C19.0055 20.7087 19.9446 20.0328 20.5917 19.1115C21.2388 18.1902 21.556 17.0775 21.492 15.9534C21.4847 15.8221 21.5032 15.6906 21.5466 15.5665C21.5901 15.4423 21.6575 15.3279 21.7452 15.2299C21.8328 15.1318 21.9389 15.0519 22.0574 14.9948C22.1759 14.9378 22.3045 14.9046 22.4358 14.8972C22.701 14.8823 22.9613 14.9733 23.1594 15.1503C23.2575 15.238 23.3373 15.344 23.3944 15.4625C23.4515 15.581 23.4847 15.7096 23.492 15.8409C23.5832 17.4319 23.1288 19.0064 22.2039 20.3041C21.279 21.6018 19.939 22.5451 18.4054 22.9781C16.8717 23.4111 15.2363 23.3078 13.7693 22.6853C12.3023 22.0629 11.0916 20.9585 10.3373 19.5547C9.58302 18.151 9.33029 16.5318 9.62087 14.965C9.91146 13.3981 10.728 11.9773 11.9355 10.9374C13.143 9.89742 14.6691 9.30062 16.2618 9.24558C17.8544 9.19055 19.4182 9.68059 20.6945 10.6347L23.5383 7.79095C21.4543 6.06069 18.8045 5.1614 16.0979 5.26579C13.3912 5.37018 10.8186 6.4709 8.87403 8.35653C6.92949 10.2422 5.75018 12.7797 5.5626 15.4819C5.37502 18.1841 6.1924 20.8602 7.85774 22.9965C9.52309 25.1327 11.919 26.5783 14.5852 27.0557C17.2515 27.5331 20.0001 27.0085 22.3032 25.5828C24.6063 24.1571 26.3014 21.9307 27.063 19.3314C27.8247 16.732 27.599 13.9429 26.4295 11.4997C26.3152 11.2603 26.3006 10.9853 26.3889 10.7352C26.4773 10.4851 26.6614 10.2803 26.9008 10.1659C27.1402 10.0516 27.4151 10.037 27.6653 10.1253C27.9154 10.2137 28.1202 10.3978 28.2345 10.6372Z" fill="black"/>
</svg>
