<svg width="160" height="160" viewBox="0 0 160 160" fill="none" xmlns="http://www.w3.org/2000/svg">
<path fill-rule="evenodd" clip-rule="evenodd" d="M119.999 133.376C120.209 133.39 120.419 133.4 120.631 133.405C128.413 133.541 134.918 125.992 130.609 116.873C130.137 123.934 127.031 127.748 120.456 127.748C120.302 127.748 120.151 127.746 119.999 127.741C119.85 127.746 119.699 127.748 119.541 127.748C112.969 127.748 109.863 123.934 109.39 116.873C105.083 125.992 111.587 133.541 119.369 133.405C119.581 133.4 119.791 133.39 119.999 133.376ZM119.999 122.152C120.164 122.166 120.333 122.173 120.506 122.173C126.282 122.326 127.507 116.475 126.077 112.944C125.161 116.475 122.49 118.269 119.999 117.705C117.51 118.269 114.838 116.475 113.922 112.944C112.494 116.475 113.718 122.326 119.494 122.173C119.667 122.173 119.836 122.166 119.999 122.152ZM119.999 104.691C120.635 104.666 121.238 104.665 121.802 104.688C139.986 105.486 163.154 111.727 172.709 108.024C179.274 105.479 189.872 97.527 194.817 104.515C196.313 106.631 190.289 111.898 190.165 105.668C187.726 100.652 182.512 108.15 186.3 112.132C172.501 125.78 134.982 110.219 131.399 109.208C130.374 108.918 129.806 110.009 130.618 111.458C131.925 113.795 135.941 117.207 136.916 120.804C138.88 128.049 133.046 139.671 121.423 139.993C120.937 140.007 120.464 140 119.999 139.977C119.535 140 119.062 140.007 118.577 139.993C106.953 139.671 101.121 128.049 103.084 120.804C104.058 117.207 108.075 113.795 109.381 111.458C110.193 110.009 109.626 108.918 108.601 109.208C105.016 110.219 67.4983 125.78 53.7001 112.132C57.488 108.15 52.2731 100.652 49.8348 105.668C49.7112 111.898 43.6861 106.631 45.183 104.515C50.1282 97.527 60.7266 105.479 67.2911 108.024C76.8445 111.727 100.014 105.486 118.197 104.688C118.762 104.665 119.365 104.666 119.999 104.691ZM119.999 83.1383C118.981 82.9922 117.817 83.4279 117.738 84.4205C116.562 94.3134 117.612 92.8589 114.193 97.0076C109.344 102.894 104.593 102.379 96.9625 102.803C89.7513 103.204 84.0182 103.69 82.7935 100.583C82.1455 98.9403 86.1793 86.6577 97.3395 84.398C101.305 83.5952 108.633 85.5715 108.63 83.2144C108.622 79.2068 97.6317 80.4016 94.1721 81.293C82.0743 84.4092 71.8618 89.3445 62.4482 102.988C80.2541 112.245 99.3858 103.163 119.523 102.116C119.68 102.13 119.841 102.148 119.999 102.165C120.158 102.148 120.319 102.13 120.478 102.116C140.614 103.163 159.745 112.245 177.552 102.988C168.138 89.3445 157.926 84.4092 145.827 81.293C142.367 80.4016 131.377 79.2068 131.371 83.2144C131.367 85.5715 138.694 83.5952 142.659 84.398C153.82 86.6577 157.853 98.9403 157.205 100.583C155.981 103.69 150.249 103.204 143.036 102.803C135.407 102.379 130.656 102.894 125.807 97.0076C122.388 92.8589 123.437 94.3134 122.26 84.4205C122.183 83.4279 121.019 82.9922 119.999 83.1383ZM119.999 24.0052C119.474 23.7031 119.006 22.6432 118.968 20.9302C118.797 12.8264 116.683 4.20934 117.501 -5.23042C117.832 -8.56012 118.875 -10.4141 119.999 -10.8511C121.124 -10.4141 122.167 -8.56012 122.499 -5.23042C123.317 4.20934 121.202 12.8264 121.031 20.9302C120.994 22.6432 120.525 23.7031 119.999 24.0052ZM119.999 -60C107.88 -50.8911 88.6713 -48.9035 89.0047 -25.4246C88.8161 -16.1184 93.1371 -10.9073 109.355 -11.0633C114.206 -11.1108 114.215 5.519 114.072 12.8201C111.035 7.63767 108.178 4.10822 102.709 -0.0279999C90.2207 -10.9372 84.3016 -13.2519 84.3016 -26.5882C84.3016 -36.7308 86.8048 -39.9544 92.1184 -46.7536C73.4361 -43.7136 46.5451 -27.6893 66.316 -8.34163C75.0729 0.17051 89.1145 -6.70487 98.7141 1.33659C104.195 5.31675 114.584 17.3159 114.584 25.5596L114.856 30.4162L114.009 52.1934C113.924 53.4694 112.304 53.2134 112.28 52.0648C112.28 28.541 99.7378 11.8663 77.8133 11.8663C69.7131 11.8663 65.0576 13.5505 56.5229 13.2121C48.4628 13.3133 38.9668 6.88484 38.6497 0.0881081C29.6831 8.70387 31.0177 29.6758 47.5077 27.9467C58.1098 25.7094 59.2858 15.4731 74.5398 15.4731C84.1306 15.4132 91.9174 15.6442 99.4769 23.5358C102.785 26.9904 105.624 30.2551 107.476 42.1944C107.647 44.9323 106.52 44.8137 105.862 43.3217C100.201 30.4936 94.3169 27.3711 83.8859 26.9304C67.1126 26.8281 52.6676 51.4581 40.4837 51.4581C34.9205 51.4581 31.6982 49.2595 28.4758 44.8898C28.7655 55.0999 30.17 64.5983 41.1779 64.6957C47.9297 64.7956 53.418 56.4932 57.0635 50.518C63.3933 40.1468 75.4949 28.0341 88.7387 30.7795C100.36 33.8295 107.095 46.0484 107.095 64.084C107.095 67.6846 105.633 74.0306 101.292 74.0306C97.141 74.0306 95.6491 73.0318 95.6491 68.9743C95.6491 61.5096 98.2422 43.8498 89.7488 43.8498C85.1194 43.6688 83.0956 46.388 82.9321 49.9224C82.947 53.8352 90.6988 57.1412 89.2943 51.0386C88.8611 49.1559 91.9211 48.3968 92.0971 51.2408C91.9436 57.3659 86.5651 56.653 87.122 69.8519C87.122 79.9996 95.1771 77.9034 105.711 77.9646C114.358 78.9996 111.291 88.2633 105.225 88.2932C102.227 88.4143 101.256 86.6065 99.2634 86.3269C97.6005 86.0959 95.9624 86.5654 95.5891 87.7626C94.659 92.7703 101.829 94.1623 107.511 94.1623C111.561 94.3733 105.948 97.6081 103.162 97.6943C101.239 97.753 101.322 99.7094 103.065 99.7531C112.962 99.4746 113.632 92.6879 115.572 83.559C115.748 81.1956 117.254 80.1681 119.999 80.0296C122.746 80.1681 124.251 81.1956 124.427 83.559C126.367 92.6879 127.037 99.4746 136.934 99.7531C138.678 99.7094 138.76 97.753 136.836 97.6943C134.052 97.6081 128.438 94.3733 132.489 94.1623C138.171 94.1623 145.34 92.7703 144.411 87.7626C144.038 86.5654 142.401 86.0959 140.735 86.3269C138.744 86.6065 137.772 88.4143 134.774 88.2932C128.708 88.2633 125.641 78.9996 134.29 77.9646C144.824 77.9034 152.877 79.9996 152.877 69.8519C153.434 56.653 148.055 57.3659 147.903 51.2408C148.078 48.3968 151.139 49.1559 150.706 51.0386C149.3 57.1412 157.052 53.8352 157.067 49.9224C156.905 46.388 154.881 43.6688 150.25 43.8498C141.758 43.8498 144.351 61.5096 144.351 68.9743C144.351 73.0318 142.858 74.0306 138.707 74.0306C134.367 74.0306 132.905 67.6846 132.905 64.084C132.905 46.0484 139.641 33.8295 151.26 30.7795C164.507 28.0341 176.606 40.1468 182.935 50.518C186.582 56.4932 192.069 64.7956 198.821 64.6957C209.83 64.5983 211.235 55.0999 211.524 44.8898C208.302 49.2595 205.08 51.4581 199.516 51.4581C187.332 51.4581 172.886 26.8281 156.113 26.9304C145.682 27.3711 139.799 30.4936 134.138 43.3217C133.479 44.8137 132.352 44.9323 132.524 42.1944C134.374 30.2551 137.213 26.9904 140.523 23.5358C148.082 15.6442 155.87 15.4132 165.46 15.4731C180.713 15.4731 181.89 25.7094 192.491 27.9467C208.982 29.6758 210.317 8.70387 201.349 0.0881081C201.033 6.88484 191.537 13.3133 183.477 13.2121C174.941 13.5505 170.287 11.8663 162.187 11.8663C140.261 11.8663 127.719 28.541 127.719 52.0648C127.696 53.2134 126.075 53.4694 125.99 52.1934L125.144 30.4162L125.417 25.5596C125.417 17.3159 135.804 5.31675 141.285 1.33659C150.884 -6.70487 164.926 0.17051 173.685 -8.34163C193.455 -27.6893 166.564 -43.7136 147.881 -46.7536C153.194 -39.9544 155.698 -36.7308 155.698 -26.5882C155.698 -13.2519 149.778 -10.9372 137.291 -0.0279999C131.823 4.10822 128.964 7.63767 125.928 12.8201C125.785 5.519 125.794 -11.1108 130.645 -11.0633C146.862 -10.9073 151.183 -16.1184 150.995 -25.4246C151.328 -48.9035 132.12 -50.8911 119.999 -60ZM112.769 -45.2667C108.38 -44.0482 106.086 -36.9543 106.437 -29.5745C106.437 -25.668 109.734 -20.4856 112.058 -18.8676C110.47 -23.1424 108.104 -33.28 112.769 -45.2667ZM117.562 54.6067C117.562 52.3033 115.194 51.9762 115.105 55.4407C115.434 65.9754 110.613 65.5759 110.319 69.6484C110.319 72.6585 110.907 74.7947 114.777 74.3877C118.203 74.3877 117.612 67.9006 117.612 64.898L117.562 54.6067ZM76.5548 0.370266C73.7407 4.95718 64.7916 9.03347 59.0511 9.03347C38.1241 9.03347 38.9406 -13.6252 55.0922 -24.3109C54.6714 -8.87473 62.4907 0.327818 76.5548 0.370266ZM53.9573 30.6134C51.4142 40.6787 47.2492 46.9623 38.6872 46.9623C27.2648 45.8437 27.8503 29.3413 30.2961 22.994C36.0216 33.3177 45.4102 33.9968 53.9573 30.6134ZM101.244 66.7133C103.33 66.5085 104.123 68.7146 103.343 70.2327C102.564 71.7521 100.395 71.5748 99.4582 70.0892C98.7441 68.958 99.1835 66.7769 101.244 66.7133ZM44.8409 79.3891C40.0904 79.3891 34.2538 71.8445 33.5921 67.1303C36.5235 68.4124 40.1291 69.8008 43.7323 69.2402C47.8335 68.4262 48.0545 68.0204 50.2106 65.0865C54.0397 71.1504 53.1483 79.3891 44.8409 79.3891ZM53.1021 89.6491C46.8497 91.5643 42.2378 83.8562 41.0693 81.5602C45.1693 84.0859 53.0921 83.961 54.7027 79.4603C56.3045 83.7525 57.1884 87.7239 53.1021 89.6491ZM55.3369 97.6319C52.6789 97.1737 51.0558 95.9577 50.5477 93.9726C53.8125 94.4895 57.2471 93.5206 58.5155 90.7815C60.2085 93.7441 59.7702 98.3972 55.3369 97.6319ZM85.685 89.0685C82.8609 91.8027 80.1429 96.9277 77.9319 100.2C76.5024 102.314 74.2688 101.576 74.8531 100.349C76.6322 96.6231 81.7198 90.2896 85.685 89.0685ZM83.4339 87.2857C80.681 90.0661 77.3476 93.3346 76.6397 94.1761C72.1564 99.5108 69.9391 102.626 68.6769 99.5146C68.4235 98.8866 70.8917 95.1848 74.5485 92.5031C77.4225 90.3957 79.8833 88.3157 83.4339 87.2857ZM102.703 136.33C98.4894 138.57 87.7811 136.001 86.1993 130.793C92.423 127.745 95.4793 125.359 100.15 121.676C99.9788 128.618 100.703 130.863 102.703 136.33ZM68.5471 121.827C71.6733 121.397 78.9219 121.864 83.5226 120.395C91.0022 118.008 95.106 117.399 102.09 114.464C99.397 119.514 91.7476 124.06 89.2481 125.759C82.7922 131.303 69.8317 130.874 68.5471 121.827ZM127.231 -45.2667C131.619 -44.0482 133.914 -36.9543 133.563 -29.5745C133.563 -25.668 130.266 -20.4856 127.942 -18.8676C129.529 -23.1424 131.895 -33.28 127.231 -45.2667ZM122.436 54.6067C122.436 52.3033 124.806 51.9762 124.895 55.4407C124.565 65.9754 129.387 65.5759 129.68 69.6484C129.68 72.6585 129.093 74.7947 125.222 74.3877C121.797 74.3877 122.388 67.9006 122.388 64.898L122.436 54.6067ZM163.444 0.370266C166.258 4.95718 175.207 9.03347 180.949 9.03347C201.875 9.03347 201.06 -13.6252 184.908 -24.3109C185.327 -8.87473 177.509 0.327818 163.444 0.370266ZM186.043 30.6134C188.586 40.6787 192.75 46.9623 201.313 46.9623C212.735 45.8437 212.15 29.3413 209.704 22.994C203.978 33.3177 194.591 33.9968 186.043 30.6134ZM138.757 66.7133C136.669 66.5085 135.876 68.7146 136.655 70.2327C137.436 71.7521 139.604 71.5748 140.542 70.0892C141.255 68.958 140.815 66.7769 138.757 66.7133ZM195.159 79.3891C199.908 79.3891 205.745 71.8445 206.409 67.1303C203.477 68.4124 199.87 69.8008 196.268 69.2402C192.167 68.4262 191.946 68.0204 189.788 65.0865C185.959 71.1504 186.851 79.3891 195.159 79.3891ZM186.897 89.6491C193.15 91.5643 197.762 83.8562 198.931 81.5602C194.831 84.0859 186.908 83.961 185.297 79.4603C183.696 83.7525 182.812 87.7239 186.897 89.6491ZM184.662 97.6319C187.321 97.1737 188.943 95.9577 189.452 93.9726C186.188 94.4895 182.753 93.5206 181.483 90.7815C179.792 93.7441 180.229 98.3972 184.662 97.6319ZM154.315 89.0685C157.14 91.8027 159.856 96.9277 162.069 100.2C163.498 102.314 165.731 101.576 165.146 100.349C163.367 96.6231 158.279 90.2896 154.315 89.0685ZM156.566 87.2857C159.318 90.0661 162.653 93.3346 163.36 94.1761C167.842 99.5108 170.06 102.626 171.323 99.5146C171.577 98.8866 169.107 95.1848 165.452 92.5031C162.578 90.3957 160.116 88.3157 156.566 87.2857ZM137.296 136.33C141.511 138.57 152.218 136.001 153.801 130.793C147.577 127.745 144.52 125.359 139.849 121.676C140.02 128.618 139.297 130.863 137.296 136.33ZM171.452 121.827C168.326 121.397 161.076 121.864 156.476 120.395C148.997 118.008 144.894 117.399 137.911 114.464C140.603 119.514 148.253 124.06 150.751 125.759C157.208 131.303 170.168 130.874 171.452 121.827Z" fill="#FEF08A" fill-opacity="0.6"/>
</svg>
