<svg width="95" height="95" viewBox="0 0 95 95" fill="none" xmlns="http://www.w3.org/2000/svg">
<path d="M85.192 78.0039C79.6146 68.3615 71.0197 61.4475 60.9891 58.1699C65.9507 55.2162 69.8055 50.7156 71.9616 45.3591C74.1177 40.0026 74.4559 34.0864 72.9242 28.5191C71.3925 22.9518 68.0756 18.0412 63.483 14.5414C58.8903 11.0417 53.2758 9.14624 47.5016 9.14624C41.7274 9.14624 36.1129 11.0417 31.5202 14.5414C26.9276 18.0412 23.6107 22.9518 22.079 28.5191C20.5473 34.0864 20.8855 40.0026 23.0416 45.3591C25.1977 50.7156 29.0525 55.2162 34.014 58.1699C23.9835 61.4438 15.3886 68.3579 9.81117 78.0039C9.60664 78.3374 9.47097 78.7085 9.41218 79.0952C9.35338 79.482 9.37265 79.8767 9.46885 80.2559C9.56505 80.6351 9.73622 80.9912 9.97227 81.3032C10.2083 81.6152 10.5045 81.8767 10.8432 82.0724C11.182 82.2681 11.5565 82.3939 11.9447 82.4425C12.3329 82.4911 12.7269 82.4614 13.1035 82.3553C13.48 82.2491 13.8315 82.0687 14.1372 81.8245C14.4428 81.5803 14.6965 81.2774 14.8832 80.9335C21.7826 69.0097 33.9774 61.8906 47.5016 61.8906C61.0258 61.8906 73.2206 69.0097 80.12 80.9335C80.3067 81.2774 80.5604 81.5803 80.866 81.8245C81.1717 82.0687 81.5232 82.2491 81.8997 82.3553C82.2763 82.4614 82.6703 82.4911 83.0584 82.4425C83.4466 82.3939 83.8212 82.2681 84.16 82.0724C84.4987 81.8767 84.7949 81.6152 85.0309 81.3032C85.267 80.9912 85.4381 80.6351 85.5343 80.2559C85.6305 79.8767 85.6498 79.482 85.591 79.0952C85.5322 78.7085 85.3966 78.3374 85.192 78.0039ZM26.9938 35.5234C26.9938 31.4673 28.1965 27.5024 30.45 24.1299C32.7034 20.7574 35.9063 18.1288 39.6536 16.5766C43.4009 15.0245 47.5243 14.6183 51.5025 15.4096C55.4806 16.2009 59.1347 18.1541 62.0028 21.0222C64.8709 23.8902 66.8241 27.5444 67.6154 31.5225C68.4067 35.5006 68.0005 39.6241 66.4483 43.3714C64.8962 47.1187 62.2676 50.3216 58.8951 52.575C55.5226 54.8284 51.5577 56.0312 47.5016 56.0312C42.0644 56.0254 36.8515 53.8629 33.0068 50.0182C29.1621 46.1735 26.9996 40.9606 26.9938 35.5234Z" fill="#343330"/>
</svg>
