<svg width="204" height="153" viewBox="0 0 204 153" fill="none" xmlns="http://www.w3.org/2000/svg">
<path d="M100.87 123.983C133.192 123.983 159.395 97.7789 159.395 65.3418C159.395 32.9048 133.076 6.70114 100.87 6.70114C68.5483 6.70114 42.3447 32.9048 42.3447 65.3418C42.3447 97.7789 68.5483 123.983 100.87 123.983Z" fill="#E5E7EB"/>
<path d="M173.751 28.2929C175.536 28.2929 176.983 26.8458 176.983 25.0607C176.983 23.2756 175.536 21.8286 173.751 21.8286C171.966 21.8286 170.519 23.2756 170.519 25.0607C170.519 26.8458 171.966 28.2929 173.751 28.2929Z" fill="#E5E7EB"/>
<path d="M44.9997 26.9021C46.7848 26.9021 48.2319 25.455 48.2319 23.6699C48.2319 21.8848 46.7848 20.4377 44.9997 20.4377C43.2147 20.4377 41.7676 21.8848 41.7676 23.6699C41.7676 25.455 43.2147 26.9021 44.9997 26.9021Z" fill="#E5E7EB"/>
<path d="M25.2604 89.2369C28.5755 89.2369 31.263 86.5494 31.263 83.2343C31.263 79.9191 28.5755 77.2317 25.2604 77.2317C21.9453 77.2317 19.2578 79.9191 19.2578 83.2343C19.2578 86.5494 21.9453 89.2369 25.2604 89.2369Z" fill="#E5E7EB"/>
<g filter="url(#filter0_d_990_1901)">
<path d="M84.8165 96.6397L38.4267 106.156C37.7486 106.262 37.1265 105.909 37.0213 105.231L22.8747 35.9822C22.7695 35.304 23.1218 34.682 23.8 34.5768L70.1898 25.0601C70.8679 24.9549 71.49 25.3073 71.5952 25.9854L85.8175 95.2311C85.9194 95.8335 85.4946 96.5345 84.8165 96.6397Z" fill="url(#paint0_linear_990_1901)"/>
</g>
<path d="M35.6408 69.3678L53.7922 65.6381" stroke="#D1D5DB" stroke-width="2" stroke-miterlimit="10" stroke-linecap="round" stroke-linejoin="round"/>
<path d="M59.2017 64.5422L63.1879 63.7234" stroke="#D1D5DB" stroke-width="2" stroke-miterlimit="10" stroke-linecap="round" stroke-linejoin="round"/>
<path d="M68.0289 62.7241L72.0151 61.9053" stroke="#D1D5DB" stroke-width="2" stroke-miterlimit="10" stroke-linecap="round" stroke-linejoin="round"/>
<path d="M36.6428 74.2795L54.7941 70.5498" stroke="#D1D5DB" stroke-width="2" stroke-miterlimit="10" stroke-linecap="round" stroke-linejoin="round"/>
<path d="M60.2016 69.3822L64.1909 68.6351" stroke="#D1D5DB" stroke-width="2" stroke-miterlimit="10" stroke-linecap="round" stroke-linejoin="round"/>
<path d="M68.9596 67.6389L72.9457 66.8201" stroke="#D1D5DB" stroke-width="2" stroke-miterlimit="10" stroke-linecap="round" stroke-linejoin="round"/>
<path d="M37.6418 79.1199L55.7931 75.3902" stroke="#D1D5DB" stroke-width="2" stroke-miterlimit="10" stroke-linecap="round" stroke-linejoin="round"/>
<path d="M61.2037 74.2942L65.1899 73.4754" stroke="#D1D5DB" stroke-width="2" stroke-miterlimit="10" stroke-linecap="round" stroke-linejoin="round"/>
<path d="M69.9586 72.479L73.9448 71.6602" stroke="#D1D5DB" stroke-width="2" stroke-miterlimit="10" stroke-linecap="round" stroke-linejoin="round"/>
<path d="M38.6416 83.9599L56.7961 80.3019" stroke="#D1D5DB" stroke-width="2" stroke-miterlimit="10" stroke-linecap="round" stroke-linejoin="round"/>
<path d="M41.4591 97.6263L46.5829 96.5429" stroke="#D1D5DB" stroke-width="2" stroke-miterlimit="10" stroke-linecap="round" stroke-linejoin="round"/>
<path d="M40.731 94.0672L49.844 92.2366" stroke="#D1D5DB" stroke-width="2" stroke-miterlimit="10" stroke-linecap="round" stroke-linejoin="round"/>
<path d="M68.73 90.5576L77.7714 88.7301" stroke="#D1D5DB" stroke-width="2" stroke-miterlimit="10" stroke-linecap="round" stroke-linejoin="round"/>
<path d="M62.2037 79.1343L66.1899 78.3155" stroke="#D1D5DB" stroke-width="2" stroke-miterlimit="10" stroke-linecap="round" stroke-linejoin="round"/>
<path d="M70.9615 77.391L74.9477 76.5722" stroke="#D1D5DB" stroke-width="2" stroke-miterlimit="10" stroke-linecap="round" stroke-linejoin="round"/>
<path d="M41.7739 43.0265C40.2111 43.3551 39.1209 44.6895 38.9407 46.316C38.8852 46.673 39.1423 46.9643 39.4827 47.0308C39.823 47.0974 40.0939 46.8332 40.1494 46.4762C40.2533 45.4183 41.038 44.4936 42.0381 44.2832C43.0383 44.0729 44.1151 44.5372 44.6502 45.5298C44.8448 45.8342 45.1991 45.9669 45.4838 45.7689C45.7686 45.5709 45.8865 45.2007 45.692 44.8963C44.8581 43.414 43.3367 42.6979 41.7739 43.0265Z" fill="#9CA3AF"/>
<path d="M56.1157 40.0103C54.5529 40.339 53.4627 41.6733 53.2825 43.2998C53.227 43.6568 53.4841 43.9481 53.8245 44.0147C54.1648 44.0812 54.4357 43.8171 54.4912 43.4601C54.5951 42.4022 55.3797 41.4774 56.3799 41.2671C57.3801 41.0567 58.4569 41.521 58.992 42.5136C59.1866 42.818 59.5409 42.9507 59.8256 42.7527C60.1104 42.5547 60.2283 42.1845 60.0338 41.8801C59.1999 40.3978 57.6785 39.6817 56.1157 40.0103Z" fill="#9CA3AF"/>
<path d="M46.5889 48.4507L47.4923 48.2537C48.6205 49.7548 50.7722 49.9406 52.1887 48.7581C52.7535 48.3437 53.1882 47.6665 53.3297 46.9804L54.2331 46.7834C53.9386 49.1044 51.6794 50.762 49.4127 50.3828C48.3488 50.178 47.2635 49.5411 46.5889 48.4507Z" fill="#9CA3AF"/>
<circle opacity="0.4" cx="61.1284" cy="48.5842" r="2.44265" transform="rotate(-11.8756 61.1284 48.5842)" fill="#D1D5DB"/>
<circle opacity="0.4" cx="40.6391" cy="52.8927" r="2.44265" transform="rotate(-11.8756 40.6391 52.8927)" fill="#D1D5DB"/>
<g filter="url(#filter1_d_990_1901)">
<path d="M128.99 116.297L77.8105 119.294C77.0721 119.371 76.5023 118.793 76.4256 118.055L71.968 41.777C71.8913 41.0386 72.4692 40.4688 73.2077 40.3921L124.387 37.3954C125.126 37.3187 125.696 37.8966 125.772 38.635L130.23 114.913C130.225 115.65 129.729 116.221 128.99 116.297Z" fill="url(#paint1_linear_990_1901)"/>
</g>
<path d="M94.4036 81.409L118.983 79.9742" stroke="#D1D5DB" stroke-width="2" stroke-miterlimit="10" stroke-linecap="round" stroke-linejoin="round"/>
<path d="M94.1555 76.9273L118.665 75.492" stroke="#D1D5DB" stroke-width="2" stroke-miterlimit="10" stroke-linecap="round" stroke-linejoin="round"/>
<path d="M94.6516 85.8905L119.231 84.4557" stroke="#D1D5DB" stroke-width="2" stroke-miterlimit="10" stroke-linecap="round" stroke-linejoin="round"/>
<path d="M83.4166 90.9902L119.48 88.8672" stroke="#D1D5DB" stroke-width="2" stroke-miterlimit="10" stroke-linecap="round" stroke-linejoin="round"/>
<path d="M83.6639 95.4717L104.281 94.219" stroke="#D1D5DB" stroke-width="2" stroke-miterlimit="10" stroke-linecap="round" stroke-linejoin="round"/>
<path d="M84.5512 110.447L89.6632 110.134" stroke="#D1D5DB" stroke-width="2" stroke-miterlimit="10" stroke-linecap="round" stroke-linejoin="round"/>
<path d="M84.3666 106.946L93.4002 106.381" stroke="#D1D5DB" stroke-width="2" stroke-miterlimit="10" stroke-linecap="round" stroke-linejoin="round"/>
<path d="M111.467 105.319L120.43 104.823" stroke="#D1D5DB" stroke-width="2" stroke-miterlimit="10" stroke-linecap="round" stroke-linejoin="round"/>
<path d="M90.9434 86.8431C90.8733 86.8425 90.8033 86.8419 90.8037 86.772L89.6282 84.2449L85.2122 84.4884L84.355 87.1386C84.3546 87.2086 84.2841 87.2779 84.214 87.2773L83.3027 87.3398C83.2326 87.3392 83.1626 87.3386 83.163 87.2687C83.0934 87.1982 83.0934 87.1982 83.1639 87.1289L86.3061 77.5745C86.3065 77.5046 86.377 77.4352 86.4471 77.4358L87.7087 77.3762C87.7787 77.3768 87.8488 77.3774 87.8484 77.4473L92.1363 86.5731C92.1358 86.6431 92.1354 86.713 92.1354 86.713C92.135 86.7829 92.0649 86.7823 91.9948 86.7818L90.9434 86.8431ZM85.4999 83.302L89.0745 83.1215L87.0007 78.5592L85.4999 83.302Z" fill="#D1D5DB"/>
<path d="M108.167 54.3895C109.241 54.321 110.103 53.3416 110.034 52.2677C109.966 51.1937 108.986 50.3319 107.912 50.4005C106.839 50.4691 105.977 51.4484 106.045 52.5224C106.119 53.6731 107.016 54.463 108.167 54.3895Z" fill="#9CA3AF"/>
<path d="M92.6545 55.404C93.7285 55.3355 94.5902 54.3561 94.5216 53.2822C94.4531 52.2082 93.4738 51.3464 92.3998 51.415C91.3258 51.4836 90.464 52.4629 90.5326 53.5369C90.6828 54.6827 91.5805 55.4726 92.6545 55.404Z" fill="#9CA3AF"/>
<path d="M97.2305 58.9879C97.4182 60.7617 98.8938 62.097 100.603 62.0007C102.312 61.9044 103.628 60.4118 103.616 58.6281L97.2305 58.9879Z" fill="#9CA3AF"/>
<circle opacity="0.4" cx="112.295" cy="61.0975" r="2.64249" transform="rotate(-3.22458 112.295 61.0975)" fill="#D1D5DB"/>
<circle opacity="0.4" cx="89.6805" cy="62.3714" r="2.64249" transform="rotate(-3.22458 89.6805 62.3714)" fill="#D1D5DB"/>
<g filter="url(#filter2_d_990_1901)">
<path d="M180.294 82.7581L134.381 94.2494C133.719 94.4311 133.073 94.0358 132.891 93.374L115.745 24.8355C115.563 24.1737 115.959 23.5271 116.62 23.3455L162.533 11.8541C163.195 11.6725 163.842 12.0678 164.023 12.7295L181.17 81.2681C181.351 81.9299 180.956 82.5764 180.294 82.7581Z" fill="url(#paint2_linear_990_1901)"/>
</g>
<path d="M127.985 52.6167L133.676 75.3253L170.829 66.0144L165.138 43.3058L127.985 52.6167Z" stroke="#D1D5DB" stroke-width="2" stroke-miterlimit="10" stroke-linecap="round" stroke-linejoin="round"/>
<path d="M136.292 85.5658L141.522 84.2829" stroke="#D1D5DB" stroke-width="2" stroke-miterlimit="10" stroke-linecap="round" stroke-linejoin="round"/>
<path d="M135.336 81.9596L144.613 79.6254" stroke="#D1D5DB" stroke-width="2" stroke-miterlimit="10" stroke-linecap="round" stroke-linejoin="round"/>
<path d="M164.084 77.0635L173.361 74.7293" stroke="#D1D5DB" stroke-width="2" stroke-miterlimit="10" stroke-linecap="round" stroke-linejoin="round"/>
<path d="M137.062 50.4183L142.74 73.1146" stroke="#D1D5DB" stroke-width="2" stroke-miterlimit="10" stroke-linecap="round" stroke-linejoin="round"/>
<path d="M146.546 48.0021L152.293 70.6709" stroke="#D1D5DB" stroke-width="2" stroke-miterlimit="10" stroke-linecap="round" stroke-linejoin="round"/>
<path d="M156.126 45.6272L161.804 68.3235" stroke="#D1D5DB" stroke-width="2" stroke-miterlimit="10" stroke-linecap="round" stroke-linejoin="round"/>
<path d="M129.467 58.3824L166.574 49.0457" stroke="#D1D5DB" stroke-width="2" stroke-miterlimit="10" stroke-linecap="round" stroke-linejoin="round"/>
<path d="M130.846 64.053L167.98 54.7851" stroke="#D1D5DB" stroke-width="2" stroke-miterlimit="10" stroke-linecap="round" stroke-linejoin="round"/>
<path d="M132.319 69.765L169.426 60.4282" stroke="#D1D5DB" stroke-width="2" stroke-miterlimit="10" stroke-linecap="round" stroke-linejoin="round"/>
<path d="M134.894 28.481C133.031 28.9313 131.771 30.571 131.614 32.5284C131.56 32.9586 131.879 33.2988 132.289 33.3664C132.7 33.434 133.015 33.1074 133.069 32.6772C133.156 31.4046 134.064 30.2671 135.256 29.9789C136.448 29.6906 137.756 30.2088 138.434 31.3801C138.678 31.7383 139.108 31.8847 139.442 31.637C139.777 31.3892 139.905 30.941 139.66 30.5828C138.607 28.8349 136.756 28.0306 134.894 28.481Z" fill="#9CA3AF"/>
<path d="M147.443 25.4467C145.736 25.8596 144.606 27.4677 144.498 29.4131C144.457 29.8403 144.757 30.185 145.137 30.2601C145.517 30.3352 145.801 30.0161 145.842 29.5889C145.898 28.3238 146.713 27.2089 147.805 26.9446C148.898 26.6804 150.113 27.2211 150.76 28.3999C150.992 28.7611 151.39 28.9151 151.694 28.6748C151.997 28.4346 152.107 27.9908 151.875 27.6297C150.871 25.8697 149.151 25.0339 147.443 25.4467Z" fill="#9CA3AF"/>
<path d="M144.794 39.7295C145.917 39.4578 146.608 38.3264 146.337 37.2024C146.065 36.0785 144.933 35.3877 143.809 35.6594C142.686 35.9312 141.995 37.0626 142.266 38.1865C142.538 39.3105 143.67 40.0013 144.794 39.7295Z" fill="#9CA3AF"/>
<defs>
<filter id="filter0_d_990_1901" x="0.856445" y="14.0418" width="106.977" height="125.133" filterUnits="userSpaceOnUse" color-interpolation-filters="sRGB">
<feFlood flood-opacity="0" result="BackgroundImageFix"/>
<feColorMatrix in="SourceAlpha" type="matrix" values="0 0 0 0 0 0 0 0 0 0 0 0 0 0 0 0 0 0 127 0" result="hardAlpha"/>
<feOffset dy="11"/>
<feGaussianBlur stdDeviation="11"/>
<feColorMatrix type="matrix" values="0 0 0 0 0.397708 0 0 0 0 0.47749 0 0 0 0 0.575 0 0 0 0.27 0"/>
<feBlend mode="normal" in2="BackgroundImageFix" result="effect1_dropShadow_990_1901"/>
<feBlend mode="normal" in="SourceGraphic" in2="effect1_dropShadow_990_1901" result="shape"/>
</filter>
<filter id="filter1_d_990_1901" x="49.9609" y="26.3885" width="102.269" height="125.912" filterUnits="userSpaceOnUse" color-interpolation-filters="sRGB">
<feFlood flood-opacity="0" result="BackgroundImageFix"/>
<feColorMatrix in="SourceAlpha" type="matrix" values="0 0 0 0 0 0 0 0 0 0 0 0 0 0 0 0 0 0 127 0" result="hardAlpha"/>
<feOffset dy="11"/>
<feGaussianBlur stdDeviation="11"/>
<feColorMatrix type="matrix" values="0 0 0 0 0.397708 0 0 0 0 0.47749 0 0 0 0 0.575 0 0 0 0.27 0"/>
<feBlend mode="normal" in2="BackgroundImageFix" result="effect1_dropShadow_990_1901"/>
<feBlend mode="normal" in="SourceGraphic" in2="effect1_dropShadow_990_1901" result="shape"/>
</filter>
<filter id="filter2_d_990_1901" x="93.7012" y="0.809921" width="109.513" height="126.484" filterUnits="userSpaceOnUse" color-interpolation-filters="sRGB">
<feFlood flood-opacity="0" result="BackgroundImageFix"/>
<feColorMatrix in="SourceAlpha" type="matrix" values="0 0 0 0 0 0 0 0 0 0 0 0 0 0 0 0 0 0 127 0" result="hardAlpha"/>
<feOffset dy="11"/>
<feGaussianBlur stdDeviation="11"/>
<feColorMatrix type="matrix" values="0 0 0 0 0.397708 0 0 0 0 0.47749 0 0 0 0 0.575 0 0 0 0.27 0"/>
<feBlend mode="normal" in2="BackgroundImageFix" result="effect1_dropShadow_990_1901"/>
<feBlend mode="normal" in="SourceGraphic" in2="effect1_dropShadow_990_1901" result="shape"/>
</filter>
<linearGradient id="paint0_linear_990_1901" x1="52.5243" y1="23.9704" x2="56.0847" y2="106.262" gradientUnits="userSpaceOnUse">
<stop stop-color="#FDFEFF"/>
<stop offset="0.9964" stop-color="#ECF0F5"/>
</linearGradient>
<linearGradient id="paint1_linear_990_1901" x1="101.382" y1="35.3212" x2="100.777" y2="120.352" gradientUnits="userSpaceOnUse">
<stop stop-color="#FDFEFF"/>
<stop offset="0.9964" stop-color="#ECF0F5"/>
</linearGradient>
<linearGradient id="paint2_linear_990_1901" x1="133.214" y1="14.7766" x2="163.306" y2="90.4373" gradientUnits="userSpaceOnUse">
<stop stop-color="#FDFEFF"/>
<stop offset="0.9964" stop-color="#ECF0F5"/>
</linearGradient>
</defs>
</svg>
