<svg width="189" height="56" viewBox="0 0 189 56" fill="none" xmlns="http://www.w3.org/2000/svg">
    <path
        d="M4.5 15.9419C55.6627 14.161 106.449 12.1127 157.274 5.81744C165.709 4.77269 173.739 3.59031 182.205 4.13906C184.305 4.27524 185.999 4.30968 182.421 5.60088C171.061 9.70038 159.19 12.583 147.432 15.238C130.142 19.1419 112.794 22.7525 95.5155 26.716C83.0462 29.5763 78.8083 30.4912 66.3127 33.213C59.5722 34.6812 52.6108 35.354 46.087 37.5984C41.7944 39.0752 55.1227 38.6009 59.6609 38.6812C65.2178 38.7796 90.9937 38.5812 98.2195 41.0634C99.3963 41.4677 99.2991 44.0561 98.3006 44.7992C95.3223 47.016 91.4243 47.617 87.8904 48.7515C84.2689 49.9141 79.1354 50.9573 75.0736 52"
        stroke="#A7F3D0" stroke-width="8" stroke-linecap="round" />
</svg>