<svg width="200" height="200" viewBox="0 0 200 200" fill="none" xmlns="http://www.w3.org/2000/svg">
<path d="M100.001 34.375C85.1669 34.375 70.6665 38.7737 58.3328 47.0148C45.9991 55.2559 36.3861 66.9693 30.7096 80.6737C25.033 94.3782 23.5477 109.458 26.4416 124.007C29.3355 138.555 36.4786 151.919 46.9675 162.408C57.4565 172.897 70.8202 180.04 85.3688 182.934C99.9173 185.828 114.997 184.343 128.702 178.666C142.406 172.989 154.12 163.376 162.361 151.043C170.602 138.709 175.001 124.209 175.001 109.375C174.978 89.4907 167.069 70.4274 153.008 56.3671C138.948 42.3068 119.885 34.3977 100.001 34.375ZM100.001 165.625C88.8753 165.625 78 162.326 68.7497 156.145C59.4994 149.964 52.2897 141.179 48.0323 130.901C43.7749 120.623 42.6609 109.313 44.8314 98.4012C47.0018 87.4897 52.3591 77.4669 60.2258 69.6002C68.0925 61.7335 78.1153 56.3762 89.0267 54.2058C99.9381 52.0354 111.248 53.1493 121.526 57.4068C131.805 61.6642 140.59 68.8739 146.771 78.1242C152.952 87.3744 156.251 98.2498 156.251 109.375C156.234 124.288 150.302 138.586 139.757 149.131C129.212 159.677 114.914 165.608 100.001 165.625ZM128.508 77.7422C129.382 78.6132 130.076 79.6481 130.549 80.7876C131.022 81.9272 131.266 83.1489 131.266 84.3828C131.266 85.6167 131.022 86.8384 130.549 87.978C130.076 89.1175 129.382 90.1525 128.508 91.0234L106.633 112.898C104.872 114.66 102.483 115.649 99.9927 115.649C97.502 115.649 95.1133 114.66 93.3521 112.898C91.5909 111.137 90.6015 108.749 90.6015 106.258C90.6015 103.767 91.5909 101.378 93.3521 99.6172L115.227 77.7422C116.098 76.8682 117.133 76.1747 118.273 75.7015C119.412 75.2284 120.634 74.9848 121.868 74.9848C123.102 74.9848 124.323 75.2284 125.463 75.7015C126.602 76.1747 127.637 76.8682 128.508 77.7422ZM71.8755 12.5C71.8755 10.0136 72.8632 7.62903 74.6214 5.87087C76.3796 4.11272 78.7641 3.125 81.2505 3.125H118.751C121.237 3.125 123.621 4.11272 125.38 5.87087C127.138 7.62903 128.126 10.0136 128.126 12.5C128.126 14.9864 127.138 17.371 125.38 19.1291C123.621 20.8873 121.237 21.875 118.751 21.875H81.2505C78.7641 21.875 76.3796 20.8873 74.6214 19.1291C72.8632 17.371 71.8755 14.9864 71.8755 12.5Z" fill="url(#paint0_linear_2862_7505)"/>
<defs>
<linearGradient id="paint0_linear_2862_7505" x1="100.001" y1="3.125" x2="100.001" y2="184.375" gradientUnits="userSpaceOnUse">
<stop stop-color="white"/>
<stop offset="1" stop-color="white" stop-opacity="0"/>
</linearGradient>
</defs>
</svg>
