<svg width="121" height="121" viewBox="0 0 121 121" fill="none" xmlns="http://www.w3.org/2000/svg">
<path d="M31.8317 95.6193L32.3379 96.0883H32.3963L32.5715 95.8734L32.5715 95.8147C32.2795 95.5607 32.1043 95.3849 32.0653 95.3067L32.0494 95.2802C32 95.198 31.968 95.1449 31.968 95.0918C31.968 95.0527 32.0069 94.9746 32.0653 94.8573C32.1432 94.7596 32.2989 94.5642 32.5715 94.2516L33.2723 93.431L34.9269 91.5357L35.6861 90.6565C35.7915 90.5507 35.8823 90.4567 35.9586 90.3776C36.0796 90.2523 36.164 90.1649 36.2117 90.1289C36.3091 90.0508 36.3869 90.0117 36.4259 90.0117C36.4843 90.0117 36.5621 90.0508 36.6595 90.1094C36.7568 90.168 36.9515 90.3048 37.2045 90.5002H37.2629L37.4381 90.3048L37.4381 90.2462L37.3665 90.1879C36.6907 89.6379 36.3064 89.3252 36.2312 89.2497C36.1646 89.194 36.0917 89.1256 36.0053 89.0445C35.9401 88.9833 35.8672 88.915 35.7835 88.8394C35.3163 88.429 35.0827 88.2141 35.0632 88.1946H35.0048L34.8296 88.4095L34.8491 88.4486C35.1216 88.7221 35.2968 88.898 35.3552 88.9761C35.4136 89.0543 35.4331 89.1324 35.4331 89.1911C35.4331 89.2301 35.3941 89.3083 35.3357 89.4255C35.2855 89.5095 35.1491 89.6656 34.9387 89.9063L34.8296 90.0312L34.1483 90.8519L32.4741 92.7471L31.6371 93.685L31.5827 93.7457L31.5818 93.7468C31.4327 93.9134 31.313 94.0472 31.2088 94.1344C31.1115 94.2321 31.0141 94.2712 30.9363 94.2712C30.8584 94.2516 30.7805 94.2125 30.6637 94.1344C30.5469 94.0562 30.3912 93.939 30.1965 93.7827H30.1381L29.9629 93.9781L29.9629 94.0367C30.6832 94.6229 31.092 94.955 31.1893 95.0332C31.235 95.0698 31.3063 95.1366 31.4034 95.2273L31.4035 95.2275C31.5134 95.3303 31.6561 95.4638 31.8317 95.6193Z" fill="#4B5563"/>
<path d="M34.3819 87.9015L34.3819 87.8429C34.1093 87.5498 33.7979 87.1981 33.4475 86.7682C33.1749 86.4556 32.9803 86.2211 32.8829 86.0453H32.8245L32.6299 86.2016L32.6104 86.2798C32.8051 86.4947 32.9219 86.6705 32.9608 86.7682C32.9997 86.8464 33.0192 86.9245 33.0192 86.9636C33.0148 86.9724 33.0105 86.9822 33.0056 86.9929C32.989 87.03 32.9671 87.0789 32.9219 87.1395C32.8635 87.2176 32.6688 87.3935 32.3379 87.6866C32.2401 87.7724 32.15 87.8506 32.0688 87.921C31.8913 88.0751 31.7561 88.1923 31.676 88.2727L28.4446 90.9496L29.6125 85.166L29.9629 83.3489L30.0603 82.7628C29.8462 82.372 29.6904 82.0789 29.632 81.9031C29.379 82.1062 29.1341 82.3177 28.8922 82.5267L28.8918 82.527L28.8916 82.5272C28.7615 82.6395 28.6322 82.7512 28.503 82.8605L27.3544 83.8374L25.3688 85.4982C25.3033 85.5452 25.2153 85.6147 25.107 85.7003C24.99 85.7928 24.8492 85.904 24.6875 86.0258C24.376 86.2798 24.1814 86.4165 24.084 86.4752C24.0062 86.5338 23.9283 86.5728 23.8699 86.5924C23.792 86.5924 23.7142 86.5533 23.6168 86.4752C23.5 86.3775 23.3832 86.2602 23.2275 86.0648H23.1691L22.9744 86.2211L22.955 86.2993C23.1107 86.4556 23.3638 86.7292 23.6752 87.1004L23.7708 87.2176C24.0754 87.5911 24.3144 87.8842 24.4734 88.0969H24.5318L24.7264 87.9406L24.7459 87.8624C24.6096 87.7061 24.4928 87.5693 24.4344 87.4521C24.376 87.3544 24.3371 87.2567 24.3371 87.1981C24.3371 87.1395 24.376 87.0613 24.4539 86.9832C24.5318 86.8855 24.7264 86.7096 25.0574 86.4165C25.1764 86.312 25.2812 86.2189 25.3707 86.1394L25.371 86.1391L25.3725 86.1377C25.5163 86.01 25.6204 85.9175 25.6803 85.8694L28.9312 83.1535C28.8728 83.6225 28.795 84.1109 28.6782 84.5994L27.88 88.6049L27.2571 91.3989C27.4135 91.5385 27.5855 91.7404 27.7869 91.9768C27.811 92.0052 27.8356 92.034 27.8606 92.0633C27.9207 92.1357 28.0255 92.2679 28.1703 92.4505C28.2597 92.5634 28.3645 92.6956 28.4835 92.8448H28.5419L28.7366 92.6885L28.756 92.6104C28.5614 92.3954 28.4446 92.2391 28.4056 92.1414C28.3278 92.0242 28.3278 91.9265 28.3472 91.8093C28.3667 91.7116 28.464 91.5943 28.6003 91.4771L31.9875 88.644C32.1237 88.5267 32.3379 88.3509 32.6493 88.1164C32.9608 87.8624 33.1749 87.7061 33.2723 87.6475C33.3696 87.5889 33.4475 87.5498 33.5059 87.5498C33.5643 87.5498 33.6421 87.5889 33.7589 87.6866C33.8212 87.7365 33.8914 87.8105 33.9747 87.8982C34.0216 87.9477 34.0727 88.0015 34.1288 88.0578L34.1872 88.0773L34.3819 87.9015Z" fill="#4B5563"/>
<path d="M26.7315 81.4537L26.7899 81.4732C27.5491 81.102 28.0358 80.887 28.2499 80.8089L28.3083 80.7503C28.2888 80.125 28.1136 79.4802 27.7632 78.7964C27.3544 77.9953 26.7704 77.4482 26.0307 77.116C25.2715 76.7839 24.5512 76.8034 23.8699 77.1551C23.5195 77.331 23.247 77.5654 23.0718 77.839C22.916 78.132 22.8382 78.4251 22.8576 78.7573C22.8576 79.0699 22.9744 79.5388 23.1886 80.1445C23.3443 80.5939 23.4416 80.9066 23.4806 81.0824C23.5195 81.2778 23.5195 81.4341 23.5 81.61C23.4806 81.7663 23.4027 81.9226 23.2859 82.0594C23.1886 82.2157 23.0328 82.3329 22.8382 82.4306C22.6046 82.5674 22.3126 82.626 22.0206 82.626C21.7286 82.626 21.456 82.5283 21.2224 82.3524C20.9888 82.1571 20.7942 81.9226 20.6579 81.649C20.4827 81.3169 20.4048 80.9847 20.4048 80.633C20.4243 80.2618 20.4632 80.0664 20.5606 79.9882C20.6579 79.9296 20.8915 79.7928 21.2808 79.5975L21.3003 79.5388L21.164 79.2848L21.1056 79.2653C20.5411 79.5193 20.0934 79.6952 19.7624 79.7733L19.7235 79.8319C19.7235 80.1836 19.7819 80.5353 19.8792 80.9066C19.9766 81.2778 20.0934 81.5904 20.2491 81.8835C20.5995 82.5869 21.0862 83.0558 21.6896 83.2708C22.2931 83.4857 22.8966 83.4466 23.5195 83.1535C23.7336 83.0363 23.9283 82.88 24.084 82.7237C24.2398 82.5478 24.3566 82.372 24.4344 82.1766C24.5123 81.9812 24.5512 81.7663 24.5318 81.5514C24.5318 81.3169 24.5123 81.102 24.4539 80.9066C24.3955 80.6916 24.3176 80.4181 24.2008 80.0664C24.084 79.7147 24.0062 79.4411 23.9672 79.2458C23.9283 79.0504 23.9283 78.855 23.9672 78.6791C23.9867 78.5033 24.0646 78.3274 24.1814 78.1907C24.2982 78.0343 24.4734 77.8976 24.6875 77.7803C24.999 77.6436 25.3104 77.5654 25.6414 77.6045C25.9528 77.624 26.2448 77.7413 26.5174 77.9562C26.7899 78.1711 27.004 78.4447 27.1792 78.7768C27.3155 79.0308 27.4128 79.3044 27.4712 79.5779C27.5296 79.8515 27.5491 80.0859 27.5102 80.2813C27.4907 80.4767 27.4323 80.633 27.3544 80.6916C27.2766 80.7698 27.0235 80.9261 26.6342 81.141L26.6147 81.2192L26.7315 81.4537Z" fill="#4B5563"/>
<path d="M16.5505 71.821L16.5115 71.8796C16.7257 72.4462 17.0761 73.4427 17.5432 74.8691C17.991 76.2759 18.3024 77.2723 18.4776 77.878L18.536 77.9171C18.7396 77.8228 19.1194 77.6906 19.6957 77.49C19.836 77.4412 19.9879 77.3883 20.1518 77.331L20.1907 77.2919L20.1128 77.0379L20.0544 77.0183L19.5483 77.116C19.2174 77.1942 19.0227 77.2137 18.9643 77.1942C18.8864 77.1746 18.8086 77.0574 18.7112 76.8229C18.6929 76.7722 18.6734 76.7182 18.6528 76.6612C18.5864 76.4767 18.5084 76.2606 18.4192 76.0218L18.1662 75.2403C18.8303 75.0131 19.2486 74.8563 19.4303 74.7882C19.4829 74.7685 19.5157 74.7562 19.5288 74.7518L22.5656 73.7749L23.6558 73.4427C24.0256 73.3059 24.2787 73.2473 24.3955 73.2473C24.5123 73.2278 24.5902 73.2278 24.6291 73.2669C24.668 73.2864 24.7264 73.345 24.7848 73.4427C24.8377 73.5312 24.9066 73.716 25.006 73.9825L25.0379 74.068L25.0963 74.107L25.3494 74.0289L25.3688 73.9703C25.0574 73.1106 24.8822 72.6221 24.8432 72.5048C24.8332 72.4544 24.7868 72.2944 24.7093 72.0277L24.7092 72.0273C24.6368 71.7777 24.5372 71.4345 24.415 71.0004L24.3566 70.9808L24.1035 71.0785L24.084 71.1176C24.1814 71.4888 24.2398 71.7233 24.2398 71.821C24.2398 71.9382 24.2398 71.9968 24.2203 72.0555C24.1814 72.0945 24.123 72.1336 24.0062 72.1922C23.8894 72.2508 23.6363 72.3485 23.247 72.4658L22.2347 72.8175L19.1979 73.7944C19.0811 73.8335 18.6334 73.9703 17.8352 74.1852L17.5043 73.2082C17.4264 72.9738 17.368 72.7589 17.3291 72.5635C17.2902 72.3681 17.2707 72.2508 17.2902 72.2118C17.2902 72.1727 17.3291 72.1336 17.3875 72.0945C17.4459 72.0555 17.5822 71.9773 17.8352 71.8796L18.3024 71.6647L18.3219 71.6061L18.244 71.3521L18.2051 71.3325C17.4264 71.5865 16.8619 71.7428 16.5505 71.821Z" fill="#4B5563"/>
<path d="M16.1611 69.6326L16.2585 70.297L16.2974 70.336L16.5699 70.297L16.5894 70.2383C16.5798 70.1466 16.5701 70.062 16.5614 69.9851C16.5348 69.7511 16.5163 69.589 16.531 69.5154C16.531 69.4177 16.5505 69.3396 16.5894 69.3005C16.6283 69.2614 16.7062 69.2223 16.823 69.1832C16.9398 69.1442 17.1928 69.0855 17.6016 69.0074L18.6528 68.8315L21.1446 68.3821L22.2931 68.1868C22.663 68.1281 22.916 68.0891 23.0328 68.0891C23.1496 68.1086 23.2275 68.1281 23.2664 68.1477C23.3054 68.1868 23.3638 68.2454 23.4027 68.3626C23.4416 68.4603 23.5 68.6948 23.5779 69.0074L23.6168 69.0465L23.8699 69.0074L23.9088 68.9488C23.7142 68.05 23.6168 67.542 23.5974 67.4247C23.5881 67.3598 23.5745 67.2816 23.5586 67.1903C23.5409 67.0892 23.5205 66.972 23.5 66.8386C23.4434 66.3838 23.3971 66.0945 23.376 65.9629C23.3681 65.9136 23.3638 65.8865 23.3638 65.8812L23.3248 65.8421L23.0523 65.9007L23.0328 65.9398C23.0718 66.3306 23.0912 66.565 23.0912 66.6627C23.0718 66.7604 23.0523 66.8386 23.0134 66.8776C22.9939 66.9167 22.916 66.9558 22.7992 66.9949C22.6824 67.034 22.4294 67.0926 22.0206 67.1707L20.9694 67.3661L17.2318 68.0109C17.0553 68.0382 16.8978 68.0559 16.7657 68.0708C16.7085 68.0772 16.656 68.0831 16.6089 68.0891C16.4726 68.0891 16.3753 68.0695 16.3169 68.0109C16.2779 67.9523 16.2195 67.8546 16.1806 67.7374C16.1587 67.6606 16.1369 67.5653 16.1115 67.4549C16.0918 67.3688 16.0699 67.2735 16.0443 67.1707L16.0054 67.1317L15.7329 67.1707L15.7134 67.2293C15.8234 67.7938 15.9104 68.2041 15.9647 68.4603C15.9969 68.6121 16.0176 68.7098 16.0249 68.7534L16.0287 68.7807L16.0331 68.812C16.0547 68.9659 16.093 69.2394 16.1611 69.6326Z" fill="#4B5563"/>
<path d="M15.3046 59.1012L15.2462 59.1598C15.2961 59.6775 15.3176 60.5235 15.3471 61.6856L15.3471 61.6874C15.3521 61.8844 15.3573 62.0905 15.363 62.3056C15.3825 63.7905 15.3825 64.8456 15.363 65.4708L15.4214 65.5099C15.6745 65.4904 16.2585 65.4513 17.1345 65.4318L17.1734 65.3927L17.1734 65.1387L17.115 65.0996L16.6089 65.041C16.2779 65.0215 16.0833 64.9824 16.0249 64.9628C15.9665 64.9238 15.9275 64.7674 15.9081 64.533C15.8886 64.2985 15.8691 64.0054 15.8691 63.6733L15.8497 62.8526C16.7451 62.8136 17.2318 62.794 17.2902 62.794L20.4827 62.7354L21.6312 62.7159C22.0206 62.7159 22.2736 62.7159 22.3904 62.7549C22.5072 62.7745 22.5851 62.794 22.6046 62.8331C22.6435 62.8722 22.6824 62.9503 22.7019 63.0676C22.7214 63.1653 22.7408 63.3997 22.7603 63.7319L22.7992 63.7905L23.0718 63.771L23.1107 63.7319C23.0718 62.8136 23.0523 62.3056 23.0523 62.1883L23.0523 60.6252L23.0134 60.5861H22.7408L22.7214 60.6252C22.7019 61.016 22.6824 61.2505 22.663 61.3677C22.6435 61.4654 22.6046 61.524 22.5656 61.5631C22.5267 61.6022 22.4488 61.6217 22.332 61.6412C22.1958 61.6608 21.9427 61.6803 21.5339 61.6803L20.4632 61.7194L17.2707 61.778C17.2315 61.778 17.165 61.7764 17.0702 61.7741C16.8352 61.7684 16.4265 61.7585 15.8302 61.7585L15.8107 60.7229C15.8107 60.4689 15.8107 60.254 15.8302 60.0586C15.8497 59.8437 15.8691 59.7264 15.8886 59.6873C15.9275 59.6483 15.9665 59.6287 16.0249 59.6092C16.0669 59.5951 16.1696 59.581 16.3257 59.5597L16.3259 59.5596L16.3287 59.5592C16.3885 59.551 16.4561 59.5418 16.531 59.531L17.0177 59.4724L17.0761 59.4138L17.0761 59.1598L17.0177 59.1207C16.2001 59.1403 15.6355 59.1403 15.3046 59.1012Z" fill="#4B5563"/>
<path d="M15.1294 57.0105L15.1683 57.0496L15.4409 57.1082L15.4798 57.0691C15.4958 57.008 15.5108 56.9505 15.5248 56.8968L15.5257 56.8933C15.5962 56.6229 15.6421 56.447 15.6745 56.3657C15.7134 56.2876 15.7718 56.229 15.8107 56.1899C15.8497 56.1703 15.947 56.1508 16.0638 56.1703C16.1806 56.1703 16.4531 56.2094 16.8619 56.2876L17.9131 56.483L19.9766 56.8737C20.5411 56.991 20.9499 57.0496 21.2419 57.0887C21.5144 57.1082 21.7675 57.0887 21.9816 57.0301C22.2152 56.9714 22.4294 56.8542 22.663 56.6588C22.8771 56.483 23.0912 56.2094 23.2859 55.8382C23.4611 55.4865 23.5974 55.0566 23.6947 54.5486C23.7726 54.1578 23.8115 53.7671 23.792 53.3763C23.7726 52.9855 23.7142 52.6533 23.5974 52.3798C23.4806 52.1258 23.3248 51.8718 23.1107 51.6569C22.8966 51.4419 22.6046 51.2661 22.2542 51.1488C21.8843 51.0121 21.3782 50.8948 20.7163 50.7776L19.0811 50.4454L17.8742 50.211C17.485 50.1133 17.2512 50.0547 17.1734 50.0156C17.0955 49.9961 17.0371 49.957 17.0177 49.8984C16.9787 49.8397 16.9593 49.7811 16.9593 49.6639C16.9593 49.5662 16.9982 49.3317 17.0566 48.9996L17.0177 48.941L16.7646 48.9019L16.7062 48.941L16.6991 48.9924C16.6248 49.5337 16.5681 49.9458 16.5115 50.211C16.4531 50.5236 16.3558 50.9535 16.2195 51.4615L16.2585 51.5201L16.5115 51.5787L16.5699 51.5396C16.6478 51.1293 16.7257 50.8753 16.7841 50.7971C16.823 50.6995 16.9009 50.6604 16.9787 50.6408C17.0566 50.6213 17.3486 50.6408 17.8352 50.7385C18.3219 50.8167 18.7112 50.8948 18.9838 50.9535L20.6384 51.2661C21.2419 51.3833 21.7091 51.5005 22.04 51.6178C22.371 51.735 22.624 51.9109 22.7992 52.1258C22.955 52.3407 23.0718 52.6338 23.1107 53.005C23.1496 53.3567 23.1302 53.7475 23.0718 54.1383C22.9939 54.5095 22.8771 54.8222 22.7408 55.0957C22.6046 55.3692 22.4488 55.5842 22.2931 55.7209C22.1374 55.8382 21.9622 55.9359 21.7675 55.975C21.5534 56.014 21.3392 56.014 21.0667 55.9945C20.8442 55.9785 20.5309 55.9235 20.1162 55.8507L20.1134 55.8502C20.0209 55.834 19.9235 55.8169 19.8208 55.7991L18.1078 55.4669L16.8814 55.2129L16.816 55.1989C16.5774 55.1478 16.403 55.1104 16.2779 55.0566C16.1417 55.0175 16.0443 54.9589 16.0249 54.8808C15.9859 54.8222 15.9859 54.7245 16.0054 54.5877C16.0054 54.4844 16.0276 54.3476 16.0553 54.1774L16.0553 54.1768C16.0643 54.1219 16.0738 54.0634 16.0833 54.0015L16.0443 53.9624L15.7718 53.9038L15.7329 53.9429C15.6109 54.647 15.5366 55.1233 15.5009 55.3529C15.491 55.4164 15.484 55.4611 15.4798 55.4865C15.4603 55.6233 15.3435 56.1313 15.1294 57.0105Z" fill="#4B5563"/>
<path d="M19.8208 41.0668L19.7624 41.1059C19.5678 41.6725 19.1784 42.6494 18.6139 44.0562C18.0688 45.4044 17.6406 46.3814 17.3875 46.948L17.407 47.0261C17.66 47.1043 18.2051 47.2997 19.0227 47.6123L19.0811 47.5928L19.1784 47.3583L19.1395 47.2997L18.7112 47.0652C18.3998 46.9089 18.244 46.7917 18.2051 46.7331C18.1467 46.6744 18.1662 46.5377 18.244 46.3032C18.302 46.1286 18.3816 45.9324 18.4666 45.7226C18.4958 45.6506 18.5257 45.577 18.5555 45.5021L18.867 44.7401C19.704 45.0527 20.1518 45.209 20.2102 45.2286L23.1691 46.4204L24.2398 46.8698C24.5902 47.0066 24.8238 47.1238 24.9211 47.1825C25.0184 47.2411 25.0768 47.2997 25.0768 47.3583C25.0963 47.3974 25.0963 47.4755 25.0768 47.5928C25.0574 47.71 24.999 47.9249 24.8822 48.2376L24.8822 48.2962L25.1352 48.3939L25.1936 48.3743C25.5246 47.5146 25.6998 47.0261 25.7387 46.9089C25.7539 46.8708 25.7957 46.7763 25.863 46.6242L25.8631 46.6238L25.8633 46.6235C25.9686 46.3855 26.1362 46.0066 26.3616 45.4826L26.3422 45.4435L26.0891 45.3263L26.0502 45.3458C25.8944 45.717 25.7776 45.932 25.7192 46.0101C25.6608 46.0883 25.6024 46.1469 25.544 46.1664C25.5051 46.1664 25.4078 46.1664 25.291 46.1469C25.2395 46.1297 25.1617 46.1011 25.0574 46.0628C24.9249 46.0142 24.7496 45.9499 24.5318 45.8734L23.539 45.4826L20.58 44.2907C20.5184 44.2598 20.3699 44.1961 20.1318 44.0941L20.1315 44.094L20.1313 44.0939C19.9184 44.0027 19.6339 43.8807 19.2758 43.7241L19.6651 42.7667C19.7113 42.6554 19.7575 42.5529 19.8016 42.4551L19.8017 42.4548C19.8505 42.3467 19.8968 42.244 19.9376 42.1414C20.035 41.9656 20.0934 41.8679 20.1323 41.8483C20.1712 41.8288 20.2296 41.8093 20.288 41.8288C20.3464 41.8288 20.5216 41.8679 20.7747 41.946L21.2614 42.0828L21.3198 42.0633L21.4171 41.8093L21.3976 41.7506C20.6384 41.4576 20.1128 41.2231 19.8208 41.0668Z" fill="#4B5563"/>
<path d="M26.5174 31.2973L26.4395 31.3169C26.1415 31.7323 25.6182 32.388 24.8936 33.296L24.8904 33.3C24.7639 33.4584 24.6314 33.6245 24.4928 33.7983C23.5584 34.9316 22.8771 35.7522 22.4488 36.2211L22.4683 36.2798C22.6824 36.4361 23.1496 36.7878 23.831 37.3153H23.8894L24.0451 37.1199L24.0451 37.0613L23.6947 36.6901C23.4416 36.4556 23.3248 36.3188 23.3054 36.2407C23.2664 36.1821 23.3248 36.0453 23.4806 35.8499C23.6168 35.6545 23.792 35.42 24.0062 35.166L24.5123 34.5213C25.2326 35.0683 25.6219 35.3614 25.6608 35.381L28.1331 37.3935L29.0286 38.1164C29.34 38.3704 29.5152 38.5267 29.5931 38.6244C29.671 38.7221 29.7099 38.7807 29.7099 38.8394C29.7099 38.898 29.6904 38.9566 29.632 39.0738C29.5736 39.1715 29.4568 39.3474 29.2427 39.6209L29.2427 39.6795L29.4568 39.8554L29.5152 39.8358C29.8722 39.3787 30.1279 39.0466 30.2875 38.8395C30.3802 38.719 30.4405 38.6408 30.4691 38.6049C30.4983 38.5658 30.6005 38.4486 30.7709 38.2531C30.9412 38.0577 31.1796 37.7842 31.4813 37.4326L31.4813 37.3739L31.2672 37.1981H31.2088C30.9557 37.4912 30.7805 37.6866 30.7027 37.7452C30.6248 37.8038 30.5469 37.8233 30.4885 37.8233C30.4496 37.8233 30.3717 37.8038 30.2549 37.7452C30.2063 37.7061 30.1285 37.6476 30.0216 37.567L30.0214 37.5669C29.9143 37.4863 29.778 37.3837 29.6126 37.2567L28.7755 36.5924L26.3032 34.5994C26.2059 34.5213 25.836 34.2086 25.2131 33.6615L25.875 32.8605C25.9168 32.8132 25.9572 32.766 25.997 32.7195C26.1053 32.593 26.2088 32.472 26.3227 32.372C26.459 32.2157 26.5563 32.1375 26.5952 32.1375C26.6342 32.118 26.6926 32.1375 26.751 32.1571C26.8094 32.1766 26.9456 32.2548 27.1792 32.4111L27.6075 32.6846H27.6659L27.8216 32.4697L27.8216 32.4111C27.1792 31.9031 26.751 31.5318 26.5174 31.2973Z" fill="#4B5563"/>
<path d="M27.6464 29.9687L27.6464 30.0273L27.8216 30.2227H27.88L28.211 29.9687C28.3083 29.8905 28.3862 29.8515 28.4446 29.8319L28.4527 29.8292C28.4585 29.8272 28.464 29.8252 28.4695 29.8233C28.5146 29.8074 28.5477 29.7958 28.5808 29.8124C28.6198 29.8124 28.6587 29.8319 28.7366 29.871C28.795 29.9101 28.8923 29.9882 29.0091 30.1055C29.1259 30.2227 29.2816 30.379 29.4568 30.5744L30.3133 31.4927L31.676 32.9386C31.9096 33.1731 32.2211 33.5248 32.6104 33.9937C33.0192 34.4431 33.2139 34.6971 33.2139 34.7362C33.2139 34.7753 33.1749 34.912 33.0776 35.127L33.0971 35.2051L33.2139 35.3419H33.2723C33.5253 35.0683 33.7784 34.8143 34.0315 34.5799L35.1411 33.5639C35.9114 32.8459 36.5608 32.2667 37.0729 31.8099L37.1656 31.7272L37.1461 31.6686C36.9709 31.4732 36.7568 31.2192 36.5037 30.9066C36.2701 30.6135 36.0949 30.379 36.0171 30.2422L35.9587 30.2618L35.764 30.4376L35.7445 30.4963C35.7974 30.5493 35.8823 30.6986 36.0136 30.9296L36.056 31.0043C36.1447 31.1823 36.2169 31.3189 36.2672 31.4142L36.2673 31.4145L36.2679 31.4154L36.2681 31.4159C36.2947 31.4662 36.3151 31.5048 36.3285 31.5318C36.2312 31.7272 36.1144 31.9226 35.9781 32.0789C35.8224 32.2548 35.4331 32.626 34.7712 33.2317L34.0315 33.9156C33.7784 33.6615 33.389 33.2707 32.8635 32.7041C32.3768 32.1766 32.0459 31.8054 31.8512 31.5709C32.0574 31.3501 32.2345 31.1781 32.3756 31.041C32.4343 30.9839 32.4868 30.9329 32.5325 30.887C32.8051 30.633 33.0387 30.4376 33.2139 30.3009C33.3891 30.1641 33.5059 30.1055 33.5643 30.0859C33.6421 30.0859 33.6811 30.0859 33.7395 30.125C33.7699 30.1403 33.8477 30.2031 33.973 30.3043C34.0082 30.3328 34.0472 30.3643 34.0899 30.3986L34.3429 30.6135H34.4013L34.596 30.4376L34.596 30.379L33.7395 29.4998C33.6032 29.3532 33.4718 29.2067 33.3404 29.0601C33.209 28.9136 33.0776 28.7671 32.9413 28.6205H32.8829L32.6883 28.7768L32.6883 28.8354L32.9024 29.109C33.0015 29.2251 33.0586 29.313 33.0974 29.3728C33.1043 29.3834 33.1106 29.3932 33.1165 29.4021C33.136 29.4607 33.1555 29.5193 33.136 29.5584C33.136 29.5975 33.0581 29.7147 32.9024 29.8905C32.7467 30.0469 32.552 30.2422 32.2989 30.4767C32.0653 30.7112 31.7928 30.9456 31.4813 31.1996L30.7416 30.379L30.0603 29.6365L29.4958 28.9722C29.7878 28.6401 30.0408 28.3861 30.2549 28.1907C30.4107 28.0539 30.6443 27.8585 30.9557 27.6045C31.2867 27.3505 31.5592 27.1746 31.7928 27.0965C32.0264 27.2723 32.2405 27.4677 32.4547 27.6827C32.4644 27.6924 32.4741 27.7071 32.4839 27.7217C32.4936 27.7364 32.5033 27.751 32.5131 27.7608H32.5715L32.7661 27.5654L32.7661 27.5263C32.2795 26.9402 31.9485 26.4908 31.7928 26.1782H31.7344C31.0725 26.8229 30.2939 27.5654 29.4179 28.3665C29.3942 28.3885 29.3675 28.4132 29.338 28.4406C29.0523 28.7059 28.4932 29.225 27.6464 29.9687Z" fill="#4B5563"/>
<path d="M38.4504 23.814C38.2947 24.361 38.0221 25.2208 37.6133 26.3735L37.0683 25.3771L36.4648 24.2829C36.3285 24.0484 36.2312 23.8726 36.1923 23.7358C36.1339 23.599 36.1144 23.4818 36.1533 23.4232C36.1923 23.3646 36.2701 23.2864 36.3869 23.2082C36.4503 23.1574 36.5466 23.0983 36.6651 23.0255C36.7288 22.9864 36.7988 22.9434 36.8736 22.8956L36.8931 22.837L36.7568 22.6025H36.6984C36.1817 22.9061 35.8118 23.1197 35.5888 23.2484C35.4674 23.3185 35.3895 23.3634 35.3552 23.3841C35.2189 23.4623 34.9659 23.599 34.5765 23.7944L33.9536 24.107L33.9341 24.1657L34.0704 24.4001L34.1288 24.4197C34.4792 24.2438 34.6933 24.1461 34.7907 24.107C34.888 24.0875 34.9659 24.0875 35.0243 24.107C35.0632 24.1266 35.1216 24.1852 35.1995 24.2829C35.2773 24.3806 35.4136 24.5955 35.6083 24.9667L36.1339 25.8851L37.3797 28.093L37.9248 29.109C38.1195 29.4412 38.2168 29.6756 38.2557 29.7733C38.2947 29.8905 38.2947 29.9687 38.2752 30.0078C38.2752 30.0664 38.2168 30.125 38.1195 30.2032C38.0416 30.2813 37.8469 30.3986 37.5549 30.5744L37.5355 30.633L37.6717 30.8675L37.7301 30.887C38.3508 30.5071 38.7596 30.2691 38.9565 30.1544L38.9572 30.154C39.0131 30.1215 39.0518 30.0989 39.0733 30.0859C39.1602 30.0361 39.2629 29.9863 39.3864 29.9264C39.4566 29.8923 39.5337 29.8549 39.6184 29.8124C39.922 29.6491 40.1471 29.5344 40.2903 29.4614C40.4042 29.4033 40.4663 29.3717 40.4749 29.363L40.4944 29.3044L40.3581 29.0699H40.2997C40.1684 29.1285 40.0563 29.1816 39.9622 29.2261C39.8053 29.3004 39.6987 29.3508 39.6379 29.363C39.5405 29.3825 39.4627 29.3825 39.4043 29.363C39.3653 29.3435 39.3069 29.2848 39.2291 29.1871C39.1636 29.1214 39.0568 28.9451 38.8971 28.6815C38.8669 28.6317 38.8348 28.5787 38.8008 28.5228L38.2947 27.585L37.7301 26.5689C39.5136 26.9918 40.7399 27.2926 41.409 27.4568L41.4093 27.4569C41.6676 27.5202 41.8428 27.5632 41.9349 27.585C42.1917 27.6608 42.4837 27.7366 42.8109 27.8215C42.9053 27.8461 43.0027 27.8713 43.1029 27.8976C43.1871 27.8469 43.2649 27.7998 43.3364 27.7566C43.5953 27.6001 43.7706 27.4941 43.8621 27.4482C44.0568 27.331 44.2514 27.2333 44.4461 27.1551L44.4656 27.0965L44.3488 26.8816L44.2904 26.862C44.1152 26.9597 43.9984 26.9988 43.9205 26.9988C43.9011 26.9939 43.8622 26.9854 43.8039 26.9726L43.8037 26.9725C43.6285 26.9341 43.278 26.8571 42.7525 26.7252L38.392 25.6506L39.3459 22.8175C39.4821 22.4267 39.5989 22.0945 39.7157 21.8014C39.8325 21.5084 39.9299 21.3325 40.0272 21.2348C40.1051 21.1371 40.2997 21.0199 40.5917 20.844L40.6112 20.7854L40.4944 20.5705L40.4165 20.551C40.1743 20.6946 39.9881 20.8008 39.8615 20.873C39.7643 20.9284 39.7022 20.9638 39.6768 20.9808C39.3848 21.1371 39.1123 21.2739 38.8592 21.3911L38.8397 21.4693L39.0149 21.7819C39.0109 21.798 39.0061 21.8209 38.9999 21.85C38.9761 21.9619 38.9324 22.1672 38.8397 22.4462C38.7769 22.6857 38.698 22.9576 38.608 23.2673L38.6077 23.2683C38.5583 23.4385 38.5056 23.6201 38.4504 23.814Z" fill="#4B5563"/>
<path d="M44.8549 26.8816L44.9133 26.9011L45.0058 26.8668C45.3597 26.7357 45.7917 26.5757 46.2565 26.4322C46.6653 26.2954 46.9573 26.2172 47.152 26.1782L47.1714 26.1195L47.0936 25.8851L47.0352 25.8655C46.7432 25.9437 46.5485 25.9828 46.4512 26.0023C46.3538 26.0023 46.276 25.9828 46.237 25.9632C46.1981 25.9437 46.1592 25.8851 46.1202 25.8069C46.0922 25.7506 46.0338 25.6029 45.945 25.3785C45.9107 25.2916 45.8717 25.1931 45.8282 25.084C45.692 24.6737 45.5946 24.4001 45.5362 24.2438L44.232 20.2579L49.196 23.5013L50.7533 24.4978L51.2594 24.8104C51.7266 24.7518 52.0381 24.7323 52.2328 24.7323C52.1549 24.4978 52.077 24.2682 51.9992 24.0386C51.9213 23.8091 51.8434 23.5795 51.7656 23.345L51.2789 21.9187L50.4808 19.4568C50.4506 19.366 50.4153 19.2492 50.3721 19.1063L50.3718 19.1055L50.3717 19.1051C50.3313 18.9715 50.284 18.8152 50.2277 18.6361C50.1727 18.4153 50.1239 18.2444 50.0884 18.1199C50.061 18.0241 50.0415 17.9557 50.033 17.9132C50.0136 17.796 50.0136 17.7178 50.033 17.6592C50.033 17.6006 50.1109 17.542 50.2277 17.4638C50.3445 17.4052 50.5197 17.3466 50.7533 17.2684L50.7728 17.2098L50.6949 16.9753L50.6365 16.9363C50.6029 16.9485 50.5658 16.9623 50.5256 16.9772C50.3094 17.0574 49.9986 17.1727 49.6048 17.288C49.0792 17.4638 48.6704 17.581 48.3978 17.6592L48.3589 17.7178L48.4368 17.9523L48.4952 17.9914C48.5695 17.971 48.6368 17.9507 48.6987 17.9319C48.8151 17.8968 48.9123 17.8673 49.0013 17.8546C49.1181 17.8351 49.2154 17.8546 49.2738 17.8741C49.3322 17.8937 49.3712 17.9523 49.4296 18.0695C49.488 18.1672 49.5853 18.4212 49.7216 18.812L49.7508 18.8891C49.8895 19.2544 49.9771 19.4851 50.0136 19.6131L51.3178 23.6186C50.909 23.3841 50.4808 23.1301 50.072 22.8565L46.6264 20.6096L44.2709 18.9878C44.0568 19.0855 43.7648 19.1832 43.4144 19.3005C43.3804 19.3102 43.3344 19.3236 43.277 19.3403L43.2761 19.3405C43.1027 19.3909 42.8254 19.4715 42.4605 19.574L42.441 19.6326L42.5189 19.8866L42.5773 19.9062L42.6357 19.8894C42.8778 19.8198 43.053 19.7694 43.1613 19.7694C43.2781 19.7499 43.3754 19.7694 43.4728 19.8476C43.5701 19.9062 43.6285 20.0234 43.6869 20.1993L45.069 24.3806C45.0883 24.4674 45.1217 24.5781 45.1624 24.7126L45.1625 24.7129C45.2042 24.8507 45.2534 25.0135 45.3026 25.2012C45.3643 25.4077 45.4098 25.5705 45.4446 25.6954C45.4757 25.8069 45.4984 25.8884 45.5168 25.9437C45.5362 26.0609 45.5362 26.1391 45.5168 26.1977C45.4973 26.2563 45.4194 26.3149 45.3026 26.3735C45.1858 26.4322 45.0106 26.5103 44.7965 26.5885L44.777 26.6276L44.8549 26.8816Z" fill="#4B5563"/>
<path fill-rule="evenodd" clip-rule="evenodd" d="M53.5565 18.8902C53.4202 19.3786 53.3813 19.8866 53.4202 20.4337C53.4592 20.844 53.5565 21.313 53.7512 21.821C53.9458 22.329 54.2378 22.7589 54.6271 23.1301C54.997 23.4818 55.4447 23.7553 55.9509 23.9116C56.4765 24.0875 57.0215 24.1461 57.625 24.107C58.4621 24.0484 59.2018 23.814 59.8442 23.4036C60.4866 22.9933 60.9733 22.4462 61.2847 21.7624C61.5962 21.098 61.7325 20.336 61.6741 19.5349C61.5962 18.3626 61.1485 17.4638 60.3698 16.8581C59.5911 16.2329 58.5789 15.9593 57.333 16.0375C56.6711 16.0961 56.0677 16.2524 55.5615 16.5064C55.0359 16.7604 54.6077 17.0926 54.2573 17.5224C53.9069 17.9523 53.6733 18.4017 53.5565 18.8902ZM54.8607 21.4107C54.6661 20.9027 54.5687 20.4337 54.5298 19.9843C54.4519 18.9097 54.6661 18.0891 55.1333 17.5029C55.6005 16.9167 56.2818 16.5846 57.1578 16.5259C57.7613 16.4869 58.3063 16.5846 58.793 16.819C59.2991 17.0535 59.7079 17.4443 60.0194 18.0304C60.3114 18.5971 60.4866 19.2419 60.545 19.9843C60.5839 20.6487 60.5255 21.2739 60.3309 21.821C60.1362 22.3876 59.8247 22.8175 59.4159 23.091C58.9877 23.3841 58.501 23.5404 57.9365 23.5795C57.4498 23.6186 57.0215 23.5599 56.6322 23.4036C56.2429 23.2669 55.8925 23.0129 55.581 22.6612C55.2695 22.329 55.0359 21.8991 54.8607 21.4107Z" fill="#4B5563"/>
<path d="M63.4261 16.1352L63.3871 16.1547L63.3482 16.4283L63.3871 16.4869C63.7765 16.5455 64.0101 16.5846 64.1074 16.6236C64.1853 16.6627 64.2631 16.7018 64.2826 16.7409C64.3215 16.7995 64.341 16.8776 64.341 16.9949C64.341 17.1121 64.3215 17.3857 64.2631 17.796L64.1463 18.8511L63.8543 21.1762C63.7765 21.7819 63.6986 22.329 63.6207 22.7589L63.6013 22.8663C63.5361 23.2278 63.5005 23.4249 63.465 23.4427C63.4455 23.4623 63.3093 23.5209 63.0757 23.6186L63.0367 23.6576L62.9978 23.8335L63.0367 23.8921C63.4261 23.9116 63.7959 23.9312 64.1658 23.9703L65.7426 24.1852C66.8716 24.322 67.7671 24.4392 68.4484 24.5369L68.5068 24.5174C68.5263 24.2438 68.5847 23.9116 68.6626 23.5013C68.6998 23.3445 68.7313 23.2077 68.7582 23.0909C68.8017 22.9019 68.8332 22.7652 68.8572 22.6807L68.8378 22.6416L68.5652 22.6025L68.5068 22.6416C68.5068 22.6628 68.4839 22.7301 68.4474 22.8372L68.4472 22.8376L68.4471 22.8378C68.4164 22.9279 68.376 23.0462 68.3316 23.1887C68.2512 23.4039 68.18 23.5636 68.1308 23.6741C68.1085 23.7241 68.0907 23.764 68.0786 23.7944C67.8644 23.853 67.6503 23.8726 67.4167 23.8726L67.402 23.8712L67.3787 23.8692L67.3524 23.8669L67.2964 23.8621C67.0293 23.8394 66.5218 23.7962 65.7621 23.6967L64.6525 23.5599L64.7498 22.6221C64.7693 22.3876 64.8082 21.9578 64.8861 21.3716L65.1781 18.9683L65.3532 17.7374C65.3727 17.4638 65.4117 17.2684 65.4506 17.1317C65.4895 16.9753 65.5479 16.8972 65.6063 16.8581C65.6842 16.8386 65.7815 16.819 65.9178 16.819C66.0207 16.819 66.157 16.8302 66.3266 16.8441L66.3277 16.8441L66.328 16.8442C66.3825 16.8486 66.4404 16.8534 66.5018 16.8581L66.5407 16.819L66.5797 16.5455L66.5407 16.5064C66.1227 16.4707 65.7859 16.4391 65.5322 16.4152L65.5318 16.4152C65.2307 16.3869 65.0468 16.3696 64.9834 16.3696C64.8471 16.3501 64.3215 16.2719 63.4261 16.1352Z" fill="#4B5563"/>
<path fill-rule="evenodd" clip-rule="evenodd" d="M71.4463 19.7694C71.1348 20.1602 70.8818 20.6096 70.6871 21.1176C70.5314 21.5084 70.434 21.9773 70.3951 22.5244C70.3562 23.0519 70.434 23.5795 70.6287 24.068C70.8039 24.5564 71.0959 24.9863 71.5047 25.338C71.894 25.7092 72.3807 26.0023 72.9258 26.1977C73.7044 26.5103 74.4831 26.608 75.2423 26.5103C76.0015 26.4126 76.6634 26.1195 77.2474 25.6311C77.8119 25.1621 78.2402 24.5369 78.5322 23.7749C78.9604 22.6807 78.9409 21.6842 78.4932 20.7854C78.0649 19.9062 77.2474 19.2419 76.0988 18.7925C75.4564 18.558 74.8724 18.4408 74.2884 18.4603C73.7044 18.4603 73.1788 18.5971 72.6727 18.8315C72.186 19.066 71.7772 19.3786 71.4463 19.7694ZM71.5631 22.6025C71.6215 22.075 71.7188 21.6061 71.8746 21.1762C72.2639 20.1797 72.7895 19.5154 73.4708 19.1832C74.1522 18.8315 74.9114 18.8315 75.729 19.1442C76.2935 19.3591 76.7412 19.6717 77.0916 20.1016C77.442 20.5314 77.6367 21.059 77.6756 21.7038C77.7146 22.3485 77.5978 23.0129 77.3252 23.6967C77.0916 24.3415 76.7607 24.8691 76.3519 25.2794C75.9431 25.7092 75.4759 25.9632 74.9698 26.0414C74.4636 26.1391 73.9575 26.0805 73.4319 25.8655C72.9842 25.7092 72.6143 25.4748 72.3223 25.1621C72.0498 24.8691 71.8356 24.4978 71.6994 24.0484C71.5631 23.6186 71.5242 23.1301 71.5631 22.6025Z" fill="#4B5563"/>
<path d="M85.7932 29.7147L85.8711 29.5779L85.8516 29.4998C85.7094 29.4205 85.5833 29.3477 85.4706 29.2826L85.4692 29.2818L85.4688 29.2815C85.3045 29.1866 85.1687 29.1082 85.0535 29.0504C84.7615 28.855 84.3721 28.601 83.8855 28.2884L83.6129 28.093L83.5351 28.1125L83.4183 28.3274L83.4377 28.3861C83.8271 28.6401 84.0801 28.8159 84.1969 28.9331C84.2943 29.0308 84.3527 29.109 84.3527 29.1871C84.3332 29.2848 84.2553 29.4412 84.0996 29.6756L83.7881 30.1836C83.5935 30.4963 83.4572 30.6916 83.3599 30.7698C83.1263 30.7503 82.8732 30.6916 82.5617 30.5744C82.2697 30.4572 81.9972 30.3204 81.7441 30.1641C81.1407 29.7929 80.7124 29.3239 80.4399 28.7768C80.1673 28.2297 80.07 27.624 80.1284 26.9988C80.2063 26.354 80.4009 25.7483 80.7708 25.1817C81.1017 24.6346 81.53 24.2047 82.0361 23.8921C82.5423 23.599 83.0873 23.4427 83.6713 23.4818C84.2553 23.5209 84.8199 23.7163 85.3844 24.068C85.6569 24.2438 85.8905 24.4197 86.1047 24.615C86.2993 24.7909 86.494 25.0058 86.6497 25.2403C86.8249 25.4943 86.9223 25.6506 86.9612 25.7288C86.9637 25.7389 86.9662 25.7486 86.9687 25.7581C86.985 25.8217 86.9976 25.8706 86.9807 25.9046C86.9807 25.9328 86.9503 25.9914 86.9042 26.0805C86.8864 26.115 86.8661 26.1541 86.8444 26.1977L86.5524 26.7057L86.5719 26.7643L86.786 26.9011L86.8444 26.8816C87.3311 26.2759 87.662 25.8851 87.8567 25.7092L87.8567 25.6311C87.3505 24.9277 86.6497 24.2829 85.7932 23.7553C84.6057 23.0129 83.4572 22.7393 82.3281 22.9152C81.1991 23.0715 80.3036 23.6967 79.6417 24.7714C79.194 25.4748 78.9799 26.1782 78.9799 26.8816C78.9993 27.585 79.194 28.2493 79.5834 28.855C79.9727 29.4607 80.5177 29.9687 81.1991 30.3986C82.0945 30.9456 83.0679 31.3364 84.1191 31.5318L84.1775 31.5123C84.3332 31.1801 84.5084 30.8675 84.6641 30.6135C84.8199 30.3595 84.9561 30.1641 85.0729 30.0078C85.1897 29.8515 85.2676 29.7733 85.2871 29.7538C85.2936 29.7538 85.3022 29.7516 85.3137 29.7487C85.3368 29.7429 85.3714 29.7342 85.4233 29.7342L85.7348 29.7538L85.7932 29.7147Z" fill="#4B5563"/>
<path d="M90.4457 27.5263L89.9591 27.0379H89.9006L89.706 27.2333L89.706 27.2919C89.9785 27.5654 90.1537 27.7413 90.2121 27.839C90.2167 27.8482 90.2213 27.8571 90.2258 27.8658C90.2293 27.8725 90.2328 27.8791 90.2361 27.8855C90.2656 27.9416 90.29 27.988 90.29 28.0344C90.29 28.093 90.2511 28.1711 90.1732 28.2688C90.1148 28.3665 89.9396 28.5619 89.6476 28.8745L88.9273 29.6561L87.1948 31.4927L86.4161 32.3329C86.1436 32.626 85.9489 32.8018 85.8711 32.8605C85.7737 32.9191 85.6959 32.9582 85.6375 32.9582C85.5985 32.9582 85.5207 32.9191 85.4233 32.8605C85.326 32.8018 85.1508 32.6651 84.8783 32.4501L84.8393 32.4306L84.6447 32.6455L84.6447 32.7041C85.0284 33.0358 85.3187 33.2913 85.5189 33.4674L85.5192 33.4677C85.6844 33.6131 85.7881 33.7044 85.8321 33.7397C85.8732 33.7809 85.9246 33.8291 85.9835 33.8842L85.9839 33.8846L85.9848 33.8854L85.985 33.8855L85.9857 33.8862C86.066 33.9613 86.16 34.0493 86.2604 34.15L86.9417 34.8339H87.0001L87.1948 34.6385L87.1753 34.5799C86.9028 34.3063 86.7471 34.1305 86.6887 34.0328C86.6303 33.9546 86.6108 33.8765 86.6108 33.8179C86.6108 33.7788 86.6497 33.7006 86.7276 33.6029C86.786 33.5052 86.9612 33.2903 87.2337 32.9972L87.9735 32.2157L89.6865 30.3595L90.5625 29.4607C90.7377 29.2653 90.8934 29.1285 91.0103 29.0308C91.127 28.9331 91.2049 28.8941 91.2828 28.9136C91.3606 28.9136 91.458 28.9722 91.5553 29.0504C91.6721 29.1285 91.8278 29.2653 92.003 29.4216H92.0614L92.2561 29.2262L92.2561 29.1676C91.8722 28.8358 91.5818 28.5802 91.3816 28.4041L91.3814 28.4039L91.3811 28.4036L91.3808 28.4033C91.216 28.2584 91.1126 28.1673 91.0686 28.132C91.0337 28.097 90.9838 28.0494 90.9198 27.9884L90.9195 27.9881L90.9189 27.9875C90.8044 27.8784 90.645 27.7263 90.4457 27.5263Z" fill="#4B5563"/>
<path fill-rule="evenodd" clip-rule="evenodd" d="M95.0982 32.919L95.0982 32.9776L95.3124 33.3293C95.3708 33.4466 95.4097 33.5247 95.4292 33.5834C95.4486 33.6224 95.4486 33.681 95.4486 33.7201C95.4292 33.7592 95.4097 33.7983 95.3513 33.8569C95.3124 33.9155 95.215 33.9937 95.0788 34.0914C95.0106 34.15 94.9328 34.2086 94.8452 34.2745C94.7576 34.3405 94.6602 34.4138 94.5532 34.5017L93.5409 35.2246L91.9252 36.3969C91.7589 36.5253 91.5338 36.679 91.2553 36.8691C91.11 36.9683 90.9502 37.0774 90.7766 37.198C90.2705 37.5302 89.998 37.7061 89.9396 37.6865C89.9006 37.6865 89.7644 37.6279 89.5697 37.5107H89.4919L89.3556 37.6084L89.3361 37.6865C89.5404 37.9074 89.694 38.1027 89.8275 38.2726C89.8594 38.3132 89.8901 38.3523 89.9201 38.3899C89.9326 38.415 90.0014 38.5127 90.1212 38.683L90.1217 38.6837C90.1883 38.7783 90.2707 38.8954 90.3678 39.0347C90.6014 39.4059 90.7572 39.6209 90.8156 39.6795C91.0686 40.0312 91.3022 40.3047 91.5358 40.4806C91.7694 40.676 92.042 40.8323 92.334 40.9495C92.6454 41.0863 92.9374 41.1449 93.2489 41.1644C93.5604 41.184 93.8329 41.1449 94.086 41.0667C94.3196 40.969 94.5337 40.8714 94.7284 40.7346C94.9814 40.5587 95.1566 40.3438 95.2734 40.1289C95.4097 39.9139 95.4681 39.6795 95.4681 39.445C95.4876 39.2105 95.4486 38.9761 95.3513 38.7221C95.254 38.4876 95.0982 38.1945 94.9036 37.8428C95.4097 38.2922 95.8964 38.5267 96.3441 38.5658C96.7918 38.5853 97.1812 38.4876 97.5121 38.2531C97.7652 38.0578 97.9404 37.8233 98.0377 37.5497C98.135 37.2567 98.1545 36.9636 98.0572 36.6705C97.9793 36.3774 97.7846 36.0452 97.4926 35.6545C97.4148 35.5373 97.298 35.381 97.1229 35.1467L97.1228 35.1465L97.1225 35.1462C96.5776 34.4625 96.2662 34.0718 96.1884 33.9546C95.9937 33.681 95.7212 33.2903 95.3708 32.7627H95.3124L95.0982 32.919ZM93.9987 36.3528C93.9756 36.3145 93.9529 36.277 93.9302 36.2406L94.7284 35.6545L94.7714 35.624C95.4106 35.1711 95.8638 34.85 96.1494 34.6971C96.3441 34.8729 96.5388 35.0878 96.7334 35.3809C96.9865 35.7131 97.1228 36.0062 97.2006 36.2602C97.259 36.5142 97.2396 36.7486 97.1422 36.944C97.0644 37.1394 96.9086 37.3348 96.675 37.4911C96.3052 37.7647 95.9158 37.8624 95.5265 37.7842C95.1372 37.7061 94.7089 37.3544 94.2612 36.7486C94.1566 36.6138 94.075 36.4788 93.9987 36.3528ZM91.127 39.3278C90.9519 39.0933 90.8156 38.8393 90.6988 38.5853L92.042 37.5888L93.5604 36.4946C93.6364 36.6036 93.7124 36.6943 93.7816 36.777C93.8365 36.8426 93.8872 36.9031 93.9302 36.9636C94.4948 37.7647 94.7478 38.3704 94.67 38.8002C94.5921 39.2301 94.339 39.5818 93.9108 39.8944C93.6382 40.1093 93.3268 40.2266 92.9958 40.3047C92.6844 40.3633 92.3729 40.3243 92.0614 40.168C91.75 40.0312 91.4385 39.7576 91.127 39.3278Z" fill="#4B5563"/>
<path fill-rule="evenodd" clip-rule="evenodd" d="M93.2294 42.7862L93.21 42.8448C93.3852 43.216 93.5604 43.5873 93.6966 43.9585C93.8329 44.2711 93.9886 44.6619 94.1249 45.1113L94.1833 45.1308L94.4558 45.0331L94.4753 44.955C94.3196 44.6033 94.2612 44.3493 94.2612 44.2516C94.2612 44.1343 94.3001 44.0757 94.3974 44.0367C94.4948 43.9976 94.6894 43.978 94.962 43.978L96.4804 43.9976L97.6678 46.9284L96.383 48.1789C96.2662 48.2766 96.1884 48.3352 96.1105 48.3743C96.0132 48.3938 95.9353 48.3743 95.8769 48.2961C95.8185 48.218 95.7017 47.9835 95.546 47.6123L95.4876 47.5732L95.215 47.6904L95.1956 47.749C95.3579 48.0999 95.5122 48.4508 95.6687 48.8068L95.6689 48.8072C95.7564 49.0062 95.8446 49.2067 95.9353 49.4098C96.0332 49.639 96.1174 49.9094 96.2108 50.2094C96.2289 50.2674 96.2473 50.3266 96.2662 50.3868L96.3246 50.4063L96.5972 50.3086L96.6166 50.25L96.5999 50.2039C96.5305 50.0128 96.4804 49.8745 96.4804 49.8202C96.4804 49.742 96.4998 49.6834 96.5193 49.6248C96.5387 49.5662 96.6361 49.4294 96.8308 49.234C97.006 49.0386 97.1812 48.8432 97.3369 48.6869L97.9014 48.1203L102.126 43.9194L101.989 43.5873C101.629 43.5873 101.269 43.5824 100.909 43.5775L100.908 43.5775C100.548 43.5726 100.189 43.5677 99.8286 43.5677L96.1494 43.4505L94.7868 43.3723C94.339 43.3528 94.086 43.3333 93.9886 43.2942C93.9108 43.2746 93.8329 43.2356 93.794 43.1574C93.7356 43.0988 93.6577 42.9425 93.5604 42.708L93.502 42.6689L93.2294 42.7862ZM98.0377 46.5572L96.9865 43.9976L100.588 44.0562L98.0377 46.5572Z" fill="#4B5563"/>
<path d="M96.5582 51.0511L96.5193 51.1097C96.5972 51.52 96.675 51.989 96.7529 52.5165C96.8113 52.9268 96.8308 53.2395 96.8308 53.4349L96.8892 53.4739L97.1422 53.4349L97.1812 53.3762C97.1422 53.0832 97.1228 52.8878 97.1422 52.7901C97.1617 52.6924 97.1812 52.6142 97.2201 52.5751C97.2396 52.5556 97.298 52.5165 97.3953 52.497C97.4732 52.4579 97.7262 52.3993 98.1545 52.3407C98.3534 52.3044 98.5228 52.2765 98.6649 52.2532L98.6653 52.2531L98.6656 52.2531L98.6661 52.253C98.8294 52.2261 98.9563 52.2052 99.05 52.1844L103.196 51.6177L99.1278 55.9163L97.882 57.2645L97.4732 57.6943C97.4569 58.0861 97.427 58.3688 97.4063 58.5652C97.4022 58.6038 97.3985 58.6391 97.3953 58.6713L98.8553 58.4368L100.335 58.2219L102.924 57.8702C102.977 57.8642 103.039 57.8565 103.111 57.8475L103.112 57.8474C103.278 57.8268 103.496 57.7997 103.78 57.7725C103.897 57.7607 104.002 57.7508 104.094 57.742L104.097 57.7417L104.1 57.7415C104.31 57.7214 104.453 57.7079 104.52 57.6943C104.637 57.6943 104.715 57.7139 104.773 57.7334C104.832 57.7529 104.89 57.8311 104.929 57.9679C104.968 58.0851 105.007 58.261 105.046 58.515L105.085 58.5345L105.338 58.515L105.377 58.4563C105.343 58.2693 105.294 57.9638 105.231 57.5656L105.201 57.3817C105.153 57.0402 105.119 56.7519 105.092 56.5123L105.091 56.5104L105.091 56.5087L105.091 56.5085L105.091 56.507L105.091 56.506L105.091 56.5057C105.074 56.3641 105.06 56.2397 105.046 56.1312L105.007 56.0921L104.754 56.1312L104.715 56.1898L104.721 56.2549L104.721 56.2551C104.738 56.4243 104.754 56.5765 104.754 56.6978C104.754 56.8151 104.734 56.9128 104.695 56.9519C104.656 57.0105 104.598 57.0495 104.481 57.0886C104.423 57.0984 104.325 57.1179 104.192 57.1448L104.191 57.145L104.19 57.1452C104.056 57.172 103.886 57.206 103.683 57.2449C103.255 57.3231 102.982 57.3622 102.846 57.3817L98.6606 57.9679C98.8832 57.6849 99.1284 57.4133 99.3789 57.1358L99.5155 56.9842L99.5522 56.9433L99.5892 56.9021L99.6145 56.8737L102.457 53.9038L104.462 51.8717C104.403 51.6373 104.345 51.3442 104.306 50.973C104.282 50.8763 104.265 50.7125 104.242 50.4862L104.242 50.4855L104.242 50.4841L104.242 50.4815C104.228 50.3427 104.211 50.1805 104.189 49.996L104.131 49.9569L103.878 49.996L103.839 50.0351C103.878 50.3086 103.897 50.5236 103.878 50.6408C103.878 50.758 103.839 50.8557 103.761 50.9339C103.683 51.012 103.547 51.0511 103.352 51.0902L98.9721 51.6959L98.8939 51.7058C98.7276 51.727 98.4666 51.7603 98.135 51.7936C97.9587 51.8104 97.8114 51.8273 97.6915 51.841C97.5333 51.8591 97.4228 51.8717 97.3564 51.8717C97.259 51.8717 97.1617 51.8522 97.1033 51.8327C97.0644 51.7936 97.006 51.7154 96.967 51.5787C96.9281 51.4614 96.8892 51.2856 96.8502 51.0706L96.8113 51.0316L96.5582 51.0511Z" fill="#4B5563"/>
<path fill-rule="evenodd" clip-rule="evenodd" d="M105.454 60.6447L105.416 60.6056L105.143 60.5861L105.104 60.6252L105.046 61.0355C105.023 61.1041 105.007 61.1661 104.993 61.2174C104.984 61.2537 104.976 61.2847 104.968 61.309C104.948 61.3481 104.909 61.3872 104.89 61.4067C104.851 61.4263 104.793 61.4458 104.734 61.4653C104.703 61.4653 104.666 61.4685 104.621 61.4722C104.554 61.4778 104.469 61.4849 104.364 61.4849C104.267 61.474 104.157 61.4692 104.033 61.4637C103.933 61.4593 103.823 61.4545 103.702 61.4458L102.457 61.3676L100.452 61.2113C100.14 61.1918 99.6729 61.1527 99.0694 61.0941C98.4465 61.0355 98.135 60.9769 98.1156 60.9573C98.1058 60.9378 98.0864 60.894 98.0573 60.8283L98.0302 60.7671C98.0053 60.7109 97.9753 60.6438 97.9404 60.5665L97.882 60.5275L97.7068 60.5079L97.6484 60.547C97.6678 60.8987 97.6484 61.2113 97.6289 61.4653C97.6289 61.5136 97.6215 61.5992 97.6112 61.7175L97.6111 61.7184C97.6048 61.7913 97.5974 61.8767 97.59 61.9733C97.5121 62.7549 97.4732 63.2825 97.4537 63.5755C97.4148 63.9859 97.4342 64.3962 97.4732 64.8065C97.5316 65.2168 97.6484 65.6271 97.8625 66.0374C98.0572 66.4673 98.3492 66.8385 98.6996 67.1902C99.0694 67.5224 99.4782 67.7959 99.9454 67.9913C100.413 68.2062 100.899 68.3235 101.386 68.3626C101.892 68.3821 102.379 68.3235 102.826 68.1672C103.294 68.0109 103.702 67.7764 104.072 67.4247C104.423 67.0925 104.695 66.7018 104.851 66.2524C105.026 65.7834 105.143 65.1973 105.182 64.4743L105.318 61.9343C105.338 61.6998 105.377 61.2699 105.454 60.6447ZM97.9404 63.3801C97.9793 62.9112 98.0377 62.4814 98.135 62.1101C98.6801 62.1297 99.0889 62.1492 99.4004 62.1687L101.016 62.2664L102.729 62.3837C103.488 62.4423 104.15 62.5009 104.754 62.579C104.793 63.0284 104.793 63.4974 104.754 63.9859C104.676 65.1582 104.325 65.9984 103.722 66.5064C103.118 67.0144 102.301 67.2488 101.269 67.1707C100.568 67.1121 99.9454 66.9558 99.4198 66.6627C98.8748 66.3696 98.4854 65.9593 98.2324 65.4513C97.9793 64.9237 97.882 64.2399 97.9404 63.3801Z" fill="#4B5563"/>
<path d="M104.306 71.1762L104.267 71.1371L104.014 71.0394L103.956 71.0785C103.839 71.4497 103.741 71.6646 103.683 71.7428C103.625 71.8405 103.586 71.8796 103.527 71.8991C103.488 71.9186 103.391 71.9186 103.274 71.8991C103.157 71.8796 102.904 71.8209 102.496 71.6842L101.483 71.3715L99.4782 70.7268C98.9332 70.5509 98.5244 70.4337 98.2518 70.3751C97.9793 70.3164 97.7262 70.2969 97.4926 70.336C97.2785 70.3555 97.0449 70.4532 96.7918 70.6095C96.5388 70.7658 96.3052 71.0198 96.0716 71.352C95.838 71.6842 95.6628 72.0945 95.507 72.583C95.3708 72.9737 95.2929 73.345 95.254 73.7357C95.2345 74.1265 95.254 74.4587 95.3318 74.7518C95.4097 75.0253 95.546 75.2793 95.7212 75.5333C95.9158 75.7678 96.1689 75.9827 96.5193 76.139C96.8697 76.3149 97.3564 76.4907 97.9988 76.7057L99.5756 77.2137L100.744 77.6045C100.844 77.6416 100.934 77.6744 101.014 77.7033L101.014 77.7034C101.227 77.7808 101.363 77.83 101.405 77.8585L101.416 77.8663L101.427 77.8744C101.494 77.9245 101.544 77.9616 101.561 78.0148C101.581 78.0734 101.6 78.1515 101.581 78.2492C101.561 78.3469 101.503 78.5619 101.405 78.894L101.444 78.9526L101.697 79.0308L101.756 79.0113C101.892 78.4446 102.009 78.0343 102.106 77.7608C102.186 77.5047 102.305 77.1962 102.452 76.8138C102.485 76.7293 102.519 76.6413 102.554 76.5494L102.515 76.4907L102.262 76.4126L102.204 76.4517C102.067 76.8424 101.97 77.0769 101.912 77.1551C101.853 77.2332 101.775 77.2723 101.697 77.2918C101.6 77.2918 101.328 77.2332 100.86 77.0769C100.374 76.9401 100.004 76.8229 99.7313 76.7252L98.135 76.2172C97.551 76.0218 97.1033 75.846 96.7918 75.6896C96.4804 75.5333 96.2468 75.3379 96.1105 75.1035C95.9548 74.8495 95.8769 74.5564 95.8964 74.1851C95.8964 73.8334 95.9548 73.4622 96.0716 73.0714C96.1884 72.7197 96.3441 72.4071 96.5193 72.1531C96.675 71.8991 96.8502 71.7037 97.0254 71.606C97.2201 71.4888 97.3953 71.4302 97.59 71.4106C97.8041 71.3911 98.0377 71.4106 98.2908 71.4692C98.5438 71.5279 98.9526 71.6451 99.4977 71.8209L101.152 72.368L102.359 72.7588C102.593 72.837 102.788 72.9151 102.924 72.9737C103.06 73.0323 103.138 73.1105 103.157 73.1691C103.177 73.2473 103.177 73.345 103.138 73.4817C103.124 73.577 103.092 73.7008 103.054 73.8464C103.037 73.9097 103.019 73.9773 103.002 74.0484L103.021 74.107L103.274 74.1851L103.333 74.1656C103.586 73.2668 103.741 72.7783 103.78 72.6611C103.819 72.5243 103.994 72.0359 104.306 71.1762Z" fill="#4B5563"/>
<path d="M94.1249 77.1355L94.0665 77.1551C93.8718 77.5068 93.6382 77.9171 93.3462 78.386C93.1126 78.7377 92.9374 78.9917 92.8206 79.1285L92.8401 79.2066L93.0542 79.3434L93.1126 79.3239C93.2346 79.1249 93.3447 78.9859 93.4147 78.8974C93.4264 78.8827 93.4369 78.8693 93.4462 78.8574L93.4483 78.8547L93.4559 78.8449L93.463 78.8354C93.5409 78.7768 93.6188 78.7377 93.6577 78.7377C93.6966 78.7182 93.7745 78.7377 93.8524 78.7768C93.9283 78.792 94.0754 78.8787 94.3121 79.0181L94.3124 79.0183L94.3126 79.0184C94.3791 79.0576 94.4527 79.1009 94.5337 79.148C94.8107 79.3009 95.0187 79.4242 95.1648 79.5107L95.1651 79.5109L95.2226 79.545L95.2505 79.5614C95.2733 79.5748 95.2939 79.5868 95.3124 79.5974L98.8748 81.8248L92.9764 82.5087L91.1465 82.7432L90.5625 82.8213L90.562 82.8219C90.2313 83.1537 89.9979 83.388 89.8617 83.5052C90.0758 83.6322 90.285 83.7592 90.4943 83.8861C90.7036 84.0132 90.9129 84.1402 91.127 84.2672L92.4118 85.0488L94.6116 86.4165C94.7035 86.4742 94.8226 86.5523 94.9729 86.6509L94.9749 86.6522L94.9779 86.6542C95.0809 86.7217 95.1985 86.7988 95.3318 86.8854C95.5213 87.0197 95.6725 87.1219 95.7818 87.1958L95.782 87.1959C95.8634 87.251 95.9215 87.2902 95.9548 87.3153C96.0326 87.3934 96.091 87.452 96.1105 87.5107C96.1494 87.5693 96.13 87.667 96.091 87.7842C96.0827 87.8009 96.074 87.8189 96.0647 87.8379L96.0638 87.8398L96.0637 87.84L96.0626 87.8423L96.0622 87.8431C96.0069 87.9567 95.9335 88.1077 95.8185 88.2727L95.838 88.3313L96.0521 88.4681L96.13 88.4485C96.2273 88.2531 96.4025 87.9405 96.675 87.5107C96.967 87.0613 97.2006 86.7096 97.3758 86.4556L97.3564 86.3969L97.1422 86.2602L97.0838 86.2797C96.9888 86.4228 96.8937 86.5401 96.8196 86.6314C96.8027 86.6523 96.7868 86.6718 96.7724 86.69C96.6945 86.7877 96.6166 86.8463 96.5582 86.8659C96.4998 86.8854 96.422 86.8659 96.3052 86.8268C96.2131 86.7898 95.999 86.6654 95.6628 86.47L95.6044 86.436C95.3064 86.2629 95.0842 86.1278 94.9582 86.0511L94.9577 86.0508C94.9275 86.0325 94.9029 86.0175 94.8841 86.0062L91.2828 83.7787C91.75 83.681 92.2366 83.6029 92.7233 83.5638L96.8113 83.0949L99.6729 82.8018C99.7702 82.6064 99.9259 82.3329 100.121 82.0202C100.156 81.9581 100.215 81.8718 100.295 81.7558C100.391 81.6164 100.517 81.4342 100.666 81.1996L100.646 81.141L100.432 81.0042L100.374 81.0238C100.218 81.2582 100.101 81.4145 100.023 81.4927C99.9454 81.5904 99.8481 81.6295 99.7313 81.649C99.6145 81.649 99.4782 81.6099 99.3225 81.5122L95.5849 79.1871C95.4929 79.1294 95.3738 79.0512 95.2235 78.9526L95.2221 78.9517C95.1182 78.8836 94.9995 78.8058 94.8646 78.7182C94.7585 78.643 94.6644 78.5779 94.583 78.5215C94.4104 78.402 94.2946 78.3219 94.2417 78.2688C94.1444 78.2102 94.086 78.132 94.0665 78.0734C94.047 78.0148 94.047 77.9366 94.1054 77.7998C94.1638 77.6826 94.2417 77.5263 94.3585 77.3309L94.339 77.2723L94.1249 77.1355Z" fill="#4B5563"/>
<path d="M85.2871 92.3172L85.3065 92.3758L85.4233 92.4931L85.5012 92.4735C85.7737 92.1805 85.9879 91.9655 86.1436 91.8288C86.3967 91.5748 86.7276 91.2621 87.1559 90.8714L87.4089 90.6564L87.4089 90.5783L87.2337 90.4024H87.1753C86.8249 90.7346 86.5913 90.93 86.4551 91.0081C86.3383 91.0863 86.2409 91.1254 86.1631 91.1058C86.0852 91.0667 85.9489 90.9495 85.7543 90.7541L85.326 90.3047C85.0729 90.0507 84.9367 89.8749 84.8783 89.7772C84.9367 89.5622 85.0729 89.3082 85.2676 89.0542C85.4428 88.7807 85.6375 88.5462 85.8516 88.3508C86.3577 87.8624 86.9223 87.5497 87.5257 87.4325C88.1292 87.2957 88.7326 87.3348 89.3361 87.5693C89.9396 87.7842 90.4652 88.1359 90.9324 88.6048C91.3801 89.0738 91.711 89.5818 91.8862 90.1484C92.0614 90.715 92.0614 91.2621 91.8862 91.8288C91.711 92.3758 91.3801 92.8839 90.9129 93.3528C90.6793 93.5677 90.4457 93.7436 90.2121 93.8999C89.9785 94.0562 89.7254 94.1734 89.4529 94.2907C89.1804 94.3884 89.0052 94.447 88.9079 94.447C88.83 94.4665 88.7716 94.4665 88.7326 94.447C88.7229 94.4372 88.6937 94.4128 88.65 94.3762C88.6278 94.3577 88.6019 94.336 88.5729 94.3115L88.552 94.2938L88.5373 94.2814C88.519 94.2658 88.4997 94.2494 88.4796 94.232L88.0513 93.8413L87.9929 93.8217L87.8177 93.9976L87.8177 94.0562C88.2849 94.6814 88.5964 95.1113 88.7132 95.3262L88.7911 95.3458C89.6086 95.0331 90.3873 94.5251 91.127 93.8022C92.1198 92.8448 92.6844 91.8092 92.7817 90.676C92.879 89.5427 92.4897 88.5267 91.6137 87.6279C91.0492 87.0222 90.4068 86.6509 89.706 86.4751C89.0246 86.3188 88.3239 86.3579 87.6425 86.5728C86.9612 86.8073 86.3383 87.2176 85.7543 87.7647C84.9951 88.5071 84.3916 89.3473 83.9439 90.3047L83.9439 90.3829C84.2359 90.6173 84.4889 90.8518 84.7031 91.0667C84.7897 91.1624 84.8725 91.2503 84.948 91.3305L84.9482 91.3307C85.0422 91.4306 85.125 91.5184 85.1897 91.5943C85.1997 91.6077 85.2095 91.6207 85.2189 91.6332L85.2606 91.6885C85.337 91.7897 85.3844 91.8526 85.3844 91.8678C85.3844 91.8874 85.3844 91.9265 85.3649 92.0046L85.2871 92.3172Z" fill="#4B5563"/>
<path d="M37.7107 95.1699C38.5477 95.1699 39.2291 95.8343 39.2291 96.6549C39.2291 97.4755 38.5477 98.1594 37.7107 98.1594C36.8736 98.1594 36.1923 97.4755 36.1923 96.6549C36.1923 95.8343 36.8736 95.1699 37.7107 95.1699Z" fill="#4B5563"/>
<path d="M83.5934 96.6549C83.5934 95.8343 82.9121 95.1699 82.075 95.1699C81.238 95.1699 80.5566 95.8343 80.5566 96.6549C80.5566 97.4755 81.238 98.1594 82.075 98.1594C82.9121 98.1594 83.5934 97.4755 83.5934 96.6549Z" fill="#4B5563"/>
<path d="M65.9956 58.3391C65.8399 58.6908 64.886 59.4333 64.5356 59.6873C64.515 59.6833 64.4948 59.6795 64.475 59.6757C64.4638 59.6736 64.4527 59.6715 64.4418 59.6695L64.3655 59.6552C63.9713 59.5816 63.7472 59.5398 63.3871 59.3161C64.01 59.0425 64.5356 58.4759 64.8082 58.007C65.1002 58.2219 65.6063 58.3001 65.9956 58.3391Z" fill="#4B5563"/>
<path d="M64.3215 57.8116C63.8932 58.3978 63.2898 58.8081 62.8226 59.0816C61.7875 58.5539 62.0836 56.676 62.2129 55.8563C62.2368 55.7049 62.255 55.5895 62.258 55.5255C62.881 56.6588 63.718 57.3817 64.3215 57.8116Z" fill="#4B5563"/>
<path d="M63.465 54.0992C64.1268 55.4669 64.8471 56.7174 65.7231 57.9093C64.4578 57.8507 62.9394 55.8577 62.6084 54.9003C62.5111 54.6463 63.0367 54.0797 63.465 54.0992Z" fill="#4B5563"/>
<path d="M57.8196 54.7831L56.5933 56.0726L55.9509 55.6623L57.0994 53.6889C57.4498 53.8452 57.8196 54.2164 57.8196 54.7831Z" fill="#4B5563"/>
<path d="M74.2495 60.9769C74.4636 64.7284 73.7044 67.4443 70.2394 68.7924C68.7015 69.3982 66.7354 68.2258 66.2682 66.9558C66.3117 66.9478 66.3625 66.9431 66.4175 66.938C66.6326 66.9181 66.9112 66.8922 67.0663 66.6432C67.553 67.2098 68.098 67.2293 68.6626 66.7213C69.4801 67.3075 70.0836 67.0144 70.3367 66.7213C70.6871 67.034 71.31 67.2098 71.8161 66.8972C72.4196 66.6432 72.8284 65.4318 72.0692 64.8651C72.4211 64.6297 72.4589 64.1578 72.4921 63.7427C72.5085 63.5376 72.5239 63.3464 72.5753 63.2043H69.305C69.305 62.8452 69.3101 62.4737 69.3153 62.0992C69.342 60.1717 69.3698 58.167 68.7015 57.3817L68.5458 62.6572C68.1954 61.016 66.7159 60.1172 65.3922 59.8436C66.6575 59.1207 68.8377 55.1152 68.7988 52.9269C72.5753 54.7049 74.0937 57.9679 74.2495 60.9769Z" fill="#4B5563"/>
<path d="M68.0786 52.751C68.3224 54.5963 66.9212 56.9314 66.3487 57.8855C66.3271 57.9215 66.3067 57.9555 66.2876 57.9874C66.0735 57.7725 65.7815 57.3036 65.5868 56.8737C66.4239 55.8186 67.1052 54.0992 67.222 52.5361L68.0786 52.751Z" fill="#4B5563"/>
<path d="M65.5284 52.1844L66.4628 52.3993C66.4628 53.5326 65.8983 55.5255 65.2364 56.3853C65.121 56.1277 64.9653 55.8362 64.8008 55.5282L64.8005 55.5274C64.466 54.9011 64.0951 54.2066 63.9516 53.5912L65.509 52.1844H65.5284Z" fill="#4B5563"/>
<path fill-rule="evenodd" clip-rule="evenodd" d="M55.5031 52.0672C55.871 52.5371 56.1096 52.7043 56.4287 52.9279C56.4811 52.9646 56.5356 53.0028 56.5933 53.0441L55.0943 55.8186L56.6906 56.737L57.917 55.506C57.9365 59.2966 58.2868 60.1758 59.2602 60.9183C57.1772 61.778 55.1138 63.5169 53.5954 65.295L53.6538 61.3677C53.245 61.2114 52.5247 61.3872 52.3106 61.7389L52.3885 57.2645C51.6474 58.2932 51.6343 59.7706 51.625 60.814C51.6229 61.0588 51.6209 61.2798 51.6098 61.4654H49.1959L49.1959 62.8135C49.0899 62.8431 48.982 62.853 48.8762 62.8627C48.6324 62.885 48.3991 62.9064 48.2226 63.1652C47.7359 63.7319 47.9111 64.2594 48.3394 64.4744C47.6386 64.7088 47.9111 65.7053 48.3005 65.803C47.7015 65.8806 47.9463 66.5355 48.0642 66.851L48.0669 66.8581C46.7042 65.1778 46.5679 62.9894 46.5679 60.7229C46.8405 58.1047 48.4367 55.3692 50.9869 53.6107C52.5442 52.7119 53.7511 52.3212 55.5031 52.0672ZM54.6661 59.9609C55.0165 59.9609 55.3085 59.6873 55.3085 59.3161C55.3085 58.9644 55.0165 58.6713 54.6661 58.6713C54.2962 58.6713 53.9847 58.9644 53.9847 59.3161C53.9847 59.6873 54.2962 59.9609 54.6661 59.9609Z" fill="#4B5563"/>
<path d="M69.266 47.9054C70.3561 49.1168 71.8551 50.2305 72.9063 50.6604C73.7044 51.2661 72.1081 52.4579 70.726 52.9855C69.0519 52.1453 68.0786 51.7545 66.1903 51.227C66.7743 50.1133 66.8522 48.6283 66.7159 47.1629L66.723 47.1628C67.6935 47.1433 68.5669 47.1257 69.266 47.9054Z" fill="#4B5563"/>
<path d="M54.4215 48.2556C54.4338 49.1986 54.4472 50.228 55.0359 51.227C54.8538 51.2751 54.6754 51.3215 54.5007 51.367L54.5002 51.3671C52.9015 51.783 51.6114 52.1186 50.5586 52.9464C49.6437 52.9464 47.2882 50.9144 48.0085 50.5431C48.6439 50.2551 49.2685 49.7072 49.8937 49.1587C50.456 48.6654 51.0188 48.1716 51.5903 47.8663C52.7973 47.2215 53.4007 47.1824 54.3741 47.202C54.4122 47.5355 54.4168 47.8891 54.4215 48.2556Z" fill="#4B5563"/>
<path d="M60.5644 45.932L61.2458 46.6158L60.5644 47.2997L59.8636 46.6158L60.5644 45.932Z" fill="#4B5563"/>
<path d="M75.1449 47.7686C74.9308 48.1985 74.6972 48.3157 74.2689 48.5306C73.8601 48.6869 73.5487 48.2766 73.8017 48.0617L74.8529 47.202C75.2423 46.948 75.4953 47.2215 75.1449 47.7686Z" fill="#4B5563"/>
<path d="M74.5609 46.9284L73.4708 47.7491C73.1204 48.0422 72.6727 47.5537 73.0231 47.2606L74.1716 46.3618C74.5609 46.1469 74.9113 46.5572 74.5609 46.9284Z" fill="#4B5563"/>
<path d="M73.0036 45.2676L71.9135 46.0883C71.5436 46.4009 71.1153 45.8929 71.4657 45.5998L72.6143 44.701C73.0036 44.4861 73.354 44.9159 73.0036 45.2676Z" fill="#4B5563"/>
<path d="M73.8017 46.0883L72.7116 46.9284C72.3417 47.2215 71.9135 46.733 72.2639 46.4204L73.4124 45.5412C73.8017 45.3262 74.1521 45.7366 73.8017 46.0883Z" fill="#4B5563"/>
<path d="M70.7455 45.9124C70.6287 46.3618 70.9402 46.8698 71.5825 46.6744C71.2711 47.3583 72.1276 47.71 72.4196 47.5732C72.2444 48.0226 72.7311 48.6479 73.2372 48.3548C73.1568 48.8067 73.4217 48.8586 73.7248 48.9181C73.7886 48.9306 73.8542 48.9435 73.9185 48.9605C73.6265 49.2731 72.6337 49.5271 72.2055 49.4099C71.6158 49.114 71.1115 48.5535 70.6386 48.028C70.3621 47.7208 70.0963 47.4254 69.8305 47.202C69.5775 46.8307 69.4996 46.3618 69.6748 45.932C69.8892 45.7347 70.089 45.5374 70.2837 45.3452C70.7255 44.9091 71.1411 44.4989 71.6409 44.1735C71.8 44.6866 71.5215 44.9468 71.231 45.2183C71.0237 45.412 70.8103 45.6114 70.7455 45.9124Z" fill="#4B5563"/>
<path d="M52.9335 44.193L53.0698 46.225C51.8434 46.225 49.9941 47.8077 49.1959 48.5306C48.1447 48.0226 47.697 46.6158 47.6386 45.8929C47.7901 46.114 47.8831 46.1005 47.9728 46.0875C48.0099 46.0821 48.0465 46.0768 48.0863 46.0883C48.4173 45.971 48.5146 45.9124 48.6509 45.6193L48.6592 45.6508C48.7307 45.9223 48.7646 46.0506 49.1959 46.0883C49.2422 46.0728 49.2922 46.0604 49.3434 46.0477C49.5506 45.9963 49.7759 45.9405 49.8383 45.6584C49.9162 45.9906 49.9746 46.0492 50.3834 46.0687C50.6365 46.0492 50.8895 45.9515 50.9674 45.5803C51.1037 45.8929 51.2594 46.0296 51.6877 46.0687C51.9407 45.9906 52.2133 45.8147 52.2717 45.5412C52.2846 45.4743 52.2963 45.4097 52.3076 45.3474L52.3076 45.3471C52.3987 44.8454 52.4639 44.4862 52.9141 44.1735L52.9335 44.193Z" fill="#4B5563"/>
<path d="M51.9797 44.1539L51.9797 45.2676C51.8629 45.8147 51.3373 45.8147 51.201 45.209L51.201 44.1735C51.2205 43.5873 51.9018 43.6264 51.9797 44.1539Z" fill="#4B5563"/>
<path d="M50.7922 44.1539L50.7922 45.2676C50.6754 45.8147 50.1693 45.8147 50.0135 45.209L50.0135 44.1735C50.0525 43.5873 50.7338 43.6264 50.7922 44.1539Z" fill="#4B5563"/>
<path d="M49.6047 44.1539L49.6047 45.2676C49.4879 45.8147 48.9623 45.8147 48.8066 45.209L48.8066 44.1735C48.8455 43.5873 49.5269 43.6264 49.6047 44.1539Z" fill="#4B5563"/>
<path d="M48.3783 44.1344L48.3783 45.3653C48.2421 45.7756 47.7943 45.6975 47.6581 45.3067C47.6294 44.8744 47.6536 44.7715 47.7074 44.5435C47.7265 44.4624 47.7493 44.3654 47.7749 44.2321C47.8527 43.7631 48.2226 43.6264 48.3783 44.1344Z" fill="#4B5563"/>
<path d="M62.9588 41.8288C64.1852 43.1574 64.2047 44.2321 64.2047 46.225H65.7426C65.6258 43.6459 65.3143 42.9425 62.9588 41.8288Z" fill="#4B5563"/>
<path d="M58.2479 41.8288C57.0215 43.1574 56.9826 44.2321 57.0021 46.225H55.4642C55.581 43.6459 55.873 42.9425 58.2479 41.8288Z" fill="#4B5563"/>
<path d="M61.0706 41.0472C61.0706 41.4175 61.0683 41.7653 61.0662 42.0919C61.0545 43.9191 61.047 45.0794 61.4599 45.7756C61.6935 46.0492 61.9076 46.1273 62.2775 46.225H63.2508C63.2119 42.923 62.589 41.9851 61.0706 41.0472Z" fill="#4B5563"/>
<path d="M60.1362 41.0472C60.1362 41.3687 60.1375 41.6733 60.1388 41.9617C60.1472 43.8642 60.1525 45.063 59.7468 45.7756C59.5132 46.0492 59.2991 46.1273 58.9292 46.225H57.9559C58.0143 42.923 58.6178 41.9851 60.1362 41.0472Z" fill="#4B5563"/>
<path d="M73.4708 42.2977C72.7116 41.8679 70.8623 41.5357 69.305 42.6885L70.3561 44.0758L69.9084 44.4861L67.222 41.2035L67.6892 40.8323L68.8572 42.1414C70.1226 41.1254 70.4146 39.9726 70.2977 38.5267C71.3879 38.8589 73.1983 39.8358 73.4708 42.2977Z" fill="#4B5563"/>
<path d="M61.8492 69.7499C61.7519 70.0625 61.713 70.4142 62.0439 70.6682C61.5962 71.098 61.713 71.6842 62.0828 72.1336C61.6546 72.5244 61.6935 73.3255 62.0828 73.6772C61.6935 74.0093 61.6351 74.6736 62.1218 75.1621C61.9076 75.3575 61.8687 75.6311 61.8687 75.9241C61.0706 74.9277 61.0122 73.3255 61.0122 72.7784L61.0122 72.7554C61.0117 72.354 61.0099 70.5923 61.8492 69.7499Z" fill="#4B5563"/>
<path d="M59.046 69.7499C59.1239 70.082 59.1434 70.4142 58.8514 70.6682C59.2796 71.098 59.1434 71.6842 58.793 72.1336C59.2212 72.5244 59.2018 73.3255 58.793 73.6772C59.2018 74.0093 59.2407 74.6736 58.754 75.1621C58.9682 75.3575 59.085 75.6311 59.085 75.9046C59.8653 74.9495 59.8641 73.3967 59.8637 72.8166L59.8636 72.7784L59.8637 72.7562C59.8641 72.3724 59.866 70.6111 59.046 69.7499Z" fill="#4B5563"/>
<path d="M71.2905 66.5064C71.6604 66.5064 71.9524 66.2133 71.9524 65.8616C71.9524 65.5099 71.6604 65.1973 71.2905 65.1973C70.9402 65.1973 70.6287 65.5099 70.6287 65.8616C70.6287 66.2133 70.9402 66.5064 71.2905 66.5064Z" fill="#4B5563"/>
<path d="M69.5775 66.5064C69.9473 66.5064 70.2394 66.2133 70.2394 65.8616C70.2394 65.5099 69.9473 65.1973 69.5775 65.1973C69.2271 65.1973 68.9351 65.5099 68.9351 65.8616C68.9351 66.2133 69.2271 66.5064 69.5775 66.5064Z" fill="#4B5563"/>
<path d="M67.8839 66.5064C68.2538 66.5064 68.5458 66.2133 68.5458 65.8616C68.5458 65.5099 68.2538 65.1973 67.8839 65.1973C67.5335 65.1973 67.222 65.5099 67.222 65.8616C67.222 66.2133 67.5335 66.5064 67.8839 66.5064Z" fill="#4B5563"/>
<path d="M66.1319 66.5064C66.5018 66.5064 66.7938 66.2133 66.7938 65.8616C66.7938 65.5099 66.5018 65.1973 66.1319 65.1973C65.7815 65.1973 65.47 65.5099 65.47 65.8616C65.47 66.2133 65.7815 66.5064 66.1319 66.5064Z" fill="#4B5563"/>
<path d="M57.9948 70.4728C58.3647 70.4728 58.6567 70.1797 58.6567 69.828C58.6567 69.4763 58.3647 69.1832 57.9948 69.1832C57.6445 69.1832 57.3525 69.4763 57.3525 69.828C57.3525 70.1797 57.6445 70.4728 57.9948 70.4728Z" fill="#4B5563"/>
<path d="M62.9978 70.4923C63.3676 70.4923 63.6596 70.1992 63.6596 69.8475C63.6596 69.4958 63.3676 69.2028 62.9978 69.2028C62.6474 69.2028 62.3359 69.4958 62.3359 69.8475C62.3359 70.1992 62.6474 70.4923 62.9978 70.4923Z" fill="#4B5563"/>
<path d="M57.9948 71.9577C58.3647 71.9577 58.6567 71.6647 58.6567 71.313C58.6567 70.9613 58.3647 70.6682 57.9948 70.6682C57.6445 70.6682 57.3525 70.9613 57.3525 71.313C57.3525 71.6647 57.6445 71.9577 57.9948 71.9577Z" fill="#4B5563"/>
<path d="M62.9978 72.0164C63.3676 72.0164 63.6596 71.7233 63.6596 71.3716C63.6596 71.0003 63.3676 70.7073 62.9978 70.7073C62.6474 70.7073 62.3359 71.0003 62.3359 71.3716C62.3359 71.7233 62.6474 72.0164 62.9978 72.0164Z" fill="#4B5563"/>
<path d="M57.9948 73.5404C58.3647 73.5404 58.6567 73.2473 58.6567 72.8956C58.6567 72.5439 58.3647 72.2508 57.9948 72.2508C57.6445 72.2508 57.3525 72.5439 57.3525 72.8956C57.3525 73.2473 57.6445 73.5404 57.9948 73.5404Z" fill="#4B5563"/>
<path d="M62.9978 73.5209C63.3676 73.5209 63.6596 73.2278 63.6596 72.8761C63.6596 72.5244 63.3676 72.2313 62.9978 72.2313C62.6474 72.2313 62.3359 72.5244 62.3359 72.8761C62.3359 73.2278 62.6474 73.5209 62.9978 73.5209Z" fill="#4B5563"/>
<path d="M57.9948 75.084C58.3647 75.084 58.6567 74.7909 58.6567 74.4392C58.6567 74.0875 58.3647 73.7944 57.9948 73.7944C57.6445 73.7944 57.3525 74.0875 57.3525 74.4392C57.3525 74.7909 57.6445 75.084 57.9948 75.084Z" fill="#4B5563"/>
<path d="M62.9978 75.0449C63.3676 75.0449 63.6596 74.7713 63.6596 74.4001C63.6596 74.0484 63.3676 73.7553 62.9978 73.7553C62.6474 73.7553 62.3359 74.0484 62.3359 74.4001C62.3359 74.7713 62.6474 75.0449 62.9978 75.0449Z" fill="#4B5563"/>
<path d="M58.0143 76.4908C58.3258 76.4908 58.5788 76.2368 58.5788 75.9241C58.5788 75.6115 58.3258 75.338 58.0143 75.338C57.6834 75.338 57.4303 75.6115 57.4303 75.9241C57.4303 76.2368 57.6834 76.4908 58.0143 76.4908Z" fill="#4B5563"/>
<path d="M62.9978 76.4517C63.3092 76.4517 63.5818 76.1977 63.5818 75.8851C63.5818 75.5724 63.3092 75.3184 62.9978 75.3184C62.6668 75.3184 62.4138 75.5724 62.4138 75.8851C62.4138 76.1977 62.6668 76.4517 62.9978 76.4517Z" fill="#4B5563"/>
<path d="M51.0258 69.0074L51.0258 70.5314C50.3639 69.9843 50.2666 69.7499 50.1303 69.0269L51.0258 69.0074Z" fill="#4B5563"/>
<path d="M72.5753 68.3626C76.4297 68.8315 76.7996 75.3184 72.6143 76.2368C71.4453 76.4124 70.3088 76.0435 69.169 75.6735C67.5186 75.1377 65.8611 74.5997 64.0879 75.7092C64.1463 75.5138 63.9322 75.2794 63.757 75.2012C64.2631 74.7323 64.2826 74.0875 63.8348 73.6772C64.2826 73.345 64.3215 72.4853 63.8543 72.075C64.3215 71.6842 64.2826 70.9613 63.8932 70.6291C63.9023 70.6215 63.9118 70.6141 63.9217 70.6066C63.9365 70.5954 63.9522 70.5843 63.9684 70.5728C64.0804 70.493 64.216 70.3965 64.2631 70.1602C65.0807 71.1957 67.3194 71.1371 69.4412 69.6717C70.8623 69.6326 72.0108 69.0269 72.5753 68.3626Z" fill="#4B5563"/>
<path d="M49.2543 68.9292C49.5269 70.1211 50.5586 71.1567 51.6877 71.5084L51.7071 69.8475C52.9919 70.6096 55.2306 71.098 56.7295 70.1406C56.749 70.3556 56.9047 70.5119 57.1189 70.6096C56.6127 71.059 56.6906 71.6451 57.1189 72.075C56.6711 72.4071 56.7101 73.2864 57.1578 73.6185C56.7101 73.9898 56.5349 74.7713 57.2162 75.2403C57.0215 75.2989 56.8269 75.4357 56.8463 75.8069C55.0811 74.1982 53.2315 74.8269 51.3613 75.4626C49.8697 75.9696 48.365 76.481 46.8794 75.8655C43.901 74.2047 45.2247 67.3857 49.2543 68.9292Z" fill="#4B5563"/>
<path d="M50.8117 67.2879C51.6682 67.1903 51.4541 68.2454 50.8506 68.1477H49.1765C48.5146 68.2258 48.2421 67.2489 49.1181 67.2879H50.8117Z" fill="#4B5563"/>
<path d="M50.8895 65.9984C51.7266 65.9202 51.5319 66.9753 50.9285 66.8776H49.2349C48.573 66.9362 48.3005 65.9788 49.1765 65.9984H50.8895Z" fill="#4B5563"/>
<path d="M50.8895 64.7479C51.7266 64.6502 51.5319 65.7053 50.9285 65.6076H49.2349C48.573 65.6662 48.3005 64.7088 49.1765 64.7479H50.8895Z" fill="#4B5563"/>
<path d="M50.8895 63.4583C51.7266 63.3606 51.5319 64.4157 50.9285 64.318H49.2349C48.573 64.3962 48.3005 63.4388 49.1765 63.4583H50.8895Z" fill="#4B5563"/>
<path d="M71.5436 64.0836C71.6215 64.2008 71.5241 64.4548 71.4268 64.5916C70.9791 64.5525 70.6287 64.572 70.4146 65.0019C70.2004 64.5916 69.0714 64.5525 68.721 65.0019C68.2148 64.533 67.4362 64.4744 67.0858 65.0801C66.8716 64.8456 66.6186 64.6502 66.3071 64.6502C66.1124 64.5525 66.0735 64.2594 66.0735 64.0836H71.5436Z" fill="#4B5563"/>
<path fill-rule="evenodd" clip-rule="evenodd" d="M61.9076 61.9929C62.1464 62.1225 62.5692 62.2413 63.0348 62.3721C63.9737 62.636 65.0868 62.9488 65.217 63.4974L65.3532 64.7088C65.1002 64.9433 64.8471 65.3731 64.8471 65.8421C65.0807 67.4443 66.5796 68.8511 67.7671 69.4568C67.0274 69.9452 65.5674 70.336 64.7108 69.4568C64.1268 68.6752 62.7836 68.343 62.1023 68.8315C60.9732 69.6131 60.798 69.8085 60.4866 70.9417C60.253 70.1211 59.8247 68.9683 58.9292 68.7924C58.2868 68.4212 57.3135 68.558 56.3402 69.3786C55.6394 69.9648 55.0554 69.8671 54.4325 69.7303C54.4909 69.1441 54.6661 67.581 55.0359 66.9949C56.4163 64.6794 59.3028 63.2673 61.6972 62.0959L61.7082 62.0905C61.7751 62.0578 61.8416 62.0253 61.9076 61.9929ZM60.5644 66.9167C60.9148 66.9167 61.2263 66.6236 61.2263 66.2719C61.2263 65.9202 60.9148 65.6271 60.5644 65.6271C60.1946 65.6271 59.9026 65.9202 59.9026 66.2719C59.9026 66.6236 60.1946 66.9167 60.5644 66.9167Z" fill="#4B5563"/>
<path d="M52.9335 62.5009C52.877 63.0225 52.9156 63.5441 52.9546 64.0714C53.05 65.3614 53.148 66.6857 51.8629 68.1281C52.1354 67.5615 51.9213 67.1707 51.5903 67.0535C52.077 66.7409 52.2133 66.1352 51.7266 65.7835C52.0965 65.5295 52.1159 64.7284 51.7071 64.5134C51.9734 64.2843 52.0074 63.9713 52.0406 63.6654C52.0753 63.3453 52.1092 63.033 52.4079 62.8331C52.5831 62.6377 52.7194 62.54 52.9141 62.5009H52.9335Z" fill="#4B5563"/>
<path d="M59.8636 61.3091L60.837 61.7389C60.656 61.8346 60.4753 61.9291 60.2953 62.0233C59.0424 62.6786 57.8213 63.3173 56.749 64.2399C55.0165 65.5099 53.7317 68.5189 53.4397 69.6326C53.0893 69.6522 52.8362 69.4958 52.5247 69.2223C52.6221 66.311 55.581 63.4583 57.4303 62.4423C58.209 61.9929 58.9487 61.6217 59.8636 61.3091Z" fill="#4B5563"/>
<path d="M49.8967 62.0125H51.0063L51.0063 62.6963H49.8967L49.8967 62.0125Z" fill="#4B5563"/>
<path fill-rule="evenodd" clip-rule="evenodd" d="M58.2868 47.2215C59.9999 47.2215 60.5644 48.0226 60.5644 48.5111C60.5644 48.0226 61.1874 47.2215 62.9394 47.2215H65.7036C65.8983 48.2375 65.7815 49.449 65.4116 50.6017C64.9798 51.4324 64.2598 51.9961 63.5248 52.5714C63.0669 52.9299 62.6032 53.293 62.1996 53.728C61.1874 55.1543 61.3626 58.007 61.674 58.7495C62.1023 59.8241 63.718 60.4103 64.7108 60.4298C65.7231 60.4298 67.9618 61.055 67.9618 63.2043L65.9762 63.1848C65.7309 62.4008 64.6595 62.106 63.3825 61.7545C61.9224 61.3527 60.1935 60.8769 59.1239 59.5115C58.6613 58.5934 58.6984 57.5386 58.7353 56.4886C58.7667 55.5944 58.798 54.7036 58.5204 53.9038C58.1743 53.2684 57.8246 52.993 57.4505 52.6984C56.962 52.3138 56.432 51.8965 55.8146 50.6017C55.4058 49.8007 55.2501 48.6088 55.4058 47.2215H58.2868ZM58.7151 48.6479C59.1239 48.726 59.3964 49.3513 59.3575 49.7225C58.6372 49.7616 57.8196 49.7616 57.333 49.5271C57.0605 49.3317 56.8463 48.8823 56.8463 48.5697C56.8659 48.5697 56.8864 48.5697 56.9078 48.5696C56.9271 48.5696 56.9471 48.5695 56.9678 48.5694L57.0619 48.569C57.6011 48.5666 58.4608 48.5628 58.7151 48.6479ZM62.4527 48.6479C62.0244 48.726 61.7519 49.3513 61.7908 49.7225C62.5111 49.7616 63.3287 49.7616 63.8154 49.5271C64.1074 49.3317 64.3215 48.8823 64.302 48.5697C64.2393 48.5697 64.1665 48.5694 64.0868 48.569H64.0864C63.5474 48.5666 62.69 48.5628 62.4527 48.6479Z" fill="#4B5563"/>
<path d="M60.5255 82.411C59.7079 81.4536 59.0266 81.141 57.0021 80.9456C55.7757 80.8238 53.9057 80.8159 52.091 80.8083H52.0902C50.9957 80.8037 49.9215 80.7992 49.0207 80.7698C47.3077 80.7307 46.1981 80.1445 46.0229 78.3665C46.9833 79.1146 48.8197 79.0259 50.8638 78.927C51.5957 78.8916 52.3543 78.855 53.1087 78.855C53.4674 78.8528 53.8271 78.8478 54.1842 78.8428L54.1851 78.8428C57.0644 78.8027 59.7809 78.7648 60.5255 80.2422C61.2528 78.7648 63.9673 78.8027 66.8464 78.8428L66.8471 78.8428C67.2043 78.8478 67.564 78.8528 67.9228 78.855C68.6766 78.855 69.4358 78.8916 70.169 78.9269C72.2195 79.0258 74.0674 79.1149 75.0281 78.3665C74.8335 80.1445 73.7239 80.7307 72.0108 80.7698C71.1099 80.7992 70.0326 80.8037 68.9356 80.8083C67.1169 80.8159 65.2437 80.8238 64.0295 80.9456C62.005 81.141 61.3236 81.4536 60.5255 82.411Z" fill="#4B5563"/>
<path fill-rule="evenodd" clip-rule="evenodd" d="M60.4087 28.4837C78.0844 28.4837 92.4118 42.8643 92.4118 60.6057C92.4118 78.347 78.0844 92.7276 60.4087 92.7276C42.7525 92.7276 28.4251 78.347 28.4251 60.6057C28.4251 42.8643 42.7525 28.4837 60.4087 28.4837ZM69.1492 37.4521C70.6871 37.4521 71.9719 38.2336 72.8868 39.2692C73.8407 40.2461 74.3468 41.9656 73.9964 43.4505C72.9841 42.5322 71.6409 42.4736 70.3756 42.9034L70.9402 43.685L71.9329 43.0207C71.9993 43.1317 72.0767 43.2285 72.1516 43.3223C72.3405 43.5588 72.5143 43.7762 72.4585 44.1539C73.1788 43.8804 73.9769 44.5447 73.6071 45.0722C74.4247 44.7987 74.6388 45.4826 74.5415 45.7561C75.0087 45.7366 75.4175 46.0883 75.3007 46.5963C75.8263 46.479 75.982 46.948 75.8847 47.456C75.3785 48.6869 74.7751 49.7225 73.0425 50.1524L73.9964 50.6017C73.4513 52.0281 72.4975 53.259 71.4268 53.6498C73.5876 55.6819 74.9113 58.2024 75.0087 62.3642C75.0476 63.8686 74.5999 66.6627 73.1593 67.7764C74.8529 68.2454 76.566 70.0039 76.5076 72.3485C76.4881 73.091 76.2935 73.8726 75.9236 74.7713C74.9308 77.0769 72.4391 77.2723 70.4729 76.9206C69.8437 76.8095 69.251 76.6301 68.6752 76.4558C67.3271 76.0478 66.071 75.6676 64.6524 76.2563C64.5252 76.3283 64.3942 76.4113 64.2593 76.4967C63.5893 76.9211 62.8249 77.4053 61.966 76.9011C61.0706 76.2758 60.8564 75.8851 60.4866 74.9277C60.0972 75.846 59.8636 76.1977 59.0266 76.8034C58.0727 77.5263 56.8658 76.8425 56.2818 76.2563C54.8447 75.2096 53.3411 75.8057 51.8851 76.383C51.1124 76.6894 50.3531 76.9904 49.6242 77.0379C45.692 77.5068 44.2904 75.0449 44.3098 72.5244C44.3293 70.3165 45.4194 68.0695 47.6581 68.05C46.9962 67.2684 46.1981 66.1742 45.945 64.5525C45.2247 60.1563 45.692 57.4208 49.7215 53.4153C48.8455 53.0246 47.7554 52.2626 46.9573 50.4845C48.3589 49.6443 48.5535 49.2145 48.573 49.1168C47.2687 47.964 46.6458 46.1664 47.0351 44.3688C47.1519 43.8999 47.3661 43.5873 47.697 43.2747C47.9501 43.177 48.3978 43.0402 48.573 43.3919C48.9429 42.962 49.5853 42.9425 49.8773 43.3724C50.2277 42.9425 50.7922 42.9816 51.1621 43.4701C51.3178 42.9816 52.3885 42.8643 52.4079 44.0171C52.661 43.3919 53.5759 43.216 54.0821 43.2747C54.0597 43.333 54.0353 43.3861 54.0113 43.4386C53.9304 43.6148 53.8529 43.7836 53.8679 44.1148C53.8875 44.4876 53.8825 44.8456 53.8776 45.1963L53.8776 45.1965C53.8728 45.5442 53.868 45.8846 53.8874 46.225H54.4519C54.5298 44.0562 55.1527 42.2586 58.0922 40.93C58.3638 40.8112 58.6454 40.7173 58.9351 40.6208C59.4553 40.4475 60.0018 40.2653 60.5644 39.914C61.0292 40.2028 61.5066 40.3653 61.9715 40.5236C62.3244 40.6437 62.6702 40.7614 62.9978 40.93C66.1903 42.6103 66.5407 43.8999 66.638 46.186L68.5847 46.3813C68.4881 45.761 68.7364 45.5446 69.4628 44.9116L69.4801 44.8964L66.3266 41.0863L67.7282 39.9335L68.9351 41.184C69.4412 40.6174 69.7722 39.406 69.5386 38.5658C69.5277 38.5043 69.5196 38.4414 69.5113 38.3772C69.4747 38.0948 69.4347 37.7864 69.1492 37.4521ZM60.5255 83.7397C59.762 81.6124 55.7847 81.7814 52.5128 81.9205C50.9464 81.9871 49.5417 82.0468 48.7287 81.8444C45.7874 81.1145 45.5295 79.5495 45.2482 77.8428C45.1907 77.4938 45.1322 77.1388 45.0495 76.7838C46.6771 78.4608 48.8906 78.2552 51.2646 78.0349C52.0992 77.9574 52.9537 77.878 53.8095 77.878C54.2345 77.878 54.6815 77.8667 55.1358 77.8552C57.2826 77.8008 59.5936 77.7422 60.5255 78.855C61.4413 77.7423 63.7493 77.8008 65.8956 77.8552L65.896 77.8552C66.3502 77.8667 66.7971 77.878 67.222 77.878C68.0892 77.878 68.9239 77.9595 69.7279 78.0379C71.9742 78.2571 73.9811 78.4529 75.7873 76.7838C75.7637 76.9928 75.7451 77.2115 75.726 77.436C75.5716 79.2467 75.3858 81.4272 72.3028 81.8444C71.5902 81.942 70.4524 81.8892 69.1565 81.8292C65.7792 81.6726 61.3274 81.4663 60.5255 83.7397ZM54.0431 42.962C54.3935 42.962 54.705 42.669 54.705 42.2977C54.705 41.946 54.3935 41.6529 54.0431 41.6529C53.6733 41.6529 53.3813 41.946 53.3813 42.2977C53.3813 42.669 53.6733 42.962 54.0431 42.962ZM53.9458 41.3012C54.3157 41.3012 54.6077 41.0082 54.6077 40.6565C54.6077 40.2852 54.3157 39.9921 53.9458 39.9921C53.5954 39.9921 53.2839 40.2852 53.2839 40.6565C53.2839 41.0082 53.5954 41.3012 53.9458 41.3012ZM53.0893 39.7186C53.4397 39.7186 53.7511 39.4255 53.7511 39.0738C53.7511 38.7221 53.4397 38.429 53.0893 38.429C52.7194 38.429 52.4274 38.7221 52.4274 39.0738C52.4274 39.4255 52.7194 39.7186 53.0893 39.7186ZM51.5319 38.9956C51.9018 38.9956 52.2133 38.7026 52.2133 38.3509C52.2133 37.9796 51.9018 37.6865 51.5319 37.6865C51.1815 37.6865 50.8895 37.9796 50.8895 38.3509C50.8895 38.7026 51.1815 38.9956 51.5319 38.9956ZM49.6242 38.9175C49.9941 38.9175 50.2861 38.6244 50.2861 38.2727C50.2861 37.921 49.9941 37.6279 49.6242 37.6279C49.2738 37.6279 48.9623 37.921 48.9623 38.2727C48.9623 38.6244 49.2738 38.9175 49.6242 38.9175ZM48.0669 39.914C48.4173 39.914 48.7287 39.6209 48.7287 39.2692C48.7287 38.898 48.4173 38.6049 48.0669 38.6049C47.697 38.6049 47.405 38.898 47.405 39.2692C47.405 39.6209 47.697 39.914 48.0669 39.914ZM47.0741 41.3989C47.4439 41.3989 47.7554 41.0863 47.7554 40.7346C47.7554 40.3829 47.4439 40.0898 47.0741 40.0898C46.7237 40.0898 46.4317 40.3829 46.4317 40.7346C46.4317 41.0863 46.7237 41.3989 47.0741 41.3989ZM47.1909 43.1184C47.5413 43.1184 47.8333 42.8253 47.8333 42.4736C47.8333 42.1219 47.5413 41.8092 47.1909 41.8092C46.821 41.8092 46.529 42.1219 46.529 42.4736C46.529 42.8253 46.821 43.1184 47.1909 43.1184Z" fill="#4B5563"/>
<path fill-rule="evenodd" clip-rule="evenodd" d="M94.5726 60.6056C94.5726 41.6724 79.2719 26.3149 60.4087 26.3149C41.5456 26.3149 26.2448 41.6724 26.2448 60.6056C26.2448 79.5388 41.5456 94.8963 60.4087 94.8963C79.2719 94.8963 94.5726 79.5388 94.5726 60.6056ZM93.4241 60.6056C93.4241 42.3172 78.6489 27.4677 60.4087 27.4677C42.188 27.4677 27.4128 42.3172 27.4128 60.6056C27.4128 78.894 42.188 93.7435 60.4087 93.7435C78.6489 93.7435 93.4241 78.894 93.4241 60.6056Z" fill="#4B5563"/>
<path d="M50.7922 97.456L48.9429 97.8663L48.9623 98.0421C49.2349 97.9835 49.4101 97.9835 49.5269 98.0226C49.6242 98.0226 49.6826 98.0812 49.7215 98.1398C49.7799 98.1985 49.8189 98.2962 49.7994 98.4134C49.7994 98.5697 49.741 98.8823 49.6242 99.3708L48.7093 103.064C48.6119 103.454 48.5146 103.708 48.4757 103.787C48.4173 103.845 48.3199 103.904 48.2226 103.923C48.1253 103.943 47.8917 103.923 47.5802 103.845L47.5218 104.041L50.0914 104.685L50.1303 104.49C49.8383 104.412 49.6242 104.334 49.5463 104.256C49.449 104.177 49.4101 104.08 49.4101 103.982C49.3939 103.901 49.4315 103.725 49.4895 103.454C49.5012 103.4 49.5138 103.341 49.5269 103.279L50.9674 97.5146L50.7922 97.456Z" fill="#4B5563"/>
<path fill-rule="evenodd" clip-rule="evenodd" d="M54.413 105.623L54.3935 105.799L54.705 105.819C55.3474 105.897 55.9703 105.76 56.5348 105.447C57.2551 105.057 57.8391 104.549 58.2674 103.904C58.7151 103.279 58.9682 102.556 59.0266 101.774C59.1239 100.914 58.9292 100.172 58.4815 99.5466C58.1116 99.0386 57.6444 98.7455 57.0799 98.7065C56.3986 98.6283 55.8146 98.8823 55.3474 99.4294C54.958 99.8788 54.7244 100.406 54.666 101.012C54.6271 101.637 54.7634 102.165 55.0748 102.575C55.3863 102.985 55.7951 103.2 56.2818 103.259C56.71 103.279 57.2162 103.161 57.7807 102.868C57.586 103.454 57.294 103.982 56.8852 104.451C56.4959 104.92 56.0871 105.232 55.6783 105.408C55.289 105.565 54.8607 105.643 54.413 105.623ZM58.0727 101.422C58.0532 101.696 57.9948 102.048 57.8975 102.497C57.7223 102.614 57.5276 102.692 57.294 102.751C57.0799 102.81 56.8852 102.829 56.7295 102.81C56.3986 102.79 56.1455 102.614 55.9508 102.302C55.6783 101.872 55.581 101.286 55.6394 100.563C55.6783 100.016 55.834 99.6248 56.0871 99.3708C56.3402 99.0972 56.6322 98.9995 56.9242 99.0191C57.1967 99.0582 57.4108 99.1754 57.6055 99.4099C57.8002 99.6248 57.9364 99.9179 58.0143 100.328C58.0922 100.719 58.1116 101.09 58.0727 101.422Z" fill="#4B5563"/>
<path d="M66.1124 105.799L66.5407 104.412L66.346 104.431C66.2681 104.588 66.1708 104.724 66.054 104.803C65.9372 104.9 65.8009 104.959 65.6647 104.998C65.5089 105.037 65.2559 105.057 64.886 105.076L63.0562 105.174C63.2461 104.983 63.7326 104.402 64.5157 103.466L64.5745 103.396C65.1001 102.731 65.4895 102.126 65.7231 101.559C65.8593 101.188 65.9177 100.836 65.9177 100.485C65.8788 99.9765 65.6647 99.5662 65.2753 99.2145C64.886 98.8628 64.3993 98.7065 63.8348 98.7455C63.2897 98.7651 62.8615 98.9605 62.5111 99.3317C62.1802 99.6834 61.9855 100.191 61.9271 100.817H62.1218C62.2386 100.426 62.4137 100.113 62.6863 99.8983C62.9393 99.6834 63.2508 99.5662 63.5817 99.5466C63.9711 99.5271 64.302 99.6639 64.5745 99.9374C64.886 100.211 65.0223 100.543 65.0417 101.012C65.0807 101.598 64.8665 102.243 64.4188 102.966C63.9516 103.689 63.134 104.646 62.005 105.819L62.005 106.014L66.1124 105.799Z" fill="#4B5563"/>
<path fill-rule="evenodd" clip-rule="evenodd" d="M69.1297 99.6053C69.0129 100.23 69.0519 100.914 69.2271 101.696C69.4412 102.614 69.7916 103.357 70.3172 103.923C70.9207 104.588 71.5631 104.861 72.2055 104.685C72.5364 104.627 72.8479 104.431 73.1399 104.08C73.4513 103.767 73.6265 103.298 73.7433 102.673C73.8212 102.067 73.8017 101.364 73.6265 100.582C73.354 99.4489 72.8868 98.6088 72.2249 98.0617C71.6799 97.6318 71.1348 97.456 70.6092 97.5928C70.2977 97.6514 70.0057 97.8468 69.7721 98.1398C69.4412 98.4915 69.2271 98.98 69.1297 99.6053ZM71.1153 103.826C70.7455 103.298 70.4729 102.536 70.2393 101.598C70.1031 101.012 70.0252 100.406 69.9668 99.8006C69.9084 99.1754 69.9668 98.7065 70.142 98.3743C70.2977 98.1203 70.4535 97.964 70.6871 97.9249C70.8817 97.8663 71.0764 97.8858 71.2321 97.964C71.4657 98.1008 71.6799 98.3352 71.894 98.6869C72.1665 99.1754 72.4001 99.8006 72.5753 100.582C72.8284 101.637 72.9257 102.477 72.9063 103.083C72.8868 103.493 72.8089 103.787 72.6532 104.002C72.4975 104.216 72.3417 104.334 72.1471 104.373C71.7772 104.47 71.4268 104.275 71.1153 103.826Z" fill="#4B5563"/>
<path fill-rule="evenodd" clip-rule="evenodd" d="M60.4087 10.7815C88.0124 10.7815 110.418 33.1731 110.418 60.7815C110.418 88.3899 88.0124 110.781 60.4087 110.781C32.8051 110.781 10.4185 88.3899 10.4185 60.7815C10.4185 33.1731 32.8051 10.7815 60.4087 10.7815ZM60.4087 12.2078C87.2337 12.2078 108.978 33.9546 108.978 60.7815C108.978 87.6084 87.2337 109.355 60.4087 109.355C33.6032 109.355 11.859 87.6084 11.859 60.7815C11.859 33.9546 33.6032 12.2078 60.4087 12.2078Z" fill="#4B5563"/>
</svg>
