<svg width="512" height="512" viewBox="0 0 512 512" fill="none" xmlns="http://www.w3.org/2000/svg"><style>#primary{stroke:#10b981}#secondary{stroke:#34d399;fill:#34d399}@media (prefers-color-scheme:dark){#primary{stroke:#6ee7b7}#secondary{stroke:#fff;fill:#fff}}</style><path id="primary" d="M213.334 101.533c21.334-53.333 86.815-61.755 122.667-42.666 35.851 19.09 47.999 58.865 37.332 95.999-10.666 37.135-53.897 55.447-87.582 74.006-42.105 23.199-70.067 69.005-63.483 117.734" stroke-width="64" stroke-linecap="round"/><path id="secondary" d="M154.289 428.329c22.279 31.349 70.417 35.248 98.126 22.832" stroke-width="64" stroke-linecap="round"/><path id="secondary" d="M405.333 304.2c0 23.564-19.102 42.667-42.666 42.667-23.564 0-42.667-19.103-42.667-42.667s19.103-42.667 42.667-42.667 42.666 19.103 42.666 42.667ZM192 218.866c0 23.565-19.103 42.667-42.667 42.667s-42.666-19.102-42.666-42.667c0-23.564 19.102-42.666 42.666-42.666 23.564 0 42.667 19.102 42.667 42.666Z"/></svg>